<svg xmlns="http://www.w3.org/2000/svg" xmlns:xlink="http://www.w3.org/1999/xlink" width="354.7" height="389.072" viewBox="-22.450000000000003 -21.072 354.7 389.072">
<rect x="-22.450000000000003" y="-21.072" width="354.7" height="389.072" fill="white" />
<rect x="0" y="0" width="48" height="48" fill="white" fill-opacity="1"></rect>
<svg  width="48"  height="48" viewBox="0 0 128 128" xmlns="http://www.w3.org/2000/svg" x="0" y="0">
    <defs>
        <radialGradient id="k" cx="12.576" cy="67.502" r="8.766" fx="12.576" fy="67.502" gradientUnits="userSpaceOnUse" gradientTransform="matrix(1.9258 0 0 0.51926 0 0)">
            <stop offset="0" stop-color="#000000"/>
            <stop offset="1" stop-color="#000000" stop-opacity="0"/>
        </radialGradient>
        <linearGradient id="l" x1="18.317" y1="48.643" x2="18.177" y2="52.536" gradientUnits="userSpaceOnUse" gradientTransform="matrix(2.92602 0 0 3.08214 4.2 -59.215)">
            <stop offset="0" stop-color="#dde1d9"/>
            <stop offset="1" stop-color="#cacdc6"/>
        </linearGradient>
        <linearGradient id="m" x1="8.113" y1="88.509" x2="8.113" y2="100.2" gradientUnits="userSpaceOnUse" gradientTransform="matrix(5.8295 0 0 1.05218 3.72 -32.149)">
            <stop offset="0" stop-color="#9d9d9d"/>
            <stop offset="1" stop-color="#b9b9b9"/>
        </linearGradient>
        <linearGradient id="n" x1="8.113" y1="88.509" x2="8.113" y2="100.2" gradientUnits="userSpaceOnUse" gradientTransform="matrix(5.8295 0 0 1.05218 3.72 -32.149)">
            <stop offset="0" stop-color="#9d9d9d"/>
            <stop offset="1" stop-color="#b9b9b9"/>
        </linearGradient>
        <linearGradient id="o" x1="13.629" y1="101.285" x2="8.649" y2="74.098" gradientUnits="userSpaceOnUse" gradientTransform="matrix(5.55139 0 0 1.62453 6.79 -60.987)">
            <stop offset="0" stop-color="#f9fff5"/>
            <stop offset="1" stop-color="#f9fff5" stop-opacity="0"/>
        </linearGradient>
        <linearGradient id="p" x1="8.612" y1="7.229" x2="34.784" y2="33.34" gradientUnits="userSpaceOnUse" gradientTransform="matrix(-2.9894 0 0 -1.62076 123.233 71.981)">
            <stop offset="0" stop-color="#dde1d9"/>
            <stop offset="1" stop-color="#cacdc6"/>
        </linearGradient>
        <linearGradient id="q" x1="-57.547" y1="38.653" x2="-57.495" y2="15.323" gradientUnits="userSpaceOnUse" gradientTransform="matrix(-2.21792 0 0 -1.46705 -89.237 80.97)">
            <stop offset="0" stop-color="#416db4"/>
            <stop offset="1" stop-color="#385e9b"/>
        </linearGradient>
        <linearGradient id="r" x1="3.707" y1="171.291" x2="3.707" y2="162.451" gradientUnits="userSpaceOnUse" gradientTransform="matrix(-15.09478 0 0 -0.32098 116.287 70.837)">
            <stop offset="0" stop-color="#000000"/>
            <stop offset="1" stop-color="#000000" stop-opacity="0"/>
        </linearGradient>
        <linearGradient id="s" x1="17.698" y1="13.005" x2="34.975" y2="55.201" gradientUnits="userSpaceOnUse" gradientTransform="matrix(-2.93174 0 0 -1.65264 116.287 67.761)">
            <stop offset="0" stop-color="#ffffff"/>
            <stop offset="1" stop-color="#ffffff" stop-opacity="0"/>
        </linearGradient>
        <linearGradient id="t" x1="11.492" y1="1.654" x2="17.199" y2="26.729" gradientUnits="userSpaceOnUse" gradientTransform="matrix(-3.59362 0 0 -1.6407 119.234 72.031)">
            <stop offset="0" stop-color="#ffffff"/>
            <stop offset="1" stop-color="#fcfcff" stop-opacity="0"/>
        </linearGradient>
        <linearGradient id="u" x1="34.301" y1="3.938" x2="35.521" y2="3.845" gradientUnits="userSpaceOnUse">
            <stop offset="0" stop-color="#909090"/>
            <stop offset="1" stop-color="#bebebe" stop-opacity="0"/>
        </linearGradient>
        <linearGradient id="v" x1="34.301" y1="3.938" x2="35.521" y2="3.845" gradientUnits="userSpaceOnUse">
            <stop offset="0" stop-color="#909090"/>
            <stop offset="1" stop-color="#bebebe" stop-opacity="0"/>
        </linearGradient>
    </defs>
    <path fill="url(#k)" fill-rule="evenodd" stroke="none" transform="matrix(3.72461 0 0 6.21177 -26.293 -124.758)" d="M 41.1 35.051 C 41.1 37.56500018123 33.54167114664 39.603 24.218 39.603 C 14.89432885336 39.603 7.336 37.56500018123 7.336 35.051 C 7.336 32.53692536076 14.89455271098 30.49886518185 24.2185 30.49886518185 C 33.54244728902 30.49886518185 41.101 32.53692536076 41.101 35.051 Z"/>
    <path fill="url(#l)" fill-rule="evenodd" stroke="none" d="M 20.936 68.998 L 101.223 68.998 C 104.122 68.998 103.754 69.944 104.052 71.132 L 111.392 100.471 C 111.69 101.66 111.462 102.605 108.564 102.605 L 13.595 102.605 C 10.697 102.605 10.469 101.66 10.767 100.471 L 18.107 71.132 C 18.405 69.944 18.037 68.998 20.936 68.998 Z"/>
    <path fill="#7a7d77" fill-rule="evenodd" stroke="none" transform="matrix(1.25044 0 0 1.43287 -1.836 -13.15)" d="M 19.85 62.22 L 15.39 74.68 L 29.22 74.68 L 30.558 69.739 L 68.034 69.739 L 69.421 74.782 L 84.987 74.782 L 80.75 62.22 L 19.851 62.22 Z"/>
    <path fill="#777874" fill-rule="evenodd" stroke="none" transform="matrix(1.25044 0 0 1.43287 -1.836 -13.15)" d="M 31.674 70.598 L 30.558 74.68 L 67.811 74.68 L 66.696 70.383 L 31.674 70.598 Z"/>
    <path fill="url(#m)" fill-rule="evenodd" stroke="none" transform="matrix(1.25044 0 0 1.43287 -1.836 -13.15)" d="M 19.85 60.717 L 15.39 73.177 L 29.22 73.177 L 30.558 68.235 L 68.034 68.235 L 69.421 73.279 L 84.987 73.279 L 80.75 60.717 L 19.851 60.717 Z"/>
    <path fill="url(#n)" fill-rule="evenodd" stroke="none" transform="matrix(1.25044 0 0 1.43287 -1.836 -13.15)" d="M 31.674 69.31 L 30.558 73.39 L 67.811 73.39 L 66.696 69.095 L 31.674 69.309 Z"/>
    <path fill="none" stroke="url(#o)" stroke-width="1.9266727" stroke-linejoin="round" d="M 20.07 71.647 L 102.49 71.647 L 109.32 99.829 L 12.823 99.829 L 20.069 71.647 Z"/>
    <path fill="url(#p)" fill-rule="evenodd" stroke="none" d="M 100.199 66.488 L 21.914 66.488 C 19.502 66.488 17.616 65.419 17.504 63.921 L 13.979 17.081 C 13.825 15.034 16.363 13.381 19.325 13.381 L 102.787 13.381 C 105.749 13.381 108.287 15.034 108.133 17.081 L 104.608 63.921 C 104.502 65.337 103.16 66.488 100.198 66.488 Z"/>
    <path fill="url(#q)" fill-rule="evenodd" stroke="#4263a8" stroke-width="1.48494709" stroke-linejoin="round" d="M 96.396 61.671 L 99.931 20.173 L 21.24 20.173 L 25.04 61.495 L 96.395 61.671 Z"/>
    <path fill="none" stroke="url(#r)" stroke-opacity="0.24840764" stroke-width="2.81360888" stroke-linecap="round" d="M 102.589 16.97 L 19.435 16.97"/>
    <path fill="none" stroke="url(#s)" stroke-opacity="0.70063692" stroke-width="2.82439375" d="M 100.639 64.637 L 21.673 64.706 C 20.923 64.706 20.193 64.271 20.133 63.511 L 16.529 18.091 C 16.376 16.155 17.958 14.82 20.759 14.82 L 101.519 14.82 C 104.32 14.82 105.734 16.154 105.583 18.09 L 102.079 62.945 C 101.977 64.255 101.639 64.635 100.639 64.637 Z"/>
    <g opacity="0.53142856">
        <path fill="url(#t)" fill-rule="evenodd" stroke="none" d="M 95.68 60.9 L 98.008 28.176 C 65.973 32.572 64.88 47.39 25.048 52.251 L 25.518 60.78 L 95.68 60.9 Z"/>
    </g>
    <path fill="url(#u)" fill-rule="evenodd" stroke="none" transform="matrix(-3.5222 0 0 -1.20578 196.946 76.695)" d="M 35.62 3.938 C 35.63059152316 4.24483444704 35.47294058943 4.53300457778 35.20883905063 4.68956107063 C 34.94473751182 4.84611756347 34.61626248818 4.84611756347 34.35216094937 4.68956107063 C 34.08805941057 4.53300457778 33.93040847684 4.24483444704 33.941 3.938 C 33.941 3.47408081014 34.31708081014 3.098 34.781 3.098 C 35.24491918986 3.098 35.621 3.47408081014 35.621 3.938 Z"/>
    <path fill="url(#v)" fill-rule="evenodd" stroke="none" transform="matrix(-3.5222 0 0 -1.20578 204.252 76.695)" d="M 35.62 3.938 C 35.63059152316 4.24483444704 35.47294058943 4.53300457778 35.20883905063 4.68956107063 C 34.94473751182 4.84611756347 34.61626248818 4.84611756347 34.35216094937 4.68956107063 C 34.08805941057 4.53300457778 33.93040847684 4.24483444704 33.941 3.938 C 33.941 3.47408081014 34.31708081014 3.098 34.781 3.098 C 35.24491918986 3.098 35.621 3.47408081014 35.621 3.938 Z"/>
    <path fill="#339900" fill-rule="evenodd" stroke="none" transform="matrix(-3.5222 0 0 -1.20578 213.16 76.695)" d="M 35.62 3.938 C 35.63059152316 4.24483444704 35.47294058943 4.53300457778 35.20883905063 4.68956107063 C 34.94473751182 4.84611756347 34.61626248818 4.84611756347 34.35216094937 4.68956107063 C 34.08805941057 4.53300457778 33.93040847684 4.24483444704 33.941 3.938 C 33.941 3.47408081014 34.31708081014 3.098 34.781 3.098 C 35.24491918986 3.098 35.621 3.47408081014 35.621 3.938 Z"/>
    <path fill="#4a4a4a" stroke="none" d="M 58.707 16.069 L 59.452 16.069 C 59.674 16.069 59.844 16.103 59.962 16.172 C 60.07275676104 16.22574170267 60.1422207991 16.33891345007 60.14 16.462 C 60.14 16.589 60.08 16.686 59.962 16.754 C 59.844 16.822 59.674 16.856 59.452 16.856 L 59.156 16.856 L 59.156 17.274 L 58.706 17.274 L 58.706 16.07 M 59.156 16.295 L 59.156 16.632 L 59.404 16.632 C 59.47407349251 16.63587184891 59.54388510715 16.6206653586 59.606 16.588 C 59.65088540621 16.56259293069 59.67816576304 16.51456413345 59.677 16.463 C 59.67843968048 16.4118906153 59.65150291039 16.36417405115 59.607 16.339 C 59.54458967494 16.30615679997 59.47440796434 16.29094500063 59.404 16.295 L 59.156 16.295 M 61.252 16.273 C 61.13643907754 16.26578558455 61.02254421251 16.3033923796 60.934 16.378 C 60.85500873537 16.45555527884 60.8134373881 16.56349491737 60.82 16.674 C 60.82 16.8 60.858 16.899 60.934 16.969 C 61.02254421251 17.0436076204 61.13643907754 17.08121441545 61.252 17.074 C 61.368210087 17.08152940159 61.4828422225 17.04391573213 61.572 16.969 C 61.65046611474 16.89157670174 61.69166140771 16.78403146788 61.685 16.674 C 61.69182285892 16.56364819118 61.6506249452 16.45573153225 61.572 16.378 C 61.48279113533 16.30317609192 61.36819684049 16.26557483892 61.252 16.273 M 61.252 16.048 C 61.532 16.048 61.752 16.104 61.91 16.215 C 62.06364286391 16.3163026279 62.1537371457 16.49005588563 62.148 16.674 C 62.1533860982 16.85759283115 62.06333407889 17.03088621284 61.91 17.132 C 61.751 17.243 61.532 17.299 61.252 17.299 C 60.972 17.299 60.754 17.243 60.594 17.132 C 60.44066592111 17.03088621284 60.3506139018 16.85759283115 60.356 16.674 C 60.34991086028 16.48970481009 60.44004754061 16.31549105819 60.594 16.214 C 60.754 16.104 60.973 16.048 61.252 16.048 M 62.486 16.07 L 62.988 16.07 L 63.621 16.897 L 63.621 16.07 L 64.047 16.07 L 64.047 17.275 L 63.545 17.275 L 62.912 16.449 L 62.912 17.275 L 62.486 17.275 L 62.486 16.07 M 64.24 16.07 L 64.732 16.07 L 65.128 16.5 L 65.525 16.07 L 66.017 16.07 L 65.353 16.768 L 65.353 17.275 L 64.904 17.275 L 64.904 16.768 L 64.24 16.07"/>
</svg>


<rect x="-16.450000000000003" y="48" width="80.9" height="50" rx="0" ry="0" fill="white" fill-opacity="1" stroke="black" stroke-opacity="1" stroke-width="1"  />
<svg x="5.64" y="65.83" width="36.72" height="14.33">
<path d="M 7.76 5.856 L 3.12 5.856 L 3.12 11.024 L 1.6 11.024 L 1.6 0 L 3.12 0 L 3.12 4.608 L 7.76 4.608 L 7.76 0 L 9.28 0 L 9.28 11.024 L 7.76 11.024 L 7.76 5.856 Z" stroke="none" fill="black" fill-opacity="1" />
<path d="M 18.832 1.296 L 15.776 1.296 L 15.776 11.024 L 14.256 11.024 L 14.256 1.296 L 11.12 1.296 L 11.12 0 L 18.992 0 L 18.832 1.296 Z" stroke="none" fill="black" fill-opacity="1" />
<path d="M 27.104 1.296 L 24.048 1.296 L 24.048 11.024 L 22.528 11.024 L 22.528 1.296 L 19.392 1.296 L 19.392 0 L 27.264 0 L 27.104 1.296 Z" stroke="none" fill="black" fill-opacity="1" />
<path d="M 35.088 0.856 Q 36.208 1.712 36.208 3.408 Q 36.208 5.216 35.04 6.096 Q 33.872 6.976 31.936 6.976 L 30.544 6.976 L 30.544 11.024 L 29.024 11.024 L 29.024 0 L 31.92 0 Q 33.968 0 35.088 0.856 Z M 33.896 5.264 Q 34.592 4.752 34.592 3.424 Q 34.592 2.24 33.896 1.712 Q 33.2 1.184 31.904 1.184 L 30.544 1.184 L 30.544 5.776 L 31.872 5.776 Q 33.2 5.776 33.896 5.264 Z" stroke="none" fill="black" fill-opacity="1" /></svg>
<rect x="-16.450000000000003" y="98" width="80.9" height="50" rx="0" ry="0" fill="white" fill-opacity="1" stroke="black" stroke-opacity="1" stroke-width="1"  />
<svg x="11.52" y="115.46" width="24.96" height="15.08">
<path d="M 7.952 1.872 L 4.896 1.872 L 4.896 11.6 L 3.376 11.6 L 3.376 1.872 L 0.24 1.872 L 0.24 0.576 L 8.112 0.576 L 7.952 1.872 Z" stroke="none" fill="black" fill-opacity="1" />
<path d="M 11.392 10.272 L 15.92 10.272 L 15.744 11.6 L 9.872 11.6 L 9.872 0.576 L 11.392 0.576 L 11.392 10.272 Z" stroke="none" fill="black" fill-opacity="1" />
<path d="M 22.448 0.696 Q 23.232 1.008 23.968 1.664 L 23.136 2.592 Q 22.512 2.096 21.912 1.864 Q 21.312 1.632 20.624 1.632 Q 19.76 1.632 19.2 2.032 Q 18.64 2.432 18.64 3.2 Q 18.64 3.68 18.832 4.008 Q 19.024 4.336 19.544 4.608 Q 20.064 4.88 21.056 5.184 Q 22.096 5.504 22.784 5.872 Q 23.472 6.24 23.896 6.888 Q 24.32 7.536 24.32 8.528 Q 24.32 9.488 23.848 10.224 Q 23.376 10.96 22.488 11.376 Q 21.6 11.792 20.384 11.792 Q 18.096 11.792 16.64 10.368 L 17.488 9.424 Q 18.144 9.984 18.832 10.264 Q 19.52 10.544 20.368 10.544 Q 21.392 10.544 22.064 10.04 Q 22.736 9.536 22.736 8.576 Q 22.736 8.032 22.528 7.672 Q 22.32 7.312 21.816 7.024 Q 21.312 6.736 20.352 6.448 Q 18.656 5.936 17.872 5.216 Q 17.088 4.496 17.088 3.264 Q 17.088 2.432 17.528 1.776 Q 17.968 1.12 18.76 0.752 Q 19.552 0.384 20.56 0.384 Q 21.664 0.384 22.448 0.696 Z" stroke="none" fill="black" fill-opacity="1" /></svg>
<rect x="-16.450000000000003" y="148" width="80.9" height="50" rx="0" ry="0" fill="white" fill-opacity="1" stroke="black" stroke-opacity="1" stroke-width="1"  />
<svg x="10.98" y="165.46" width="26.05" height="15.08">
<path d="M 7.952 1.872 L 4.896 1.872 L 4.896 11.6 L 3.376 11.6 L 3.376 1.872 L 0.24 1.872 L 0.24 0.576 L 8.112 0.576 L 7.952 1.872 Z" stroke="none" fill="black" fill-opacity="1" />
<path d="M 14.92 0.64 Q 15.6 0.896 16.304 1.472 L 15.472 2.448 Q 14.464 1.632 13.344 1.632 Q 11.968 1.632 11.128 2.688 Q 10.288 3.744 10.288 6.08 Q 10.288 8.352 11.12 9.432 Q 11.952 10.512 13.328 10.512 Q 14.032 10.512 14.544 10.272 Q 15.056 10.032 15.664 9.584 L 16.432 10.56 Q 15.936 11.088 15.128 11.44 Q 14.32 11.792 13.28 11.792 Q 11.936 11.792 10.888 11.128 Q 9.84 10.464 9.256 9.176 Q 8.672 7.888 8.672 6.08 Q 8.672 4.272 9.28 2.984 Q 9.888 1.696 10.928 1.04 Q 11.968 0.384 13.248 0.384 Q 14.24 0.384 14.92 0.64 Z" stroke="none" fill="black" fill-opacity="1" />
<path d="M 24.416 1.432 Q 25.536 2.288 25.536 3.984 Q 25.536 5.792 24.368 6.672 Q 23.2 7.552 21.264 7.552 L 19.872 7.552 L 19.872 11.6 L 18.352 11.6 L 18.352 0.576 L 21.248 0.576 Q 23.296 0.576 24.416 1.432 Z M 23.224 5.84 Q 23.92 5.328 23.92 4 Q 23.92 2.816 23.224 2.288 Q 22.528 1.76 21.232 1.76 L 19.872 1.76 L 19.872 6.352 L 21.2 6.352 Q 22.528 6.352 23.224 5.84 Z" stroke="none" fill="black" fill-opacity="1" /></svg>
<rect x="-16.450000000000003" y="198" width="80.9" height="50" rx="0" ry="0" fill="white" fill-opacity="1" stroke="black" stroke-opacity="1" stroke-width="1"  />
<svg x="16.99" y="215.83" width="14.02" height="14.33">
<path d="M 3.12 11.024 L 1.6 11.024 L 1.6 0 L 3.12 0 L 3.12 11.024 Z" stroke="none" fill="black" fill-opacity="1" />
<path d="M 12.384 0.856 Q 13.504 1.712 13.504 3.408 Q 13.504 5.216 12.336 6.096 Q 11.168 6.976 9.232 6.976 L 7.84 6.976 L 7.84 11.024 L 6.32 11.024 L 6.32 0 L 9.216 0 Q 11.264 0 12.384 0.856 Z M 11.192 5.264 Q 11.888 4.752 11.888 3.424 Q 11.888 2.24 11.192 1.712 Q 10.496 1.184 9.2 1.184 L 7.84 1.184 L 7.84 5.776 L 9.168 5.776 Q 10.496 5.776 11.192 5.264 Z" stroke="none" fill="black" fill-opacity="1" /></svg>
<rect x="-16.450000000000003" y="248" width="80.9" height="50" rx="0" ry="0" fill="white" fill-opacity="1" stroke="black" stroke-opacity="1" stroke-width="1"  />
<svg x="5.49" y="264.89" width="37.02" height="16.22">
<path d="M 10.576 12.48 L 8.624 12.48 L 6.592 3.248 L 4.544 12.48 L 2.64 12.48 L 0.4 1.456 L 1.888 1.456 L 3.664 11.152 L 5.792 1.456 L 7.408 1.456 L 9.584 11.152 L 11.424 1.456 L 12.816 1.456 L 10.576 12.48 Z" stroke="none" fill="black" fill-opacity="1" />
<path d="M 16.208 12.48 L 14.736 12.48 L 14.736 4.048 L 16.208 4.048 L 16.208 12.48 Z M 16.208 0.288 Q 16.496 0.576 16.496 1.008 Q 16.496 1.44 16.208 1.72 Q 15.92 2 15.456 2 Q 15.008 2 14.72 1.72 Q 14.432 1.44 14.432 1.008 Q 14.432 0.576 14.72 0.288 Q 15.008 0 15.456 0 Q 15.92 0 16.208 0.288 Z" stroke="none" fill="black" fill-opacity="1" />
<path d="M 18.688 6.848 L 23.216 6.848 L 23.216 8.096 L 18.688 8.096 L 18.688 6.848 Z" stroke="none" fill="black" fill-opacity="1" />
<path d="M 31.456 2.672 L 27.296 2.672 L 27.296 6.432 L 30.896 6.432 L 30.896 7.632 L 27.296 7.632 L 27.296 12.48 L 25.776 12.48 L 25.776 1.456 L 31.632 1.456 L 31.456 2.672 Z" stroke="none" fill="black" fill-opacity="1" />
<path d="M 35.504 12.48 L 34.032 12.48 L 34.032 4.048 L 35.504 4.048 L 35.504 12.48 Z M 35.504 0.288 Q 35.792 0.576 35.792 1.008 Q 35.792 1.44 35.504 1.72 Q 35.216 2 34.752 2 Q 34.304 2 34.016 1.72 Q 33.728 1.44 33.728 1.008 Q 33.728 0.576 34.016 0.288 Q 34.304 0 34.752 0 Q 35.216 0 35.504 0.288 Z" stroke="none" fill="black" fill-opacity="1" /></svg>
<rect x="-16.450000000000003" y="298" width="80.9" height="50" rx="0" ry="0" fill="white" fill-opacity="1" stroke="black" stroke-opacity="1" stroke-width="1"  />
<svg x="-5.70" y="313.09" width="59.41" height="19.82">
<path d="M 7.664 5.08 Q 8.784 5.936 8.784 7.632 Q 8.784 9.44 7.616 10.32 Q 6.448 11.2 4.512 11.2 L 3.12 11.2 L 3.12 15.248 L 1.6 15.248 L 1.6 4.224 L 4.496 4.224 Q 6.544 4.224 7.664 5.08 Z M 6.472 9.488 Q 7.168 8.976 7.168 7.648 Q 7.168 6.464 6.472 5.936 Q 5.776 5.408 4.48 5.408 L 3.12 5.408 L 3.12 10 L 4.448 10 Q 5.776 10 6.472 9.488 Z" stroke="none" fill="black" fill-opacity="1" />
<path d="M 16.584 7.312 Q 17.232 8 17.232 9.2 L 17.232 15.248 L 15.76 15.248 L 15.76 9.408 Q 15.76 8.512 15.416 8.144 Q 15.072 7.776 14.416 7.776 Q 13.76 7.776 13.248 8.16 Q 12.736 8.544 12.288 9.248 L 12.288 15.248 L 10.816 15.248 L 10.816 3.44 L 12.288 3.28 L 12.288 7.984 Q 13.28 6.624 14.784 6.624 Q 15.936 6.624 16.584 7.312 Z" stroke="none" fill="black" fill-opacity="1" />
<path d="M 23.408 15.296 Q 22.912 16.768 22.024 17.624 Q 21.136 18.48 19.488 18.656 L 19.328 17.504 Q 20.16 17.36 20.656 17.088 Q 21.152 16.816 21.448 16.392 Q 21.744 15.968 22 15.248 L 21.504 15.248 L 18.672 6.816 L 20.24 6.816 L 22.496 14.176 L 24.704 6.816 L 26.224 6.816 L 23.408 15.296 Z" stroke="none" fill="black" fill-opacity="1" />
<path d="M 31.744 6.864 Q 32.432 7.104 33.056 7.584 L 32.432 8.512 Q 31.856 8.144 31.336 7.968 Q 30.816 7.792 30.24 7.792 Q 29.52 7.792 29.104 8.088 Q 28.688 8.384 28.688 8.896 Q 28.688 9.408 29.08 9.696 Q 29.472 9.984 30.496 10.256 Q 31.904 10.608 32.6 11.216 Q 33.296 11.824 33.296 12.88 Q 33.296 14.128 32.328 14.784 Q 31.36 15.44 29.968 15.44 Q 28.048 15.44 26.784 14.336 L 27.568 13.44 Q 28.64 14.256 29.936 14.256 Q 30.768 14.256 31.256 13.912 Q 31.744 13.568 31.744 12.976 Q 31.744 12.544 31.568 12.28 Q 31.392 12.016 30.96 11.816 Q 30.528 11.616 29.696 11.392 Q 28.352 11.04 27.752 10.448 Q 27.152 9.856 27.152 8.944 Q 27.152 8.288 27.544 7.752 Q 27.936 7.216 28.632 6.92 Q 29.328 6.624 30.192 6.624 Q 31.056 6.624 31.744 6.864 Z" stroke="none" fill="black" fill-opacity="1" />
<path d="M 36.848 15.248 L 35.376 15.248 L 35.376 6.816 L 36.848 6.816 L 36.848 15.248 Z M 36.848 3.056 Q 37.136 3.344 37.136 3.776 Q 37.136 4.208 36.848 4.488 Q 36.56 4.768 36.096 4.768 Q 35.648 4.768 35.36 4.488 Q 35.072 4.208 35.072 3.776 Q 35.072 3.344 35.36 3.056 Q 35.648 2.768 36.096 2.768 Q 36.56 2.768 36.848 3.056 Z" stroke="none" fill="black" fill-opacity="1" />
<path d="M 44.336 6.84 Q 44.96 7.056 45.536 7.536 L 44.832 8.464 Q 44.384 8.144 43.96 7.992 Q 43.536 7.84 43.024 7.84 Q 42 7.84 41.432 8.656 Q 40.864 9.472 40.864 11.072 Q 40.864 12.672 41.424 13.432 Q 41.984 14.192 43.024 14.192 Q 43.52 14.192 43.936 14.04 Q 44.352 13.888 44.864 13.552 L 45.536 14.512 Q 44.384 15.44 42.96 15.44 Q 41.248 15.44 40.264 14.288 Q 39.28 13.136 39.28 11.104 Q 39.28 9.76 39.728 8.752 Q 40.176 7.744 41 7.184 Q 41.824 6.624 42.96 6.624 Q 43.712 6.624 44.336 6.84 Z" stroke="none" fill="black" fill-opacity="1" />
<path d="M 53.392 14.04 Q 53.568 14.288 53.92 14.416 L 53.584 15.44 Q 52.928 15.36 52.528 15.072 Q 52.128 14.784 51.936 14.176 Q 51.088 15.44 49.424 15.44 Q 48.176 15.44 47.456 14.736 Q 46.736 14.032 46.736 12.896 Q 46.736 11.552 47.704 10.832 Q 48.672 10.112 50.448 10.112 L 51.744 10.112 L 51.744 9.488 Q 51.744 8.592 51.312 8.208 Q 50.88 7.824 49.984 7.824 Q 49.056 7.824 47.712 8.272 L 47.344 7.2 Q 48.912 6.624 50.256 6.624 Q 51.744 6.624 52.48 7.352 Q 53.216 8.08 53.216 9.424 L 53.216 13.28 Q 53.216 13.792 53.392 14.04 Z M 51.744 13.024 L 51.744 11.088 L 50.64 11.088 Q 48.304 11.088 48.304 12.816 Q 48.304 13.568 48.672 13.952 Q 49.04 14.336 49.76 14.336 Q 51.024 14.336 51.744 13.024 Z" stroke="none" fill="black" fill-opacity="1" />
<path d="M 56.632 14.952 Q 56.16 14.464 56.16 13.584 L 56.16 3.424 L 57.632 3.248 L 57.632 13.552 Q 57.632 13.904 57.752 14.064 Q 57.872 14.224 58.16 14.224 Q 58.464 14.224 58.704 14.128 L 59.088 15.152 Q 58.56 15.44 57.92 15.44 Q 57.104 15.44 56.632 14.952 Z" stroke="none" fill="black" fill-opacity="1" /></svg>
<svg x="-6.90" y="-20.07" width="61.81" height="20.07">
<path d="M 3.12 14.112 L 7.648 14.112 L 7.472 15.44 L 1.6 15.44 L 1.6 4.416 L 3.12 4.416 L 3.12 14.112 Z" stroke="none" fill="black" fill-opacity="1" />
<path d="M 15.344 14.232 Q 15.52 14.48 15.872 14.608 L 15.536 15.632 Q 14.88 15.552 14.48 15.264 Q 14.08 14.976 13.888 14.368 Q 13.04 15.632 11.376 15.632 Q 10.128 15.632 9.408 14.928 Q 8.688 14.224 8.688 13.088 Q 8.688 11.744 9.656 11.024 Q 10.624 10.304 12.4 10.304 L 13.696 10.304 L 13.696 9.68 Q 13.696 8.784 13.264 8.4 Q 12.832 8.016 11.936 8.016 Q 11.008 8.016 9.664 8.464 L 9.296 7.392 Q 10.864 6.816 12.208 6.816 Q 13.696 6.816 14.432 7.544 Q 15.168 8.272 15.168 9.616 L 15.168 13.472 Q 15.168 13.984 15.344 14.232 Z M 13.696 13.216 L 13.696 11.28 L 12.592 11.28 Q 10.256 11.28 10.256 13.008 Q 10.256 13.76 10.624 14.144 Q 10.992 14.528 11.712 14.528 Q 12.976 14.528 13.696 13.216 Z" stroke="none" fill="black" fill-opacity="1" />
<path d="M 24.432 7.968 Q 25.184 9.12 25.184 11.216 Q 25.184 13.2 24.32 14.416 Q 23.456 15.632 21.872 15.632 Q 20.464 15.632 19.664 14.672 L 19.664 18.672 L 18.192 18.848 L 18.192 7.008 L 19.456 7.008 L 19.568 8.144 Q 20.032 7.504 20.688 7.16 Q 21.344 6.816 22.064 6.816 Q 23.68 6.816 24.432 7.968 Z M 23.6 11.216 Q 23.6 7.984 21.696 7.984 Q 21.072 7.984 20.56 8.352 Q 20.048 8.72 19.664 9.296 L 19.664 13.408 Q 19.984 13.904 20.464 14.168 Q 20.944 14.432 21.52 14.432 Q 23.6 14.432 23.6 11.216 Z" stroke="none" fill="black" fill-opacity="1" />
<path d="M 31.952 15.056 Q 31.12 15.632 30.064 15.632 Q 28.992 15.632 28.392 15.016 Q 27.792 14.4 27.792 13.232 L 27.792 8.144 L 26.32 8.144 L 26.32 7.008 L 27.792 7.008 L 27.792 5.104 L 29.264 4.928 L 29.264 7.008 L 31.264 7.008 L 31.104 8.144 L 29.264 8.144 L 29.264 13.168 Q 29.264 13.824 29.496 14.12 Q 29.728 14.416 30.272 14.416 Q 30.8 14.416 31.392 14.048 L 31.952 15.056 Z" stroke="none" fill="black" fill-opacity="1" />
<path d="M 39.24 8 Q 40.224 9.184 40.224 11.216 Q 40.224 12.528 39.776 13.528 Q 39.328 14.528 38.48 15.08 Q 37.632 15.632 36.464 15.632 Q 34.688 15.632 33.696 14.448 Q 32.704 13.264 32.704 11.232 Q 32.704 9.92 33.152 8.92 Q 33.6 7.92 34.448 7.368 Q 35.296 6.816 36.48 6.816 Q 38.256 6.816 39.24 8 Z M 34.288 11.232 Q 34.288 14.448 36.464 14.448 Q 38.64 14.448 38.64 11.216 Q 38.64 8 36.48 8 Q 34.288 8 34.288 11.232 Z" stroke="none" fill="black" fill-opacity="1" />
<path d="M 48.896 7.968 Q 49.648 9.12 49.648 11.216 Q 49.648 13.2 48.784 14.416 Q 47.92 15.632 46.336 15.632 Q 44.928 15.632 44.128 14.672 L 44.128 18.672 L 42.656 18.848 L 42.656 7.008 L 43.92 7.008 L 44.032 8.144 Q 44.496 7.504 45.152 7.16 Q 45.808 6.816 46.528 6.816 Q 48.144 6.816 48.896 7.968 Z M 48.064 11.216 Q 48.064 7.984 46.16 7.984 Q 45.536 7.984 45.024 8.352 Q 44.512 8.72 44.128 9.296 L 44.128 13.408 Q 44.448 13.904 44.928 14.168 Q 45.408 14.432 45.984 14.432 Q 48.064 14.432 48.064 11.216 Z" stroke="none" fill="black" fill-opacity="1" />
<path d="M 60.048 15.44 L 58.576 15.44 L 58.576 6.304 L 56.08 7.824 L 55.44 6.784 L 58.752 4.736 L 60.048 4.736 L 60.048 15.44 Z" stroke="none" fill="black" fill-opacity="1" /></svg>
<rect x="114.45" y="198" width="80.9" height="50" rx="0" ry="0" fill="white" fill-opacity="1" stroke="black" stroke-opacity="1" stroke-width="1"  />
<svg x="147.89" y="215.83" width="14.02" height="14.33">
<path d="M 3.12 11.024 L 1.6 11.024 L 1.6 0 L 3.12 0 L 3.12 11.024 Z" stroke="none" fill="black" fill-opacity="1" />
<path d="M 12.384 0.856 Q 13.504 1.712 13.504 3.408 Q 13.504 5.216 12.336 6.096 Q 11.168 6.976 9.232 6.976 L 7.84 6.976 L 7.84 11.024 L 6.32 11.024 L 6.32 0 L 9.216 0 Q 11.264 0 12.384 0.856 Z M 11.192 5.264 Q 11.888 4.752 11.888 3.424 Q 11.888 2.24 11.192 1.712 Q 10.496 1.184 9.2 1.184 L 7.84 1.184 L 7.84 5.776 L 9.168 5.776 Q 10.496 5.776 11.192 5.264 Z" stroke="none" fill="black" fill-opacity="1" /></svg>
<rect x="114.45" y="248" width="80.9" height="50" rx="0" ry="0" fill="white" fill-opacity="1" stroke="black" stroke-opacity="1" stroke-width="1"  />
<svg x="136.39" y="264.89" width="37.02" height="16.22">
<path d="M 10.576 12.48 L 8.624 12.48 L 6.592 3.248 L 4.544 12.48 L 2.64 12.48 L 0.4 1.456 L 1.888 1.456 L 3.664 11.152 L 5.792 1.456 L 7.408 1.456 L 9.584 11.152 L 11.424 1.456 L 12.816 1.456 L 10.576 12.48 Z" stroke="none" fill="black" fill-opacity="1" />
<path d="M 16.208 12.48 L 14.736 12.48 L 14.736 4.048 L 16.208 4.048 L 16.208 12.48 Z M 16.208 0.288 Q 16.496 0.576 16.496 1.008 Q 16.496 1.44 16.208 1.72 Q 15.92 2 15.456 2 Q 15.008 2 14.72 1.72 Q 14.432 1.44 14.432 1.008 Q 14.432 0.576 14.72 0.288 Q 15.008 0 15.456 0 Q 15.92 0 16.208 0.288 Z" stroke="none" fill="black" fill-opacity="1" />
<path d="M 18.688 6.848 L 23.216 6.848 L 23.216 8.096 L 18.688 8.096 L 18.688 6.848 Z" stroke="none" fill="black" fill-opacity="1" />
<path d="M 31.456 2.672 L 27.296 2.672 L 27.296 6.432 L 30.896 6.432 L 30.896 7.632 L 27.296 7.632 L 27.296 12.48 L 25.776 12.48 L 25.776 1.456 L 31.632 1.456 L 31.456 2.672 Z" stroke="none" fill="black" fill-opacity="1" />
<path d="M 35.504 12.48 L 34.032 12.48 L 34.032 4.048 L 35.504 4.048 L 35.504 12.48 Z M 35.504 0.288 Q 35.792 0.576 35.792 1.008 Q 35.792 1.44 35.504 1.72 Q 35.216 2 34.752 2 Q 34.304 2 34.016 1.72 Q 33.728 1.44 33.728 1.008 Q 33.728 0.576 34.016 0.288 Q 34.304 0 34.752 0 Q 35.216 0 35.504 0.288 Z" stroke="none" fill="black" fill-opacity="1" /></svg>
<rect x="114.45" y="298" width="80.9" height="50" rx="0" ry="0" fill="white" fill-opacity="1" stroke="black" stroke-opacity="1" stroke-width="1"  />
<svg x="125.20" y="313.09" width="59.41" height="19.82">
<path d="M 7.664 5.08 Q 8.784 5.936 8.784 7.632 Q 8.784 9.44 7.616 10.32 Q 6.448 11.2 4.512 11.2 L 3.12 11.2 L 3.12 15.248 L 1.6 15.248 L 1.6 4.224 L 4.496 4.224 Q 6.544 4.224 7.664 5.08 Z M 6.472 9.488 Q 7.168 8.976 7.168 7.648 Q 7.168 6.464 6.472 5.936 Q 5.776 5.408 4.48 5.408 L 3.12 5.408 L 3.12 10 L 4.448 10 Q 5.776 10 6.472 9.488 Z" stroke="none" fill="black" fill-opacity="1" />
<path d="M 16.584 7.312 Q 17.232 8 17.232 9.2 L 17.232 15.248 L 15.76 15.248 L 15.76 9.408 Q 15.76 8.512 15.416 8.144 Q 15.072 7.776 14.416 7.776 Q 13.76 7.776 13.248 8.16 Q 12.736 8.544 12.288 9.248 L 12.288 15.248 L 10.816 15.248 L 10.816 3.44 L 12.288 3.28 L 12.288 7.984 Q 13.28 6.624 14.784 6.624 Q 15.936 6.624 16.584 7.312 Z" stroke="none" fill="black" fill-opacity="1" />
<path d="M 23.408 15.296 Q 22.912 16.768 22.024 17.624 Q 21.136 18.48 19.488 18.656 L 19.328 17.504 Q 20.16 17.36 20.656 17.088 Q 21.152 16.816 21.448 16.392 Q 21.744 15.968 22 15.248 L 21.504 15.248 L 18.672 6.816 L 20.24 6.816 L 22.496 14.176 L 24.704 6.816 L 26.224 6.816 L 23.408 15.296 Z" stroke="none" fill="black" fill-opacity="1" />
<path d="M 31.744 6.864 Q 32.432 7.104 33.056 7.584 L 32.432 8.512 Q 31.856 8.144 31.336 7.968 Q 30.816 7.792 30.24 7.792 Q 29.52 7.792 29.104 8.088 Q 28.688 8.384 28.688 8.896 Q 28.688 9.408 29.08 9.696 Q 29.472 9.984 30.496 10.256 Q 31.904 10.608 32.6 11.216 Q 33.296 11.824 33.296 12.88 Q 33.296 14.128 32.328 14.784 Q 31.36 15.44 29.968 15.44 Q 28.048 15.44 26.784 14.336 L 27.568 13.44 Q 28.64 14.256 29.936 14.256 Q 30.768 14.256 31.256 13.912 Q 31.744 13.568 31.744 12.976 Q 31.744 12.544 31.568 12.28 Q 31.392 12.016 30.96 11.816 Q 30.528 11.616 29.696 11.392 Q 28.352 11.04 27.752 10.448 Q 27.152 9.856 27.152 8.944 Q 27.152 8.288 27.544 7.752 Q 27.936 7.216 28.632 6.92 Q 29.328 6.624 30.192 6.624 Q 31.056 6.624 31.744 6.864 Z" stroke="none" fill="black" fill-opacity="1" />
<path d="M 36.848 15.248 L 35.376 15.248 L 35.376 6.816 L 36.848 6.816 L 36.848 15.248 Z M 36.848 3.056 Q 37.136 3.344 37.136 3.776 Q 37.136 4.208 36.848 4.488 Q 36.56 4.768 36.096 4.768 Q 35.648 4.768 35.36 4.488 Q 35.072 4.208 35.072 3.776 Q 35.072 3.344 35.36 3.056 Q 35.648 2.768 36.096 2.768 Q 36.56 2.768 36.848 3.056 Z" stroke="none" fill="black" fill-opacity="1" />
<path d="M 44.336 6.84 Q 44.96 7.056 45.536 7.536 L 44.832 8.464 Q 44.384 8.144 43.96 7.992 Q 43.536 7.84 43.024 7.84 Q 42 7.84 41.432 8.656 Q 40.864 9.472 40.864 11.072 Q 40.864 12.672 41.424 13.432 Q 41.984 14.192 43.024 14.192 Q 43.52 14.192 43.936 14.04 Q 44.352 13.888 44.864 13.552 L 45.536 14.512 Q 44.384 15.44 42.96 15.44 Q 41.248 15.44 40.264 14.288 Q 39.28 13.136 39.28 11.104 Q 39.28 9.76 39.728 8.752 Q 40.176 7.744 41 7.184 Q 41.824 6.624 42.96 6.624 Q 43.712 6.624 44.336 6.84 Z" stroke="none" fill="black" fill-opacity="1" />
<path d="M 53.392 14.04 Q 53.568 14.288 53.92 14.416 L 53.584 15.44 Q 52.928 15.36 52.528 15.072 Q 52.128 14.784 51.936 14.176 Q 51.088 15.44 49.424 15.44 Q 48.176 15.44 47.456 14.736 Q 46.736 14.032 46.736 12.896 Q 46.736 11.552 47.704 10.832 Q 48.672 10.112 50.448 10.112 L 51.744 10.112 L 51.744 9.488 Q 51.744 8.592 51.312 8.208 Q 50.88 7.824 49.984 7.824 Q 49.056 7.824 47.712 8.272 L 47.344 7.2 Q 48.912 6.624 50.256 6.624 Q 51.744 6.624 52.48 7.352 Q 53.216 8.08 53.216 9.424 L 53.216 13.28 Q 53.216 13.792 53.392 14.04 Z M 51.744 13.024 L 51.744 11.088 L 50.64 11.088 Q 48.304 11.088 48.304 12.816 Q 48.304 13.568 48.672 13.952 Q 49.04 14.336 49.76 14.336 Q 51.024 14.336 51.744 13.024 Z" stroke="none" fill="black" fill-opacity="1" />
<path d="M 56.632 14.952 Q 56.16 14.464 56.16 13.584 L 56.16 3.424 L 57.632 3.248 L 57.632 13.552 Q 57.632 13.904 57.752 14.064 Q 57.872 14.224 58.16 14.224 Q 58.464 14.224 58.704 14.128 L 59.088 15.152 Q 58.56 15.44 57.92 15.44 Q 57.104 15.44 56.632 14.952 Z" stroke="none" fill="black" fill-opacity="1" /></svg>
<rect x="130.9" y="-1" width="48" height="48" fill="white" fill-opacity="1"></rect>
<svg  width="48"  height="48" viewBox="0 0 128 128" xmlns="http://www.w3.org/2000/svg" x="130.9" y="-1">
    <defs>
        <filter id="e" x="-0.042" y="-0.671" width="1.084" height="2.342">
            <feGaussianBlur color-interpolation-filters="sRGB" in="SourceGraphic" stdDeviation="0.775 0.775" result="result1"/>
        </filter>
        <linearGradient id="f" x1="3" y1="17.724" x2="4" y2="17.724" gradientUnits="userSpaceOnUse" gradientTransform="matrix(0.65748 0 0 0.85191 8.387 -3.158)">
            <stop offset="0" stop-color="#eeeeec"/>
            <stop offset="1" stop-color="#eeeeec" stop-opacity="0"/>
        </linearGradient>
        <linearGradient id="g" x1="3" y1="17.724" x2="4" y2="17.724" gradientUnits="userSpaceOnUse" gradientTransform="matrix(0.65748 0 0 0.85191 8.387 -3.158)">
            <stop offset="0" stop-color="#eeeeec"/>
            <stop offset="1" stop-color="#eeeeec" stop-opacity="0"/>
        </linearGradient>
        <linearGradient id="h" x1="-10.598" y1="21.876" x2="26.735" y2="28.762" gradientUnits="userSpaceOnUse" gradientTransform="matrix(2.36561 0 0 2.88218 7.768 -9.291)">
            <stop offset="0" stop-color="#7a7d77"/>
            <stop offset="1" stop-color="#3c3d3a"/>
        </linearGradient>
        <linearGradient id="i" x1="8.159" y1="33.293" x2="26.293" y2="33.055" gradientUnits="userSpaceOnUse" gradientTransform="matrix(2.36561 0 0 2.88218 7.768 -15.046)">
            <stop offset="0" stop-color="#6996d0"/>
            <stop offset="1" stop-color="#3465a4"/>
        </linearGradient>
        <linearGradient id="j" x1="28.651" y1="35.368" x2="0.389" y2="35.289" gradientUnits="userSpaceOnUse" gradientTransform="matrix(2.36561 0 0 2.88218 7.768 -15.046)">
            <stop offset="0" stop-color="#204a87"/>
            <stop offset="1" stop-color="#204a87" stop-opacity="0"/>
        </linearGradient>
    </defs>
    <g filter="url(#e)" opacity="0.38934422" transform="matrix(2.34132 0 0 6.243 7.816 -151.25)">
        <path fill="#000000" fill-rule="evenodd" stroke="none" d="M 46.457 40.284 C 46.46 41.049 36.502 41.669 24.217 41.669 C 11.933 41.669 1.976 41.049 1.979 40.284 C 1.976 39.519 11.933 38.898 24.218 38.898 C 36.502 38.898 46.46 39.518 46.457 40.284 Z"/>
    </g>
    <path fill="#3465a4" fill-rule="evenodd" stroke="#173663" stroke-width="2.42463875" stroke-linejoin="round" d="M 91.662 94.373 L 110.637 94.373 L 110.637 101.898 L 91.662 101.898 Z"/>
    <path fill="#3465a4" fill-rule="evenodd" stroke="#173663" stroke-width="2.42463875" stroke-linejoin="round" d="M 18.328 94.259 L 37.303 94.259 L 37.303 101.784 L 18.328 101.784 Z"/>
    <path fill="#000000" fill-rule="evenodd" stroke="#000000" stroke-linejoin="round" transform="matrix(2.40564 0 0 2.84537 68.913 3.277)" d="M 10.46 3.966 L 10.46 13.014 L 9.5 16.094 L 9.5 25.991 C 9.5 25.991 9.492 27.482 9.927 27.482 L 11.949 27.5 C 12.325 27.52 12.445 26.855 12.429 25.98 L 12.433 16.054 L 11.473 13.054 L 11.473 4.005 C 11.183 3.378 10.735 3.38 10.46 3.965 Z"/>
    <g opacity="0.5" transform="matrix(2.40564 0 0 2.84537 68.913 3.277)">
        <path fill="url(#f)" fill-rule="evenodd" stroke="none" d="M 10.468 4.217 C 10.432 3.637 10.988 3.327 11.018 4.217 C 11.01139359853 11.79102602032 10.99239357309 19.36503616033 10.961 26.939 L 10.262 26.939 C 9.792 26.731 9.959 26.494 9.946 25.709 C 9.91 23.645 9.946 16.084 9.946 16.084 L 10.496 13.907 C 10.496 13.907 10.403 8.334 10.468 4.217 Z"/>
    </g>
    <path fill="#000000" fill-rule="evenodd" stroke="#000000" stroke-linejoin="round" transform="matrix(2.40564 0 0 2.84537 7.407 3.277)" d="M 10.46 3.966 L 10.46 13.014 L 9.5 16.094 L 9.5 25.991 C 9.5 25.991 9.492 27.482 9.927 27.482 L 11.949 27.5 C 12.325 27.52 12.445 26.855 12.429 25.98 L 12.433 16.054 L 11.473 13.054 L 11.473 4.005 C 11.183 3.378 10.735 3.38 10.46 3.965 Z"/>
    <g opacity="0.5" transform="matrix(2.40564 0 0 2.84537 7.407 3.277)">
        <path fill="url(#g)" fill-rule="evenodd" stroke="none" d="M 10.468 4.217 C 10.432 3.637 10.988 3.327 11.018 4.217 C 11.01139359853 11.79102602032 10.99239357309 19.36503616033 10.961 26.939 L 10.262 26.939 C 9.792 26.731 9.959 26.494 9.946 25.709 C 9.91 23.645 9.946 16.084 9.946 16.084 L 10.496 13.907 C 10.496 13.907 10.403 8.334 10.468 4.217 Z"/>
    </g>
    <path fill="url(#h)" stroke="#2e3436" stroke-width="2.61114955" stroke-linecap="round" d="M 64.59 52.584 C 76.02 52.749 93.274 54.544 106.33 58.025 L 115.137 72.875 L 115.137 93.058 C 115.137 94.545 114.107 95.742 112.827 95.742 C 112.827 95.742 88.751 99.049 64.557 98.968 C 40.363 98.888 16.052 95.419 16.052 95.419 C 14.772 95.419 13.742 94.222 13.742 92.735 L 13.742 72.875 L 22.884 58.481 C 36.186 54.448 53.064 52.42 64.589 52.584 Z"/>
    <g opacity="0.16803278">
        <path fill="none" stroke="#eeeeec" stroke-width="2.61114955" stroke-linecap="round" d="M 64.59 55.436 C 76.02 55.6 92.057 57.167 105.02 60.648 L 113.172 74.016 L 15.895 74.13 L 24.195 60.99 C 37.497 56.957 53.065 55.27 64.589 55.436 Z"/>
    </g>
    <path fill="url(#i)" stroke="#204a87" stroke-width="2.61440039" stroke-linecap="round" d="M 64.722 61.482 C 68.397 61.487 84.967 62.324 93.074 62.944 C 93.782 62.998 94.682 67.046 95.4 67.105 C 105.25 67.922 111.968 68.798 113.048 69.431 L 115.401 72.876 L 115.401 93.056 C 115.401 94.544 114.368 95.741 113.085 95.741 C 113.085 95.741 88.946 99.047 64.69 98.966 C 40.434 98.886 16.06 95.418 16.06 95.418 C 14.777 95.418 13.743 94.221 13.743 92.734 L 13.743 72.876 L 16.152 69.203 C 17.636 68.783 23.329 68.079 33.689 67.276 C 34.472 67.216 35.434 62.824 36.199 62.77 C 43.268 62.27 61.416 61.478 64.722 61.482 Z"/>
    <path fill="url(#j)" fill-rule="evenodd" stroke="#3b72ad" stroke-width="2.61114931" stroke-linecap="round" stroke-linejoin="round" d="M 15.973 75.742 C 15.973 75.742 40.182 72.891 64.463 72.891 C 88.745 72.891 113.099 75.742 113.099 75.742 L 113.099 93.1 C 113.099 93.1 88.839 95.87 64.557 95.87 C 40.276 95.87 15.973 93.1 15.973 93.1 L 15.973 75.742 Z"/>
    <g opacity="0.16393445">
        <path fill="none" stroke="#000000" stroke-width="2.60854435" d="M 17.229 81.671 L 111.703 81.349"/>
    </g>
    <path fill="#2e3436" fill-rule="evenodd" stroke="none" d="M 17.23 80.096 L 74.266 80.096 L 74.266 94.217 C 74.266 94.217 57.791 94.71 43.532 94.054 C 29.273 93.398 17.23 91.594 17.23 91.594 L 17.23 80.096 Z"/>
    <g opacity="0.63114756">
        <path fill="#555753" fill-rule="evenodd" stroke="none" d="M 55.142 80.096 L 74.266 80.096 L 74.266 94.217 C 74.266 94.217 68.743 94.482 63.19 94.397 C 57.637 94.311 55.236 94.445 55.236 94.445 L 55.142 80.096 Z"/>
    </g>
    <g opacity="0.14344261">
        <path fill="#ffffff" fill-rule="evenodd" stroke="#ffffff" stroke-width="2.04061651" stroke-linejoin="round" d="M 22.886 84.074 L 30.5 84.074 L 30.5 87.586 L 22.886 87.586 Z"/>
    </g>
    <g opacity="0.53688528">
        <path fill="#8ae234" fill-rule="evenodd" stroke="#73d216" stroke-width="0.73886138" stroke-linejoin="round" d="M 41.221 86.237 L 42.917 86.237 L 42.917 88.304 L 41.221 88.304 Z"/>
    </g>
    <g opacity="0.53688528">
        <path fill="#8ae234" fill-rule="evenodd" stroke="#73d216" stroke-width="0.73886138" stroke-linejoin="round" d="M 45.952 86.237 L 47.648 86.237 L 47.648 88.304 L 45.952 88.304 Z"/>
    </g>
    <g opacity="0.53688528">
        <path fill="#8ae234" fill-rule="evenodd" stroke="#73d216" stroke-width="0.73886138" stroke-linejoin="round" d="M 50.683 86.237 L 52.379 86.237 L 52.379 88.304 L 50.683 88.304 Z"/>
    </g>
</svg>


<svg x="113.11" y="-17.22" width="83.58" height="16.22">
<path d="M 10.576 12.48 L 8.624 12.48 L 6.592 3.248 L 4.544 12.48 L 2.64 12.48 L 0.4 1.456 L 1.888 1.456 L 3.664 11.152 L 5.792 1.456 L 7.408 1.456 L 9.584 11.152 L 11.424 1.456 L 12.816 1.456 L 10.576 12.48 Z" stroke="none" fill="black" fill-opacity="1" />
<path d="M 16.208 12.48 L 14.736 12.48 L 14.736 4.048 L 16.208 4.048 L 16.208 12.48 Z M 16.208 0.288 Q 16.496 0.576 16.496 1.008 Q 16.496 1.44 16.208 1.72 Q 15.92 2 15.456 2 Q 15.008 2 14.72 1.72 Q 14.432 1.44 14.432 1.008 Q 14.432 0.576 14.72 0.288 Q 15.008 0 15.456 0 Q 15.92 0 16.208 0.288 Z" stroke="none" fill="black" fill-opacity="1" />
<path d="M 25.008 2.672 L 20.848 2.672 L 20.848 6.432 L 24.448 6.432 L 24.448 7.632 L 20.848 7.632 L 20.848 12.48 L 19.328 12.48 L 19.328 1.456 L 25.184 1.456 L 25.008 2.672 Z" stroke="none" fill="black" fill-opacity="1" />
<path d="M 29.056 12.48 L 27.584 12.48 L 27.584 4.048 L 29.056 4.048 L 29.056 12.48 Z M 29.056 0.288 Q 29.344 0.576 29.344 1.008 Q 29.344 1.44 29.056 1.72 Q 28.768 2 28.304 2 Q 27.856 2 27.568 1.72 Q 27.28 1.44 27.28 1.008 Q 27.28 0.576 27.568 0.288 Q 27.856 0 28.304 0 Q 28.768 0 29.056 0.288 Z" stroke="none" fill="black" fill-opacity="1" />
<path d="M 39.648 7.808 L 37.936 7.808 L 37.936 12.48 L 36.416 12.48 L 36.416 1.456 L 39.312 1.456 Q 41.376 1.456 42.44 2.24 Q 43.504 3.024 43.504 4.576 Q 43.504 5.728 42.912 6.448 Q 42.32 7.168 41.12 7.536 L 44.096 12.48 L 42.288 12.48 L 39.648 7.808 Z M 39.472 6.64 Q 40.672 6.64 41.28 6.152 Q 41.888 5.664 41.888 4.576 Q 41.888 3.552 41.272 3.096 Q 40.656 2.64 39.296 2.64 L 37.936 2.64 L 37.936 6.64 L 39.472 6.64 Z" stroke="none" fill="black" fill-opacity="1" />
<path d="M 51.784 5.04 Q 52.768 6.224 52.768 8.256 Q 52.768 9.568 52.32 10.568 Q 51.872 11.568 51.024 12.12 Q 50.176 12.672 49.008 12.672 Q 47.232 12.672 46.24 11.488 Q 45.248 10.304 45.248 8.272 Q 45.248 6.96 45.696 5.96 Q 46.144 4.96 46.992 4.408 Q 47.84 3.856 49.024 3.856 Q 50.8 3.856 51.784 5.04 Z M 46.832 8.272 Q 46.832 11.488 49.008 11.488 Q 51.184 11.488 51.184 8.256 Q 51.184 5.04 49.024 5.04 Q 46.832 5.04 46.832 8.272 Z" stroke="none" fill="black" fill-opacity="1" />
<path d="M 61.472 12.48 L 60.208 12.48 L 60.096 11.168 Q 59.616 11.952 58.992 12.312 Q 58.368 12.672 57.472 12.672 Q 56.368 12.672 55.744 12 Q 55.12 11.328 55.12 10.096 L 55.12 4.048 L 56.592 4.048 L 56.592 9.936 Q 56.592 10.8 56.896 11.16 Q 57.2 11.52 57.888 11.52 Q 59.12 11.52 60 10.064 L 60 4.048 L 61.472 4.048 L 61.472 12.48 Z" stroke="none" fill="black" fill-opacity="1" />
<path d="M 68.768 12.096 Q 67.936 12.672 66.88 12.672 Q 65.808 12.672 65.208 12.056 Q 64.608 11.44 64.608 10.272 L 64.608 5.184 L 63.136 5.184 L 63.136 4.048 L 64.608 4.048 L 64.608 2.144 L 66.08 1.968 L 66.08 4.048 L 68.08 4.048 L 67.92 5.184 L 66.08 5.184 L 66.08 10.208 Q 66.08 10.864 66.312 11.16 Q 66.544 11.456 67.088 11.456 Q 67.616 11.456 68.208 11.088 L 68.768 12.096 Z" stroke="none" fill="black" fill-opacity="1" />
<path d="M 76.464 8.768 L 71.088 8.768 Q 71.184 10.16 71.792 10.816 Q 72.4 11.472 73.36 11.472 Q 73.968 11.472 74.48 11.296 Q 74.992 11.12 75.552 10.736 L 76.192 11.616 Q 74.848 12.672 73.248 12.672 Q 71.488 12.672 70.504 11.52 Q 69.52 10.368 69.52 8.352 Q 69.52 7.04 69.944 6.024 Q 70.368 5.008 71.16 4.432 Q 71.952 3.856 73.024 3.856 Q 74.704 3.856 75.6 4.96 Q 76.496 6.064 76.496 8.016 Q 76.496 8.384 76.464 8.768 Z M 75.04 7.584 Q 75.04 6.336 74.544 5.68 Q 74.048 5.024 73.056 5.024 Q 71.248 5.024 71.088 7.68 L 75.04 7.68 L 75.04 7.584 Z" stroke="none" fill="black" fill-opacity="1" />
<path d="M 83.424 3.952 L 83.152 5.392 Q 82.768 5.296 82.416 5.296 Q 81.632 5.296 81.152 5.872 Q 80.672 6.448 80.4 7.664 L 80.4 12.48 L 78.928 12.48 L 78.928 4.048 L 80.192 4.048 L 80.336 5.76 Q 80.672 4.816 81.248 4.336 Q 81.824 3.856 82.592 3.856 Q 83.04 3.856 83.424 3.952 Z" stroke="none" fill="black" fill-opacity="1" /></svg>
<rect x="245.35000000000002" y="48" width="80.9" height="50" rx="0" ry="0" fill="white" fill-opacity="1" stroke="black" stroke-opacity="1" stroke-width="1"  />
<svg x="267.44" y="65.83" width="36.72" height="14.33">
<path d="M 7.76 5.856 L 3.12 5.856 L 3.12 11.024 L 1.6 11.024 L 1.6 0 L 3.12 0 L 3.12 4.608 L 7.76 4.608 L 7.76 0 L 9.28 0 L 9.28 11.024 L 7.76 11.024 L 7.76 5.856 Z" stroke="none" fill="black" fill-opacity="1" />
<path d="M 18.832 1.296 L 15.776 1.296 L 15.776 11.024 L 14.256 11.024 L 14.256 1.296 L 11.12 1.296 L 11.12 0 L 18.992 0 L 18.832 1.296 Z" stroke="none" fill="black" fill-opacity="1" />
<path d="M 27.104 1.296 L 24.048 1.296 L 24.048 11.024 L 22.528 11.024 L 22.528 1.296 L 19.392 1.296 L 19.392 0 L 27.264 0 L 27.104 1.296 Z" stroke="none" fill="black" fill-opacity="1" />
<path d="M 35.088 0.856 Q 36.208 1.712 36.208 3.408 Q 36.208 5.216 35.04 6.096 Q 33.872 6.976 31.936 6.976 L 30.544 6.976 L 30.544 11.024 L 29.024 11.024 L 29.024 0 L 31.92 0 Q 33.968 0 35.088 0.856 Z M 33.896 5.264 Q 34.592 4.752 34.592 3.424 Q 34.592 2.24 33.896 1.712 Q 33.2 1.184 31.904 1.184 L 30.544 1.184 L 30.544 5.776 L 31.872 5.776 Q 33.2 5.776 33.896 5.264 Z" stroke="none" fill="black" fill-opacity="1" /></svg>
<rect x="245.35000000000002" y="98" width="80.9" height="50" rx="0" ry="0" fill="white" fill-opacity="1" stroke="black" stroke-opacity="1" stroke-width="1"  />
<svg x="273.32" y="115.46" width="24.96" height="15.08">
<path d="M 7.952 1.872 L 4.896 1.872 L 4.896 11.6 L 3.376 11.6 L 3.376 1.872 L 0.24 1.872 L 0.24 0.576 L 8.112 0.576 L 7.952 1.872 Z" stroke="none" fill="black" fill-opacity="1" />
<path d="M 11.392 10.272 L 15.92 10.272 L 15.744 11.6 L 9.872 11.6 L 9.872 0.576 L 11.392 0.576 L 11.392 10.272 Z" stroke="none" fill="black" fill-opacity="1" />
<path d="M 22.448 0.696 Q 23.232 1.008 23.968 1.664 L 23.136 2.592 Q 22.512 2.096 21.912 1.864 Q 21.312 1.632 20.624 1.632 Q 19.76 1.632 19.2 2.032 Q 18.64 2.432 18.64 3.2 Q 18.64 3.68 18.832 4.008 Q 19.024 4.336 19.544 4.608 Q 20.064 4.88 21.056 5.184 Q 22.096 5.504 22.784 5.872 Q 23.472 6.24 23.896 6.888 Q 24.32 7.536 24.32 8.528 Q 24.32 9.488 23.848 10.224 Q 23.376 10.96 22.488 11.376 Q 21.6 11.792 20.384 11.792 Q 18.096 11.792 16.64 10.368 L 17.488 9.424 Q 18.144 9.984 18.832 10.264 Q 19.52 10.544 20.368 10.544 Q 21.392 10.544 22.064 10.04 Q 22.736 9.536 22.736 8.576 Q 22.736 8.032 22.528 7.672 Q 22.32 7.312 21.816 7.024 Q 21.312 6.736 20.352 6.448 Q 18.656 5.936 17.872 5.216 Q 17.088 4.496 17.088 3.264 Q 17.088 2.432 17.528 1.776 Q 17.968 1.12 18.76 0.752 Q 19.552 0.384 20.56 0.384 Q 21.664 0.384 22.448 0.696 Z" stroke="none" fill="black" fill-opacity="1" /></svg>
<rect x="245.35000000000002" y="148" width="80.9" height="50" rx="0" ry="0" fill="white" fill-opacity="1" stroke="black" stroke-opacity="1" stroke-width="1"  />
<svg x="272.78" y="165.46" width="26.05" height="15.08">
<path d="M 7.952 1.872 L 4.896 1.872 L 4.896 11.6 L 3.376 11.6 L 3.376 1.872 L 0.24 1.872 L 0.24 0.576 L 8.112 0.576 L 7.952 1.872 Z" stroke="none" fill="black" fill-opacity="1" />
<path d="M 14.92 0.64 Q 15.6 0.896 16.304 1.472 L 15.472 2.448 Q 14.464 1.632 13.344 1.632 Q 11.968 1.632 11.128 2.688 Q 10.288 3.744 10.288 6.08 Q 10.288 8.352 11.12 9.432 Q 11.952 10.512 13.328 10.512 Q 14.032 10.512 14.544 10.272 Q 15.056 10.032 15.664 9.584 L 16.432 10.56 Q 15.936 11.088 15.128 11.44 Q 14.32 11.792 13.28 11.792 Q 11.936 11.792 10.888 11.128 Q 9.84 10.464 9.256 9.176 Q 8.672 7.888 8.672 6.08 Q 8.672 4.272 9.28 2.984 Q 9.888 1.696 10.928 1.04 Q 11.968 0.384 13.248 0.384 Q 14.24 0.384 14.92 0.64 Z" stroke="none" fill="black" fill-opacity="1" />
<path d="M 24.416 1.432 Q 25.536 2.288 25.536 3.984 Q 25.536 5.792 24.368 6.672 Q 23.2 7.552 21.264 7.552 L 19.872 7.552 L 19.872 11.6 L 18.352 11.6 L 18.352 0.576 L 21.248 0.576 Q 23.296 0.576 24.416 1.432 Z M 23.224 5.84 Q 23.92 5.328 23.92 4 Q 23.92 2.816 23.224 2.288 Q 22.528 1.76 21.232 1.76 L 19.872 1.76 L 19.872 6.352 L 21.2 6.352 Q 22.528 6.352 23.224 5.84 Z" stroke="none" fill="black" fill-opacity="1" /></svg>
<rect x="245.35000000000002" y="198" width="80.9" height="50" rx="0" ry="0" fill="white" fill-opacity="1" stroke="black" stroke-opacity="1" stroke-width="1"  />
<svg x="278.79" y="215.83" width="14.02" height="14.33">
<path d="M 3.12 11.024 L 1.6 11.024 L 1.6 0 L 3.12 0 L 3.12 11.024 Z" stroke="none" fill="black" fill-opacity="1" />
<path d="M 12.384 0.856 Q 13.504 1.712 13.504 3.408 Q 13.504 5.216 12.336 6.096 Q 11.168 6.976 9.232 6.976 L 7.84 6.976 L 7.84 11.024 L 6.32 11.024 L 6.32 0 L 9.216 0 Q 11.264 0 12.384 0.856 Z M 11.192 5.264 Q 11.888 4.752 11.888 3.424 Q 11.888 2.24 11.192 1.712 Q 10.496 1.184 9.2 1.184 L 7.84 1.184 L 7.84 5.776 L 9.168 5.776 Q 10.496 5.776 11.192 5.264 Z" stroke="none" fill="black" fill-opacity="1" /></svg>
<rect x="245.35000000000002" y="248" width="80.9" height="50" rx="0" ry="0" fill="white" fill-opacity="1" stroke="black" stroke-opacity="1" stroke-width="1"  />
<svg x="267.29" y="264.89" width="37.02" height="16.22">
<path d="M 10.576 12.48 L 8.624 12.48 L 6.592 3.248 L 4.544 12.48 L 2.64 12.48 L 0.4 1.456 L 1.888 1.456 L 3.664 11.152 L 5.792 1.456 L 7.408 1.456 L 9.584 11.152 L 11.424 1.456 L 12.816 1.456 L 10.576 12.48 Z" stroke="none" fill="black" fill-opacity="1" />
<path d="M 16.208 12.48 L 14.736 12.48 L 14.736 4.048 L 16.208 4.048 L 16.208 12.48 Z M 16.208 0.288 Q 16.496 0.576 16.496 1.008 Q 16.496 1.44 16.208 1.72 Q 15.92 2 15.456 2 Q 15.008 2 14.72 1.72 Q 14.432 1.44 14.432 1.008 Q 14.432 0.576 14.72 0.288 Q 15.008 0 15.456 0 Q 15.92 0 16.208 0.288 Z" stroke="none" fill="black" fill-opacity="1" />
<path d="M 18.688 6.848 L 23.216 6.848 L 23.216 8.096 L 18.688 8.096 L 18.688 6.848 Z" stroke="none" fill="black" fill-opacity="1" />
<path d="M 31.456 2.672 L 27.296 2.672 L 27.296 6.432 L 30.896 6.432 L 30.896 7.632 L 27.296 7.632 L 27.296 12.48 L 25.776 12.48 L 25.776 1.456 L 31.632 1.456 L 31.456 2.672 Z" stroke="none" fill="black" fill-opacity="1" />
<path d="M 35.504 12.48 L 34.032 12.48 L 34.032 4.048 L 35.504 4.048 L 35.504 12.48 Z M 35.504 0.288 Q 35.792 0.576 35.792 1.008 Q 35.792 1.44 35.504 1.72 Q 35.216 2 34.752 2 Q 34.304 2 34.016 1.72 Q 33.728 1.44 33.728 1.008 Q 33.728 0.576 34.016 0.288 Q 34.304 0 34.752 0 Q 35.216 0 35.504 0.288 Z" stroke="none" fill="black" fill-opacity="1" /></svg>
<rect x="245.35000000000002" y="298" width="80.9" height="50" rx="0" ry="0" fill="white" fill-opacity="1" stroke="black" stroke-opacity="1" stroke-width="1"  />
<svg x="256.10" y="313.09" width="59.41" height="19.82">
<path d="M 7.664 5.08 Q 8.784 5.936 8.784 7.632 Q 8.784 9.44 7.616 10.32 Q 6.448 11.2 4.512 11.2 L 3.12 11.2 L 3.12 15.248 L 1.6 15.248 L 1.6 4.224 L 4.496 4.224 Q 6.544 4.224 7.664 5.08 Z M 6.472 9.488 Q 7.168 8.976 7.168 7.648 Q 7.168 6.464 6.472 5.936 Q 5.776 5.408 4.48 5.408 L 3.12 5.408 L 3.12 10 L 4.448 10 Q 5.776 10 6.472 9.488 Z" stroke="none" fill="black" fill-opacity="1" />
<path d="M 16.584 7.312 Q 17.232 8 17.232 9.2 L 17.232 15.248 L 15.76 15.248 L 15.76 9.408 Q 15.76 8.512 15.416 8.144 Q 15.072 7.776 14.416 7.776 Q 13.76 7.776 13.248 8.16 Q 12.736 8.544 12.288 9.248 L 12.288 15.248 L 10.816 15.248 L 10.816 3.44 L 12.288 3.28 L 12.288 7.984 Q 13.28 6.624 14.784 6.624 Q 15.936 6.624 16.584 7.312 Z" stroke="none" fill="black" fill-opacity="1" />
<path d="M 23.408 15.296 Q 22.912 16.768 22.024 17.624 Q 21.136 18.48 19.488 18.656 L 19.328 17.504 Q 20.16 17.36 20.656 17.088 Q 21.152 16.816 21.448 16.392 Q 21.744 15.968 22 15.248 L 21.504 15.248 L 18.672 6.816 L 20.24 6.816 L 22.496 14.176 L 24.704 6.816 L 26.224 6.816 L 23.408 15.296 Z" stroke="none" fill="black" fill-opacity="1" />
<path d="M 31.744 6.864 Q 32.432 7.104 33.056 7.584 L 32.432 8.512 Q 31.856 8.144 31.336 7.968 Q 30.816 7.792 30.24 7.792 Q 29.52 7.792 29.104 8.088 Q 28.688 8.384 28.688 8.896 Q 28.688 9.408 29.08 9.696 Q 29.472 9.984 30.496 10.256 Q 31.904 10.608 32.6 11.216 Q 33.296 11.824 33.296 12.88 Q 33.296 14.128 32.328 14.784 Q 31.36 15.44 29.968 15.44 Q 28.048 15.44 26.784 14.336 L 27.568 13.44 Q 28.64 14.256 29.936 14.256 Q 30.768 14.256 31.256 13.912 Q 31.744 13.568 31.744 12.976 Q 31.744 12.544 31.568 12.28 Q 31.392 12.016 30.96 11.816 Q 30.528 11.616 29.696 11.392 Q 28.352 11.04 27.752 10.448 Q 27.152 9.856 27.152 8.944 Q 27.152 8.288 27.544 7.752 Q 27.936 7.216 28.632 6.92 Q 29.328 6.624 30.192 6.624 Q 31.056 6.624 31.744 6.864 Z" stroke="none" fill="black" fill-opacity="1" />
<path d="M 36.848 15.248 L 35.376 15.248 L 35.376 6.816 L 36.848 6.816 L 36.848 15.248 Z M 36.848 3.056 Q 37.136 3.344 37.136 3.776 Q 37.136 4.208 36.848 4.488 Q 36.56 4.768 36.096 4.768 Q 35.648 4.768 35.36 4.488 Q 35.072 4.208 35.072 3.776 Q 35.072 3.344 35.36 3.056 Q 35.648 2.768 36.096 2.768 Q 36.56 2.768 36.848 3.056 Z" stroke="none" fill="black" fill-opacity="1" />
<path d="M 44.336 6.84 Q 44.96 7.056 45.536 7.536 L 44.832 8.464 Q 44.384 8.144 43.96 7.992 Q 43.536 7.84 43.024 7.84 Q 42 7.84 41.432 8.656 Q 40.864 9.472 40.864 11.072 Q 40.864 12.672 41.424 13.432 Q 41.984 14.192 43.024 14.192 Q 43.52 14.192 43.936 14.04 Q 44.352 13.888 44.864 13.552 L 45.536 14.512 Q 44.384 15.44 42.96 15.44 Q 41.248 15.44 40.264 14.288 Q 39.28 13.136 39.28 11.104 Q 39.28 9.76 39.728 8.752 Q 40.176 7.744 41 7.184 Q 41.824 6.624 42.96 6.624 Q 43.712 6.624 44.336 6.84 Z" stroke="none" fill="black" fill-opacity="1" />
<path d="M 53.392 14.04 Q 53.568 14.288 53.92 14.416 L 53.584 15.44 Q 52.928 15.36 52.528 15.072 Q 52.128 14.784 51.936 14.176 Q 51.088 15.44 49.424 15.44 Q 48.176 15.44 47.456 14.736 Q 46.736 14.032 46.736 12.896 Q 46.736 11.552 47.704 10.832 Q 48.672 10.112 50.448 10.112 L 51.744 10.112 L 51.744 9.488 Q 51.744 8.592 51.312 8.208 Q 50.88 7.824 49.984 7.824 Q 49.056 7.824 47.712 8.272 L 47.344 7.2 Q 48.912 6.624 50.256 6.624 Q 51.744 6.624 52.48 7.352 Q 53.216 8.08 53.216 9.424 L 53.216 13.28 Q 53.216 13.792 53.392 14.04 Z M 51.744 13.024 L 51.744 11.088 L 50.64 11.088 Q 48.304 11.088 48.304 12.816 Q 48.304 13.568 48.672 13.952 Q 49.04 14.336 49.76 14.336 Q 51.024 14.336 51.744 13.024 Z" stroke="none" fill="black" fill-opacity="1" />
<path d="M 56.632 14.952 Q 56.16 14.464 56.16 13.584 L 56.16 3.424 L 57.632 3.248 L 57.632 13.552 Q 57.632 13.904 57.752 14.064 Q 57.872 14.224 58.16 14.224 Q 58.464 14.224 58.704 14.128 L 59.088 15.152 Q 58.56 15.44 57.92 15.44 Q 57.104 15.44 56.632 14.952 Z" stroke="none" fill="black" fill-opacity="1" /></svg>
<rect x="261.8" y="-1" width="48" height="48" fill="white" fill-opacity="1"></rect>
<svg  width="48"  height="48" viewBox="0 0 128 128" xmlns="http://www.w3.org/2000/svg" x="261.8" y="-1">
    <defs>
        <radialGradient id="k" cx="12.576" cy="67.502" r="8.766" fx="12.576" fy="67.502" gradientUnits="userSpaceOnUse" gradientTransform="matrix(1.9258 0 0 0.51926 0 0)">
            <stop offset="0" stop-color="#000000"/>
            <stop offset="1" stop-color="#000000" stop-opacity="0"/>
        </radialGradient>
        <linearGradient id="l" x1="18.317" y1="48.643" x2="18.177" y2="52.536" gradientUnits="userSpaceOnUse" gradientTransform="matrix(2.92602 0 0 3.08214 4.2 -59.215)">
            <stop offset="0" stop-color="#dde1d9"/>
            <stop offset="1" stop-color="#cacdc6"/>
        </linearGradient>
        <linearGradient id="m" x1="8.113" y1="88.509" x2="8.113" y2="100.2" gradientUnits="userSpaceOnUse" gradientTransform="matrix(5.8295 0 0 1.05218 3.72 -32.149)">
            <stop offset="0" stop-color="#9d9d9d"/>
            <stop offset="1" stop-color="#b9b9b9"/>
        </linearGradient>
        <linearGradient id="n" x1="8.113" y1="88.509" x2="8.113" y2="100.2" gradientUnits="userSpaceOnUse" gradientTransform="matrix(5.8295 0 0 1.05218 3.72 -32.149)">
            <stop offset="0" stop-color="#9d9d9d"/>
            <stop offset="1" stop-color="#b9b9b9"/>
        </linearGradient>
        <linearGradient id="o" x1="13.629" y1="101.285" x2="8.649" y2="74.098" gradientUnits="userSpaceOnUse" gradientTransform="matrix(5.55139 0 0 1.62453 6.79 -60.987)">
            <stop offset="0" stop-color="#f9fff5"/>
            <stop offset="1" stop-color="#f9fff5" stop-opacity="0"/>
        </linearGradient>
        <linearGradient id="p" x1="8.612" y1="7.229" x2="34.784" y2="33.34" gradientUnits="userSpaceOnUse" gradientTransform="matrix(-2.9894 0 0 -1.62076 123.233 71.981)">
            <stop offset="0" stop-color="#dde1d9"/>
            <stop offset="1" stop-color="#cacdc6"/>
        </linearGradient>
        <linearGradient id="q" x1="-57.547" y1="38.653" x2="-57.495" y2="15.323" gradientUnits="userSpaceOnUse" gradientTransform="matrix(-2.21792 0 0 -1.46705 -89.237 80.97)">
            <stop offset="0" stop-color="#416db4"/>
            <stop offset="1" stop-color="#385e9b"/>
        </linearGradient>
        <linearGradient id="r" x1="3.707" y1="171.291" x2="3.707" y2="162.451" gradientUnits="userSpaceOnUse" gradientTransform="matrix(-15.09478 0 0 -0.32098 116.287 70.837)">
            <stop offset="0" stop-color="#000000"/>
            <stop offset="1" stop-color="#000000" stop-opacity="0"/>
        </linearGradient>
        <linearGradient id="s" x1="17.698" y1="13.005" x2="34.975" y2="55.201" gradientUnits="userSpaceOnUse" gradientTransform="matrix(-2.93174 0 0 -1.65264 116.287 67.761)">
            <stop offset="0" stop-color="#ffffff"/>
            <stop offset="1" stop-color="#ffffff" stop-opacity="0"/>
        </linearGradient>
        <linearGradient id="t" x1="11.492" y1="1.654" x2="17.199" y2="26.729" gradientUnits="userSpaceOnUse" gradientTransform="matrix(-3.59362 0 0 -1.6407 119.234 72.031)">
            <stop offset="0" stop-color="#ffffff"/>
            <stop offset="1" stop-color="#fcfcff" stop-opacity="0"/>
        </linearGradient>
        <linearGradient id="u" x1="34.301" y1="3.938" x2="35.521" y2="3.845" gradientUnits="userSpaceOnUse">
            <stop offset="0" stop-color="#909090"/>
            <stop offset="1" stop-color="#bebebe" stop-opacity="0"/>
        </linearGradient>
        <linearGradient id="v" x1="34.301" y1="3.938" x2="35.521" y2="3.845" gradientUnits="userSpaceOnUse">
            <stop offset="0" stop-color="#909090"/>
            <stop offset="1" stop-color="#bebebe" stop-opacity="0"/>
        </linearGradient>
    </defs>
    <path fill="url(#k)" fill-rule="evenodd" stroke="none" transform="matrix(3.72461 0 0 6.21177 -26.293 -124.758)" d="M 41.1 35.051 C 41.1 37.56500018123 33.54167114664 39.603 24.218 39.603 C 14.89432885336 39.603 7.336 37.56500018123 7.336 35.051 C 7.336 32.53692536076 14.89455271098 30.49886518185 24.2185 30.49886518185 C 33.54244728902 30.49886518185 41.101 32.53692536076 41.101 35.051 Z"/>
    <path fill="url(#l)" fill-rule="evenodd" stroke="none" d="M 20.936 68.998 L 101.223 68.998 C 104.122 68.998 103.754 69.944 104.052 71.132 L 111.392 100.471 C 111.69 101.66 111.462 102.605 108.564 102.605 L 13.595 102.605 C 10.697 102.605 10.469 101.66 10.767 100.471 L 18.107 71.132 C 18.405 69.944 18.037 68.998 20.936 68.998 Z"/>
    <path fill="#7a7d77" fill-rule="evenodd" stroke="none" transform="matrix(1.25044 0 0 1.43287 -1.836 -13.15)" d="M 19.85 62.22 L 15.39 74.68 L 29.22 74.68 L 30.558 69.739 L 68.034 69.739 L 69.421 74.782 L 84.987 74.782 L 80.75 62.22 L 19.851 62.22 Z"/>
    <path fill="#777874" fill-rule="evenodd" stroke="none" transform="matrix(1.25044 0 0 1.43287 -1.836 -13.15)" d="M 31.674 70.598 L 30.558 74.68 L 67.811 74.68 L 66.696 70.383 L 31.674 70.598 Z"/>
    <path fill="url(#m)" fill-rule="evenodd" stroke="none" transform="matrix(1.25044 0 0 1.43287 -1.836 -13.15)" d="M 19.85 60.717 L 15.39 73.177 L 29.22 73.177 L 30.558 68.235 L 68.034 68.235 L 69.421 73.279 L 84.987 73.279 L 80.75 60.717 L 19.851 60.717 Z"/>
    <path fill="url(#n)" fill-rule="evenodd" stroke="none" transform="matrix(1.25044 0 0 1.43287 -1.836 -13.15)" d="M 31.674 69.31 L 30.558 73.39 L 67.811 73.39 L 66.696 69.095 L 31.674 69.309 Z"/>
    <path fill="none" stroke="url(#o)" stroke-width="1.9266727" stroke-linejoin="round" d="M 20.07 71.647 L 102.49 71.647 L 109.32 99.829 L 12.823 99.829 L 20.069 71.647 Z"/>
    <path fill="url(#p)" fill-rule="evenodd" stroke="none" d="M 100.199 66.488 L 21.914 66.488 C 19.502 66.488 17.616 65.419 17.504 63.921 L 13.979 17.081 C 13.825 15.034 16.363 13.381 19.325 13.381 L 102.787 13.381 C 105.749 13.381 108.287 15.034 108.133 17.081 L 104.608 63.921 C 104.502 65.337 103.16 66.488 100.198 66.488 Z"/>
    <path fill="url(#q)" fill-rule="evenodd" stroke="#4263a8" stroke-width="1.48494709" stroke-linejoin="round" d="M 96.396 61.671 L 99.931 20.173 L 21.24 20.173 L 25.04 61.495 L 96.395 61.671 Z"/>
    <path fill="none" stroke="url(#r)" stroke-opacity="0.24840764" stroke-width="2.81360888" stroke-linecap="round" d="M 102.589 16.97 L 19.435 16.97"/>
    <path fill="none" stroke="url(#s)" stroke-opacity="0.70063692" stroke-width="2.82439375" d="M 100.639 64.637 L 21.673 64.706 C 20.923 64.706 20.193 64.271 20.133 63.511 L 16.529 18.091 C 16.376 16.155 17.958 14.82 20.759 14.82 L 101.519 14.82 C 104.32 14.82 105.734 16.154 105.583 18.09 L 102.079 62.945 C 101.977 64.255 101.639 64.635 100.639 64.637 Z"/>
    <g opacity="0.53142856">
        <path fill="url(#t)" fill-rule="evenodd" stroke="none" d="M 95.68 60.9 L 98.008 28.176 C 65.973 32.572 64.88 47.39 25.048 52.251 L 25.518 60.78 L 95.68 60.9 Z"/>
    </g>
    <path fill="url(#u)" fill-rule="evenodd" stroke="none" transform="matrix(-3.5222 0 0 -1.20578 196.946 76.695)" d="M 35.62 3.938 C 35.63059152316 4.24483444704 35.47294058943 4.53300457778 35.20883905063 4.68956107063 C 34.94473751182 4.84611756347 34.61626248818 4.84611756347 34.35216094937 4.68956107063 C 34.08805941057 4.53300457778 33.93040847684 4.24483444704 33.941 3.938 C 33.941 3.47408081014 34.31708081014 3.098 34.781 3.098 C 35.24491918986 3.098 35.621 3.47408081014 35.621 3.938 Z"/>
    <path fill="url(#v)" fill-rule="evenodd" stroke="none" transform="matrix(-3.5222 0 0 -1.20578 204.252 76.695)" d="M 35.62 3.938 C 35.63059152316 4.24483444704 35.47294058943 4.53300457778 35.20883905063 4.68956107063 C 34.94473751182 4.84611756347 34.61626248818 4.84611756347 34.35216094937 4.68956107063 C 34.08805941057 4.53300457778 33.93040847684 4.24483444704 33.941 3.938 C 33.941 3.47408081014 34.31708081014 3.098 34.781 3.098 C 35.24491918986 3.098 35.621 3.47408081014 35.621 3.938 Z"/>
    <path fill="#339900" fill-rule="evenodd" stroke="none" transform="matrix(-3.5222 0 0 -1.20578 213.16 76.695)" d="M 35.62 3.938 C 35.63059152316 4.24483444704 35.47294058943 4.53300457778 35.20883905063 4.68956107063 C 34.94473751182 4.84611756347 34.61626248818 4.84611756347 34.35216094937 4.68956107063 C 34.08805941057 4.53300457778 33.93040847684 4.24483444704 33.941 3.938 C 33.941 3.47408081014 34.31708081014 3.098 34.781 3.098 C 35.24491918986 3.098 35.621 3.47408081014 35.621 3.938 Z"/>
    <path fill="#4a4a4a" stroke="none" d="M 58.707 16.069 L 59.452 16.069 C 59.674 16.069 59.844 16.103 59.962 16.172 C 60.07275676104 16.22574170267 60.1422207991 16.33891345007 60.14 16.462 C 60.14 16.589 60.08 16.686 59.962 16.754 C 59.844 16.822 59.674 16.856 59.452 16.856 L 59.156 16.856 L 59.156 17.274 L 58.706 17.274 L 58.706 16.07 M 59.156 16.295 L 59.156 16.632 L 59.404 16.632 C 59.47407349251 16.63587184891 59.54388510715 16.6206653586 59.606 16.588 C 59.65088540621 16.56259293069 59.67816576304 16.51456413345 59.677 16.463 C 59.67843968048 16.4118906153 59.65150291039 16.36417405115 59.607 16.339 C 59.54458967494 16.30615679997 59.47440796434 16.29094500063 59.404 16.295 L 59.156 16.295 M 61.252 16.273 C 61.13643907754 16.26578558455 61.02254421251 16.3033923796 60.934 16.378 C 60.85500873537 16.45555527884 60.8134373881 16.56349491737 60.82 16.674 C 60.82 16.8 60.858 16.899 60.934 16.969 C 61.02254421251 17.0436076204 61.13643907754 17.08121441545 61.252 17.074 C 61.368210087 17.08152940159 61.4828422225 17.04391573213 61.572 16.969 C 61.65046611474 16.89157670174 61.69166140771 16.78403146788 61.685 16.674 C 61.69182285892 16.56364819118 61.6506249452 16.45573153225 61.572 16.378 C 61.48279113533 16.30317609192 61.36819684049 16.26557483892 61.252 16.273 M 61.252 16.048 C 61.532 16.048 61.752 16.104 61.91 16.215 C 62.06364286391 16.3163026279 62.1537371457 16.49005588563 62.148 16.674 C 62.1533860982 16.85759283115 62.06333407889 17.03088621284 61.91 17.132 C 61.751 17.243 61.532 17.299 61.252 17.299 C 60.972 17.299 60.754 17.243 60.594 17.132 C 60.44066592111 17.03088621284 60.3506139018 16.85759283115 60.356 16.674 C 60.34991086028 16.48970481009 60.44004754061 16.31549105819 60.594 16.214 C 60.754 16.104 60.973 16.048 61.252 16.048 M 62.486 16.07 L 62.988 16.07 L 63.621 16.897 L 63.621 16.07 L 64.047 16.07 L 64.047 17.275 L 63.545 17.275 L 62.912 16.449 L 62.912 17.275 L 62.486 17.275 L 62.486 16.07 M 64.24 16.07 L 64.732 16.07 L 65.128 16.5 L 65.525 16.07 L 66.017 16.07 L 65.353 16.768 L 65.353 17.275 L 64.904 17.275 L 64.904 16.768 L 64.24 16.07"/>
</svg>


<svg x="254.40" y="-21.07" width="62.80" height="20.07">
<path d="M 3.12 14.112 L 7.648 14.112 L 7.472 15.44 L 1.6 15.44 L 1.6 4.416 L 3.12 4.416 L 3.12 14.112 Z" stroke="none" fill="black" fill-opacity="1" />
<path d="M 15.344 14.232 Q 15.52 14.48 15.872 14.608 L 15.536 15.632 Q 14.88 15.552 14.48 15.264 Q 14.08 14.976 13.888 14.368 Q 13.04 15.632 11.376 15.632 Q 10.128 15.632 9.408 14.928 Q 8.688 14.224 8.688 13.088 Q 8.688 11.744 9.656 11.024 Q 10.624 10.304 12.4 10.304 L 13.696 10.304 L 13.696 9.68 Q 13.696 8.784 13.264 8.4 Q 12.832 8.016 11.936 8.016 Q 11.008 8.016 9.664 8.464 L 9.296 7.392 Q 10.864 6.816 12.208 6.816 Q 13.696 6.816 14.432 7.544 Q 15.168 8.272 15.168 9.616 L 15.168 13.472 Q 15.168 13.984 15.344 14.232 Z M 13.696 13.216 L 13.696 11.28 L 12.592 11.28 Q 10.256 11.28 10.256 13.008 Q 10.256 13.76 10.624 14.144 Q 10.992 14.528 11.712 14.528 Q 12.976 14.528 13.696 13.216 Z" stroke="none" fill="black" fill-opacity="1" />
<path d="M 24.432 7.968 Q 25.184 9.12 25.184 11.216 Q 25.184 13.2 24.32 14.416 Q 23.456 15.632 21.872 15.632 Q 20.464 15.632 19.664 14.672 L 19.664 18.672 L 18.192 18.848 L 18.192 7.008 L 19.456 7.008 L 19.568 8.144 Q 20.032 7.504 20.688 7.16 Q 21.344 6.816 22.064 6.816 Q 23.68 6.816 24.432 7.968 Z M 23.6 11.216 Q 23.6 7.984 21.696 7.984 Q 21.072 7.984 20.56 8.352 Q 20.048 8.72 19.664 9.296 L 19.664 13.408 Q 19.984 13.904 20.464 14.168 Q 20.944 14.432 21.52 14.432 Q 23.6 14.432 23.6 11.216 Z" stroke="none" fill="black" fill-opacity="1" />
<path d="M 31.952 15.056 Q 31.12 15.632 30.064 15.632 Q 28.992 15.632 28.392 15.016 Q 27.792 14.4 27.792 13.232 L 27.792 8.144 L 26.32 8.144 L 26.32 7.008 L 27.792 7.008 L 27.792 5.104 L 29.264 4.928 L 29.264 7.008 L 31.264 7.008 L 31.104 8.144 L 29.264 8.144 L 29.264 13.168 Q 29.264 13.824 29.496 14.12 Q 29.728 14.416 30.272 14.416 Q 30.8 14.416 31.392 14.048 L 31.952 15.056 Z" stroke="none" fill="black" fill-opacity="1" />
<path d="M 39.24 8 Q 40.224 9.184 40.224 11.216 Q 40.224 12.528 39.776 13.528 Q 39.328 14.528 38.48 15.08 Q 37.632 15.632 36.464 15.632 Q 34.688 15.632 33.696 14.448 Q 32.704 13.264 32.704 11.232 Q 32.704 9.92 33.152 8.92 Q 33.6 7.92 34.448 7.368 Q 35.296 6.816 36.48 6.816 Q 38.256 6.816 39.24 8 Z M 34.288 11.232 Q 34.288 14.448 36.464 14.448 Q 38.64 14.448 38.64 11.216 Q 38.64 8 36.48 8 Q 34.288 8 34.288 11.232 Z" stroke="none" fill="black" fill-opacity="1" />
<path d="M 48.896 7.968 Q 49.648 9.12 49.648 11.216 Q 49.648 13.2 48.784 14.416 Q 47.92 15.632 46.336 15.632 Q 44.928 15.632 44.128 14.672 L 44.128 18.672 L 42.656 18.848 L 42.656 7.008 L 43.92 7.008 L 44.032 8.144 Q 44.496 7.504 45.152 7.16 Q 45.808 6.816 46.528 6.816 Q 48.144 6.816 48.896 7.968 Z M 48.064 11.216 Q 48.064 7.984 46.16 7.984 Q 45.536 7.984 45.024 8.352 Q 44.512 8.72 44.128 9.296 L 44.128 13.408 Q 44.448 13.904 44.928 14.168 Q 45.408 14.432 45.984 14.432 Q 48.064 14.432 48.064 11.216 Z" stroke="none" fill="black" fill-opacity="1" />
<path d="M 60.216 4.96 Q 60.944 5.344 61.344 6.008 Q 61.744 6.672 61.744 7.504 Q 61.744 8.48 61.304 9.376 Q 60.864 10.272 59.952 11.312 Q 59.04 12.352 57.184 14.208 L 62 14.208 L 61.824 15.44 L 55.504 15.44 L 55.504 14.272 Q 57.648 12.048 58.544 11.016 Q 59.44 9.984 59.824 9.216 Q 60.208 8.448 60.208 7.568 Q 60.208 6.736 59.728 6.264 Q 59.248 5.792 58.448 5.792 Q 57.792 5.792 57.296 6.064 Q 56.8 6.336 56.272 6.96 L 55.28 6.192 Q 55.936 5.376 56.736 4.976 Q 57.536 4.576 58.528 4.576 Q 59.488 4.576 60.216 4.96 Z" stroke="none" fill="black" fill-opacity="1" /></svg>
<g>
<path id="path18" fill="none" stroke="black" stroke-opacity="1" stroke-width="1" stroke-dasharray="4 4" d="
M 64.45,173
L 245.35000000000002,173
" />
<polygon points="235.35000000000002,178 235.35000000000002,168 245.35000000000002,173" stroke="none" fill="black" fill-opacity="1" />
</g>
<rect x="87.46800000000003" y="160.196" width="134.864" height="25.608" fill="white" fill-opacity="1" />
<svg x="88.47" y="161.20" width="132.86" height="23.61">
<path d="M 4.544 5.28 Q 3.712 6.512 3.224 7.48 Q 2.736 8.448 2.456 9.68 Q 2.176 10.912 2.176 12.56 Q 2.176 14.192 2.456 15.424 Q 2.736 16.656 3.224 17.64 Q 3.712 18.624 4.544 19.84 L 3.616 20.48 Q 2.56 18.976 1.992 18.008 Q 1.424 17.04 1.032 15.688 Q 0.64 14.336 0.64 12.56 Q 0.64 10.784 1.032 9.432 Q 1.424 8.08 1.992 7.112 Q 2.56 6.144 3.616 4.64 L 4.544 5.28 Z" stroke="none" fill="black" fill-opacity="1" />
<path d="M 10.352 18.16 L 8.88 18.16 L 8.88 9.024 L 6.384 10.544 L 5.744 9.504 L 9.056 7.456 L 10.352 7.456 L 10.352 18.16 Z" stroke="none" fill="black" fill-opacity="1" />
<path d="M 15.304 7.112 Q 15.872 8.08 16.264 9.432 Q 16.656 10.784 16.656 12.56 Q 16.656 14.336 16.264 15.688 Q 15.872 17.04 15.304 18.008 Q 14.736 18.976 13.68 20.48 L 12.752 19.84 Q 13.584 18.624 14.072 17.64 Q 14.56 16.656 14.84 15.424 Q 15.12 14.192 15.12 12.56 Q 15.12 10.912 14.84 9.68 Q 14.56 8.448 14.072 7.48 Q 13.584 6.512 12.752 5.28 L 13.68 4.64 Q 14.736 6.144 15.304 7.112 Z" stroke="none" fill="black" fill-opacity="1" />
<path d="M 29.488 8.432 L 26.432 8.432 L 26.432 18.16 L 24.912 18.16 L 24.912 8.432 L 21.776 8.432 L 21.776 7.136 L 29.648 7.136 L 29.488 8.432 Z" stroke="none" fill="black" fill-opacity="1" />
<path d="M 36.456 7.2 Q 37.136 7.456 37.84 8.032 L 37.008 9.008 Q 36 8.192 34.88 8.192 Q 33.504 8.192 32.664 9.248 Q 31.824 10.304 31.824 12.64 Q 31.824 14.912 32.656 15.992 Q 33.488 17.072 34.864 17.072 Q 35.568 17.072 36.08 16.832 Q 36.592 16.592 37.2 16.144 L 37.968 17.12 Q 37.472 17.648 36.664 18 Q 35.856 18.352 34.816 18.352 Q 33.472 18.352 32.424 17.688 Q 31.376 17.024 30.792 15.736 Q 30.208 14.448 30.208 12.64 Q 30.208 10.832 30.816 9.544 Q 31.424 8.256 32.464 7.6 Q 33.504 6.944 34.784 6.944 Q 35.776 6.944 36.456 7.2 Z" stroke="none" fill="black" fill-opacity="1" />
<path d="M 45.952 7.992 Q 47.072 8.848 47.072 10.544 Q 47.072 12.352 45.904 13.232 Q 44.736 14.112 42.8 14.112 L 41.408 14.112 L 41.408 18.16 L 39.888 18.16 L 39.888 7.136 L 42.784 7.136 Q 44.832 7.136 45.952 7.992 Z M 44.76 12.4 Q 45.456 11.888 45.456 10.56 Q 45.456 9.376 44.76 8.848 Q 44.064 8.32 42.768 8.32 L 41.408 8.32 L 41.408 12.912 L 42.736 12.912 Q 44.064 12.912 44.76 12.4 Z" stroke="none" fill="black" fill-opacity="1" />
<path d="M 57.792 9.752 Q 58.416 9.968 58.992 10.448 L 58.288 11.376 Q 57.84 11.056 57.416 10.904 Q 56.992 10.752 56.48 10.752 Q 55.456 10.752 54.888 11.568 Q 54.32 12.384 54.32 13.984 Q 54.32 15.584 54.88 16.344 Q 55.44 17.104 56.48 17.104 Q 56.976 17.104 57.392 16.952 Q 57.808 16.8 58.32 16.464 L 58.992 17.424 Q 57.84 18.352 56.416 18.352 Q 54.704 18.352 53.72 17.2 Q 52.736 16.048 52.736 14.016 Q 52.736 12.672 53.184 11.664 Q 53.632 10.656 54.456 10.096 Q 55.28 9.536 56.416 9.536 Q 57.168 9.536 57.792 9.752 Z" stroke="none" fill="black" fill-opacity="1" />
<path d="M 66.76 10.72 Q 67.744 11.904 67.744 13.936 Q 67.744 15.248 67.296 16.248 Q 66.848 17.248 66 17.8 Q 65.152 18.352 63.984 18.352 Q 62.208 18.352 61.216 17.168 Q 60.224 15.984 60.224 13.952 Q 60.224 12.64 60.672 11.64 Q 61.12 10.64 61.968 10.088 Q 62.816 9.536 64 9.536 Q 65.776 9.536 66.76 10.72 Z M 61.808 13.952 Q 61.808 17.168 63.984 17.168 Q 66.16 17.168 66.16 13.936 Q 66.16 10.72 64 10.72 Q 61.808 10.72 61.808 13.952 Z" stroke="none" fill="black" fill-opacity="1" />
<path d="M 75.944 10.224 Q 76.592 10.912 76.592 12.112 L 76.592 18.16 L 75.12 18.16 L 75.12 12.32 Q 75.12 11.424 74.784 11.056 Q 74.448 10.688 73.792 10.688 Q 73.12 10.688 72.608 11.072 Q 72.096 11.456 71.648 12.176 L 71.648 18.16 L 70.176 18.16 L 70.176 9.728 L 71.44 9.728 L 71.568 10.976 Q 72.016 10.304 72.68 9.92 Q 73.344 9.536 74.144 9.536 Q 75.296 9.536 75.944 10.224 Z" stroke="none" fill="black" fill-opacity="1" />
<path d="M 85.32 10.224 Q 85.968 10.912 85.968 12.112 L 85.968 18.16 L 84.496 18.16 L 84.496 12.32 Q 84.496 11.424 84.16 11.056 Q 83.824 10.688 83.168 10.688 Q 82.496 10.688 81.984 11.072 Q 81.472 11.456 81.024 12.176 L 81.024 18.16 L 79.552 18.16 L 79.552 9.728 L 80.816 9.728 L 80.944 10.976 Q 81.392 10.304 82.056 9.92 Q 82.72 9.536 83.52 9.536 Q 84.672 9.536 85.32 10.224 Z" stroke="none" fill="black" fill-opacity="1" />
<path d="M 95.264 14.448 L 89.888 14.448 Q 89.984 15.84 90.592 16.496 Q 91.2 17.152 92.16 17.152 Q 92.768 17.152 93.28 16.976 Q 93.792 16.8 94.352 16.416 L 94.992 17.296 Q 93.648 18.352 92.048 18.352 Q 90.288 18.352 89.304 17.2 Q 88.32 16.048 88.32 14.032 Q 88.32 12.72 88.744 11.704 Q 89.168 10.688 89.96 10.112 Q 90.752 9.536 91.824 9.536 Q 93.504 9.536 94.4 10.64 Q 95.296 11.744 95.296 13.696 Q 95.296 14.064 95.264 14.448 Z M 93.84 13.264 Q 93.84 12.016 93.344 11.36 Q 92.848 10.704 91.856 10.704 Q 90.048 10.704 89.888 13.36 L 93.84 13.36 L 93.84 13.264 Z" stroke="none" fill="black" fill-opacity="1" />
<path d="M 102.176 9.752 Q 102.8 9.968 103.376 10.448 L 102.672 11.376 Q 102.224 11.056 101.8 10.904 Q 101.376 10.752 100.864 10.752 Q 99.84 10.752 99.272 11.568 Q 98.704 12.384 98.704 13.984 Q 98.704 15.584 99.264 16.344 Q 99.824 17.104 100.864 17.104 Q 101.36 17.104 101.776 16.952 Q 102.192 16.8 102.704 16.464 L 103.376 17.424 Q 102.224 18.352 100.8 18.352 Q 99.088 18.352 98.104 17.2 Q 97.12 16.048 97.12 14.016 Q 97.12 12.672 97.568 11.664 Q 98.016 10.656 98.84 10.096 Q 99.664 9.536 100.8 9.536 Q 101.552 9.536 102.176 9.752 Z" stroke="none" fill="black" fill-opacity="1" />
<path d="M 109.632 17.776 Q 108.8 18.352 107.744 18.352 Q 106.672 18.352 106.072 17.736 Q 105.472 17.12 105.472 15.952 L 105.472 10.864 L 104 10.864 L 104 9.728 L 105.472 9.728 L 105.472 7.824 L 106.944 7.648 L 106.944 9.728 L 108.944 9.728 L 108.784 10.864 L 106.944 10.864 L 106.944 15.888 Q 106.944 16.544 107.176 16.84 Q 107.408 17.136 107.952 17.136 Q 108.48 17.136 109.072 16.768 L 109.632 17.776 Z" stroke="none" fill="black" fill-opacity="1" />
<path d="M 112.624 18.16 L 111.152 18.16 L 111.152 9.728 L 112.624 9.728 L 112.624 18.16 Z M 112.624 5.968 Q 112.912 6.256 112.912 6.688 Q 112.912 7.12 112.624 7.4 Q 112.336 7.68 111.872 7.68 Q 111.424 7.68 111.136 7.4 Q 110.848 7.12 110.848 6.688 Q 110.848 6.256 111.136 5.968 Q 111.424 5.68 111.872 5.68 Q 112.336 5.68 112.624 5.968 Z" stroke="none" fill="black" fill-opacity="1" />
<path d="M 121.592 10.72 Q 122.576 11.904 122.576 13.936 Q 122.576 15.248 122.128 16.248 Q 121.68 17.248 120.832 17.8 Q 119.984 18.352 118.816 18.352 Q 117.04 18.352 116.048 17.168 Q 115.056 15.984 115.056 13.952 Q 115.056 12.64 115.504 11.64 Q 115.952 10.64 116.8 10.088 Q 117.648 9.536 118.832 9.536 Q 120.608 9.536 121.592 10.72 Z M 116.64 13.952 Q 116.64 17.168 118.816 17.168 Q 120.992 17.168 120.992 13.936 Q 120.992 10.72 118.832 10.72 Q 116.64 10.72 116.64 13.952 Z" stroke="none" fill="black" fill-opacity="1" />
<path d="M 130.776 10.224 Q 131.424 10.912 131.424 12.112 L 131.424 18.16 L 129.952 18.16 L 129.952 12.32 Q 129.952 11.424 129.616 11.056 Q 129.28 10.688 128.624 10.688 Q 127.952 10.688 127.44 11.072 Q 126.928 11.456 126.48 12.176 L 126.48 18.16 L 125.008 18.16 L 125.008 9.728 L 126.272 9.728 L 126.4 10.976 Q 126.848 10.304 127.512 9.92 Q 128.176 9.536 128.976 9.536 Q 130.128 9.536 130.776 10.224 Z" stroke="none" fill="black" fill-opacity="1" /></svg>
<g>
<path id="path19" fill="none" stroke="black" stroke-opacity="1" stroke-width="1" stroke-dasharray="4 4" d="
M 64.45,123
L 245.35000000000002,123
" />
<polygon points="235.35000000000002,128 235.35000000000002,118 245.35000000000002,123" stroke="none" fill="black" fill-opacity="1" />
</g>
<rect x="100.81200000000004" y="110.196" width="108.17599999999999" height="25.608" fill="white" fill-opacity="1" />
<svg x="101.81" y="111.20" width="106.18" height="23.61">
<path d="M 4.544 5.28 Q 3.712 6.512 3.224 7.48 Q 2.736 8.448 2.456 9.68 Q 2.176 10.912 2.176 12.56 Q 2.176 14.192 2.456 15.424 Q 2.736 16.656 3.224 17.64 Q 3.712 18.624 4.544 19.84 L 3.616 20.48 Q 2.56 18.976 1.992 18.008 Q 1.424 17.04 1.032 15.688 Q 0.64 14.336 0.64 12.56 Q 0.64 10.784 1.032 9.432 Q 1.424 8.08 1.992 7.112 Q 2.56 6.144 3.616 4.64 L 4.544 5.28 Z" stroke="none" fill="black" fill-opacity="1" />
<path d="M 10.52 7.68 Q 11.248 8.064 11.648 8.728 Q 12.048 9.392 12.048 10.224 Q 12.048 11.2 11.608 12.096 Q 11.168 12.992 10.256 14.032 Q 9.344 15.072 7.488 16.928 L 12.304 16.928 L 12.128 18.16 L 5.808 18.16 L 5.808 16.992 Q 7.952 14.768 8.848 13.736 Q 9.744 12.704 10.128 11.936 Q 10.512 11.168 10.512 10.288 Q 10.512 9.456 10.032 8.984 Q 9.552 8.512 8.752 8.512 Q 8.096 8.512 7.6 8.784 Q 7.104 9.056 6.576 9.68 L 5.584 8.912 Q 6.24 8.096 7.04 7.696 Q 7.84 7.296 8.832 7.296 Q 9.792 7.296 10.52 7.68 Z" stroke="none" fill="black" fill-opacity="1" />
<path d="M 16.296 7.112 Q 16.864 8.08 17.256 9.432 Q 17.648 10.784 17.648 12.56 Q 17.648 14.336 17.256 15.688 Q 16.864 17.04 16.296 18.008 Q 15.728 18.976 14.672 20.48 L 13.744 19.84 Q 14.576 18.624 15.064 17.64 Q 15.552 16.656 15.832 15.424 Q 16.112 14.192 16.112 12.56 Q 16.112 10.912 15.832 9.68 Q 15.552 8.448 15.064 7.48 Q 14.576 6.512 13.744 5.28 L 14.672 4.64 Q 15.728 6.144 16.296 7.112 Z" stroke="none" fill="black" fill-opacity="1" />
<path d="M 30.48 8.432 L 27.424 8.432 L 27.424 18.16 L 25.904 18.16 L 25.904 8.432 L 22.768 8.432 L 22.768 7.136 L 30.64 7.136 L 30.48 8.432 Z" stroke="none" fill="black" fill-opacity="1" />
<path d="M 33.92 16.832 L 38.448 16.832 L 38.272 18.16 L 32.4 18.16 L 32.4 7.136 L 33.92 7.136 L 33.92 16.832 Z" stroke="none" fill="black" fill-opacity="1" />
<path d="M 44.976 7.256 Q 45.76 7.568 46.496 8.224 L 45.664 9.152 Q 45.04 8.656 44.44 8.424 Q 43.84 8.192 43.152 8.192 Q 42.288 8.192 41.728 8.592 Q 41.168 8.992 41.168 9.76 Q 41.168 10.24 41.36 10.568 Q 41.552 10.896 42.072 11.168 Q 42.592 11.44 43.584 11.744 Q 44.624 12.064 45.312 12.432 Q 46 12.8 46.424 13.448 Q 46.848 14.096 46.848 15.088 Q 46.848 16.048 46.376 16.784 Q 45.904 17.52 45.016 17.936 Q 44.128 18.352 42.912 18.352 Q 40.624 18.352 39.168 16.928 L 40.016 15.984 Q 40.672 16.544 41.36 16.824 Q 42.048 17.104 42.896 17.104 Q 43.92 17.104 44.592 16.6 Q 45.264 16.096 45.264 15.136 Q 45.264 14.592 45.056 14.232 Q 44.848 13.872 44.344 13.584 Q 43.84 13.296 42.88 13.008 Q 41.184 12.496 40.4 11.776 Q 39.616 11.056 39.616 9.824 Q 39.616 8.992 40.056 8.336 Q 40.496 7.68 41.288 7.312 Q 42.08 6.944 43.088 6.944 Q 44.192 6.944 44.976 7.256 Z" stroke="none" fill="black" fill-opacity="1" />
<path d="M 57.088 9.776 Q 57.776 10.016 58.4 10.496 L 57.776 11.424 Q 57.2 11.056 56.68 10.88 Q 56.16 10.704 55.584 10.704 Q 54.864 10.704 54.448 11 Q 54.032 11.296 54.032 11.808 Q 54.032 12.32 54.424 12.608 Q 54.816 12.896 55.84 13.168 Q 57.248 13.52 57.944 14.128 Q 58.64 14.736 58.64 15.792 Q 58.64 17.04 57.672 17.696 Q 56.704 18.352 55.312 18.352 Q 53.392 18.352 52.128 17.248 L 52.912 16.352 Q 53.984 17.168 55.28 17.168 Q 56.112 17.168 56.6 16.824 Q 57.088 16.48 57.088 15.888 Q 57.088 15.456 56.912 15.192 Q 56.736 14.928 56.304 14.728 Q 55.872 14.528 55.04 14.304 Q 53.696 13.952 53.096 13.36 Q 52.496 12.768 52.496 11.856 Q 52.496 11.2 52.888 10.664 Q 53.28 10.128 53.976 9.832 Q 54.672 9.536 55.536 9.536 Q 56.4 9.536 57.088 9.776 Z" stroke="none" fill="black" fill-opacity="1" />
<path d="M 67.056 14.448 L 61.68 14.448 Q 61.776 15.84 62.384 16.496 Q 62.992 17.152 63.952 17.152 Q 64.56 17.152 65.072 16.976 Q 65.584 16.8 66.144 16.416 L 66.784 17.296 Q 65.44 18.352 63.84 18.352 Q 62.08 18.352 61.096 17.2 Q 60.112 16.048 60.112 14.032 Q 60.112 12.72 60.536 11.704 Q 60.96 10.688 61.752 10.112 Q 62.544 9.536 63.616 9.536 Q 65.296 9.536 66.192 10.64 Q 67.088 11.744 67.088 13.696 Q 67.088 14.064 67.056 14.448 Z M 65.632 13.264 Q 65.632 12.016 65.136 11.36 Q 64.64 10.704 63.648 10.704 Q 61.84 10.704 61.68 13.36 L 65.632 13.36 L 65.632 13.264 Z" stroke="none" fill="black" fill-opacity="1" />
<path d="M 73.36 9.776 Q 74.048 10.016 74.672 10.496 L 74.048 11.424 Q 73.472 11.056 72.952 10.88 Q 72.432 10.704 71.856 10.704 Q 71.136 10.704 70.72 11 Q 70.304 11.296 70.304 11.808 Q 70.304 12.32 70.696 12.608 Q 71.088 12.896 72.112 13.168 Q 73.52 13.52 74.216 14.128 Q 74.912 14.736 74.912 15.792 Q 74.912 17.04 73.944 17.696 Q 72.976 18.352 71.584 18.352 Q 69.664 18.352 68.4 17.248 L 69.184 16.352 Q 70.256 17.168 71.552 17.168 Q 72.384 17.168 72.872 16.824 Q 73.36 16.48 73.36 15.888 Q 73.36 15.456 73.184 15.192 Q 73.008 14.928 72.576 14.728 Q 72.144 14.528 71.312 14.304 Q 69.968 13.952 69.368 13.36 Q 68.768 12.768 68.768 11.856 Q 68.768 11.2 69.16 10.664 Q 69.552 10.128 70.248 9.832 Q 70.944 9.536 71.808 9.536 Q 72.672 9.536 73.36 9.776 Z" stroke="none" fill="black" fill-opacity="1" />
<path d="M 80.832 9.776 Q 81.52 10.016 82.144 10.496 L 81.52 11.424 Q 80.944 11.056 80.424 10.88 Q 79.904 10.704 79.328 10.704 Q 78.608 10.704 78.192 11 Q 77.776 11.296 77.776 11.808 Q 77.776 12.32 78.168 12.608 Q 78.56 12.896 79.584 13.168 Q 80.992 13.52 81.688 14.128 Q 82.384 14.736 82.384 15.792 Q 82.384 17.04 81.416 17.696 Q 80.448 18.352 79.056 18.352 Q 77.136 18.352 75.872 17.248 L 76.656 16.352 Q 77.728 17.168 79.024 17.168 Q 79.856 17.168 80.344 16.824 Q 80.832 16.48 80.832 15.888 Q 80.832 15.456 80.656 15.192 Q 80.48 14.928 80.048 14.728 Q 79.616 14.528 78.784 14.304 Q 77.44 13.952 76.84 13.36 Q 76.24 12.768 76.24 11.856 Q 76.24 11.2 76.632 10.664 Q 77.024 10.128 77.72 9.832 Q 78.416 9.536 79.28 9.536 Q 80.144 9.536 80.832 9.776 Z" stroke="none" fill="black" fill-opacity="1" />
<path d="M 85.936 18.16 L 84.464 18.16 L 84.464 9.728 L 85.936 9.728 L 85.936 18.16 Z M 85.936 5.968 Q 86.224 6.256 86.224 6.688 Q 86.224 7.12 85.936 7.4 Q 85.648 7.68 85.184 7.68 Q 84.736 7.68 84.448 7.4 Q 84.16 7.12 84.16 6.688 Q 84.16 6.256 84.448 5.968 Q 84.736 5.68 85.184 5.68 Q 85.648 5.68 85.936 5.968 Z" stroke="none" fill="black" fill-opacity="1" />
<path d="M 94.904 10.72 Q 95.888 11.904 95.888 13.936 Q 95.888 15.248 95.44 16.248 Q 94.992 17.248 94.144 17.8 Q 93.296 18.352 92.128 18.352 Q 90.352 18.352 89.36 17.168 Q 88.368 15.984 88.368 13.952 Q 88.368 12.64 88.816 11.64 Q 89.264 10.64 90.112 10.088 Q 90.96 9.536 92.144 9.536 Q 93.92 9.536 94.904 10.72 Z M 89.952 13.952 Q 89.952 17.168 92.128 17.168 Q 94.304 17.168 94.304 13.936 Q 94.304 10.72 92.144 10.72 Q 89.952 10.72 89.952 13.952 Z" stroke="none" fill="black" fill-opacity="1" />
<path d="M 104.088 10.224 Q 104.736 10.912 104.736 12.112 L 104.736 18.16 L 103.264 18.16 L 103.264 12.32 Q 103.264 11.424 102.928 11.056 Q 102.592 10.688 101.936 10.688 Q 101.264 10.688 100.752 11.072 Q 100.24 11.456 99.792 12.176 L 99.792 18.16 L 98.32 18.16 L 98.32 9.728 L 99.584 9.728 L 99.712 10.976 Q 100.16 10.304 100.824 9.92 Q 101.488 9.536 102.288 9.536 Q 103.44 9.536 104.088 10.224 Z" stroke="none" fill="black" fill-opacity="1" /></svg>
<g>
<path id="path20" fill="none" stroke="black" stroke-opacity="1" stroke-width="1" stroke-dasharray="4 4" d="
M 64.45,73
L 245.35000000000002,73
" />
<polygon points="235.35000000000002,78 235.35000000000002,68 245.35000000000002,73" stroke="none" fill="black" fill-opacity="1" />
</g>
<rect x="108.66000000000003" y="60.196" width="92.48" height="25.608" fill="white" fill-opacity="1" />
<svg x="109.66" y="61.20" width="90.48" height="23.61">
<path d="M 4.544 5.28 Q 3.712 6.512 3.224 7.48 Q 2.736 8.448 2.456 9.68 Q 2.176 10.912 2.176 12.56 Q 2.176 14.192 2.456 15.424 Q 2.736 16.656 3.224 17.64 Q 3.712 18.624 4.544 19.84 L 3.616 20.48 Q 2.56 18.976 1.992 18.008 Q 1.424 17.04 1.032 15.688 Q 0.64 14.336 0.64 12.56 Q 0.64 10.784 1.032 9.432 Q 1.424 8.08 1.992 7.112 Q 2.56 6.144 3.616 4.64 L 4.544 5.28 Z" stroke="none" fill="black" fill-opacity="1" />
<path d="M 10.488 7.664 Q 11.2 8.032 11.576 8.656 Q 11.952 9.28 11.952 10.016 Q 11.952 10.992 11.384 11.624 Q 10.816 12.256 9.872 12.48 Q 10.944 12.576 11.616 13.248 Q 12.288 13.92 12.288 15.072 Q 12.288 16 11.84 16.752 Q 11.392 17.504 10.56 17.928 Q 9.728 18.352 8.64 18.352 Q 7.664 18.352 6.848 17.992 Q 6.032 17.632 5.424 16.912 L 6.304 16.096 Q 6.832 16.64 7.384 16.896 Q 7.936 17.152 8.592 17.152 Q 9.6 17.152 10.176 16.584 Q 10.752 16.016 10.752 15.056 Q 10.752 14 10.208 13.568 Q 9.664 13.136 8.624 13.136 L 7.824 13.136 L 8 12 L 8.544 12 Q 9.376 12 9.928 11.504 Q 10.48 11.008 10.48 10.112 Q 10.48 9.36 10 8.92 Q 9.52 8.48 8.704 8.48 Q 8.08 8.48 7.56 8.704 Q 7.04 8.928 6.496 9.44 L 5.728 8.56 Q 7.088 7.296 8.784 7.296 Q 9.776 7.296 10.488 7.664 Z" stroke="none" fill="black" fill-opacity="1" />
<path d="M 16.36 7.112 Q 16.928 8.08 17.32 9.432 Q 17.712 10.784 17.712 12.56 Q 17.712 14.336 17.32 15.688 Q 16.928 17.04 16.36 18.008 Q 15.792 18.976 14.736 20.48 L 13.808 19.84 Q 14.64 18.624 15.128 17.64 Q 15.616 16.656 15.896 15.424 Q 16.176 14.192 16.176 12.56 Q 16.176 10.912 15.896 9.68 Q 15.616 8.448 15.128 7.48 Q 14.64 6.512 13.808 5.28 L 14.736 4.64 Q 15.792 6.144 16.36 7.112 Z" stroke="none" fill="black" fill-opacity="1" />
<path d="M 30.352 12.992 L 25.712 12.992 L 25.712 18.16 L 24.192 18.16 L 24.192 7.136 L 25.712 7.136 L 25.712 11.744 L 30.352 11.744 L 30.352 7.136 L 31.872 7.136 L 31.872 18.16 L 30.352 18.16 L 30.352 12.992 Z" stroke="none" fill="black" fill-opacity="1" />
<path d="M 41.424 8.432 L 38.368 8.432 L 38.368 18.16 L 36.848 18.16 L 36.848 8.432 L 33.712 8.432 L 33.712 7.136 L 41.584 7.136 L 41.424 8.432 Z" stroke="none" fill="black" fill-opacity="1" />
<path d="M 49.696 8.432 L 46.64 8.432 L 46.64 18.16 L 45.12 18.16 L 45.12 8.432 L 41.984 8.432 L 41.984 7.136 L 49.856 7.136 L 49.696 8.432 Z" stroke="none" fill="black" fill-opacity="1" />
<path d="M 57.68 7.992 Q 58.8 8.848 58.8 10.544 Q 58.8 12.352 57.632 13.232 Q 56.464 14.112 54.528 14.112 L 53.136 14.112 L 53.136 18.16 L 51.616 18.16 L 51.616 7.136 L 54.512 7.136 Q 56.56 7.136 57.68 7.992 Z M 56.488 12.4 Q 57.184 11.888 57.184 10.56 Q 57.184 9.376 56.488 8.848 Q 55.792 8.32 54.496 8.32 L 53.136 8.32 L 53.136 12.912 L 54.464 12.912 Q 55.792 12.912 56.488 12.4 Z" stroke="none" fill="black" fill-opacity="1" />
<path d="M 71.016 7.24 Q 71.776 7.536 72.528 8.16 L 71.632 9.088 Q 71.04 8.608 70.496 8.4 Q 69.952 8.192 69.216 8.192 Q 68.368 8.192 67.656 8.648 Q 66.944 9.104 66.496 10.104 Q 66.048 11.104 66.048 12.64 Q 66.048 14.96 66.808 16.032 Q 67.568 17.104 69.056 17.104 Q 70.288 17.104 71.152 16.592 L 71.152 13.28 L 69.2 13.28 L 69.024 12.048 L 72.656 12.048 L 72.656 17.376 Q 71.856 17.856 70.952 18.104 Q 70.048 18.352 68.944 18.352 Q 66.848 18.352 65.64 16.896 Q 64.432 15.44 64.432 12.64 Q 64.432 10.848 65.088 9.56 Q 65.744 8.272 66.832 7.608 Q 67.92 6.944 69.184 6.944 Q 70.256 6.944 71.016 7.24 Z" stroke="none" fill="black" fill-opacity="1" />
<path d="M 81.04 8.352 L 76.768 8.352 L 76.768 11.952 L 80.48 11.952 L 80.48 13.168 L 76.768 13.168 L 76.768 16.944 L 81.344 16.944 L 81.344 18.16 L 75.248 18.16 L 75.248 7.136 L 81.216 7.136 L 81.04 8.352 Z" stroke="none" fill="black" fill-opacity="1" />
<path d="M 90.16 8.432 L 87.104 8.432 L 87.104 18.16 L 85.584 18.16 L 85.584 8.432 L 82.448 8.432 L 82.448 7.136 L 90.32 7.136 L 90.16 8.432 Z" stroke="none" fill="black" fill-opacity="1" /></svg>
<rect x="-21.450000000000003" y="93" width="352.7" height="60" rx="0" ry="0" fill="yellow" fill-opacity="0.3" stroke="none" stroke-width="1"  />

<g>
<path id="path22" fill="none" stroke="black" stroke-opacity="1" stroke-width="2"  d="
M -6.450000000000003,58
L -6.450000000000003,368
L 124.45,368
L 124.45,208
L 185.35000000000002,208
L 185.35000000000002,368
L 255.35000000000002,368
L 255.35000000000002,58
" />
<polygon points="260.35,68 250.35000000000002,68 255.35000000000002,58" stroke="none" fill="black" fill-opacity="1" />
</g>

</svg>