<svg xmlns="http://www.w3.org/2000/svg" xmlns:xlink="http://www.w3.org/1999/xlink" width="202" height="64" viewBox="-1 -1 202 64">
<rect x="-1" y="-1" width="202" height="64" fill="white" />
<rect x="0" y="0" width="100" height="62" rx="0" ry="0" fill="white" fill-opacity="1" stroke="black" stroke-opacity="1" stroke-width="1"  />
<svg x="38.06" y="23.20" width="23.89" height="15.60">
<path d="M 3.424 1.48 Q 3.136 1.776 3.136 2.4 L 3.136 3.568 L 5.184 3.568 L 5.024 4.704 L 3.136 4.704 L 3.136 12 L 1.664 12 L 1.664 4.704 L 0.16 4.704 L 0.16 3.568 L 1.664 3.568 L 1.664 2.416 Q 1.664 1.328 2.36 0.664 Q 3.056 0 4.304 0 Q 4.88 0 5.336 0.104 Q 5.792 0.208 6.32 0.432 L 5.856 1.504 Q 5.136 1.184 4.384 1.184 Q 3.712 1.184 3.424 1.48 Z" stroke="none" fill="black" fill-opacity="1" />
<path d="M 12.648 4.56 Q 13.632 5.744 13.632 7.776 Q 13.632 9.088 13.184 10.088 Q 12.736 11.088 11.888 11.64 Q 11.04 12.192 9.872 12.192 Q 8.096 12.192 7.104 11.008 Q 6.112 9.824 6.112 7.792 Q 6.112 6.48 6.56 5.48 Q 7.008 4.48 7.856 3.928 Q 8.704 3.376 9.888 3.376 Q 11.664 3.376 12.648 4.56 Z M 7.696 7.792 Q 7.696 11.008 9.872 11.008 Q 12.048 11.008 12.048 7.776 Q 12.048 4.56 9.888 4.56 Q 7.696 4.56 7.696 7.792 Z" stroke="none" fill="black" fill-opacity="1" />
<path d="M 21.992 4.56 Q 22.976 5.744 22.976 7.776 Q 22.976 9.088 22.528 10.088 Q 22.08 11.088 21.232 11.64 Q 20.384 12.192 19.216 12.192 Q 17.44 12.192 16.448 11.008 Q 15.456 9.824 15.456 7.792 Q 15.456 6.48 15.904 5.48 Q 16.352 4.48 17.2 3.928 Q 18.048 3.376 19.232 3.376 Q 21.008 3.376 21.992 4.56 Z M 17.04 7.792 Q 17.04 11.008 19.216 11.008 Q 21.392 11.008 21.392 7.776 Q 21.392 4.56 19.232 4.56 Q 17.04 4.56 17.04 7.792 Z" stroke="none" fill="black" fill-opacity="1" /></svg>
<rect x="100" y="0" width="100" height="62" rx="0" ry="0" fill="white" fill-opacity="1" stroke="black" stroke-opacity="1" stroke-width="1"  />
<svg x="137.81" y="22.95" width="24.38" height="16.10">
<path d="M 7.664 4.92 Q 8.512 6.08 8.512 8.16 Q 8.512 9.472 8.112 10.472 Q 7.712 11.472 6.96 12.024 Q 6.208 12.576 5.2 12.576 Q 3.872 12.576 2.96 11.456 L 2.816 12.384 L 1.52 12.384 L 1.52 0.56 L 2.992 0.384 L 2.992 5.008 Q 3.904 3.76 5.376 3.76 Q 6.816 3.76 7.664 4.92 Z M 6.376 10.616 Q 6.928 9.824 6.928 8.16 Q 6.928 6.448 6.416 5.688 Q 5.904 4.928 4.96 4.928 Q 3.84 4.928 2.992 6.24 L 2.992 10.272 Q 3.328 10.8 3.816 11.104 Q 4.304 11.408 4.848 11.408 Q 5.824 11.408 6.376 10.616 Z" stroke="none" fill="black" fill-opacity="1" />
<path d="M 16.88 11.176 Q 17.056 11.424 17.408 11.552 L 17.072 12.576 Q 16.416 12.496 16.016 12.208 Q 15.616 11.92 15.424 11.312 Q 14.576 12.576 12.912 12.576 Q 11.664 12.576 10.944 11.872 Q 10.224 11.168 10.224 10.032 Q 10.224 8.688 11.192 7.968 Q 12.16 7.248 13.936 7.248 L 15.232 7.248 L 15.232 6.624 Q 15.232 5.728 14.8 5.344 Q 14.368 4.96 13.472 4.96 Q 12.544 4.96 11.2 5.408 L 10.832 4.336 Q 12.4 3.76 13.744 3.76 Q 15.232 3.76 15.968 4.488 Q 16.704 5.216 16.704 6.56 L 16.704 10.416 Q 16.704 10.928 16.88 11.176 Z M 15.232 10.16 L 15.232 8.224 L 14.128 8.224 Q 11.792 8.224 11.792 9.952 Q 11.792 10.704 12.16 11.088 Q 12.528 11.472 13.248 11.472 Q 14.512 11.472 15.232 10.16 Z" stroke="none" fill="black" fill-opacity="1" />
<path d="M 24.224 3.856 L 23.952 5.296 Q 23.568 5.2 23.216 5.2 Q 22.432 5.2 21.952 5.776 Q 21.472 6.352 21.2 7.568 L 21.2 12.384 L 19.728 12.384 L 19.728 3.952 L 20.992 3.952 L 21.136 5.664 Q 21.472 4.72 22.048 4.24 Q 22.624 3.76 23.392 3.76 Q 23.84 3.76 24.224 3.856 Z" stroke="none" fill="black" fill-opacity="1" /></svg>
</svg>