<?xml version="1.0" encoding="UTF-8" standalone="no"?>
<!-- Created with Inkscape (http://www.inkscape.org/) -->

<svg
     version="1.1"
     id="svg9"
     xml:space="preserve"
     width="150"
     height="256.1947"
     viewBox="0 0 150 256.1947"
     xmlns="http://www.w3.org/2000/svg"
     xmlns:svg="http://www.w3.org/2000/svg"><defs
         id="defs13" /><g
         id="g15"
         transform="matrix(1.3333333,0,0,-1.3333333,-462.29565,788.77347)"><path
             d="M 402.97175,558.22834 C 402.97175,529.26877 402.97175,500.3092 402.97175,465.63321"
             style="fill:none;stroke:#e41a1c;stroke-width:0.995575;stroke-linecap:round;stroke-linejoin:round;stroke-miterlimit:10;stroke-dasharray:none;stroke-opacity:1"
             id="path21" /><path
             d="M 406.11209,502.47613 V 508.81126 H 407.26128 V 507.62123 C 407.71629,508.50792 408.37741,508.95126 409.24465,508.95126 409.36132,508.95126 409.48382,508.94154 409.61216,508.92209 V 507.84874 C 409.41382,507.91485 409.23882,507.9479 409.08715,507.9479 408.35991,507.9479 407.75129,507.51623 407.26128,506.65288 V 502.47613 Z M 415.73339,502.6803 C 414.96337,502.44696 414.3042,502.33029 413.75585,502.33029 412.8225,502.33029 412.06123,502.64044 411.47206,503.26073 410.88288,503.88102 410.58829,504.68506 410.58829,505.67286 410.58829,506.63343 410.84788,507.42095 411.36705,508.03541 411.88623,508.64986 412.55027,508.95709 413.35918,508.95709 414.1253,508.95709 414.7174,508.68486 415.13546,508.14041 415.55353,507.59595 415.76256,506.82205 415.76256,505.8187 L 415.75672,505.46286 H 411.76081 C 411.92804,503.95783 412.665,503.20531 413.97169,503.20531 414.45003,503.20531 415.03727,503.33365 415.73339,503.59032 Z M 411.81331,506.32621 H 414.60754 C 414.60754,507.50456 414.16808,508.09374 413.28918,508.09374 412.40638,508.09374 411.91443,507.50456 411.81331,506.32621 Z M 422.12491,500.17192 V 503.66615 C 421.65823,502.77558 420.95433,502.33029 420.0132,502.33029 419.25096,502.33029 418.65109,502.60835 418.21358,503.16448 417.77607,503.7206 417.55732,504.48089 417.55732,505.44535 417.55732,506.49926 417.80524,507.34706 418.30108,507.98874 418.79692,508.63042 419.4493,508.95126 420.2582,508.95126 421.00877,508.95126 421.63101,508.66347 422.12491,508.08791 V 508.81126 H 423.27993 V 500.17192 Z M 422.12491,507.30039 C 421.52989,507.8254 420.96599,508.08791 420.43321,508.08791 419.33263,508.08791 418.78234,507.24595 418.78234,505.56202 418.78234,504.08033 419.27235,503.33948 420.25237,503.33948 420.89016,503.33948 421.51434,503.68754 422.12491,504.38367 Z M 429.98451,502.47613 V 503.66615 C 429.37394,502.77558 428.63309,502.33029 427.76196,502.33029 427.20973,502.33029 426.77027,502.50432 426.4436,502.85239 426.11693,503.20045 425.95359,503.67004 425.95359,504.26116 V 508.81126 H 427.10278 V 504.63451 C 427.10278,504.16005 427.17181,503.82268 427.30987,503.6224 427.44793,503.42212 427.67835,503.32198 428.00113,503.32198 428.70115,503.32198 429.36227,503.78282 429.98451,504.70451 V 508.81126 H 431.1337 V 502.47613 Z M 432.99262,502.47613 V 508.81126 H 434.14181 V 502.47613 Z M 432.99262,509.96044 V 511.10963 H 434.14181 V 509.96044 Z M 435.97935,502.47613 V 508.81126 H 437.12854 V 507.62123 C 437.58355,508.50792 438.24467,508.95126 439.11191,508.95126 439.22858,508.95126 439.35108,508.94154 439.47942,508.92209 V 507.84874 C 439.28108,507.91485 439.10607,507.9479 438.95441,507.9479 438.22717,507.9479 437.61855,507.51623 437.12854,506.65288 V 502.47613 Z M 445.60065,502.6803 C 444.83063,502.44696 444.17145,502.33029 443.62311,502.33029 442.68976,502.33029 441.92849,502.64044 441.33931,503.26073 440.75014,503.88102 440.45555,504.68506 440.45555,505.67286 440.45555,506.63343 440.71513,507.42095 441.23431,508.03541 441.75349,508.64986 442.41753,508.95709 443.22643,508.95709 443.99256,508.95709 444.58466,508.68486 445.00272,508.14041 445.42078,507.59595 445.62982,506.82205 445.62982,505.8187 L 445.62398,505.46286 H 441.62807 C 441.79529,503.95783 442.53225,503.20531 443.83895,503.20531 444.31729,503.20531 444.90452,503.33365 445.60065,503.59032 Z M 441.68057,506.32621 H 444.47479 C 444.47479,507.50456 444.03534,508.09374 443.15643,508.09374 442.27364,508.09374 441.78168,507.50456 441.68057,506.32621 Z M 449.60628,502.33029 C 449.08127,502.33029 448.44348,502.4528 447.69291,502.6978 V 503.75366 C 448.44348,503.38031 449.09683,503.19364 449.65295,503.19364 449.98351,503.19364 450.25768,503.28309 450.47547,503.46198 450.69325,503.64087 450.80214,503.86449 450.80214,504.13283 450.80214,504.52561 450.49686,504.85034 449.88629,505.10702 L 449.21544,505.39285 C 448.22376,505.80508 447.72791,506.39815 447.72791,507.17206 447.72791,507.72429 447.92333,508.15888 448.31417,508.47583 448.70501,508.79278 449.24072,508.95126 449.92129,508.95126 450.27518,508.95126 450.71269,508.90265 451.23381,508.80542 L 451.47299,508.75875 V 507.80207 C 450.83131,507.99263 450.32185,508.08791 449.94462,508.08791 449.20572,508.08791 448.83627,507.81957 448.83627,507.28289 448.83627,506.93677 449.11627,506.6451 449.67628,506.40787 L 450.23046,506.17454 C 450.85659,505.91009 451.29993,505.63105 451.56049,505.33744 451.82105,505.04382 451.95133,504.67728 451.95133,504.23783 451.95133,503.68171 451.7316,503.22476 451.29215,502.86697 450.8527,502.50919 450.29074,502.33029 449.60628,502.33029 Z"
             style="fill:#e41a1c;fill-opacity:1;fill-rule:nonzero;stroke:none;stroke-width:0.995575"
             id="path25" /><path
             d="M 400.50199,474.24628 402.97175,465.6332 405.44152,474.24628 Z"
             style="fill:#e41a1c;fill-opacity:1;fill-rule:nonzero;stroke:none;stroke-width:0.995575"
             id="path29" /><path
             d="M 347.21954,465.63984 H 458.72396 V 399.93188 H 347.21954 Z"
             style="fill:#ffd700;fill-opacity:1;fill-rule:nonzero;stroke:none;stroke-width:0.995575"
             id="path33" /><path
             d="M 347.21954,465.63984 H 458.72396 V 399.93188 H 347.21954 Z"
             style="fill:none;stroke:#000000;stroke-width:0.995575;stroke-linecap:round;stroke-linejoin:round;stroke-miterlimit:10;stroke-dasharray:none;stroke-opacity:1"
             id="path35" /><path
             d="M 375.21426,442.74161 V 451.37511 H 377.56514 C 378.60738,451.37511 379.35601,451.19914 379.81102,450.84719 380.26602,450.49523 380.49353,449.91675 380.49353,449.11174 380.49353,448.19394 380.18241,447.47448 379.56018,446.95336 378.93794,446.43224 378.07459,446.17168 376.97013,446.17168 H 376.42762 V 442.74161 Z M 376.42762,447.0992 H 376.92346 C 377.6507,447.0992 378.21265,447.26642 378.60932,447.60087 379.006,447.93532 379.20434,448.40783 379.20434,449.0184 379.20434,449.53563 379.04878,449.90508 378.73766,450.12676 378.42654,450.34843 377.90737,450.45926 377.18013,450.45926 H 376.42762 Z M 385.48502,443.54663 C 384.79667,442.91272 384.1336,442.59577 383.49581,442.59577 382.9708,442.59577 382.53524,442.76008 382.18912,443.0887 381.843,443.41732 381.66994,443.83246 381.66994,444.33414 381.66994,445.02638 381.96064,445.55819 382.54204,445.92959 383.12344,446.30099 383.95665,446.48668 385.04167,446.48668 H 385.31585 V 447.25086 C 385.31585,447.98588 384.93862,448.35339 384.18416,448.35339 383.57748,448.35339 382.92219,448.16672 382.21829,447.79338 V 448.74423 C 382.99219,449.05923 383.71748,449.21674 384.39416,449.21674 385.10195,449.21674 385.62405,449.05729 385.96044,448.73839 386.29684,448.4195 386.46504,447.92366 386.46504,447.25086 V 444.38081 C 386.46504,443.72357 386.66726,443.39496 387.07171,443.39496 387.12227,443.39496 387.19616,443.40273 387.29339,443.41829 L 387.37505,442.78244 C 387.11449,442.658 386.82671,442.59577 386.5117,442.59577 385.97503,442.59577 385.6328,442.91272 385.48502,443.54663 Z M 385.31585,444.1708 V 445.81 L 384.93084,445.82167 C 384.30083,445.82167 383.79137,445.70208 383.40248,445.46291 383.01358,445.22374 382.81913,444.90971 382.81913,444.52081 382.81913,444.24469 382.91635,444.01136 383.1108,443.8208 383.30525,443.63024 383.54248,443.53496 383.82248,443.53496 384.30083,443.53496 384.79861,443.74691 385.31585,444.1708 Z M 391.66069,442.59577 C 390.80512,442.59577 390.09539,442.91272 389.53149,443.54663 388.96759,444.18053 388.68564,444.97971 388.68564,445.94417 388.68564,446.97475 388.96467,447.77782 389.52274,448.35339 390.0808,448.92895 390.85957,449.21674 391.85903,449.21674 392.35293,449.21674 392.90516,449.14868 393.51573,449.01257 V 448.05005 C 392.86627,448.24061 392.33737,448.33589 391.92903,448.33589 391.3418,448.33589 390.87026,448.11519 390.51442,447.67379 390.15858,447.23239 389.98066,446.64419 389.98066,445.90917 389.98066,445.19749 390.16344,444.62192 390.52901,444.18247 390.89457,443.74302 391.37291,443.52329 391.96403,443.52329 392.48904,443.52329 393.02961,443.65746 393.58573,443.9258 V 442.93411 C 392.84294,442.70855 392.20126,442.59577 391.66069,442.59577 Z M 395.16076,442.74161 V 451.95263 H 396.30995 V 446.00251 L 398.99334,449.07674 H 400.23003 L 397.66915,446.11918 400.76087,442.74161 H 399.29085 L 396.30995,445.99084 V 442.74161 Z M 405.39652,443.54663 C 404.70817,442.91272 404.04511,442.59577 403.40732,442.59577 402.88231,442.59577 402.44674,442.76008 402.10062,443.0887 401.75451,443.41732 401.58145,443.83246 401.58145,444.33414 401.58145,445.02638 401.87215,445.55819 402.45355,445.92959 403.03495,446.30099 403.86816,446.48668 404.95318,446.48668 H 405.22735 V 447.25086 C 405.22735,447.98588 404.85012,448.35339 404.09566,448.35339 403.48898,448.35339 402.83369,448.16672 402.12979,447.79338 V 448.74423 C 402.90369,449.05923 403.62899,449.21674 404.30567,449.21674 405.01346,449.21674 405.53555,449.05729 405.87195,448.73839 406.20834,448.4195 406.37654,447.92366 406.37654,447.25086 V 444.38081 C 406.37654,443.72357 406.57877,443.39496 406.98322,443.39496 407.03378,443.39496 407.10767,443.40273 407.20489,443.41829 L 407.28656,442.78244 C 407.026,442.658 406.73822,442.59577 406.42321,442.59577 405.88653,442.59577 405.5443,442.91272 405.39652,443.54663 Z M 405.22735,444.1708 V 445.81 L 404.84234,445.82167 C 404.21233,445.82167 403.70288,445.70208 403.31398,445.46291 402.92508,445.22374 402.73064,444.90971 402.73064,444.52081 402.73064,444.24469 402.82786,444.01136 403.02231,443.8208 403.21676,443.63024 403.45398,443.53496 403.73399,443.53496 404.21233,443.53496 404.71012,443.74691 405.22735,444.1708 Z M 409.12215,440.63574 409.25632,441.63325 C 409.92133,441.31825 410.57662,441.16075 411.22219,441.16075 412.51722,441.16075 413.16473,441.84715 413.16473,443.21995 V 444.21747 C 412.74083,443.33079 412.04471,442.88745 411.07636,442.88745 410.31801,442.88745 409.71522,443.16356 409.26799,443.7158 408.82076,444.26803 408.59714,445.01277 408.59714,445.95001 408.59714,446.91447 408.85187,447.70004 409.36132,448.30672 409.87078,448.9134 410.52996,449.21674 411.33886,449.21674 412.04665,449.21674 412.65528,448.92895 413.16473,448.35339 V 449.07674 H 414.31975 V 444.46831 C 414.31975,443.47662 414.26823,442.74258 414.16517,442.26618 414.06211,441.78979 413.86863,441.39992 413.58474,441.09658 413.08306,440.56379 412.30332,440.2974 411.24553,440.2974 410.50662,440.2974 409.79883,440.41018 409.12215,440.63574 Z M 413.16473,444.93499 V 447.56587 C 412.65917,448.09088 412.10888,448.35339 411.51387,448.35339 410.98497,448.35339 410.57079,448.14144 410.27134,447.71754 409.97189,447.29364 409.82217,446.71224 409.82217,445.97334 409.82217,444.58498 410.31023,443.8908 411.28636,443.8908 411.95137,443.8908 412.5775,444.23886 413.16473,444.93499 Z M 420.71127,442.94578 C 419.94125,442.71244 419.28207,442.59577 418.73373,442.59577 417.80038,442.59577 417.03911,442.90592 416.44993,443.52621 415.86076,444.1465 415.56617,444.95054 415.56617,445.93834 415.56617,446.89891 415.82576,447.68643 416.34493,448.30089 416.86411,448.91534 417.52815,449.22257 418.33706,449.22257 419.10318,449.22257 419.69528,448.95034 420.11334,448.40589 420.5314,447.86143 420.74044,447.08753 420.74044,446.08418 L 420.7346,445.72834 H 416.73869 C 416.90592,444.22331 417.64288,443.47079 418.94957,443.47079 419.42791,443.47079 420.01514,443.59913 420.71127,443.8558 Z M 416.79119,446.59169 H 419.58541 C 419.58541,447.77004 419.14596,448.35922 418.26705,448.35922 417.38426,448.35922 416.8923,447.77004 416.79119,446.59169 Z M 425.63276,442.52577 C 424.74218,442.52577 424.02175,442.94481 423.47146,443.78288 422.92117,444.62095 422.64603,445.71472 422.64603,447.06419 422.64603,448.42533 422.92312,449.52008 423.4773,450.34843 424.03147,451.17678 424.76163,451.59095 425.66776,451.59095 426.57389,451.59095 427.30404,451.17678 427.85822,450.34843 428.41239,449.52008 428.68948,448.43117 428.68948,447.0817 428.68948,445.69722 428.41239,444.59179 427.85822,443.76538 427.30404,442.93897 426.56222,442.52577 425.63276,442.52577 Z M 425.64442,443.38912 C 426.86167,443.38912 427.47029,444.62581 427.47029,447.0992 427.47029,449.51813 426.86945,450.7276 425.66776,450.7276 424.46996,450.7276 423.87105,449.50647 423.87105,447.06419 423.87105,444.61415 424.46218,443.38912 425.64442,443.38912 Z"
             style="fill:#000000;fill-opacity:1;fill-rule:nonzero;stroke:none;stroke-width:0.995575"
             id="path39" /><path
             d="M 366.28908,427.80798 V 434.14311 H 367.43827 V 432.95308 C 368.04495,433.83977 368.78774,434.28311 369.66665,434.28311 370.21499,434.28311 370.6525,434.10908 370.97917,433.76101 371.30584,433.41295 371.46918,432.9453 371.46918,432.35807 V 427.80798 H 370.31999 V 431.98473 C 370.31999,432.45529 370.25096,432.79072 370.1129,432.991 369.97485,433.19128 369.74637,433.29142 369.42747,433.29142 368.72357,433.29142 368.0605,432.83058 367.43827,431.90889 V 427.80798 Z M 376.52484,428.613 C 375.83649,427.97909 375.17342,427.66214 374.53563,427.66214 374.01062,427.66214 373.57506,427.82645 373.22894,428.15507 372.88282,428.48369 372.70976,428.89883 372.70976,429.40051 372.70976,430.09275 373.00046,430.62456 373.58186,430.99596 374.16326,431.36736 374.99647,431.55305 376.08149,431.55305 H 376.35567 V 432.31723 C 376.35567,433.05225 375.97844,433.41976 375.22398,433.41976 374.6173,433.41976 373.96201,433.23309 373.25811,432.85975 V 433.8106 C 374.03201,434.1256 374.7573,434.28311 375.43398,434.28311 376.14177,434.28311 376.66387,434.12366 377.00026,433.80476 377.33666,433.48587 377.50486,432.99003 377.50486,432.31723 V 429.44718 C 377.50486,428.78994 377.70708,428.46133 378.11153,428.46133 378.16209,428.46133 378.23598,428.4691 378.33321,428.48466 L 378.41487,427.84881 C 378.15431,427.72437 377.86653,427.66214 377.55152,427.66214 377.01485,427.66214 376.67262,427.97909 376.52484,428.613 Z M 376.35567,429.23717 V 430.87637 L 375.97066,430.88804 C 375.34065,430.88804 374.83119,430.76845 374.4423,430.52928 374.0534,430.29011 373.85895,429.97608 373.85895,429.58718 373.85895,429.31106 373.95617,429.07773 374.15062,428.88717 374.34507,428.69661 374.5823,428.60133 374.8623,428.60133 375.34065,428.60133 375.83843,428.81328 376.35567,429.23717 Z M 380.22713,427.80798 V 434.14311 H 381.37632 V 432.95308 C 381.93633,433.83977 382.65579,434.28311 383.5347,434.28311 384.38249,434.28311 384.96,433.83977 385.26723,432.95308 385.81169,433.84365 386.51948,434.28894 387.39061,434.28894 387.95062,434.28894 388.38424,434.12463 388.69147,433.79601 388.99869,433.4674 389.15231,433.00753 389.15231,432.4164 V 427.80798 H 387.99729 V 432.23557 C 387.99729,432.95892 387.71145,433.32059 387.13977,433.32059 386.54476,433.32059 385.92058,432.89864 385.26723,432.05473 V 427.80798 H 384.11221 V 432.23557 C 384.11221,432.9628 383.82054,433.32642 383.23719,433.32642 382.65774,433.32642 382.03745,432.90252 381.37632,432.05473 V 427.80798 Z M 395.82189,428.01215 C 395.05187,427.77881 394.39269,427.66214 393.84435,427.66214 392.91099,427.66214 392.14973,427.97229 391.56055,428.59258 390.97137,429.21287 390.67678,430.01691 390.67678,431.00471 390.67678,431.96528 390.93637,432.7528 391.45555,433.36726 391.97473,433.98171 392.63877,434.28894 393.44767,434.28894 394.2138,434.28894 394.80589,434.01671 395.22396,433.47226 395.64202,432.9278 395.85105,432.1539 395.85105,431.15055 L 395.84522,430.79471 H 391.84931 C 392.01653,429.28968 392.75349,428.53716 394.06018,428.53716 394.53853,428.53716 395.12576,428.6655 395.82189,428.92217 Z M 391.90181,431.65806 H 394.69603 C 394.69603,432.83641 394.25658,433.42559 393.37767,433.42559 392.49488,433.42559 392.00292,432.83641 391.90181,431.65806 Z M 398.31082,427.80798 V 428.95717 H 399.46001 V 427.80798 Z M 398.31082,432.98808 V 434.14311 H 399.46001 V 432.98808 Z M 406.07709,427.80798 V 436.44148 H 407.27878 L 411.6247,429.77385 V 436.44148 H 412.67472 V 427.80798 H 411.47886 L 407.12711,434.47561 V 427.80798 Z M 418.339,428.613 C 417.65065,427.97909 416.98758,427.66214 416.34979,427.66214 415.82478,427.66214 415.38922,427.82645 415.0431,428.15507 414.69698,428.48369 414.52392,428.89883 414.52392,429.40051 414.52392,430.09275 414.81462,430.62456 415.39602,430.99596 415.97742,431.36736 416.81063,431.55305 417.89566,431.55305 H 418.16983 V 432.31723 C 418.16983,433.05225 417.7926,433.41976 417.03814,433.41976 416.43146,433.41976 415.77617,433.23309 415.07227,432.85975 V 433.8106 C 415.84617,434.1256 416.57146,434.28311 417.24814,434.28311 417.95593,434.28311 418.47803,434.12366 418.81442,433.80476 419.15082,433.48587 419.31902,432.99003 419.31902,432.31723 V 429.44718 C 419.31902,428.78994 419.52124,428.46133 419.9257,428.46133 419.97625,428.46133 420.05014,428.4691 420.14737,428.48466 L 420.22903,427.84881 C 419.96847,427.72437 419.68069,427.66214 419.36568,427.66214 418.82901,427.66214 418.48678,427.97909 418.339,428.613 Z M 418.16983,429.23717 V 430.87637 L 417.78482,430.88804 C 417.15481,430.88804 416.64535,430.76845 416.25646,430.52928 415.86756,430.29011 415.67311,429.97608 415.67311,429.58718 415.67311,429.31106 415.77034,429.07773 415.96478,428.88717 416.15923,428.69661 416.39646,428.60133 416.67647,428.60133 417.15481,428.60133 417.65259,428.81328 418.16983,429.23717 Z M 422.04129,427.80798 V 434.14311 H 423.19048 V 432.95308 C 423.75049,433.83977 424.46995,434.28311 425.34886,434.28311 426.19665,434.28311 426.77416,433.83977 427.08139,432.95308 427.62585,433.84365 428.33364,434.28894 429.20477,434.28894 429.76478,434.28894 430.1984,434.12463 430.50563,433.79601 430.81286,433.4674 430.96647,433.00753 430.96647,432.4164 V 427.80798 H 429.81145 V 432.23557 C 429.81145,432.95892 429.52561,433.32059 428.95393,433.32059 428.35892,433.32059 427.73474,432.89864 427.08139,432.05473 V 427.80798 H 425.92637 V 432.23557 C 425.92637,432.9628 425.6347,433.32642 425.05135,433.32642 424.4719,433.32642 423.85161,432.90252 423.19048,432.05473 V 427.80798 Z M 437.63605,428.01215 C 436.86603,427.77881 436.20685,427.66214 435.65851,427.66214 434.72516,427.66214 433.96389,427.97229 433.37471,428.59258 432.78553,429.21287 432.49094,430.01691 432.49094,431.00471 432.49094,431.96528 432.75053,432.7528 433.26971,433.36726 433.78889,433.98171 434.45293,434.28894 435.26183,434.28894 436.02796,434.28894 436.62005,434.01671 437.03812,433.47226 437.45618,432.9278 437.66521,432.1539 437.66521,431.15055 L 437.65938,430.79471 H 433.66347 C 433.83069,429.28968 434.56765,428.53716 435.87434,428.53716 436.35269,428.53716 436.93992,428.6655 437.63605,428.92217 Z M 433.71597,431.65806 H 436.51019 C 436.51019,432.83641 436.07074,433.42559 435.19183,433.42559 434.30904,433.42559 433.81708,432.83641 433.71597,431.65806 Z"
             style="fill:#000000;fill-opacity:1;fill-rule:nonzero;stroke:none;stroke-width:0.995575"
             id="path43" /><path
             d="M 354.65913,412.87435 352.30241,419.20948 H 353.4516 L 355.29497,414.28021 357.23751,419.20948 H 358.31086 L 355.80831,412.87435 Z M 363.96348,413.07852 C 363.19346,412.84518 362.53428,412.72851 361.98594,412.72851 361.05258,412.72851 360.29132,413.03866 359.70214,413.65895 359.11296,414.27924 358.81837,415.08328 358.81837,416.07108 358.81837,417.03165 359.07796,417.81917 359.59714,418.43363 360.11632,419.04808 360.78036,419.35531 361.58926,419.35531 362.35539,419.35531 362.94748,419.08308 363.36555,418.53863 363.78361,417.99417 363.99264,417.22027 363.99264,416.21692 L 363.98681,415.86108 H 359.9909 C 360.15812,414.35605 360.89508,413.60353 362.20177,413.60353 362.68012,413.60353 363.26735,413.73187 363.96348,413.98854 Z M 360.0434,416.72443 H 362.83762 C 362.83762,417.90278 362.39817,418.49196 361.51926,418.49196 360.63647,418.49196 360.14451,417.90278 360.0434,416.72443 Z M 366.28908,412.87435 V 419.20948 H 367.43827 V 418.01945 C 367.89328,418.90614 368.5544,419.34948 369.42164,419.34948 369.53831,419.34948 369.66081,419.33976 369.78915,419.32031 V 418.24696 C 369.59081,418.31307 369.41581,418.34612 369.26414,418.34612 368.5369,418.34612 367.92828,417.91445 367.43827,417.0511 V 412.87435 Z M 372.94699,412.72851 C 372.42198,412.72851 371.78419,412.85102 371.03362,413.09602 V 414.15188 C 371.78419,413.77853 372.43753,413.59186 372.99365,413.59186 373.32422,413.59186 373.59839,413.68131 373.81617,413.8602 374.03395,414.03909 374.14284,414.26271 374.14284,414.53105 374.14284,414.92383 373.83756,415.24856 373.22699,415.50524 L 372.55615,415.79107 C 371.56446,416.2033 371.06862,416.79637 371.06862,417.57028 371.06862,418.12251 371.26404,418.5571 371.65488,418.87405 372.04572,419.191 372.58142,419.34948 373.26199,419.34948 373.61589,419.34948 374.0534,419.30087 374.57452,419.20364 L 374.81369,419.15697 V 418.20029 C 374.17201,418.39085 373.66256,418.48613 373.28533,418.48613 372.54642,418.48613 372.17697,418.21779 372.17697,417.68111 372.17697,417.33499 372.45698,417.04332 373.01699,416.80609 L 373.57117,416.57276 C 374.19729,416.30831 374.64063,416.02927 374.90119,415.73566 375.16175,415.44204 375.29203,415.0755 375.29203,414.63605 375.29203,414.07993 375.07231,413.62298 374.63285,413.26519 374.1934,412.90741 373.63144,412.72851 372.94699,412.72851 Z M 377.2404,412.87435 V 419.20948 H 378.38959 V 412.87435 Z M 377.2404,420.35866 V 421.50785 H 378.38959 V 420.35866 Z M 382.70635,412.72851 C 381.80022,412.72851 381.07687,413.02894 380.5363,413.62978 379.99574,414.23063 379.72545,415.03467 379.72545,416.04191 379.72545,417.06082 379.99671,417.86681 380.53922,418.45988 381.08173,419.05294 381.81772,419.34948 382.74718,419.34948 383.67664,419.34948 384.41263,419.05294 384.95514,418.45988 385.49765,417.86681 385.76891,417.06471 385.76891,416.05358 385.76891,415.01911 385.49668,414.20632 384.95222,413.6152 384.40777,413.02407 383.65914,412.72851 382.70635,412.72851 Z M 382.72385,413.59186 C 383.94109,413.59186 384.54972,414.41244 384.54972,416.05358 384.54972,417.67528 383.94887,418.48613 382.74718,418.48613 381.54938,418.48613 380.95048,417.67139 380.95048,416.04191 380.95048,414.40855 381.5416,413.59186 382.72385,413.59186 Z M 387.19616,412.87435 V 419.20948 H 388.34535 V 418.01945 C 388.95203,418.90614 389.69482,419.34948 390.57372,419.34948 391.12207,419.34948 391.55958,419.17545 391.88625,418.82738 392.21292,418.47932 392.37626,418.01167 392.37626,417.42444 V 412.87435 H 391.22707 V 417.0511 C 391.22707,417.52166 391.15804,417.85709 391.01998,418.05737 390.88192,418.25765 390.65345,418.35779 390.33455,418.35779 389.63065,418.35779 388.96758,417.89695 388.34535,416.97526 V 412.87435 Z M 394.32852,412.87435 V 414.02354 H 395.47771 V 412.87435 Z M 394.32852,418.05445 V 419.20948 H 395.47771 V 418.05445 Z M 404.4515,412.87435 401.1906,421.50785 H 402.41563 L 405.08735,414.43771 407.66573,421.50785 H 408.73908 L 405.60652,412.87435 Z M 414.73781,413.07852 C 413.9678,412.84518 413.30862,412.72851 412.76027,412.72851 411.82692,412.72851 411.06566,413.03866 410.47648,413.65895 409.8873,414.27924 409.59271,415.08328 409.59271,416.07108 409.59271,417.03165 409.8523,417.81917 410.37148,418.43363 410.89065,419.04808 411.55469,419.35531 412.3636,419.35531 413.12973,419.35531 413.72182,419.08308 414.13988,418.53863 414.55795,417.99417 414.76698,417.22027 414.76698,416.21692 L 414.76115,415.86108 H 410.76524 C 410.93246,414.35605 411.66942,413.60353 412.97611,413.60353 413.45445,413.60353 414.04169,413.73187 414.73781,413.98854 Z M 410.81774,416.72443 H 413.61196 C 413.61196,417.90278 413.1725,418.49196 412.2936,418.49196 411.4108,418.49196 410.91885,417.90278 410.81774,416.72443 Z M 417.06341,412.87435 V 419.20948 H 418.2126 V 418.01945 C 418.66761,418.90614 419.32874,419.34948 420.19598,419.34948 420.31265,419.34948 420.43515,419.33976 420.56348,419.32031 V 418.24696 C 420.36515,418.31307 420.19014,418.34612 420.03847,418.34612 419.31124,418.34612 418.70261,417.91445 418.2126,417.0511 V 412.87435 Z M 423.72132,412.72851 C 423.19631,412.72851 422.55852,412.85102 421.80795,413.09602 V 414.15188 C 422.55852,413.77853 423.21187,413.59186 423.76799,413.59186 424.09855,413.59186 424.37273,413.68131 424.59051,413.8602 424.80829,414.03909 424.91718,414.26271 424.91718,414.53105 424.91718,414.92383 424.6119,415.24856 424.00133,415.50524 L 423.33048,415.79107 C 422.3388,416.2033 421.84295,416.79637 421.84295,417.57028 421.84295,418.12251 422.03837,418.5571 422.42922,418.87405 422.82006,419.191 423.35576,419.34948 424.03633,419.34948 424.39023,419.34948 424.82774,419.30087 425.34886,419.20364 L 425.58803,419.15697 V 418.20029 C 424.94635,418.39085 424.43689,418.48613 424.05966,418.48613 423.32076,418.48613 422.95131,418.21779 422.95131,417.68111 422.95131,417.33499 423.23131,417.04332 423.79133,416.80609 L 424.3455,416.57276 C 424.97163,416.30831 425.41497,416.02927 425.67553,415.73566 425.93609,415.44204 426.06637,415.0755 426.06637,414.63605 426.06637,414.07993 425.84664,413.62298 425.40719,413.26519 424.96774,412.90741 424.40578,412.72851 423.72132,412.72851 Z M 428.01474,412.87435 V 419.20948 H 429.16393 V 412.87435 Z M 428.01474,420.35866 V 421.50785 H 429.16393 V 420.35866 Z M 433.48068,412.72851 C 432.57456,412.72851 431.85121,413.02894 431.31064,413.62978 430.77008,414.23063 430.49979,415.03467 430.49979,416.04191 430.49979,417.06082 430.77105,417.86681 431.31356,418.45988 431.85607,419.05294 432.59206,419.34948 433.52152,419.34948 434.45098,419.34948 435.18697,419.05294 435.72948,418.45988 436.27199,417.86681 436.54325,417.06471 436.54325,416.05358 436.54325,415.01911 436.27102,414.20632 435.72656,413.6152 435.18211,413.02407 434.43348,412.72851 433.48068,412.72851 Z M 433.49818,413.59186 C 434.71543,413.59186 435.32405,414.41244 435.32405,416.05358 435.32405,417.67528 434.72321,418.48613 433.52152,418.48613 432.32372,418.48613 431.72482,417.67139 431.72482,416.04191 431.72482,414.40855 432.31594,413.59186 433.49818,413.59186 Z M 437.97049,412.87435 V 419.20948 H 439.11968 V 418.01945 C 439.72636,418.90614 440.46916,419.34948 441.34806,419.34948 441.89641,419.34948 442.33391,419.17545 442.66059,418.82738 442.98726,418.47932 443.1506,418.01167 443.1506,417.42444 V 412.87435 H 442.00141 V 417.0511 C 442.00141,417.52166 441.93238,417.85709 441.79432,418.05737 441.65626,418.25765 441.42779,418.35779 441.10889,418.35779 440.40499,418.35779 439.74192,417.89695 439.11968,416.97526 V 412.87435 Z M 445.58703,412.87435 V 413.7377 H 447.31374 V 420.55117 L 445.58703,420.11949 V 421.00618 L 448.46876,421.72369 V 413.7377 H 450.19546 V 412.87435 Z"
             style="fill:#000000;fill-opacity:1;fill-rule:nonzero;stroke:none;stroke-width:0.995575"
             id="path47" /><path
             d="M 347.21954,591.08232 H 458.72396 V 525.37436 H 347.21954 Z"
             style="fill:#ffd700;fill-opacity:1;fill-rule:nonzero;stroke:none;stroke-width:0.995575"
             id="path51" /><path
             d="M 347.21954,591.08232 H 458.72396 V 525.37436 H 347.21954 Z"
             style="fill:none;stroke:#000000;stroke-width:0.995575;stroke-linecap:round;stroke-linejoin:round;stroke-miterlimit:10;stroke-dasharray:none;stroke-opacity:1"
             id="path53" /><path
             d="M 375.21426,568.18409 V 576.81759 H 377.56514 C 378.60738,576.81759 379.35601,576.64162 379.81102,576.28967 380.26602,575.93771 380.49353,575.35923 380.49353,574.55422 380.49353,573.63642 380.18241,572.91696 379.56018,572.39584 378.93794,571.87472 378.07459,571.61416 376.97013,571.61416 H 376.42762 V 568.18409 Z M 376.42762,572.54168 H 376.92346 C 377.6507,572.54168 378.21265,572.7089 378.60932,573.04335 379.006,573.3778 379.20434,573.85031 379.20434,574.46088 379.20434,574.97811 379.04878,575.34756 378.73766,575.56924 378.42654,575.79091 377.90737,575.90174 377.18013,575.90174 H 376.42762 Z M 385.48502,568.98911 C 384.79667,568.3552 384.1336,568.03825 383.49581,568.03825 382.9708,568.03825 382.53524,568.20256 382.18912,568.53118 381.843,568.8598 381.66994,569.27494 381.66994,569.77662 381.66994,570.46886 381.96064,571.00067 382.54204,571.37207 383.12344,571.74347 383.95665,571.92916 385.04167,571.92916 H 385.31585 V 572.69334 C 385.31585,573.42836 384.93862,573.79587 384.18416,573.79587 383.57748,573.79587 382.92219,573.6092 382.21829,573.23586 V 574.18671 C 382.99219,574.50171 383.71748,574.65922 384.39416,574.65922 385.10195,574.65922 385.62405,574.49977 385.96044,574.18087 386.29684,573.86198 386.46504,573.36614 386.46504,572.69334 V 569.82329 C 386.46504,569.16605 386.66726,568.83744 387.07171,568.83744 387.12227,568.83744 387.19616,568.84521 387.29339,568.86077 L 387.37505,568.22492 C 387.11449,568.10048 386.82671,568.03825 386.5117,568.03825 385.97503,568.03825 385.6328,568.3552 385.48502,568.98911 Z M 385.31585,569.61328 V 571.25248 L 384.93084,571.26415 C 384.30083,571.26415 383.79137,571.14456 383.40248,570.90539 383.01358,570.66622 382.81913,570.35219 382.81913,569.96329 382.81913,569.68717 382.91635,569.45384 383.1108,569.26328 383.30525,569.07272 383.54248,568.97744 383.82248,568.97744 384.30083,568.97744 384.79861,569.18939 385.31585,569.61328 Z M 391.66069,568.03825 C 390.80512,568.03825 390.09539,568.3552 389.53149,568.98911 388.96759,569.62301 388.68564,570.42219 388.68564,571.38665 388.68564,572.41723 388.96467,573.2203 389.52274,573.79587 390.0808,574.37143 390.85957,574.65922 391.85903,574.65922 392.35293,574.65922 392.90516,574.59116 393.51573,574.45505 V 573.49253 C 392.86627,573.68309 392.33737,573.77837 391.92903,573.77837 391.3418,573.77837 390.87026,573.55767 390.51442,573.11627 390.15858,572.67487 389.98066,572.08667 389.98066,571.35165 389.98066,570.63997 390.16344,570.0644 390.52901,569.62495 390.89457,569.1855 391.37291,568.96577 391.96403,568.96577 392.48904,568.96577 393.02961,569.09994 393.58573,569.36828 V 568.37659 C 392.84294,568.15103 392.20126,568.03825 391.66069,568.03825 Z M 395.16076,568.18409 V 577.39511 H 396.30995 V 571.44499 L 398.99334,574.51922 H 400.23003 L 397.66915,571.56166 400.76087,568.18409 H 399.29085 L 396.30995,571.43332 V 568.18409 Z M 405.39652,568.98911 C 404.70817,568.3552 404.04511,568.03825 403.40732,568.03825 402.88231,568.03825 402.44674,568.20256 402.10062,568.53118 401.75451,568.8598 401.58145,569.27494 401.58145,569.77662 401.58145,570.46886 401.87215,571.00067 402.45355,571.37207 403.03495,571.74347 403.86816,571.92916 404.95318,571.92916 H 405.22735 V 572.69334 C 405.22735,573.42836 404.85012,573.79587 404.09566,573.79587 403.48898,573.79587 402.83369,573.6092 402.12979,573.23586 V 574.18671 C 402.90369,574.50171 403.62899,574.65922 404.30567,574.65922 405.01346,574.65922 405.53555,574.49977 405.87195,574.18087 406.20834,573.86198 406.37654,573.36614 406.37654,572.69334 V 569.82329 C 406.37654,569.16605 406.57877,568.83744 406.98322,568.83744 407.03378,568.83744 407.10767,568.84521 407.20489,568.86077 L 407.28656,568.22492 C 407.026,568.10048 406.73822,568.03825 406.42321,568.03825 405.88653,568.03825 405.5443,568.3552 405.39652,568.98911 Z M 405.22735,569.61328 V 571.25248 L 404.84234,571.26415 C 404.21233,571.26415 403.70288,571.14456 403.31398,570.90539 402.92508,570.66622 402.73064,570.35219 402.73064,569.96329 402.73064,569.68717 402.82786,569.45384 403.02231,569.26328 403.21676,569.07272 403.45398,568.97744 403.73399,568.97744 404.21233,568.97744 404.71012,569.18939 405.22735,569.61328 Z M 409.12215,566.07822 409.25632,567.07573 C 409.92133,566.76073 410.57662,566.60323 411.22219,566.60323 412.51722,566.60323 413.16473,567.28963 413.16473,568.66243 V 569.65995 C 412.74083,568.77327 412.04471,568.32993 411.07636,568.32993 410.31801,568.32993 409.71522,568.60604 409.26799,569.15828 408.82076,569.71051 408.59714,570.45525 408.59714,571.39249 408.59714,572.35695 408.85187,573.14252 409.36132,573.7492 409.87078,574.35588 410.52996,574.65922 411.33886,574.65922 412.04665,574.65922 412.65528,574.37143 413.16473,573.79587 V 574.51922 H 414.31975 V 569.91079 C 414.31975,568.9191 414.26823,568.18506 414.16517,567.70866 414.06211,567.23227 413.86863,566.8424 413.58474,566.53906 413.08306,566.00627 412.30332,565.73988 411.24553,565.73988 410.50662,565.73988 409.79883,565.85266 409.12215,566.07822 Z M 413.16473,570.37747 V 573.00835 C 412.65917,573.53336 412.10888,573.79587 411.51387,573.79587 410.98497,573.79587 410.57079,573.58392 410.27134,573.16002 409.97189,572.73612 409.82217,572.15472 409.82217,571.41582 409.82217,570.02746 410.31023,569.33328 411.28636,569.33328 411.95137,569.33328 412.5775,569.68134 413.16473,570.37747 Z M 420.71127,568.38826 C 419.94125,568.15492 419.28207,568.03825 418.73373,568.03825 417.80038,568.03825 417.03911,568.3484 416.44993,568.96869 415.86076,569.58898 415.56617,570.39302 415.56617,571.38082 415.56617,572.34139 415.82576,573.12891 416.34493,573.74337 416.86411,574.35782 417.52815,574.66505 418.33706,574.66505 419.10318,574.66505 419.69528,574.39282 420.11334,573.84837 420.5314,573.30391 420.74044,572.53001 420.74044,571.52666 L 420.7346,571.17082 H 416.73869 C 416.90592,569.66579 417.64288,568.91327 418.94957,568.91327 419.42791,568.91327 420.01514,569.04161 420.71127,569.29828 Z M 416.79119,572.03417 H 419.58541 C 419.58541,573.21252 419.14596,573.8017 418.26705,573.8017 417.38426,573.8017 416.8923,573.21252 416.79119,572.03417 Z M 423.68438,568.18409 V 569.04744 H 425.41108 V 575.86091 L 423.68438,575.42923 V 576.31592 L 426.56611,577.03343 V 569.04744 H 428.29281 V 568.18409 Z"
             style="fill:#000000;fill-opacity:1;fill-rule:nonzero;stroke:none;stroke-width:0.995575"
             id="path57" /><path
             d="M 366.28908,553.25046 V 559.58559 H 367.43827 V 558.39556 C 368.04495,559.28225 368.78774,559.72559 369.66665,559.72559 370.21499,559.72559 370.6525,559.55156 370.97917,559.20349 371.30584,558.85543 371.46918,558.38778 371.46918,557.80055 V 553.25046 H 370.31999 V 557.42721 C 370.31999,557.89777 370.25096,558.2332 370.1129,558.43348 369.97485,558.63376 369.74637,558.7339 369.42747,558.7339 368.72357,558.7339 368.0605,558.27306 367.43827,557.35137 V 553.25046 Z M 376.52484,554.05548 C 375.83649,553.42157 375.17342,553.10462 374.53563,553.10462 374.01062,553.10462 373.57506,553.26893 373.22894,553.59755 372.88282,553.92617 372.70976,554.34131 372.70976,554.84299 372.70976,555.53523 373.00046,556.06704 373.58186,556.43844 374.16326,556.80984 374.99647,556.99553 376.08149,556.99553 H 376.35567 V 557.75971 C 376.35567,558.49473 375.97844,558.86224 375.22398,558.86224 374.6173,558.86224 373.96201,558.67557 373.25811,558.30223 V 559.25308 C 374.03201,559.56808 374.7573,559.72559 375.43398,559.72559 376.14177,559.72559 376.66387,559.56614 377.00026,559.24724 377.33666,558.92835 377.50486,558.43251 377.50486,557.75971 V 554.88966 C 377.50486,554.23242 377.70708,553.90381 378.11153,553.90381 378.16209,553.90381 378.23598,553.91158 378.33321,553.92714 L 378.41487,553.29129 C 378.15431,553.16685 377.86653,553.10462 377.55152,553.10462 377.01485,553.10462 376.67262,553.42157 376.52484,554.05548 Z M 376.35567,554.67965 V 556.31885 L 375.97066,556.33052 C 375.34065,556.33052 374.83119,556.21093 374.4423,555.97176 374.0534,555.73259 373.85895,555.41856 373.85895,555.02966 373.85895,554.75354 373.95617,554.52021 374.15062,554.32965 374.34507,554.13909 374.5823,554.04381 374.8623,554.04381 375.34065,554.04381 375.83843,554.25576 376.35567,554.67965 Z M 380.22713,553.25046 V 559.58559 H 381.37632 V 558.39556 C 381.93633,559.28225 382.65579,559.72559 383.5347,559.72559 384.38249,559.72559 384.96,559.28225 385.26723,558.39556 385.81169,559.28613 386.51948,559.73142 387.39061,559.73142 387.95062,559.73142 388.38424,559.56711 388.69147,559.23849 388.99869,558.90988 389.15231,558.45001 389.15231,557.85888 V 553.25046 H 387.99729 V 557.67805 C 387.99729,558.4014 387.71145,558.76307 387.13977,558.76307 386.54476,558.76307 385.92058,558.34112 385.26723,557.49721 V 553.25046 H 384.11221 V 557.67805 C 384.11221,558.40528 383.82054,558.7689 383.23719,558.7689 382.65774,558.7689 382.03745,558.345 381.37632,557.49721 V 553.25046 Z M 395.82189,553.45463 C 395.05187,553.22129 394.39269,553.10462 393.84435,553.10462 392.91099,553.10462 392.14973,553.41477 391.56055,554.03506 390.97137,554.65535 390.67678,555.45939 390.67678,556.44719 390.67678,557.40776 390.93637,558.19528 391.45555,558.80974 391.97473,559.42419 392.63877,559.73142 393.44767,559.73142 394.2138,559.73142 394.80589,559.45919 395.22396,558.91474 395.64202,558.37028 395.85105,557.59638 395.85105,556.59303 L 395.84522,556.23719 H 391.84931 C 392.01653,554.73216 392.75349,553.97964 394.06018,553.97964 394.53853,553.97964 395.12576,554.10798 395.82189,554.36465 Z M 391.90181,557.10054 H 394.69603 C 394.69603,558.27889 394.25658,558.86807 393.37767,558.86807 392.49488,558.86807 392.00292,558.27889 391.90181,557.10054 Z M 398.31082,553.25046 V 554.39965 H 399.46001 V 553.25046 Z M 398.31082,558.43056 V 559.58559 H 399.46001 V 558.43056 Z M 406.07709,553.25046 V 561.88396 H 407.27878 L 411.6247,555.21633 V 561.88396 H 412.67472 V 553.25046 H 411.47886 L 407.12711,559.91809 V 553.25046 Z M 418.339,554.05548 C 417.65065,553.42157 416.98758,553.10462 416.34979,553.10462 415.82478,553.10462 415.38922,553.26893 415.0431,553.59755 414.69698,553.92617 414.52392,554.34131 414.52392,554.84299 414.52392,555.53523 414.81462,556.06704 415.39602,556.43844 415.97742,556.80984 416.81063,556.99553 417.89566,556.99553 H 418.16983 V 557.75971 C 418.16983,558.49473 417.7926,558.86224 417.03814,558.86224 416.43146,558.86224 415.77617,558.67557 415.07227,558.30223 V 559.25308 C 415.84617,559.56808 416.57146,559.72559 417.24814,559.72559 417.95593,559.72559 418.47803,559.56614 418.81442,559.24724 419.15082,558.92835 419.31902,558.43251 419.31902,557.75971 V 554.88966 C 419.31902,554.23242 419.52124,553.90381 419.9257,553.90381 419.97625,553.90381 420.05014,553.91158 420.14737,553.92714 L 420.22903,553.29129 C 419.96847,553.16685 419.68069,553.10462 419.36568,553.10462 418.82901,553.10462 418.48678,553.42157 418.339,554.05548 Z M 418.16983,554.67965 V 556.31885 L 417.78482,556.33052 C 417.15481,556.33052 416.64535,556.21093 416.25646,555.97176 415.86756,555.73259 415.67311,555.41856 415.67311,555.02966 415.67311,554.75354 415.77034,554.52021 415.96478,554.32965 416.15923,554.13909 416.39646,554.04381 416.67647,554.04381 417.15481,554.04381 417.65259,554.25576 418.16983,554.67965 Z M 422.04129,553.25046 V 559.58559 H 423.19048 V 558.39556 C 423.75049,559.28225 424.46995,559.72559 425.34886,559.72559 426.19665,559.72559 426.77416,559.28225 427.08139,558.39556 427.62585,559.28613 428.33364,559.73142 429.20477,559.73142 429.76478,559.73142 430.1984,559.56711 430.50563,559.23849 430.81286,558.90988 430.96647,558.45001 430.96647,557.85888 V 553.25046 H 429.81145 V 557.67805 C 429.81145,558.4014 429.52561,558.76307 428.95393,558.76307 428.35892,558.76307 427.73474,558.34112 427.08139,557.49721 V 553.25046 H 425.92637 V 557.67805 C 425.92637,558.40528 425.6347,558.7689 425.05135,558.7689 424.4719,558.7689 423.85161,558.345 423.19048,557.49721 V 553.25046 Z M 437.63605,553.45463 C 436.86603,553.22129 436.20685,553.10462 435.65851,553.10462 434.72516,553.10462 433.96389,553.41477 433.37471,554.03506 432.78553,554.65535 432.49094,555.45939 432.49094,556.44719 432.49094,557.40776 432.75053,558.19528 433.26971,558.80974 433.78889,559.42419 434.45293,559.73142 435.26183,559.73142 436.02796,559.73142 436.62005,559.45919 437.03812,558.91474 437.45618,558.37028 437.66521,557.59638 437.66521,556.59303 L 437.65938,556.23719 H 433.66347 C 433.83069,554.73216 434.56765,553.97964 435.87434,553.97964 436.35269,553.97964 436.93992,554.10798 437.63605,554.36465 Z M 433.71597,557.10054 H 436.51019 C 436.51019,558.27889 436.07074,558.86807 435.19183,558.86807 434.30904,558.86807 433.81708,558.27889 433.71597,557.10054 Z"
             style="fill:#000000;fill-opacity:1;fill-rule:nonzero;stroke:none;stroke-width:0.995575"
             id="path61" /><g
             id="g63"
             transform="matrix(0.99557525,0,0,-0.99557525,352.19741,538.31683)"><path
                 d="M 2.472656,0 0.105468,-6.363281 H 1.259765 L 3.111328,-1.412109 5.0625,-6.363281 H 6.140625 L 3.626953,0 Z M 11.818359,-0.205078 C 11.044921,0.029296 10.382812,0.146484 9.832031,0.146484 8.894531,0.146484 8.129882,-0.165039 7.538085,-0.788085 6.946289,-1.411132 6.65039,-2.21875 6.65039,-3.210937 6.65039,-4.175781 6.911132,-4.966796 7.432617,-5.583984 7.954101,-6.201171 8.621093,-6.509765 9.433593,-6.509765 10.203125,-6.509765 10.797851,-6.236328 11.217773,-5.689453 11.637695,-5.142578 11.847656,-4.365234 11.847656,-3.357421 L 11.841796,-3 H 7.828125 C 7.996093,-1.488281 8.736328,-0.732421 10.048828,-0.732421 10.529296,-0.732421 11.11914,-0.861328 11.818359,-1.11914 Z M 7.880859,-3.867187 H 10.6875 C 10.6875,-5.050781 10.246093,-5.642578 9.363281,-5.642578 8.476562,-5.642578 7.982421,-5.050781 7.880859,-3.867187 Z M 14.154296,0 V -6.363281 H 15.308593 V -5.167968 C 15.765625,-6.058593 16.429687,-6.503906 17.300781,-6.503906 17.417968,-6.503906 17.541015,-6.49414 17.669921,-6.474609 V -5.396484 C 17.470703,-5.46289 17.294921,-5.496093 17.142578,-5.496093 16.412109,-5.496093 15.800781,-5.0625 15.308593,-4.195312 V 0 Z M 20.841796,0.146484 C 20.314453,0.146484 19.673828,0.023437 18.919921,-0.222656 V -1.283203 C 19.673828,-0.908203 20.330078,-0.720703 20.888671,-0.720703 21.220703,-0.720703 21.496093,-0.810546 21.714843,-0.990234 21.933593,-1.169921 22.042968,-1.394531 22.042968,-1.664062 22.042968,-2.058593 21.736328,-2.384765 21.123046,-2.642578 L 20.449218,-2.929687 C 19.453125,-3.34375 18.955078,-3.939453 18.955078,-4.716796 18.955078,-5.271484 19.151367,-5.708007 19.543945,-6.026367 19.936523,-6.344726 20.474609,-6.503906 21.158203,-6.503906 21.513671,-6.503906 21.953125,-6.455078 22.476562,-6.357421 L 22.716796,-6.310546 V -5.349609 C 22.072265,-5.541015 21.560546,-5.636718 21.18164,-5.636718 20.439453,-5.636718 20.068359,-5.367187 20.068359,-4.828125 20.068359,-4.480468 20.349609,-4.1875 20.912109,-3.949218 L 21.46875,-3.714843 C 22.097656,-3.449218 22.542968,-3.168945 22.804687,-2.874023 23.066406,-2.579101 23.197265,-2.210937 23.197265,-1.769531 23.197265,-1.210937 22.976562,-0.751953 22.535156,-0.392578 22.09375,-0.033203 21.529296,0.146484 20.841796,0.146484 Z M 25.154296,0 V -6.363281 H 26.308593 V 0 Z M 25.154296,-7.517578 V -8.671875 H 26.308593 V -7.517578 Z M 30.644531,0.146484 C 29.734375,0.146484 29.007812,-0.155273 28.464843,-0.758789 27.921875,-1.362304 27.65039,-2.169921 27.65039,-3.18164 27.65039,-4.205078 27.922851,-5.014648 28.467773,-5.610351 29.012695,-6.206054 29.751953,-6.503906 30.685546,-6.503906 31.61914,-6.503906 32.358398,-6.206054 32.90332,-5.610351 33.448242,-5.014648 33.720703,-4.208984 33.720703,-3.193359 33.720703,-2.154296 33.447265,-1.33789 32.90039,-0.74414 32.353515,-0.15039 31.601562,0.146484 30.644531,0.146484 Z M 30.662109,-0.720703 C 31.884765,-0.720703 32.496093,-1.544921 32.496093,-3.193359 32.496093,-4.822265 31.892578,-5.636718 30.685546,-5.636718 29.482421,-5.636718 28.880859,-4.818359 28.880859,-3.18164 28.880859,-1.541015 29.474609,-0.720703 30.662109,-0.720703 Z M 35.154296,0 V -6.363281 H 36.308593 V -5.167968 C 36.917968,-6.058593 37.664062,-6.503906 38.546875,-6.503906 39.097656,-6.503906 39.537109,-6.329101 39.865234,-5.979492 40.193359,-5.629882 40.357421,-5.160156 40.357421,-4.570312 V 0 H 39.203125 V -4.195312 C 39.203125,-4.667968 39.133789,-5.004882 38.995117,-5.206054 38.856445,-5.407226 38.626953,-5.507812 38.30664,-5.507812 37.599609,-5.507812 36.933593,-5.044921 36.308593,-4.11914 V 0 Z M 42.318359,0 V -1.154296 H 43.472656 V 0 Z M 42.318359,-5.203125 V -6.363281 H 43.472656 V -5.203125 Z M 52.486328,0 49.210937,-8.671875 H 50.441406 L 53.125,-1.570312 55.714843,-8.671875 H 56.792968 L 53.646484,0 Z M 62.818359,-0.205078 C 62.044921,0.029296 61.382812,0.146484 60.832031,0.146484 59.894531,0.146484 59.129882,-0.165039 58.538085,-0.788085 57.946289,-1.411132 57.65039,-2.21875 57.65039,-3.210937 57.65039,-4.175781 57.911132,-4.966796 58.432617,-5.583984 58.954101,-6.201171 59.621093,-6.509765 60.433593,-6.509765 61.203125,-6.509765 61.797851,-6.236328 62.217773,-5.689453 62.637695,-5.142578 62.847656,-4.365234 62.847656,-3.357421 L 62.841796,-3 H 58.828125 C 58.996093,-1.488281 59.736328,-0.732421 61.048828,-0.732421 61.529296,-0.732421 62.11914,-0.861328 62.818359,-1.11914 Z M 58.880859,-3.867187 H 61.6875 C 61.6875,-5.050781 61.246093,-5.642578 60.363281,-5.642578 59.476562,-5.642578 58.982421,-5.050781 58.880859,-3.867187 Z M 65.154296,0 V -6.363281 H 66.308593 V -5.167968 C 66.765625,-6.058593 67.429687,-6.503906 68.300781,-6.503906 68.417968,-6.503906 68.541015,-6.49414 68.669921,-6.474609 V -5.396484 C 68.470703,-5.46289 68.294921,-5.496093 68.142578,-5.496093 67.412109,-5.496093 66.800781,-5.0625 66.308593,-4.195312 V 0 Z M 71.841796,0.146484 C 71.314453,0.146484 70.673828,0.023437 69.919921,-0.222656 V -1.283203 C 70.673828,-0.908203 71.330078,-0.720703 71.888671,-0.720703 72.220703,-0.720703 72.496093,-0.810546 72.714843,-0.990234 72.933593,-1.169921 73.042968,-1.394531 73.042968,-1.664062 73.042968,-2.058593 72.736328,-2.384765 72.123046,-2.642578 L 71.449218,-2.929687 C 70.453125,-3.34375 69.955078,-3.939453 69.955078,-4.716796 69.955078,-5.271484 70.151367,-5.708007 70.543945,-6.026367 70.936523,-6.344726 71.474609,-6.503906 72.158203,-6.503906 72.513671,-6.503906 72.953125,-6.455078 73.476562,-6.357421 L 73.716796,-6.310546 V -5.349609 C 73.072265,-5.541015 72.560546,-5.636718 72.18164,-5.636718 71.439453,-5.636718 71.068359,-5.367187 71.068359,-4.828125 71.068359,-4.480468 71.349609,-4.1875 71.912109,-3.949218 L 72.46875,-3.714843 C 73.097656,-3.449218 73.542968,-3.168945 73.804687,-2.874023 74.066406,-2.579101 74.197265,-2.210937 74.197265,-1.769531 74.197265,-1.210937 73.976562,-0.751953 73.535156,-0.392578 73.09375,-0.033203 72.529296,0.146484 71.841796,0.146484 Z M 76.154296,0 V -6.363281 H 77.308593 V 0 Z M 76.154296,-7.517578 V -8.671875 H 77.308593 V -7.517578 Z M 81.644531,0.146484 C 80.734375,0.146484 80.007812,-0.155273 79.464843,-0.758789 78.921875,-1.362304 78.65039,-2.169921 78.65039,-3.18164 78.65039,-4.205078 78.922851,-5.014648 79.467773,-5.610351 80.012695,-6.206054 80.751953,-6.503906 81.685546,-6.503906 82.61914,-6.503906 83.358398,-6.206054 83.90332,-5.610351 84.448242,-5.014648 84.720703,-4.208984 84.720703,-3.193359 84.720703,-2.154296 84.447265,-1.33789 83.90039,-0.74414 83.353515,-0.15039 82.601562,0.146484 81.644531,0.146484 Z M 81.662109,-0.720703 C 82.884765,-0.720703 83.496093,-1.544921 83.496093,-3.193359 83.496093,-4.822265 82.892578,-5.636718 81.685546,-5.636718 80.482421,-5.636718 79.880859,-4.818359 79.880859,-3.18164 79.880859,-1.541015 80.474609,-0.720703 81.662109,-0.720703 Z M 86.154296,0 V -6.363281 H 87.308593 V -5.167968 C 87.917968,-6.058593 88.664062,-6.503906 89.546875,-6.503906 90.097656,-6.503906 90.537109,-6.329101 90.865234,-5.979492 91.193359,-5.629882 91.357421,-5.160156 91.357421,-4.570312 V 0 H 90.203125 V -4.195312 C 90.203125,-4.667968 90.133789,-5.004882 89.995117,-5.206054 89.856445,-5.407226 89.626953,-5.507812 89.30664,-5.507812 88.599609,-5.507812 87.933593,-5.044921 87.308593,-4.11914 V 0 Z M 95.761718,0.216796 C 94.867187,0.216796 94.143554,-0.204101 93.59082,-1.045898 93.038085,-1.887695 92.761718,-2.986328 92.761718,-4.341796 92.761718,-5.708984 93.040039,-6.808593 93.596679,-7.640625 94.15332,-8.472656 94.886718,-8.888671 95.796875,-8.888671 96.707031,-8.888671 97.440429,-8.472656 97.99707,-7.640625 98.55371,-6.808593 98.832031,-5.714843 98.832031,-4.359375 98.832031,-2.96875 98.55371,-1.858398 97.99707,-1.02832 97.440429,-0.198242 96.695312,0.216796 95.761718,0.216796 Z M 95.773437,-0.65039 C 96.996093,-0.65039 97.607421,-1.892578 97.607421,-4.376953 97.607421,-6.80664 97.003906,-8.021484 95.796875,-8.021484 94.59375,-8.021484 93.992187,-6.794921 93.992187,-4.341796 93.992187,-1.880859 94.585937,-0.65039 95.773437,-0.65039 Z"
                 style="fill:#000000;fill-opacity:1;fill-rule:nonzero;stroke:none"
                 id="path65" /><g
                 id="g67"
                 transform="translate(-106,-58)" /></g></g></svg>
