<?xml version="1.0" encoding="UTF-8" standalone="no"?>
<!-- Created with Inkscape (http://www.inkscape.org/) -->

<svg
     version="1.1"
     id="svg9"
     xml:space="preserve"
     width="150"
     height="143.53194"
     viewBox="0 0 150 143.53194"
     xmlns="http://www.w3.org/2000/svg"
     xmlns:svg="http://www.w3.org/2000/svg"><defs
         id="defs13" /><g
         id="g15"
         transform="matrix(1.3333333,0,0,-1.3333333,-352.7578,860.56594)"><path
             d="M 296.08216,626.73929 C 296.08216,610.51482 296.08216,594.29034 296.08216,574.86328"
             style="fill:none;stroke:#e41a1c;stroke-width:0.557767;stroke-linecap:round;stroke-linejoin:round;stroke-miterlimit:10;stroke-dasharray:none;stroke-opacity:1"
             id="path21" /><path
             d="M 297.84153,595.50436 V 599.05359 H 298.48536 V 598.38688 C 298.74027,598.88364 299.11066,599.13202 299.59653,599.13202 299.6619,599.13202 299.73053,599.12657 299.80243,599.11568 V 598.51434 C 299.69131,598.55138 299.59326,598.5699 299.50829,598.5699 299.10086,598.5699 298.75988,598.32805 298.48536,597.84436 V 595.50436 Z M 303.23182,595.61875 C 302.80042,595.48802 302.43112,595.42266 302.12391,595.42266 301.60101,595.42266 301.17451,595.59641 300.84443,595.94393 300.51434,596.29144 300.3493,596.7419 300.3493,597.29531 300.3493,597.83347 300.49473,598.27467 300.7856,598.61892 301.07647,598.96317 301.44849,599.13529 301.90168,599.13529 302.3309,599.13529 302.66261,598.98278 302.89683,598.67775 303.13105,598.37272 303.24816,597.93914 303.24816,597.37702 L 303.24489,597.17766 H 301.0062 C 301.09989,596.33447 301.51277,595.91288 302.24483,595.91288 302.51282,595.91288 302.84182,595.98478 303.23182,596.12858 Z M 301.03561,597.66135 H 302.60106 C 302.60106,598.32152 302.35486,598.6516 301.86246,598.6516 301.36788,598.6516 301.09226,598.32152 301.03561,597.66135 Z M 306.81264,594.21344 V 596.17107 C 306.55118,595.67213 306.15683,595.42266 305.62956,595.42266 305.20252,595.42266 304.86645,595.57844 304.62133,595.89 304.37622,596.20157 304.25367,596.62752 304.25367,597.16785 304.25367,597.7583 304.39256,598.23328 304.67036,598.59277 304.94815,598.95227 305.31364,599.13202 305.76683,599.13202 306.18733,599.13202 306.53593,598.97079 306.81264,598.64833 V 599.05359 H 307.45973 V 594.21344 Z M 306.81264,598.20713 C 306.47929,598.50127 306.16336,598.64833 305.86487,598.64833 305.24828,598.64833 304.93998,598.17663 304.93998,597.23322 304.93998,596.4031 305.21451,595.98805 305.76356,595.98805 306.12088,595.98805 306.47057,596.18305 306.81264,596.57305 Z M 311.21594,595.50436 V 596.17107 C 310.87388,595.67213 310.45882,595.42266 309.97077,595.42266 309.66139,595.42266 309.41519,595.52016 309.23217,595.71516 309.04915,595.91016 308.95764,596.17324 308.95764,596.50442 V 599.05359 H 309.60147 V 596.71358 C 309.60147,596.44777 309.64014,596.25876 309.71749,596.14655 309.79484,596.03435 309.92393,595.97824 310.10477,595.97824 310.49695,595.97824 310.86734,596.23643 311.21594,596.7528 V 599.05359 H 311.85977 V 595.50436 Z M 312.90123,595.50436 V 599.05359 H 313.54505 V 595.50436 Z M 312.90123,599.69741 V 600.34124 H 313.54505 V 599.69741 Z M 314.57453,595.50436 V 599.05359 H 315.21835 V 598.38688 C 315.47327,598.88364 315.84366,599.13202 316.32953,599.13202 316.39489,599.13202 316.46353,599.12657 316.53542,599.11568 V 598.51434 C 316.42431,598.55138 316.32626,598.5699 316.24129,598.5699 315.83386,598.5699 315.49288,598.32805 315.21835,597.84436 V 595.50436 Z M 319.96482,595.61875 C 319.53342,595.48802 319.16412,595.42266 318.85691,595.42266 318.334,595.42266 317.90751,595.59641 317.57742,595.94393 317.24734,596.29144 317.0823,596.7419 317.0823,597.29531 317.0823,597.83347 317.22773,598.27467 317.5186,598.61892 317.80946,598.96317 318.18149,599.13529 318.63468,599.13529 319.06389,599.13529 319.39561,598.98278 319.62983,598.67775 319.86405,598.37272 319.98116,597.93914 319.98116,597.37702 L 319.97789,597.17766 H 317.7392 C 317.83289,596.33447 318.24576,595.91288 318.97783,595.91288 319.24582,595.91288 319.57482,595.98478 319.96482,596.12858 Z M 317.76861,597.66135 H 319.33406 C 319.33406,598.32152 319.08786,598.6516 318.59546,598.6516 318.10088,598.6516 317.82526,598.32152 317.76861,597.66135 Z M 322.20896,595.42266 C 321.91482,595.42266 321.5575,595.49129 321.137,595.62855 V 596.22009 C 321.5575,596.01093 321.92354,595.90634 322.2351,595.90634 322.4203,595.90634 322.5739,595.95646 322.69591,596.05668 322.81792,596.1569 322.87893,596.28218 322.87893,596.43252 322.87893,596.65257 322.7079,596.8345 322.36583,596.9783 L 321.98999,597.13844 C 321.4344,597.36939 321.15661,597.70166 321.15661,598.13523 321.15661,598.44462 321.26609,598.6881 321.48506,598.86567 321.70403,599.04324 322.00415,599.13202 322.38544,599.13202 322.58371,599.13202 322.82882,599.10479 323.12077,599.05032 L 323.25477,599.02417 V 598.48819 C 322.89527,598.59495 322.60985,598.64833 322.39851,598.64833 321.98454,598.64833 321.77756,598.498 321.77756,598.19733 321.77756,598.00342 321.93443,597.84001 322.24818,597.7071 L 322.55865,597.57638 C 322.90943,597.42822 323.15781,597.27189 323.30379,597.10739 323.44977,596.9429 323.52276,596.73755 323.52276,596.49135 323.52276,596.17978 323.39966,595.92377 323.15346,595.72333 322.90726,595.52288 322.59242,595.42266 322.20896,595.42266 Z"
             style="fill:#e41a1c;fill-opacity:1;fill-rule:nonzero;stroke:none;stroke-width:0.557767"
             id="path25" /><path
             d="M 294.6985,579.68871 296.08217,574.86327 297.46584,579.68871 Z"
             style="fill:#e41a1c;fill-opacity:1;fill-rule:nonzero;stroke:none;stroke-width:0.557767"
             id="path29" /><path
             d="M 296.08217,626.73929 C 296.08217,633.85638 310.06355,639.6237 327.3171,639.6237"
             style="fill:none;stroke:#e41a1c;stroke-width:0.557767;stroke-linecap:round;stroke-linejoin:round;stroke-miterlimit:10;stroke-dasharray:none;stroke-opacity:1"
             id="path33" /><path
             d="M 327.3171,639.6237 C 339.64107,639.6237 349.62777,633.85638 349.62777,626.73929"
             style="fill:none;stroke:#e41a1c;stroke-width:0.557767;stroke-linecap:round;stroke-linejoin:round;stroke-miterlimit:10;stroke-dasharray:none;stroke-opacity:1"
             id="path35" /><path
             d="M 349.62777,626.73929 C 349.62777,619.6222 339.64107,613.85488 327.3171,613.85488"
             style="fill:none;stroke:#e41a1c;stroke-width:0.557767;stroke-linecap:round;stroke-linejoin:round;stroke-miterlimit:10;stroke-dasharray:none;stroke-opacity:1"
             id="path37" /><path
             d="M 327.3171,613.85488 C 327.31289,613.85488 327.30868,613.85488 327.30447,613.85488"
             style="fill:none;stroke:#e41a1c;stroke-width:0.557767;stroke-linecap:round;stroke-linejoin:round;stroke-miterlimit:10;stroke-dasharray:none;stroke-opacity:1"
             id="path39" /><path
             d="M 351.38713,624.50822 V 628.05745 H 352.03096 V 627.39074 C 352.28587,627.8875 352.65626,628.13588 353.14213,628.13588 353.2075,628.13588 353.27613,628.13043 353.34803,628.11954 V 627.5182 C 353.23691,627.55524 353.13886,627.57376 353.05389,627.57376 352.64646,627.57376 352.30548,627.33191 352.03096,626.84822 V 624.50822 Z M 356.77742,624.62261 C 356.34602,624.49188 355.97672,624.42652 355.66951,624.42652 355.14661,624.42652 354.72011,624.60027 354.39003,624.94779 354.05994,625.2953 353.8949,625.74576 353.8949,626.29917 353.8949,626.83733 354.04033,627.27853 354.3312,627.62278 354.62207,627.96703 354.99409,628.13915 355.44728,628.13915 355.8765,628.13915 356.20821,627.98664 356.44243,627.68161 356.67665,627.37658 356.79376,626.943 356.79376,626.38088 L 356.79049,626.18152 H 354.5518 C 354.64549,625.33833 355.05837,624.91674 355.79043,624.91674 356.05842,624.91674 356.38742,624.98864 356.77742,625.13244 Z M 354.58121,626.66521 H 356.14666 C 356.14666,627.32538 355.90046,627.65546 355.40806,627.65546 354.91348,627.65546 354.63786,627.32538 354.58121,626.66521 Z M 360.35824,623.2173 V 625.17493 C 360.09678,624.67599 359.70243,624.42652 359.17516,624.42652 358.74812,624.42652 358.41205,624.5823 358.16693,624.89386 357.92182,625.20543 357.79927,625.63138 357.79927,626.17171 357.79927,626.76216 357.93816,627.23714 358.21596,627.59663 358.49375,627.95613 358.85924,628.13588 359.31243,628.13588 359.73293,628.13588 360.08153,627.97465 360.35824,627.65219 V 628.05745 H 361.00533 V 623.2173 Z M 360.35824,627.21099 C 360.02489,627.50513 359.70896,627.65219 359.41047,627.65219 358.79388,627.65219 358.48558,627.18049 358.48558,626.23708 358.48558,625.40696 358.76011,624.99191 359.30916,624.99191 359.66648,624.99191 360.01617,625.18691 360.35824,625.57691 Z M 364.76154,624.50822 V 625.17493 C 364.41948,624.67599 364.00442,624.42652 363.51637,624.42652 363.20699,624.42652 362.96079,624.52402 362.77777,624.71902 362.59475,624.91402 362.50324,625.1771 362.50324,625.50828 V 628.05745 H 363.14707 V 625.71744 C 363.14707,625.45163 363.18574,625.26262 363.26309,625.15041 363.34044,625.03821 363.46953,624.9821 363.65037,624.9821 364.04255,624.9821 364.41294,625.24029 364.76154,625.75666 V 628.05745 H 365.40537 V 624.50822 Z M 366.44683,624.50822 V 628.05745 H 367.09065 V 624.50822 Z M 366.44683,628.70127 V 629.3451 H 367.09065 V 628.70127 Z M 368.12013,624.50822 V 628.05745 H 368.76395 V 627.39074 C 369.01887,627.8875 369.38926,628.13588 369.87513,628.13588 369.94049,628.13588 370.00913,628.13043 370.08102,628.11954 V 627.5182 C 369.96991,627.55524 369.87186,627.57376 369.78689,627.57376 369.37946,627.57376 369.03848,627.33191 368.76395,626.84822 V 624.50822 Z M 373.51042,624.62261 C 373.07902,624.49188 372.70972,624.42652 372.40251,624.42652 371.8796,624.42652 371.45311,624.60027 371.12302,624.94779 370.79294,625.2953 370.6279,625.74576 370.6279,626.29917 370.6279,626.83733 370.77333,627.27853 371.0642,627.62278 371.35506,627.96703 371.72709,628.13915 372.18028,628.13915 372.60949,628.13915 372.94121,627.98664 373.17543,627.68161 373.40965,627.37658 373.52676,626.943 373.52676,626.38088 L 373.52349,626.18152 H 371.2848 C 371.37849,625.33833 371.79136,624.91674 372.52343,624.91674 372.79142,624.91674 373.12042,624.98864 373.51042,625.13244 Z M 371.31421,626.66521 H 372.87966 C 372.87966,627.32538 372.63346,627.65546 372.14106,627.65546 371.64648,627.65546 371.37086,627.32538 371.31421,626.66521 Z M 375.75456,624.42652 C 375.46042,624.42652 375.1031,624.49515 374.6826,624.63241 V 625.22395 C 375.1031,625.01479 375.46914,624.9102 375.7807,624.9102 375.9659,624.9102 376.1195,624.96032 376.24151,625.06054 376.36352,625.16076 376.42453,625.28604 376.42453,625.43638 376.42453,625.65643 376.2535,625.83836 375.91143,625.98216 L 375.53559,626.1423 C 374.98,626.37325 374.70221,626.70552 374.70221,627.13909 374.70221,627.44848 374.81169,627.69196 375.03066,627.86953 375.24963,628.0471 375.54975,628.13588 375.93104,628.13588 376.12931,628.13588 376.37442,628.10865 376.66637,628.05418 L 376.80037,628.02803 V 627.49205 C 376.44087,627.59881 376.15545,627.65219 375.94411,627.65219 375.53014,627.65219 375.32316,627.50186 375.32316,627.20119 375.32316,627.00728 375.48003,626.84387 375.79378,626.71096 L 376.10425,626.58024 C 376.45503,626.43208 376.70341,626.27575 376.84939,626.11125 376.99537,625.94676 377.06836,625.74141 377.06836,625.49521 377.06836,625.18364 376.94526,624.92763 376.69906,624.72719 376.45286,624.52674 376.13802,624.42652 375.75456,624.42652 Z"
             style="fill:#e41a1c;fill-opacity:1;fill-rule:nonzero;stroke:none;stroke-width:0.557767"
             id="path43" /><path
             d="M 332.13012,615.23776 327.30446,613.85488 332.12967,612.47042 Z"
             style="fill:#e41a1c;fill-opacity:1;fill-rule:nonzero;stroke:none;stroke-width:0.557767"
             id="path47" /><path
             d="M 264.84724,574.86699 H 327.3171 V 538.05439 H 264.84724 Z"
             style="fill:#ffd700;fill-opacity:1;fill-rule:nonzero;stroke:none;stroke-width:0.557767"
             id="path51" /><path
             d="M 264.84724,574.86699 H 327.3171 V 538.05439 H 264.84724 Z"
             style="fill:none;stroke:#000000;stroke-width:0.557767;stroke-linecap:round;stroke-linejoin:round;stroke-miterlimit:10;stroke-dasharray:none;stroke-opacity:1"
             id="path53" /><path
             d="M 280.53116,562.03836 V 566.87524 H 281.84823 C 282.43214,566.87524 282.85156,566.77665 283.10647,566.57947 283.36139,566.38229 283.48885,566.0582 283.48885,565.60719 283.48885,565.093 283.31455,564.68993 282.96594,564.39797 282.61734,564.10602 282.13365,563.96004 281.51488,563.96004 H 281.21094 V 562.03836 Z M 281.21094,564.47968 H 281.48873 C 281.89616,564.47968 282.211,564.57337 282.43323,564.76074 282.65547,564.94811 282.76658,565.21284 282.76658,565.5549 282.76658,565.84468 282.67943,566.05166 282.50513,566.17585 282.33083,566.30005 282.03996,566.36214 281.63253,566.36214 H 281.21094 Z M 286.28531,562.48937 C 285.89966,562.13423 285.52818,561.95666 285.17086,561.95666 284.87673,561.95666 284.6327,562.04871 284.43879,562.23282 284.24488,562.41692 284.14793,562.64951 284.14793,562.93057 284.14793,563.31839 284.31079,563.61634 284.63652,563.82441 284.96224,564.03248 285.42905,564.13652 286.03693,564.13652 H 286.19053 V 564.56465 C 286.19053,564.97644 285.97919,565.18233 285.55651,565.18233 285.21662,565.18233 284.84949,565.07775 284.45513,564.86859 V 565.4013 C 284.88871,565.57778 285.29505,565.66602 285.67416,565.66602 286.0707,565.66602 286.3632,565.57669 286.55166,565.39803 286.74013,565.21937 286.83436,564.94158 286.83436,564.56465 V 562.95671 C 286.83436,562.5885 286.94765,562.40439 287.17425,562.40439 287.20257,562.40439 287.24397,562.40875 287.29844,562.41747 L 287.34419,562.06124 C 287.19821,561.99152 287.03698,561.95666 286.8605,561.95666 286.55983,561.95666 286.3681,562.13423 286.28531,562.48937 Z M 286.19053,562.83906 V 563.75741 L 285.97483,563.76395 C 285.62187,563.76395 285.33645,563.69695 285.11857,563.56296 284.90069,563.42896 284.79176,563.25303 284.79176,563.03515 284.79176,562.88046 284.84622,562.74973 284.95516,562.64297 285.0641,562.53621 285.19701,562.48283 285.35388,562.48283 285.62187,562.48283 285.90075,562.60157 286.19053,562.83906 Z M 289.7452,561.95666 C 289.26587,561.95666 288.86824,562.13423 288.55232,562.48937 288.2364,562.84451 288.07844,563.29225 288.07844,563.83258 288.07844,564.40996 288.23477,564.85987 288.54742,565.18233 288.86007,565.50479 289.29637,565.66602 289.85632,565.66602 290.13302,565.66602 290.44241,565.62789 290.78448,565.55164 V 565.01239 C 290.42062,565.11915 290.12431,565.17253 289.89554,565.17253 289.56654,565.17253 289.30237,565.04888 289.10301,564.80159 288.90365,564.5543 288.80397,564.22476 288.80397,563.81297 288.80397,563.41426 288.90637,563.0918 289.11118,562.8456 289.31598,562.59939 289.58397,562.47629 289.91515,562.47629 290.20928,562.47629 290.51213,562.55146 290.8237,562.7018 V 562.14621 C 290.40755,562.01984 290.04805,561.95666 289.7452,561.95666 Z M 291.7061,562.03836 V 567.19879 H 292.34993 V 563.86526 L 293.85328,565.58759 H 294.54613 L 293.11141,563.93063 294.84354,562.03836 H 294.01996 L 292.34993,563.85873 V 562.03836 Z M 297.44064,562.48937 C 297.055,562.13423 296.68351,561.95666 296.32619,561.95666 296.03206,561.95666 295.78804,562.04871 295.59413,562.23282 295.40021,562.41692 295.30326,562.64951 295.30326,562.93057 295.30326,563.31839 295.46612,563.61634 295.79185,563.82441 296.11758,564.03248 296.58438,564.13652 297.19226,564.13652 H 297.34586 V 564.56465 C 297.34586,564.97644 297.13452,565.18233 296.71184,565.18233 296.37195,565.18233 296.00483,565.07775 295.61047,564.86859 V 565.4013 C 296.04404,565.57778 296.45038,565.66602 296.82949,565.66602 297.22603,565.66602 297.51853,565.57669 297.70699,565.39803 297.89546,565.21937 297.98969,564.94158 297.98969,564.56465 V 562.95671 C 297.98969,562.5885 298.10299,562.40439 298.32958,562.40439 298.3579,562.40439 298.3993,562.40875 298.45377,562.41747 L 298.49952,562.06124 C 298.35355,561.99152 298.19232,561.95666 298.01584,561.95666 297.71516,561.95666 297.52343,562.13423 297.44064,562.48937 Z M 297.34586,562.83906 V 563.75741 L 297.13016,563.76395 C 296.7772,563.76395 296.49178,563.69695 296.2739,563.56296 296.05603,563.42896 295.94709,563.25303 295.94709,563.03515 295.94709,562.88046 296.00156,562.74973 296.1105,562.64297 296.21943,562.53621 296.35234,562.48283 296.50921,562.48283 296.7772,562.48283 297.05608,562.60157 297.34586,562.83906 Z M 299.52791,560.85855 299.60307,561.41741 C 299.97564,561.24093 300.34277,561.15269 300.70444,561.15269 301.42998,561.15269 301.79274,561.53724 301.79274,562.30635 V 562.8652 C 301.55526,562.36844 301.16526,562.12006 300.62274,562.12006 300.19788,562.12006 299.86017,562.27476 299.60961,562.58414 299.35905,562.89353 299.23377,563.31077 299.23377,563.83585 299.23377,564.37619 299.37648,564.8163 299.6619,565.15619 299.94732,565.49608 300.31662,565.66602 300.76981,565.66602 301.16635,565.66602 301.50732,565.50479 301.79274,565.18233 V 565.58759 H 302.43984 V 563.00574 C 302.43984,562.45015 302.41097,562.0389 302.35323,561.772 302.2955,561.5051 302.1871,561.28668 302.02805,561.11674 301.74699,560.81825 301.31014,560.669 300.71752,560.669 300.30355,560.669 299.90701,560.73218 299.52791,560.85855 Z M 301.79274,563.26719 V 564.74113 C 301.5095,565.03527 301.20121,565.18233 300.86785,565.18233 300.57154,565.18233 300.3395,565.06359 300.17173,564.8261 300.00397,564.58862 299.92009,564.26289 299.92009,563.84892 299.92009,563.0711 300.19352,562.68219 300.74039,562.68219 301.11297,562.68219 301.46375,562.87719 301.79274,563.26719 Z M 306.02066,562.15275 C 305.58926,562.02202 305.21996,561.95666 304.91275,561.95666 304.38984,561.95666 303.96335,562.13041 303.63326,562.47793 303.30318,562.82544 303.13814,563.2759 303.13814,563.82931 303.13814,564.36747 303.28357,564.80867 303.57444,565.15292 303.8653,565.49717 304.23733,565.66929 304.69051,565.66929 305.11973,565.66929 305.45145,565.51678 305.68567,565.21175 305.91989,564.90672 306.037,564.47314 306.037,563.91102 L 306.03373,563.71166 H 303.79504 C 303.88873,562.86847 304.3016,562.44688 305.03367,562.44688 305.30166,562.44688 305.63066,562.51878 306.02066,562.66258 Z M 303.82445,564.19535 H 305.3899 C 305.3899,564.85552 305.1437,565.1856 304.6513,565.1856 304.15672,565.1856 303.8811,564.85552 303.82445,564.19535 Z M 308.7779,561.91744 C 308.27896,561.91744 307.87534,562.1522 307.56704,562.62173 307.25875,563.09125 307.1046,563.70403 307.1046,564.46007 307.1046,565.22264 307.25984,565.83597 307.57031,566.30005 307.88079,566.76412 308.28985,566.99616 308.79751,566.99616 309.30516,566.99616 309.71423,566.76412 310.0247,566.30005 310.33518,565.83597 310.49042,565.22591 310.49042,564.46987 310.49042,563.69423 310.33518,563.07491 310.0247,562.61192 309.71423,562.14893 309.29863,561.91744 308.7779,561.91744 Z M 308.78443,562.40113 C 309.46639,562.40113 309.80737,563.09398 309.80737,564.47968 309.80737,565.83488 309.47075,566.51248 308.79751,566.51248 308.12644,566.51248 307.79091,565.82834 307.79091,564.46007 307.79091,563.08744 308.12209,562.40113 308.78443,562.40113 Z"
             style="fill:#000000;fill-opacity:1;fill-rule:nonzero;stroke:none;stroke-width:0.557767"
             id="path57" /><path
             d="M 273.2998,553.67186 V 557.22109 H 273.94363 V 556.55438 C 274.28352,557.05114 274.69966,557.29952 275.19207,557.29952 275.49927,557.29952 275.74438,557.20202 275.9274,557.00702 276.11042,556.81202 276.20193,556.55002 276.20193,556.22103 V 553.67186 H 275.5581 V 556.01186 C 275.5581,556.2755 275.51943,556.46342 275.44208,556.57562 275.36473,556.68783 275.23673,556.74393 275.05807,556.74393 274.66371,556.74393 274.29223,556.48575 273.94363,555.96938 V 553.67186 Z M 279.03434,554.12287 C 278.64869,553.76773 278.27721,553.59016 277.91989,553.59016 277.62576,553.59016 277.38173,553.68221 277.18782,553.86632 276.99391,554.05042 276.89696,554.28301 276.89696,554.56407 276.89696,554.95189 277.05982,555.24984 277.38555,555.45791 277.71127,555.66598 278.17808,555.77002 278.78596,555.77002 H 278.93956 V 556.19815 C 278.93956,556.60994 278.72822,556.81583 278.30554,556.81583 277.96565,556.81583 277.59852,556.71125 277.20416,556.50209 V 557.0348 C 277.63774,557.21128 278.04408,557.29952 278.42319,557.29952 278.81973,557.29952 279.11223,557.21019 279.30069,557.03153 279.48916,556.85287 279.58339,556.57508 279.58339,556.19815 V 554.59021 C 279.58339,554.222 279.69668,554.03789 279.92328,554.03789 279.9516,554.03789 279.993,554.04225 280.04747,554.05097 L 280.09322,553.69474 C 279.94724,553.62502 279.78601,553.59016 279.60953,553.59016 279.30886,553.59016 279.11713,553.76773 279.03434,554.12287 Z M 278.93956,554.47256 V 555.39091 L 278.72386,555.39745 C 278.3709,555.39745 278.08548,555.33045 277.8676,555.19646 277.64972,555.06246 277.54079,554.88653 277.54079,554.66865 277.54079,554.51396 277.59525,554.38323 277.70419,554.27647 277.81313,554.16971 277.94604,554.11633 278.10291,554.11633 278.3709,554.11633 278.64978,554.23507 278.93956,554.47256 Z M 281.10853,553.67186 V 557.22109 H 281.75236 V 556.55438 C 282.0661,557.05114 282.46918,557.29952 282.96158,557.29952 283.43655,557.29952 283.7601,557.05114 283.93222,556.55438 284.23725,557.05332 284.63379,557.30279 285.12184,557.30279 285.43558,557.30279 285.67851,557.21074 285.85064,557.02663 286.02276,556.84252 286.10882,556.58488 286.10882,556.25371 V 553.67186 H 285.46172 V 556.1524 C 285.46172,556.55765 285.30159,556.76027 284.9813,556.76027 284.64795,556.76027 284.29826,556.52388 283.93222,556.05108 V 553.67186 H 283.28513 V 556.1524 C 283.28513,556.55983 283.12172,556.76354 282.7949,556.76354 282.47027,556.76354 282.12275,556.52606 281.75236,556.05108 V 553.67186 Z M 289.84542,553.78625 C 289.41402,553.65552 289.04472,553.59016 288.73751,553.59016 288.21461,553.59016 287.78811,553.76391 287.45803,554.11143 287.12794,554.45894 286.9629,554.9094 286.9629,555.46281 286.9629,556.00097 287.10833,556.44217 287.3992,556.78642 287.69007,557.13067 288.06209,557.30279 288.51528,557.30279 288.9445,557.30279 289.27622,557.15028 289.51044,556.84525 289.74465,556.54022 289.86176,556.10664 289.86176,555.54452 L 289.85849,555.34516 H 287.6198 C 287.71349,554.50197 288.12637,554.08038 288.85844,554.08038 289.12643,554.08038 289.45542,554.15228 289.84542,554.29608 Z M 287.64922,555.82885 H 289.21467 C 289.21467,556.48902 288.96846,556.8191 288.47606,556.8191 287.98148,556.8191 287.70586,556.48902 287.64922,555.82885 Z M 291.23984,553.67186 V 554.31569 H 291.88367 V 553.67186 Z M 291.23984,556.57399 V 557.22109 H 291.88367 V 556.57399 Z M 295.59085,553.67186 V 558.50874 H 296.2641 L 298.69888,554.77323 V 558.50874 H 299.28715 V 553.67186 H 298.61717 L 296.17912,557.40737 V 553.67186 Z M 302.46053,554.12287 C 302.07489,553.76773 301.70341,553.59016 301.34609,553.59016 301.05196,553.59016 300.80793,553.68221 300.61402,553.86632 300.42011,554.05042 300.32315,554.28301 300.32315,554.56407 300.32315,554.95189 300.48602,555.24984 300.81175,555.45791 301.13747,555.66598 301.60428,555.77002 302.21215,555.77002 H 302.36576 V 556.19815 C 302.36576,556.60994 302.15442,556.81583 301.73173,556.81583 301.39184,556.81583 301.02472,556.71125 300.63036,556.50209 V 557.0348 C 301.06394,557.21128 301.47028,557.29952 301.84939,557.29952 302.24592,557.29952 302.53843,557.21019 302.72689,557.03153 302.91535,556.85287 303.00959,556.57508 303.00959,556.19815 V 554.59021 C 303.00959,554.222 303.12288,554.03789 303.34947,554.03789 303.3778,554.03789 303.4192,554.04225 303.47367,554.05097 L 303.51942,553.69474 C 303.37344,553.62502 303.21221,553.59016 303.03573,553.59016 302.73506,553.59016 302.54333,553.76773 302.46053,554.12287 Z M 302.36576,554.47256 V 555.39091 L 302.15006,555.39745 C 301.7971,555.39745 301.51168,555.33045 301.2938,555.19646 301.07592,555.06246 300.96698,554.88653 300.96698,554.66865 300.96698,554.51396 301.02145,554.38323 301.13039,554.27647 301.23933,554.16971 301.37224,554.11633 301.52911,554.11633 301.7971,554.11633 302.07598,554.23507 302.36576,554.47256 Z M 304.53473,553.67186 V 557.22109 H 305.17856 V 556.55438 C 305.4923,557.05114 305.89537,557.29952 306.38778,557.29952 306.86275,557.29952 307.1863,557.05114 307.35842,556.55438 307.66345,557.05332 308.05999,557.30279 308.54803,557.30279 308.86178,557.30279 309.10471,557.21074 309.27683,557.02663 309.44896,556.84252 309.53502,556.58488 309.53502,556.25371 V 553.67186 H 308.88792 V 556.1524 C 308.88792,556.55765 308.72778,556.76027 308.4075,556.76027 308.07415,556.76027 307.72446,556.52388 307.35842,556.05108 V 553.67186 H 306.71133 V 556.1524 C 306.71133,556.55983 306.54792,556.76354 306.2211,556.76354 305.89646,556.76354 305.54895,556.52606 305.17856,556.05108 V 553.67186 Z M 313.27162,553.78625 C 312.84022,553.65552 312.47092,553.59016 312.16371,553.59016 311.64081,553.59016 311.21431,553.76391 310.88423,554.11143 310.55414,554.45894 310.3891,554.9094 310.3891,555.46281 310.3891,556.00097 310.53453,556.44217 310.8254,556.78642 311.11627,557.13067 311.48829,557.30279 311.94148,557.30279 312.3707,557.30279 312.70241,557.15028 312.93663,556.84525 313.17085,556.54022 313.28796,556.10664 313.28796,555.54452 L 313.28469,555.34516 H 311.046 C 311.13969,554.50197 311.55257,554.08038 312.28463,554.08038 312.55262,554.08038 312.88162,554.15228 313.27162,554.29608 Z M 311.07541,555.82885 H 312.64086 C 312.64086,556.48902 312.39466,556.8191 311.90226,556.8191 311.40768,556.8191 311.13206,556.48902 311.07541,555.82885 Z M 314.93729,553.67186 V 554.15555 H 315.90467 V 557.97276 L 314.93729,557.73092 V 558.22768 L 316.55177,558.62966 V 554.15555 H 317.51914 V 553.67186 Z"
             style="fill:#000000;fill-opacity:1;fill-rule:nonzero;stroke:none;stroke-width:0.557767"
             id="path61" /><path
             d="M 269.01523,545.30536 267.6949,548.85459 H 268.33872 L 269.37146,546.09299 270.45976,548.85459 H 271.06111 L 269.65906,545.30536 Z M 274.22796,545.41975 C 273.79656,545.28902 273.42726,545.22366 273.12005,545.22366 272.59714,545.22366 272.17065,545.39741 271.84056,545.74493 271.51048,546.09244 271.34544,546.5429 271.34544,547.09631 271.34544,547.63447 271.49087,548.07567 271.78174,548.41992 272.0726,548.76417 272.44463,548.93629 272.89781,548.93629 273.32703,548.93629 273.65875,548.78378 273.89297,548.47875 274.12719,548.17372 274.2443,547.74014 274.2443,547.17802 L 274.24103,546.97866 H 272.00234 C 272.09602,546.13547 272.5089,545.71388 273.24097,545.71388 273.50896,545.71388 273.83796,545.78578 274.22796,545.92958 Z M 272.03175,547.46235 H 273.5972 C 273.5972,548.12252 273.351,548.4526 272.8586,548.4526 272.36401,548.4526 272.0884,548.12252 272.03175,547.46235 Z M 275.53086,545.30536 V 548.85459 H 276.17469 V 548.18788 C 276.42961,548.68464 276.8,548.93302 277.28587,548.93302 277.35123,548.93302 277.41986,548.92757 277.49176,548.91668 V 548.31534 C 277.38064,548.35238 277.2826,548.3709 277.19763,548.3709 276.7902,548.3709 276.44922,548.12905 276.17469,547.64536 V 545.30536 Z M 279.26093,545.22366 C 278.96679,545.22366 278.60947,545.29229 278.18897,545.42955 V 546.02109 C 278.60947,545.81193 278.97551,545.70734 279.28707,545.70734 279.47227,545.70734 279.62587,545.75746 279.74788,545.85768 279.8699,545.9579 279.9309,546.08318 279.9309,546.23352 279.9309,546.45357 279.75987,546.6355 279.4178,546.7793 L 279.04196,546.93944 C 278.48637,547.17039 278.20858,547.50266 278.20858,547.93623 278.20858,548.24562 278.31806,548.4891 278.53703,548.66667 278.756,548.84424 279.05612,548.93302 279.43741,548.93302 279.63568,548.93302 279.88079,548.90579 280.17275,548.85132 L 280.30674,548.82517 V 548.28919 C 279.94724,548.39595 279.66182,548.44933 279.45048,548.44933 279.03651,548.44933 278.82953,548.299 278.82953,547.99833 278.82953,547.80442 278.9864,547.64101 279.30015,547.5081 L 279.61062,547.37738 C 279.9614,547.22922 280.20979,547.07289 280.35576,546.90839 280.50174,546.7439 280.57473,546.53855 280.57473,546.29235 280.57473,545.98078 280.45163,545.72477 280.20543,545.52433 279.95923,545.32388 279.64439,545.22366 279.26093,545.22366 Z M 281.6663,545.30536 V 548.85459 H 282.31012 V 545.30536 Z M 281.6663,549.49841 V 550.14224 H 282.31012 V 549.49841 Z M 284.72857,545.22366 C 284.22091,545.22366 283.81566,545.39197 283.51281,545.72859 283.20996,546.06521 283.05853,546.51567 283.05853,547.07997 283.05853,547.65081 283.2105,548.10236 283.51444,548.43463 283.81838,548.76689 284.23072,548.93302 284.75144,548.93302 285.27217,548.93302 285.6845,548.76689 285.98844,548.43463 286.29238,548.10236 286.44435,547.65299 286.44435,547.08651 286.44435,546.50695 286.29184,546.05159 285.98681,545.72042 285.68178,545.38924 285.26237,545.22366 284.72857,545.22366 Z M 284.73837,545.70734 C 285.42033,545.70734 285.76131,546.16707 285.76131,547.08651 285.76131,547.99506 285.42469,548.44933 284.75144,548.44933 284.08038,548.44933 283.74485,547.99288 283.74485,547.07997 283.74485,546.16489 284.07602,545.70734 284.73837,545.70734 Z M 287.24396,545.30536 V 548.85459 H 287.88779 V 548.18788 C 288.22768,548.68464 288.64383,548.93302 289.13623,548.93302 289.44344,548.93302 289.68855,548.83552 289.87157,548.64052 290.05458,548.44552 290.14609,548.18352 290.14609,547.85453 V 545.30536 H 289.50226 V 547.64536 C 289.50226,547.909 289.46359,548.09692 289.38624,548.20912 289.3089,548.32133 289.1809,548.37743 289.00224,548.37743 288.60788,548.37743 288.2364,548.11925 287.88779,547.60288 V 545.30536 Z M 291.23984,545.30536 V 545.94919 H 291.88367 V 545.30536 Z M 291.23984,548.20749 V 548.85459 H 291.88367 V 548.20749 Z M 296.91119,545.30536 295.08429,550.14224 H 295.7706 L 297.26742,546.18123 298.71195,550.14224 H 299.31329 L 297.55829,545.30536 Z M 302.67405,545.41975 C 302.24266,545.28902 301.87335,545.22366 301.56615,545.22366 301.04324,545.22366 300.61674,545.39741 300.28666,545.74493 299.95658,546.09244 299.79153,546.5429 299.79153,547.09631 299.79153,547.63447 299.93697,548.07567 300.22783,548.41992 300.5187,548.76417 300.89073,548.93629 301.34391,548.93629 301.77313,548.93629 302.10485,548.78378 302.33907,548.47875 302.57329,548.17372 302.69039,547.74014 302.69039,547.17802 L 302.68713,546.97866 H 300.44843 C 300.54212,546.13547 300.955,545.71388 301.68707,545.71388 301.95506,545.71388 302.28405,545.78578 302.67405,545.92958 Z M 300.47785,547.46235 H 302.0433 C 302.0433,548.12252 301.7971,548.4526 301.30469,548.4526 300.81011,548.4526 300.5345,548.12252 300.47785,547.46235 Z M 303.97696,545.30536 V 548.85459 H 304.62079 V 548.18788 C 304.87571,548.68464 305.2461,548.93302 305.73197,548.93302 305.79733,548.93302 305.86596,548.92757 305.93786,548.91668 V 548.31534 C 305.82674,548.35238 305.7287,548.3709 305.64373,548.3709 305.23629,548.3709 304.89532,548.12905 304.62079,547.64536 V 545.30536 Z M 307.70703,545.22366 C 307.41289,545.22366 307.05557,545.29229 306.63507,545.42955 V 546.02109 C 307.05557,545.81193 307.42161,545.70734 307.73317,545.70734 307.91837,545.70734 308.07197,545.75746 308.19398,545.85768 308.31599,545.9579 308.377,546.08318 308.377,546.23352 308.377,546.45357 308.20597,546.6355 307.8639,546.7793 L 307.48806,546.93944 C 306.93247,547.17039 306.65468,547.50266 306.65468,547.93623 306.65468,548.24562 306.76416,548.4891 306.98313,548.66667 307.20209,548.84424 307.50222,548.93302 307.88351,548.93302 308.08178,548.93302 308.32689,548.90579 308.61884,548.85132 L 308.75284,548.82517 V 548.28919 C 308.39334,548.39595 308.10792,548.44933 307.89658,548.44933 307.48261,548.44933 307.27563,548.299 307.27563,547.99833 307.27563,547.80442 307.4325,547.64101 307.74624,547.5081 L 308.05672,547.37738 C 308.4075,547.22922 308.65588,547.07289 308.80186,546.90839 308.94784,546.7439 309.02083,546.53855 309.02083,546.29235 309.02083,545.98078 308.89773,545.72477 308.65153,545.52433 308.40532,545.32388 308.09049,545.22366 307.70703,545.22366 Z M 310.11239,545.30536 V 548.85459 H 310.75622 V 545.30536 Z M 310.11239,549.49841 V 550.14224 H 310.75622 V 549.49841 Z M 313.17466,545.22366 C 312.66701,545.22366 312.26176,545.39197 311.95891,545.72859 311.65606,546.06521 311.50463,546.51567 311.50463,547.07997 311.50463,547.65081 311.6566,548.10236 311.96054,548.43463 312.26448,548.76689 312.67681,548.93302 313.19754,548.93302 313.71827,548.93302 314.1306,548.76689 314.43454,548.43463 314.73848,548.10236 314.89045,547.65299 314.89045,547.08651 314.89045,546.50695 314.73794,546.05159 314.43291,545.72042 314.12788,545.38924 313.70846,545.22366 313.17466,545.22366 Z M 313.18447,545.70734 C 313.86643,545.70734 314.2074,546.16707 314.2074,547.08651 314.2074,547.99506 313.87078,548.44933 313.19754,548.44933 312.52648,548.44933 312.19095,547.99288 312.19095,547.07997 312.19095,546.16489 312.52212,545.70734 313.18447,545.70734 Z M 315.69006,545.30536 V 548.85459 H 316.33389 V 548.18788 C 316.67378,548.68464 317.08992,548.93302 317.58233,548.93302 317.88954,548.93302 318.13465,548.83552 318.31766,548.64052 318.50068,548.44552 318.59219,548.18352 318.59219,547.85453 V 545.30536 H 317.94836 V 547.64536 C 317.94836,547.909 317.90969,548.09692 317.83234,548.20912 317.755,548.32133 317.62699,548.37743 317.44833,548.37743 317.05397,548.37743 316.68249,548.11925 316.33389,547.60288 V 545.30536 Z M 319.95719,545.30536 V 545.78905 H 320.92457 V 549.60626 L 319.95719,549.36442 V 549.86118 L 321.57167,550.26316 V 545.78905 H 322.53904 V 545.30536 Z"
             style="fill:#000000;fill-opacity:1;fill-rule:nonzero;stroke:none;stroke-width:0.557767"
             id="path65" /><path
             d="M 264.84724,645.14559 H 327.3171 V 608.33299 H 264.84724 Z"
             style="fill:#ffd700;fill-opacity:1;fill-rule:nonzero;stroke:none;stroke-width:0.557767"
             id="path69" /><path
             d="M 264.84724,645.14559 H 327.3171 V 608.33299 H 264.84724 Z"
             style="fill:none;stroke:#000000;stroke-width:0.557767;stroke-linecap:round;stroke-linejoin:round;stroke-miterlimit:10;stroke-dasharray:none;stroke-opacity:1"
             id="path71" /><path
             d="M 280.53116,632.31696 V 637.15384 H 281.84823 C 282.43214,637.15384 282.85156,637.05525 283.10647,636.85807 283.36139,636.66089 283.48885,636.3368 283.48885,635.88579 283.48885,635.3716 283.31455,634.96853 282.96594,634.67657 282.61734,634.38462 282.13365,634.23864 281.51488,634.23864 H 281.21094 V 632.31696 Z M 281.21094,634.75828 H 281.48873 C 281.89616,634.75828 282.211,634.85197 282.43323,635.03934 282.65547,635.22671 282.76658,635.49144 282.76658,635.8335 282.76658,636.12328 282.67943,636.33026 282.50513,636.45445 282.33083,636.57865 282.03996,636.64074 281.63253,636.64074 H 281.21094 Z M 286.28531,632.76797 C 285.89966,632.41283 285.52818,632.23526 285.17086,632.23526 284.87673,632.23526 284.6327,632.32731 284.43879,632.51142 284.24488,632.69552 284.14793,632.92811 284.14793,633.20917 284.14793,633.59699 284.31079,633.89494 284.63652,634.10301 284.96224,634.31108 285.42905,634.41512 286.03693,634.41512 H 286.19053 V 634.84325 C 286.19053,635.25504 285.97919,635.46093 285.55651,635.46093 285.21662,635.46093 284.84949,635.35635 284.45513,635.14719 V 635.6799 C 284.88871,635.85638 285.29505,635.94462 285.67416,635.94462 286.0707,635.94462 286.3632,635.85529 286.55166,635.67663 286.74013,635.49797 286.83436,635.22018 286.83436,634.84325 V 633.23531 C 286.83436,632.8671 286.94765,632.68299 287.17425,632.68299 287.20257,632.68299 287.24397,632.68735 287.29844,632.69607 L 287.34419,632.33984 C 287.19821,632.27012 287.03698,632.23526 286.8605,632.23526 286.55983,632.23526 286.3681,632.41283 286.28531,632.76797 Z M 286.19053,633.11766 V 634.03601 L 285.97483,634.04255 C 285.62187,634.04255 285.33645,633.97555 285.11857,633.84156 284.90069,633.70756 284.79176,633.53163 284.79176,633.31375 284.79176,633.15906 284.84622,633.02833 284.95516,632.92157 285.0641,632.81481 285.19701,632.76143 285.35388,632.76143 285.62187,632.76143 285.90075,632.88017 286.19053,633.11766 Z M 289.7452,632.23526 C 289.26587,632.23526 288.86824,632.41283 288.55232,632.76797 288.2364,633.12311 288.07844,633.57085 288.07844,634.11118 288.07844,634.68856 288.23477,635.13847 288.54742,635.46093 288.86007,635.78339 289.29637,635.94462 289.85632,635.94462 290.13302,635.94462 290.44241,635.90649 290.78448,635.83024 V 635.29099 C 290.42062,635.39775 290.12431,635.45113 289.89554,635.45113 289.56654,635.45113 289.30237,635.32748 289.10301,635.08019 288.90365,634.8329 288.80397,634.50336 288.80397,634.09157 288.80397,633.69286 288.90637,633.3704 289.11118,633.1242 289.31598,632.87799 289.58397,632.75489 289.91515,632.75489 290.20928,632.75489 290.51213,632.83006 290.8237,632.9804 V 632.42481 C 290.40755,632.29844 290.04805,632.23526 289.7452,632.23526 Z M 291.7061,632.31696 V 637.47739 H 292.34993 V 634.14386 L 293.85328,635.86619 H 294.54613 L 293.11141,634.20923 294.84354,632.31696 H 294.01996 L 292.34993,634.13733 V 632.31696 Z M 297.44064,632.76797 C 297.055,632.41283 296.68351,632.23526 296.32619,632.23526 296.03206,632.23526 295.78804,632.32731 295.59413,632.51142 295.40021,632.69552 295.30326,632.92811 295.30326,633.20917 295.30326,633.59699 295.46612,633.89494 295.79185,634.10301 296.11758,634.31108 296.58438,634.41512 297.19226,634.41512 H 297.34586 V 634.84325 C 297.34586,635.25504 297.13452,635.46093 296.71184,635.46093 296.37195,635.46093 296.00483,635.35635 295.61047,635.14719 V 635.6799 C 296.04404,635.85638 296.45038,635.94462 296.82949,635.94462 297.22603,635.94462 297.51853,635.85529 297.70699,635.67663 297.89546,635.49797 297.98969,635.22018 297.98969,634.84325 V 633.23531 C 297.98969,632.8671 298.10299,632.68299 298.32958,632.68299 298.3579,632.68299 298.3993,632.68735 298.45377,632.69607 L 298.49952,632.33984 C 298.35355,632.27012 298.19232,632.23526 298.01584,632.23526 297.71516,632.23526 297.52343,632.41283 297.44064,632.76797 Z M 297.34586,633.11766 V 634.03601 L 297.13016,634.04255 C 296.7772,634.04255 296.49178,633.97555 296.2739,633.84156 296.05603,633.70756 295.94709,633.53163 295.94709,633.31375 295.94709,633.15906 296.00156,633.02833 296.1105,632.92157 296.21943,632.81481 296.35234,632.76143 296.50921,632.76143 296.7772,632.76143 297.05608,632.88017 297.34586,633.11766 Z M 299.52791,631.13715 299.60307,631.69601 C 299.97564,631.51953 300.34277,631.43129 300.70444,631.43129 301.42998,631.43129 301.79274,631.81584 301.79274,632.58495 V 633.1438 C 301.55526,632.64704 301.16526,632.39866 300.62274,632.39866 300.19788,632.39866 299.86017,632.55336 299.60961,632.86274 299.35905,633.17213 299.23377,633.58937 299.23377,634.11445 299.23377,634.65479 299.37648,635.0949 299.6619,635.43479 299.94732,635.77468 300.31662,635.94462 300.76981,635.94462 301.16635,635.94462 301.50732,635.78339 301.79274,635.46093 V 635.86619 H 302.43984 V 633.28434 C 302.43984,632.72875 302.41097,632.3175 302.35323,632.0506 302.2955,631.7837 302.1871,631.56528 302.02805,631.39534 301.74699,631.09685 301.31014,630.9476 300.71752,630.9476 300.30355,630.9476 299.90701,631.01078 299.52791,631.13715 Z M 301.79274,633.54579 V 635.01973 C 301.5095,635.31387 301.20121,635.46093 300.86785,635.46093 300.57154,635.46093 300.3395,635.34219 300.17173,635.1047 300.00397,634.86722 299.92009,634.54149 299.92009,634.12752 299.92009,633.3497 300.19352,632.96079 300.74039,632.96079 301.11297,632.96079 301.46375,633.15579 301.79274,633.54579 Z M 306.02066,632.43135 C 305.58926,632.30062 305.21996,632.23526 304.91275,632.23526 304.38984,632.23526 303.96335,632.40901 303.63326,632.75653 303.30318,633.10404 303.13814,633.5545 303.13814,634.10791 303.13814,634.64607 303.28357,635.08727 303.57444,635.43152 303.8653,635.77577 304.23733,635.94789 304.69051,635.94789 305.11973,635.94789 305.45145,635.79538 305.68567,635.49035 305.91989,635.18532 306.037,634.75174 306.037,634.18962 L 306.03373,633.99026 H 303.79504 C 303.88873,633.14707 304.3016,632.72548 305.03367,632.72548 305.30166,632.72548 305.63066,632.79738 306.02066,632.94118 Z M 303.82445,634.47395 H 305.3899 C 305.3899,635.13412 305.1437,635.4642 304.6513,635.4642 304.15672,635.4642 303.8811,635.13412 303.82445,634.47395 Z M 307.68633,632.31696 V 632.80065 H 308.65371 V 636.61786 L 307.68633,636.37602 V 636.87278 L 309.3008,637.27476 V 632.80065 H 310.26818 V 632.31696 Z"
             style="fill:#000000;fill-opacity:1;fill-rule:nonzero;stroke:none;stroke-width:0.557767"
             id="path75" /><path
             d="M 273.2998,623.95046 V 627.49969 H 273.94363 V 626.83298 C 274.28352,627.32974 274.69966,627.57812 275.19207,627.57812 275.49927,627.57812 275.74438,627.48062 275.9274,627.28562 276.11042,627.09062 276.20193,626.82862 276.20193,626.49963 V 623.95046 H 275.5581 V 626.29046 C 275.5581,626.5541 275.51943,626.74202 275.44208,626.85422 275.36473,626.96643 275.23673,627.02253 275.05807,627.02253 274.66371,627.02253 274.29223,626.76435 273.94363,626.24798 V 623.95046 Z M 279.03434,624.40147 C 278.64869,624.04633 278.27721,623.86876 277.91989,623.86876 277.62576,623.86876 277.38173,623.96081 277.18782,624.14492 276.99391,624.32902 276.89696,624.56161 276.89696,624.84267 276.89696,625.23049 277.05982,625.52844 277.38555,625.73651 277.71127,625.94458 278.17808,626.04862 278.78596,626.04862 H 278.93956 V 626.47675 C 278.93956,626.88854 278.72822,627.09443 278.30554,627.09443 277.96565,627.09443 277.59852,626.98985 277.20416,626.78069 V 627.3134 C 277.63774,627.48988 278.04408,627.57812 278.42319,627.57812 278.81973,627.57812 279.11223,627.48879 279.30069,627.31013 279.48916,627.13147 279.58339,626.85368 279.58339,626.47675 V 624.86881 C 279.58339,624.5006 279.69668,624.31649 279.92328,624.31649 279.9516,624.31649 279.993,624.32085 280.04747,624.32957 L 280.09322,623.97334 C 279.94724,623.90362 279.78601,623.86876 279.60953,623.86876 279.30886,623.86876 279.11713,624.04633 279.03434,624.40147 Z M 278.93956,624.75116 V 625.66951 L 278.72386,625.67605 C 278.3709,625.67605 278.08548,625.60905 277.8676,625.47506 277.64972,625.34106 277.54079,625.16513 277.54079,624.94725 277.54079,624.79256 277.59525,624.66183 277.70419,624.55507 277.81313,624.44831 277.94604,624.39493 278.10291,624.39493 278.3709,624.39493 278.64978,624.51367 278.93956,624.75116 Z M 281.10853,623.95046 V 627.49969 H 281.75236 V 626.83298 C 282.0661,627.32974 282.46918,627.57812 282.96158,627.57812 283.43655,627.57812 283.7601,627.32974 283.93222,626.83298 284.23725,627.33192 284.63379,627.58139 285.12184,627.58139 285.43558,627.58139 285.67851,627.48934 285.85064,627.30523 286.02276,627.12112 286.10882,626.86348 286.10882,626.53231 V 623.95046 H 285.46172 V 626.431 C 285.46172,626.83625 285.30159,627.03887 284.9813,627.03887 284.64795,627.03887 284.29826,626.80248 283.93222,626.32968 V 623.95046 H 283.28513 V 626.431 C 283.28513,626.83843 283.12172,627.04214 282.7949,627.04214 282.47027,627.04214 282.12275,626.80466 281.75236,626.32968 V 623.95046 Z M 289.84542,624.06485 C 289.41402,623.93412 289.04472,623.86876 288.73751,623.86876 288.21461,623.86876 287.78811,624.04251 287.45803,624.39003 287.12794,624.73754 286.9629,625.188 286.9629,625.74141 286.9629,626.27957 287.10833,626.72077 287.3992,627.06502 287.69007,627.40927 288.06209,627.58139 288.51528,627.58139 288.9445,627.58139 289.27622,627.42888 289.51044,627.12385 289.74465,626.81882 289.86176,626.38524 289.86176,625.82312 L 289.85849,625.62376 H 287.6198 C 287.71349,624.78057 288.12637,624.35898 288.85844,624.35898 289.12643,624.35898 289.45542,624.43088 289.84542,624.57468 Z M 287.64922,626.10745 H 289.21467 C 289.21467,626.76762 288.96846,627.0977 288.47606,627.0977 287.98148,627.0977 287.70586,626.76762 287.64922,626.10745 Z M 291.23984,623.95046 V 624.59429 H 291.88367 V 623.95046 Z M 291.23984,626.85259 V 627.49969 H 291.88367 V 626.85259 Z M 295.59085,623.95046 V 628.78734 H 296.2641 L 298.69888,625.05183 V 628.78734 H 299.28715 V 623.95046 H 298.61717 L 296.17912,627.68597 V 623.95046 Z M 302.46053,624.40147 C 302.07489,624.04633 301.70341,623.86876 301.34609,623.86876 301.05196,623.86876 300.80793,623.96081 300.61402,624.14492 300.42011,624.32902 300.32315,624.56161 300.32315,624.84267 300.32315,625.23049 300.48602,625.52844 300.81175,625.73651 301.13747,625.94458 301.60428,626.04862 302.21215,626.04862 H 302.36576 V 626.47675 C 302.36576,626.88854 302.15442,627.09443 301.73173,627.09443 301.39184,627.09443 301.02472,626.98985 300.63036,626.78069 V 627.3134 C 301.06394,627.48988 301.47028,627.57812 301.84939,627.57812 302.24592,627.57812 302.53843,627.48879 302.72689,627.31013 302.91535,627.13147 303.00959,626.85368 303.00959,626.47675 V 624.86881 C 303.00959,624.5006 303.12288,624.31649 303.34947,624.31649 303.3778,624.31649 303.4192,624.32085 303.47367,624.32957 L 303.51942,623.97334 C 303.37344,623.90362 303.21221,623.86876 303.03573,623.86876 302.73506,623.86876 302.54333,624.04633 302.46053,624.40147 Z M 302.36576,624.75116 V 625.66951 L 302.15006,625.67605 C 301.7971,625.67605 301.51168,625.60905 301.2938,625.47506 301.07592,625.34106 300.96698,625.16513 300.96698,624.94725 300.96698,624.79256 301.02145,624.66183 301.13039,624.55507 301.23933,624.44831 301.37224,624.39493 301.52911,624.39493 301.7971,624.39493 302.07598,624.51367 302.36576,624.75116 Z M 304.53473,623.95046 V 627.49969 H 305.17856 V 626.83298 C 305.4923,627.32974 305.89537,627.57812 306.38778,627.57812 306.86275,627.57812 307.1863,627.32974 307.35842,626.83298 307.66345,627.33192 308.05999,627.58139 308.54803,627.58139 308.86178,627.58139 309.10471,627.48934 309.27683,627.30523 309.44896,627.12112 309.53502,626.86348 309.53502,626.53231 V 623.95046 H 308.88792 V 626.431 C 308.88792,626.83625 308.72778,627.03887 308.4075,627.03887 308.07415,627.03887 307.72446,626.80248 307.35842,626.32968 V 623.95046 H 306.71133 V 626.431 C 306.71133,626.83843 306.54792,627.04214 306.2211,627.04214 305.89646,627.04214 305.54895,626.80466 305.17856,626.32968 V 623.95046 Z M 313.27162,624.06485 C 312.84022,623.93412 312.47092,623.86876 312.16371,623.86876 311.64081,623.86876 311.21431,624.04251 310.88423,624.39003 310.55414,624.73754 310.3891,625.188 310.3891,625.74141 310.3891,626.27957 310.53453,626.72077 310.8254,627.06502 311.11627,627.40927 311.48829,627.58139 311.94148,627.58139 312.3707,627.58139 312.70241,627.42888 312.93663,627.12385 313.17085,626.81882 313.28796,626.38524 313.28796,625.82312 L 313.28469,625.62376 H 311.046 C 311.13969,624.78057 311.55257,624.35898 312.28463,624.35898 312.55262,624.35898 312.88162,624.43088 313.27162,624.57468 Z M 311.07541,626.10745 H 312.64086 C 312.64086,626.76762 312.39466,627.0977 311.90226,627.0977 311.40768,627.0977 311.13206,626.76762 311.07541,626.10745 Z M 316.02886,623.82954 C 315.52992,623.82954 315.1263,624.0643 314.81801,624.53383 314.50971,625.00335 314.35556,625.61613 314.35556,626.37217 314.35556,627.13474 314.5108,627.74807 314.82127,628.21215 315.13175,628.67622 315.54081,628.90826 316.04847,628.90826 316.55612,628.90826 316.96519,628.67622 317.27567,628.21215 317.58614,627.74807 317.74138,627.13801 317.74138,626.38197 317.74138,625.60633 317.58614,624.98701 317.27567,624.52402 316.96519,624.06103 316.54959,623.82954 316.02886,623.82954 Z M 316.0354,624.31323 C 316.71735,624.31323 317.05833,625.00608 317.05833,626.39178 317.05833,627.74698 316.72171,628.42458 316.04847,628.42458 315.37741,628.42458 315.04188,627.74044 315.04188,626.37217 315.04188,624.99954 315.37305,624.31323 316.0354,624.31323 Z"
             style="fill:#000000;fill-opacity:1;fill-rule:nonzero;stroke:none;stroke-width:0.557767"
             id="path79" /><path
             d="M 269.01523,615.58396 267.6949,619.13319 H 268.33872 L 269.37146,616.37159 270.45976,619.13319 H 271.06111 L 269.65906,615.58396 Z M 274.22796,615.69835 C 273.79656,615.56762 273.42726,615.50226 273.12005,615.50226 272.59714,615.50226 272.17065,615.67601 271.84056,616.02353 271.51048,616.37104 271.34544,616.8215 271.34544,617.37491 271.34544,617.91307 271.49087,618.35427 271.78174,618.69852 272.0726,619.04277 272.44463,619.21489 272.89781,619.21489 273.32703,619.21489 273.65875,619.06238 273.89297,618.75735 274.12719,618.45232 274.2443,618.01874 274.2443,617.45662 L 274.24103,617.25726 H 272.00234 C 272.09602,616.41407 272.5089,615.99248 273.24097,615.99248 273.50896,615.99248 273.83796,616.06438 274.22796,616.20818 Z M 272.03175,617.74095 H 273.5972 C 273.5972,618.40112 273.351,618.7312 272.8586,618.7312 272.36401,618.7312 272.0884,618.40112 272.03175,617.74095 Z M 275.53086,615.58396 V 619.13319 H 276.17469 V 618.46648 C 276.42961,618.96324 276.8,619.21162 277.28587,619.21162 277.35123,619.21162 277.41986,619.20617 277.49176,619.19528 V 618.59394 C 277.38064,618.63098 277.2826,618.6495 277.19763,618.6495 276.7902,618.6495 276.44922,618.40765 276.17469,617.92396 V 615.58396 Z M 279.26093,615.50226 C 278.96679,615.50226 278.60947,615.57089 278.18897,615.70815 V 616.29969 C 278.60947,616.09053 278.97551,615.98594 279.28707,615.98594 279.47227,615.98594 279.62587,616.03606 279.74788,616.13628 279.8699,616.2365 279.9309,616.36178 279.9309,616.51212 279.9309,616.73217 279.75987,616.9141 279.4178,617.0579 L 279.04196,617.21804 C 278.48637,617.44899 278.20858,617.78126 278.20858,618.21483 278.20858,618.52422 278.31806,618.7677 278.53703,618.94527 278.756,619.12284 279.05612,619.21162 279.43741,619.21162 279.63568,619.21162 279.88079,619.18439 280.17275,619.12992 L 280.30674,619.10377 V 618.56779 C 279.94724,618.67455 279.66182,618.72793 279.45048,618.72793 279.03651,618.72793 278.82953,618.5776 278.82953,618.27693 278.82953,618.08302 278.9864,617.91961 279.30015,617.7867 L 279.61062,617.65598 C 279.9614,617.50782 280.20979,617.35149 280.35576,617.18699 280.50174,617.0225 280.57473,616.81715 280.57473,616.57095 280.57473,616.25938 280.45163,616.00337 280.20543,615.80293 279.95923,615.60248 279.64439,615.50226 279.26093,615.50226 Z M 281.6663,615.58396 V 619.13319 H 282.31012 V 615.58396 Z M 281.6663,619.77701 V 620.42084 H 282.31012 V 619.77701 Z M 284.72857,615.50226 C 284.22091,615.50226 283.81566,615.67057 283.51281,616.00719 283.20996,616.34381 283.05853,616.79427 283.05853,617.35857 283.05853,617.92941 283.2105,618.38096 283.51444,618.71323 283.81838,619.04549 284.23072,619.21162 284.75144,619.21162 285.27217,619.21162 285.6845,619.04549 285.98844,618.71323 286.29238,618.38096 286.44435,617.93159 286.44435,617.36511 286.44435,616.78555 286.29184,616.33019 285.98681,615.99902 285.68178,615.66784 285.26237,615.50226 284.72857,615.50226 Z M 284.73837,615.98594 C 285.42033,615.98594 285.76131,616.44567 285.76131,617.36511 285.76131,618.27366 285.42469,618.72793 284.75144,618.72793 284.08038,618.72793 283.74485,618.27148 283.74485,617.35857 283.74485,616.44349 284.07602,615.98594 284.73837,615.98594 Z M 287.24396,615.58396 V 619.13319 H 287.88779 V 618.46648 C 288.22768,618.96324 288.64383,619.21162 289.13623,619.21162 289.44344,619.21162 289.68855,619.11412 289.87157,618.91912 290.05458,618.72412 290.14609,618.46212 290.14609,618.13313 V 615.58396 H 289.50226 V 617.92396 C 289.50226,618.1876 289.46359,618.37552 289.38624,618.48772 289.3089,618.59993 289.1809,618.65603 289.00224,618.65603 288.60788,618.65603 288.2364,618.39785 287.88779,617.88148 V 615.58396 Z M 291.23984,615.58396 V 616.22779 H 291.88367 V 615.58396 Z M 291.23984,618.48609 V 619.13319 H 291.88367 V 618.48609 Z M 296.91119,615.58396 295.08429,620.42084 H 295.7706 L 297.26742,616.45983 298.71195,620.42084 H 299.31329 L 297.55829,615.58396 Z M 302.67405,615.69835 C 302.24266,615.56762 301.87335,615.50226 301.56615,615.50226 301.04324,615.50226 300.61674,615.67601 300.28666,616.02353 299.95658,616.37104 299.79153,616.8215 299.79153,617.37491 299.79153,617.91307 299.93697,618.35427 300.22783,618.69852 300.5187,619.04277 300.89073,619.21489 301.34391,619.21489 301.77313,619.21489 302.10485,619.06238 302.33907,618.75735 302.57329,618.45232 302.69039,618.01874 302.69039,617.45662 L 302.68713,617.25726 H 300.44843 C 300.54212,616.41407 300.955,615.99248 301.68707,615.99248 301.95506,615.99248 302.28405,616.06438 302.67405,616.20818 Z M 300.47785,617.74095 H 302.0433 C 302.0433,618.40112 301.7971,618.7312 301.30469,618.7312 300.81011,618.7312 300.5345,618.40112 300.47785,617.74095 Z M 303.97696,615.58396 V 619.13319 H 304.62079 V 618.46648 C 304.87571,618.96324 305.2461,619.21162 305.73197,619.21162 305.79733,619.21162 305.86596,619.20617 305.93786,619.19528 V 618.59394 C 305.82674,618.63098 305.7287,618.6495 305.64373,618.6495 305.23629,618.6495 304.89532,618.40765 304.62079,617.92396 V 615.58396 Z M 307.70703,615.50226 C 307.41289,615.50226 307.05557,615.57089 306.63507,615.70815 V 616.29969 C 307.05557,616.09053 307.42161,615.98594 307.73317,615.98594 307.91837,615.98594 308.07197,616.03606 308.19398,616.13628 308.31599,616.2365 308.377,616.36178 308.377,616.51212 308.377,616.73217 308.20597,616.9141 307.8639,617.0579 L 307.48806,617.21804 C 306.93247,617.44899 306.65468,617.78126 306.65468,618.21483 306.65468,618.52422 306.76416,618.7677 306.98313,618.94527 307.20209,619.12284 307.50222,619.21162 307.88351,619.21162 308.08178,619.21162 308.32689,619.18439 308.61884,619.12992 L 308.75284,619.10377 V 618.56779 C 308.39334,618.67455 308.10792,618.72793 307.89658,618.72793 307.48261,618.72793 307.27563,618.5776 307.27563,618.27693 307.27563,618.08302 307.4325,617.91961 307.74624,617.7867 L 308.05672,617.65598 C 308.4075,617.50782 308.65588,617.35149 308.80186,617.18699 308.94784,617.0225 309.02083,616.81715 309.02083,616.57095 309.02083,616.25938 308.89773,616.00337 308.65153,615.80293 308.40532,615.60248 308.09049,615.50226 307.70703,615.50226 Z M 310.11239,615.58396 V 619.13319 H 310.75622 V 615.58396 Z M 310.11239,619.77701 V 620.42084 H 310.75622 V 619.77701 Z M 313.17466,615.50226 C 312.66701,615.50226 312.26176,615.67057 311.95891,616.00719 311.65606,616.34381 311.50463,616.79427 311.50463,617.35857 311.50463,617.92941 311.6566,618.38096 311.96054,618.71323 312.26448,619.04549 312.67681,619.21162 313.19754,619.21162 313.71827,619.21162 314.1306,619.04549 314.43454,618.71323 314.73848,618.38096 314.89045,617.93159 314.89045,617.36511 314.89045,616.78555 314.73794,616.33019 314.43291,615.99902 314.12788,615.66784 313.70846,615.50226 313.17466,615.50226 Z M 313.18447,615.98594 C 313.86643,615.98594 314.2074,616.44567 314.2074,617.36511 314.2074,618.27366 313.87078,618.72793 313.19754,618.72793 312.52648,618.72793 312.19095,618.27148 312.19095,617.35857 312.19095,616.44349 312.52212,615.98594 313.18447,615.98594 Z M 315.69006,615.58396 V 619.13319 H 316.33389 V 618.46648 C 316.67378,618.96324 317.08992,619.21162 317.58233,619.21162 317.88954,619.21162 318.13465,619.11412 318.31766,618.91912 318.50068,618.72412 318.59219,618.46212 318.59219,618.13313 V 615.58396 H 317.94836 V 617.92396 C 317.94836,618.1876 317.90969,618.37552 317.83234,618.48772 317.755,618.59993 317.62699,618.65603 317.44833,618.65603 317.05397,618.65603 316.68249,618.39785 316.33389,617.88148 V 615.58396 Z M 321.04876,615.46304 C 320.54982,615.46304 320.1462,615.6978 319.83791,616.16733 319.52961,616.63685 319.37546,617.24963 319.37546,618.00567 319.37546,618.76824 319.5307,619.38157 319.84117,619.84565 320.15165,620.30972 320.56071,620.54176 321.06837,620.54176 321.57602,620.54176 321.98509,620.30972 322.29556,619.84565 322.60604,619.38157 322.76128,618.77151 322.76128,618.01547 322.76128,617.23983 322.60604,616.62051 322.29556,616.15752 321.98509,615.69453 321.56949,615.46304 321.04876,615.46304 Z M 321.0553,615.94673 C 321.73725,615.94673 322.07823,616.63958 322.07823,618.02528 322.07823,619.38048 321.74161,620.05808 321.06837,620.05808 320.39731,620.05808 320.06177,619.37394 320.06177,618.00567 320.06177,616.63304 320.39295,615.94673 321.0553,615.94673 Z"
             style="fill:#000000;fill-opacity:1;fill-rule:nonzero;stroke:none;stroke-width:0.557767"
             id="path83" /></g></svg>
