<svg xmlns="http://www.w3.org/2000/svg" viewBox="0 0 1068.78 737.45"><path d="M-.13,755.59C2.35,511-4.92,259.41,2.32,18.18q531,.08,1061.9,0c4.75,240.08,4.75,497.38,0,737.46Q532,755.55-.13,755.59Z" transform="translate(0.99 -18.18)" fill="#fbfbfb"/><path d="M647.82,103.82c-.45,12.21,7.8,36.47-1.77,45-3.88,2.4-6.89,2.94-10.11-.8C620.21,124.56,624,93.91,618.3,67.21c-13.87-24.28,6.28-37.63,30.17-33.53,18.31,1.76,66.95,14.11,74.51,31.2,9.44,24.7-19.51,23.89-35.24,20.46,12.61,13.79,24.52,26.86,36.65,40.87,39.19,54.54,58.4,120.92,72.53,185.84,5.94,34.43,10.71,69.11,13.88,103.91,3.34,99.78-38.41,205.51-116.84,268.87-24.53,19.71-52,35.29-80.25,48.84-6.66,4-17.1-2.92-10.62-10,44.07-31.18,93.47-59.5,118.26-109.85,29.6-48.51,50.73-102,56.89-158.76,5.15-87.45-19.33-176-62.51-251.8a301.36,301.36,0,0,0-29.67-40.65c-14-18.63-25-39.35-37.69-58.89Z" transform="translate(0.99 -18.18)" fill="#6c8fcf"/><path d="M319.64,670.36c-8.71-19.6-17-39.18-27.67-57.83-32.94-60.75-48.1-130.44-47.14-199.38C254.66,269.28,297.2,186.3,410.26,97.08a287.32,287.32,0,0,1,48.15-31.86c6.56-3.76,18.72-11.78,21.85-.32a6.51,6.51,0,0,1-3.41,7.57c-43.26,21.47-75.26,58.21-110.06,90.66-38.14,38.64-68,85.94-79.49,139.48-9.62,41.2-19.15,83.19-16.77,125.75,7,82.11,41,159.19,87.77,226.27,2.19-11.65-.11-23.52,9-31.85,5.15-5,13.35-3.59,17.09,3,7.87,20.25,3.9,43.71,2.15,65-4.77,34.48-21.11,41.68-49.55,21.37a411.75,411.75,0,0,1-51.84-37.46c-6.24-3.87-9.95-16.91-.74-19.45C297.67,653,308.74,664.44,319.64,670.36Z" transform="translate(0.99 -18.18)" fill="#fe0000"/><path d="M611.83,248.5l.94-.54c1.12,3,4.57.08,5.83,2.21.9,1.52-.32,2.65-1.72,2.46-3-.4-2.7,1.29-2.3,3.08,2.18,9.66,2.78,19.49,3.27,29.35-1.18,24.21,7.71,53.5-11.23,72.64a138.67,138.67,0,0,0-40.56,96.68c-.24,3.17,2.56,11.19-3.36,7.33-3.48-1-4.87,0-4.89,3.6-.09,14.71-.19,29.42-1.68,44.07-.64,22.54-12,30.58-33.12,33.9-20.4,3.7-14.14-15-26.1-24a56.23,56.23,0,0,1-10.74-9.59c-7.22-7.7-4.44-18.67-4.66-28.21.85-3.41-2.73.6-3.36-2.27-.28-1.11.12-2.24,1.18-2.43,5.24-1.07,2.21-13.24.93-17-.86-1.38.72-2.57,2-1.72,4.51,3.31,4.67,9.85,4.84,15,0,1.27,0,2.32,1.89,2.11,8.85-1,17.78-.81,26.65-1.44,11.4-1.4,23.14-.55,34.37-2.69,1.48-.26,3-.28,3.55,1.56-.82,7.35-34.22,6.26-41,6.36-4.27.78-26-2.59-25.57,2.22-1,18-1,25.32,14.95,36.27,6.23,3.82,5.49,11.86,9.27,17.44,7.4,10,22,.92,30.95-2.4,5.56-2.77,7.1-8.32,8.41-14.3l-12.1,2c3,.8,6.47,0,6.68,3.54-.06,1.9-1.55,2.63-3.2,2.68-6.77,0-13.71.21-20.38-.95-1.85-.54-20.51-4.84-12.34-6.56,12.7.94,24.7-3.54,37.11-4.82,5.13-.69,5.13-.69,5.58-6.08,1.32-5.55.66-6.33-5-5.44-3,.37-6.73-1.23-8.77,1.74-10.78,4.32-24.18,3-35.64,6.39-1.46,0-3.44,1.86-4.47.29-1.06-5.45,16.52-5.81,20.63-7.91-2.08-.35-6.19,1.17-6.57-1.82-.73-4,33.57-2.57,38.15-2.58,4.89,2.55,2.6-24.93,3.81-29-.48-2.83,2.54-8.32-2.25-8.17-19-.14-38-.57-56.95-1-3.43-.07-3.43,0-6-3.14,20.94-1.33,42.06.17,63.07,0,5,.6,2.12-4.19,5.23-4.92,1,.46.61,1.88.64,2.75-.38,2.2,1,2.23,2.58,2.26,2,0,1.57-1.19,1.53-2.37-2-77.39,52.16-92.79,53.16-124.78.21-25.37,1.17-50.9-2.69-76.07-.19-1.3-.86-1.33-1.87-1.29-58.08,2.12-116.17,4.28-174.26,5.95-2.59.74-11.1-1.22-10.9,2,1,12.16.31,24.34.48,36.51-.09,18.48.44,38.33,12.82,53.27a276.76,276.76,0,0,1,43.76,100.92c-3.42-1.68-5.46-3.9-6.34-7.66a269.36,269.36,0,0,0-16.43-49.5A238.8,238.8,0,0,0,433.56,350c-18-25.91-8.92-59.72-10.79-89.25.63-2.52-2.5-1.36-1.65-3,3.3-2.33,8.67-.74,12.64-1.68,39.25-2.47,78.8-4.65,118.26-4.23C572,252,591.79,248.6,611.83,248.5Z" transform="translate(0.99 -18.18)" fill="#757575"/><path d="M864.74,326.19c2.44.34,2.23,1.92,1.48,3.56-7.41,9.65-23.09,7.45-33.16,3.67-15.82-8.09-13.82-33.1-1.21-43.61,4.42-4.15,13.12-8,17.52-3.08,9.19,9.73-1.45,22.91-12.55,23.8-1.94.31-3.94.78-6,.25-1.27-.34-1.5.37-1.56,1.48-.83,13.38,14.49,17.51,25.31,16.81a3.42,3.42,0,0,0,2.72-1.55c1.12-2.74,11.2-11.56,7.66-13.2-2.61-3.13-14.11-11.27-12-15.07,5.46-4.8,13.25,3.58,17.51,7,1.73,1.65,2.59,1.41,4-.21,3.83-3,9.89-13.28,15.19-10.05,3.32,4.6-15.7,14.73-10.33,18.52,3.14,4.08,19.8,14.61,17,19.08-5.6,6-18.94-10.07-24.3-13.21C869.42,318.8,867,324.67,864.74,326.19Z" transform="translate(0.99 -18.18)" fill="#6c8fcf"/><path d="M869.55,380.88c-25.9-.09-22.32,6-23.22,28.52.12,3.9,10-.18,13.08.94,13,.69,21.5,13.25,17,25.15-5,15.13-38.63,17.87-39.3-.45.13-.9.29-2,1.25-2.23s1.31.78,1.73,1.45c5.19,11.15,19.22,9.15,27.34,2.23,10.2-12.57-6.72-19.42-17.47-18.36-16.1.25-10.36-20.51-8.53-30.62,3.33-12.2,26.1-10.33,36.38-10.57,1.26.11,2.45.44,2.35,2C878.75,382.63,873.44,380.25,869.55,380.88Z" transform="translate(0.99 -18.18)" fill="#6c90cf"/><path d="M31.27,454c-5.74.87-17.44-6-11.1-12.17,1.32-.55,2.37.37,3,1.32,8.18,9.79,36.19-3.39,14.94-21.5-4.16-4.53-13.2-.66-14.65-7.84a92.86,92.86,0,0,1-2.25-26.74c.23-3.8,2.28-4.93,5.94-3.89,2.91.82,5.75-.25,8.63-.31,3.63.2,8.08-1.63,11,1.27,1.71,1.57.42,4.78-2,4.25-2.64,0-18.67-2.49-17.34,1.39.57,6.14,1,12.3,1.36,18.46.15,2.36.35,4,3.66,3.33C55.9,412.55,65.54,454.21,31.27,454Z" transform="translate(0.99 -18.18)" fill="#fe0000"/><path d="M581.21,250.5c-12,2.39-24.16,2.48-36.38,2.12-31.34-1-62.63,2.08-94,2.75-.64-1.26-1.82-1-2.88-1-6.91,0-13.82,0-20.72,0-9.86-.19-6-13.46-6.89-19.92,1-48.47-12-43.95,27.16-43.91,53.88-.34,108-2.11,161.85-1,8.83,1.38,2.83,22.36,3.55,29.14.37,10-1.36,19.89-1.1,29.86-.88,1.91-2.52.65-3.8.92,1.73-9.51,2.13-19.37,2.35-29.12-.86-5.83,4.88-28.64-3-28.36-60-.69-119.88,1.05-179.8,1.09-4.91.21-5.66,1.19-5.37,6.12.32,5.53-.15,11.09.2,16.62,1.62,51-7.21,33.35,59.19,35.43,23.24-.53,46.46-1.23,69.68-1.59C555.66,250.13,581.54,247.14,581.21,250.5Z" transform="translate(0.99 -18.18)" fill="#e9cbdb"/><path d="M184.92,311.07c9.48,2.47,18.16,5.55,27.47,2.33,7.51-2.23,4.41,7.71-.82,8.2-30.79,9.29-55.95-17.81-23.14-38.53C210.17,272.08,208.25,306.5,184.92,311.07Z" transform="translate(0.99 -18.18)" fill="#fe0000"/><path d="M1030,337.27c-37.2,1-35.88-45.56,1.16-41.6,6.59.22,8.17,8.8,2.79,12.13-6.14,4.88-13.18,6.28-20.74,4.8-2.28-.44-2.27.41-2,2,1.6,10.91,15.19,15.27,24.94,14,3.48-.26,7.31-4.91,10.57-2.71C1048.29,333.81,1036.51,338,1030,337.27Z" transform="translate(0.99 -18.18)" fill="#6c8fcf"/><path d="M145.58,440.28c3-.45,8.16.48,4.86,4.39-9.77,7.63-25.11.36-35.42-3.38-6.86-2.29-6-9.89-10.2-11.46a2.26,2.26,0,0,1-2.08-2.2c.08-2.76,4-1.37,3.46-4.64-.52-11.24,13.67-27.69,24.06-17.45,6.79,7.64-3.2,18.38-10.75,21.5-2.08,1-2,1.88-.58,3.28A42.18,42.18,0,0,0,145.58,440.28Z" transform="translate(0.99 -18.18)" fill="#fe0000"/><path d="M906.52,299.16c21.93-20.93,24.79,19.13,26.13,33.41.17,1.51.34,3.27-1.77,3.69-6.46-.13-5.07-11.56-7.07-16.12s-2-23.48-9.93-18.38c-4.33,2.69-6.32,6.9-7,11.77-1.21,3.31,1.3,9.85-2.86,11.05-2,.11-2.34-1.68-2.63-3.22-.54-5.89-6.47-50.6,0-49.59C907.63,271.91,905.31,293.59,906.52,299.16Z" transform="translate(0.99 -18.18)" fill="#6c90cf"/><path d="M130.66,318.59c-12.23,25.61-35.6-9.52-17.29-24.75,6.2-5.38,14.25-3.12,17.83,4.23,3.6,1.12,3.51,4.54,4.48,7.24,1.95,4.31,5.86,22.09,12.43,18.39,1-.84,2.52-1.59,3.69-.36s.56,2.58,0,3.85C145.64,337.89,134.45,325.47,130.66,318.59Z" transform="translate(0.99 -18.18)" fill="#fe0000"/><path d="M81.31,300.5c19-17.7,21.18,17.82,26,29.34,0,2.79,4.09,5.42,2,7.89-3.07,2.55-6.1-1.79-7-4.42-4-9.42-6.67-19.35-10.33-28.91-3-6.89-11.28,5-10.22,9.37-.75,4,2.42,12.55-2.54,13.86-2.09.17-2.94-1.26-3.09-3-.53-6.24-.94-12.49-1.43-18.73-.61-11.76-2.6-23.53-2.41-35.28C79.53,257.77,80.67,296.53,81.31,300.5Z" transform="translate(0.99 -18.18)" fill="#fe0000"/><path d="M951.08,408.24c15.52,1.28,3,18.24-5.64,20.59-5.57,2.47,3.8,11.25,6.23,13.77,2.06,1.8,4.22,2.63,7,1.6,4.17-2.22,6.13,2.38,2.9,5.18-10.11,8.8-23.81-4.88-28.3-14.12-1.13-2.47-1.36-5.13-4.12-6.83-2-1.2-1-4.21,1.34-4.39,1.92-.14,2.31-1.13,2.84-2.59C936.1,413.77,943.44,408.24,951.08,408.24Z" transform="translate(0.99 -18.18)" fill="#6c8fcf"/><path d="M960.63,319.25C948.35,350.74,923,317,944.94,302.51c4.64-2.71,9.39-3.22,14.14-.22a2,2,0,0,0,2.2.24c2.69-1.18,4.48-.24,5.06,2.85,2.63,9.31,4.33,22.42,12.44,28.49,1.15.58,1,2.13.57,3.25C971.32,346.79,962.9,325.31,960.63,319.25Z" transform="translate(0.99 -18.18)" fill="#6c90cf"/><path d="M996.46,456.19c-57.91-10.87-4.58-66.75,1.34-37.74-.42,2.14-3.42,4.92-5.44,5.29-1.39.37-2.19-1-.94-1.73,4.74-3.4,2.43-7.81-3-6.14-8.2,2.27-12,15.23-6.3,21.49,5.47,5.18,13.42,11.68,21.37,9.37,1.5-.6,3.43-1.22,4.51.37C1010.39,453.43,1003.14,456.71,996.46,456.19Z" transform="translate(0.99 -18.18)" fill="#6c90cf"/><path d="M89.1,453c-5.32.2-27.17-8.89-19.36-17.31a2.05,2.05,0,0,1,2.51,1.15c4.21,7.95,26.25,15.16,23.46.27-.82-12.32-22.83-17.35-18.83-29.59,2-4.17,7.79-7.19,12.51-6.48,5.48.34,12.21,11.36,5,13.47a1.59,1.59,0,0,1-.79-1.86c1-10.48-15.36-7.82-10.9-1,6.83,5.68,14.53,10.62,18,19.19C105.16,440.28,102.43,453.68,89.1,453Z" transform="translate(0.99 -18.18)" fill="#fe0000"/><path d="M149.24,285.63c1-4.44-2.6-22.72,2.67-23.13,8.14,4.76-.8,44,10.86,54.52,3.06,3,7.9,8.27,12.34,5.16,2.78-2.88,6.58.66,4.73,4C171.06,339.78,150,324,150.4,310.32,149.51,302.18,149.79,294,149.24,285.63Z" transform="translate(0.99 -18.18)" fill="#fe0000"/><path d="M45.75,305.54c9.88-16.56,21.59-4.87,22.79,9.51,1.29,6.2,2,12.52,3.86,18.61,1.35,3.36-3.63,5.39-5.31,2.31-3.78-3.77-6.12-38.11-12.82-31-3.91,3.09-5.5,7.35-5.83,12.14-1.24,4.14,1.83,13.51-3,15-5.21.78-5.68-28.93-6.24-33.8,0-2-.4-4.85,2.4-5C46.27,293.83,44.46,301.71,45.75,305.54Z" transform="translate(0.99 -18.18)" fill="#fe0000"/><path d="M996.28,296.92c-.33,13.7-1.41,29.73-1.4,44.89.13,1.73-.3,3.16-2.11,3.61-4.73,1-4.94-5.54-5-8.74-.36-15-1.67-29.9-1.33-44.88.91-4.74-1.08-15,5.11-16,2.47.07,3.28,2.1,3.64,4.12A90.83,90.83,0,0,1,996.28,296.92Z" transform="translate(0.99 -18.18)" fill="#6c8fcf"/><path d="M170.57,442.45c-33.44.79-28.89-42.19-8.63-40.86,4.65.45,7.7,7.72,3.19,9.27-.73-.1-.92-.73-1.1-1.37-.92-3.3-3.16-4.06-6-2.09-14.42,13,7.56,31.7,21.48,24C192.4,428.64,180.86,443.82,170.57,442.45Z" transform="translate(0.99 -18.18)" fill="#fe0000"/><path d="M914.36,404.28c6.63-.77,17.87,6.24,10.16,11.76-.7.34-1.48.57-2,.08-.75-.64-.14-1.29.34-1.84,5.07-7.74-19.7-7-9.62,2.6,21.59,18.8,11.78,35.47-15,33.86-6.49-.3-7-10.14-3-7.09,5.89,6.8,31.82-2.39,20.85-12.21-5.13-6.22-16.15-12.33-12.12-21.74C906.17,405.22,910.49,404.42,914.36,404.28Z" transform="translate(0.99 -18.18)" fill="#6c90cf"/><path d="M531.14,488.74c1.72.15,4.21.38,3.93,2.67-2.23,4.86-33.54-.1-40.72.69-8.2-.38-4.58-4.33,1.42-3.58,16.86,1.22,32.85-5,49.52-5.78,1.2,0,2.29.34,2.42,1.66-.6,3.87-13.05,2.81-16.64,4.07Z" transform="translate(0.99 -18.18)" fill="#757575"/><path d="M20.1,317.3c-.38-4.65.45-31.18,8.8-19.11,1.14,9.94-1.85,19.8-2.84,29.66-.26,1.87-.55,3.88-2.94,3.87C17.57,330.71,21,321.42,20.1,317.3Z" transform="translate(0.99 -18.18)" fill="#fe0101"/><path d="M504.36,110.46c.38-3-1.43-8.44,2.72-9.26,2.25-.27,3.4,1.47,3.69,3.27,3.15,22.16,4.29,44.57,5.92,66.88.67,4.13-2.77,9.68-6.69,5.07-2.89-5.87-2.08-12.78-2.88-19.14C506.55,141.65,505.07,126.08,504.36,110.46Z" transform="translate(0.99 -18.18)" fill="#e3bed1"/><path d="M580.76,111.21c-5.67,19.91-15.4,38.49-22.56,58-1.73,3.07-2.33,10.28-7.09,9.19-6.71-.36,16.5-49.55,18-56.74,2.69-4.34,2.71-14.21,9.23-13.85A3,3,0,0,1,580.76,111.21Z" transform="translate(0.99 -18.18)" fill="#e4bfd2"/><path d="M448.85,115.28a4.51,4.51,0,0,1,4.79,3.07c6.42,14.78,13.14,29.43,19.07,44.43.86,4.62,7.64,13.5,2.24,16.55-2.35.73-3.55-1-4.47-2.63-9.13-17.82-16-36.7-23.57-55.22C445.43,117.86,446.51,115.27,448.85,115.28Z" transform="translate(0.99 -18.18)" fill="#e2bbd0"/><path d="M363.88,267.48A3.24,3.24,0,0,1,360,265.4c-1.41-6,7.42-8.42,11.36-11,7.46-2.36,32.84-21.27,37.64-14.26,2,5.41-6.32,8.16-9.91,10.37C387.35,255.91,376.51,264.57,363.88,267.48Z" transform="translate(0.99 -18.18)" fill="#e0b7cc"/><path d="M411.51,223.31a390.85,390.85,0,0,1-44.17-18.75c-5.75-2.45-2.82-10.16,3.23-7.39,14,4.85,27.25,11.78,40.82,17.81C416.48,216.83,418.26,223,411.51,223.31Z" transform="translate(0.99 -18.18)" fill="#e1b7cd"/><path d="M661.27,257.89c-6.69-2-47.6-14.19-43.17-22.32,5.27-5.49,20.77,4.41,27.1,6.39,4.61,3.2,22.24,7.2,20.08,13.83C664.56,257.78,662.91,257.73,661.27,257.89Z" transform="translate(0.99 -18.18)" fill="#e5c2d5"/><path d="M631.35,206.31c-10.89-3-1.65-10.51,5-11.46,6.54-.79,34.41-14.9,36.24-7.88,1.78,3.89-3.66,6-6.53,7C654.5,198,643.23,203.25,631.35,206.31Z" transform="translate(0.99 -18.18)" fill="#e4bfd3"/><path d="M24.39,280.08c-.34-2.69.9-6.51,4.16-6,3.08.51,2.26,4.53,3,6.84C32.38,287.94,23.26,286.32,24.39,280.08Z" transform="translate(0.99 -18.18)" fill="#fe0101"/><path d="M581.21,250.5c-40.46-1.68-82.43,2.1-123.38,1.83-9.53.59-19.05.22-28.57.39-5.08.08-6.44-1.61-6.77-6.53-.4-14.88-.9-29.73-1-44.59-.73-5.46-1.36-10,6-9.38,59.83.23,119.6-1.63,179.43-1.11,4.14,0,5.63,1.4,5.47,5.59-.48,13.12-.88,26.24-1.73,39.34-.29,4.48.33,9.32-2.56,13.38C599.09,249.73,590.19,251,581.21,250.5Z" transform="translate(0.99 -18.18)" fill="#d69ebb"/><path d="M831.28,305.93c-1.65.51-1.4-.76-.8-2.62,1.78-5.6,4.87-10.12,10.19-12.87C851.54,284.94,851.71,304.69,831.28,305.93Z" transform="translate(0.99 -18.18)" fill="#fefefe"/><path d="M181,304.79c-.26-7.42,7-12.76,12.54-16.49,2.33-1.41,3.39-.65,3.15,2.06C195.71,298.4,187.89,302.43,181,304.79Z" transform="translate(0.99 -18.18)" fill="#fefdfd"/><path d="M1016.29,305.32c4.07-2.46,10.4-5.65,14.72-3.47C1028.07,305.83,1021.08,305.88,1016.29,305.32Z" transform="translate(0.99 -18.18)" fill="#fafbfd"/><path d="M115,421.51c-1.15-5.4,5.28-16.07,10.63-12.35C128.33,414.38,118.71,418.63,115,421.51Z" transform="translate(0.99 -18.18)" fill="#fefcfc"/><path d="M126.42,302.29c2.65,6.84-2.86,26.82-11,13.66-3.17-5.06-2.07-13.67,2.15-18C120.81,294.31,127.71,296.89,126.42,302.29Z" transform="translate(0.99 -18.18)" fill="#fefefe"/><path d="M942.51,422.29c.59-5,6-10.52,10.47-8.31C952.44,418.28,946.43,420.55,942.51,422.29Z" transform="translate(0.99 -18.18)" fill="#fbfcfd"/><path d="M943.45,317.26c.1-7.79,6.89-14.68,13.85-11.54,3.19,2.84-1.07,14.34-3.36,17.43C949,330.85,942.76,324,943.45,317.26Z" transform="translate(0.99 -18.18)" fill="#fefefe"/><path d="M506,110.38c.47-2.09-1.22-6.11,1.28-7,1.16-.07,1.81.8,2,1.89,2.49,22.63,5.34,45.52,5.62,68.19-6,12.66-6.23-22.48-6.63-25.5-.35-12.57-2.11-25.07-2.17-37.62Z" transform="translate(0.99 -18.18)" fill="#c676a0"/><path d="M579.3,112.09c-7.42,20.23-15.89,40-23.8,60.09-.52,1.4-3.32,6.69-4.18,3.35,2.46-12.64,8.9-24.54,13-36.79C566.47,136,575.77,99.52,579.3,112.09Z" transform="translate(0.99 -18.18)" fill="#c97ea5"/><path d="M448.18,119.73c-.63-3.39,3.26-3.52,3.89-.91,1.09,3.49,2.92,6.64,4.35,10,6.34,15.2,13.82,30,18.7,45.74.25,1,.68,2-.42,2.68-4.32.23-5.91-8.27-7.76-11.44C460.27,150.75,453.85,135.05,448.18,119.73Z" transform="translate(0.99 -18.18)" fill="#c678a1"/><path d="M364.32,265.84c-8.5-1.86,4.28-8.35,7.17-9.54,6.74-2.25,31.73-19.77,36-15C410.29,245.07,369,265,364.32,265.84Z" transform="translate(0.99 -18.18)" fill="#c4739d"/><path d="M369,198.4c4.54,1.77,48.47,18.22,44.67,22.24-2.85,3.17-12.15-3.51-15.92-4.45C394.75,214.38,354.82,201.21,369,198.4Z" transform="translate(0.99 -18.18)" fill="#c5759f"/><path d="M660.21,256.06c-7.86-3.39-39.05-11.88-40.5-19.47,4.79-3.6,18.09,4.63,23.66,6.37C645.87,244.5,673.18,254.83,660.21,256.06Z" transform="translate(0.99 -18.18)" fill="#c4729d"/><path d="M631.55,204.58c-16.85-4.77,33.62-16.43,37.11-18.32,5.56.77.94,5.53-2.37,5.85C654.69,196.17,643.4,201.34,631.55,204.58Z" transform="translate(0.99 -18.18)" fill="#c5759f"/><path d="M610.18,201.76c-.55,14-.65,28.05-2,42-.75,6.19-14.84,2.87-19.67,4-50.93.51-101.86,2.17-152.74,3.29-4.13-.42-12.35,1.2-11.48-5.1,0-9.25-.6-18.49-.72-27.74-.09-6.79-.33-13.59-.45-20.39-.1-5.82,8.24-3.24,11.91-3.63,30.45-.1,60.9-.59,91.32-1,26.6-1,53.22-.17,79.82-.47C611.57,192.22,610,198.21,610.18,201.76Z" transform="translate(0.99 -18.18)" fill="#c16c98"/></svg>