<?xml version="1.0" encoding="UTF-8" standalone="no"?>
<!-- Created with Inkscape (http://www.inkscape.org/) -->

<svg
     version="1.1"
     id="svg9"
     xml:space="preserve"
     width="299.99997"
     height="70.700638"
     viewBox="0 0 299.99997 70.700638"
     xmlns="http://www.w3.org/2000/svg"
     xmlns:svg="http://www.w3.org/2000/svg"><defs
         id="defs13" /><g
         id="g15"
         transform="matrix(1.3333333,0,0,-1.3333333,-436.06436,814.96326)"><path
             d="M 453.87949,610.5059 H 551.33171 V 558.91354 H 453.87949 Z"
             style="fill:#ffd700;fill-opacity:1;fill-rule:nonzero;stroke:none;stroke-width:1.43312"
             id="path21" /><path
             d="M 453.87949,610.5059 H 551.33171 V 558.91354 H 453.87949 Z"
             style="fill:none;stroke:#000000;stroke-width:1.43312;stroke-linecap:round;stroke-linejoin:round;stroke-miterlimit:10;stroke-dasharray:none;stroke-opacity:1"
             id="path23" /><path
             d="M 462.64895,577.54411 V 589.97196 H 466.03302 C 467.53332,589.97196 468.61096,589.71864 469.26594,589.21201 469.92092,588.70538 470.24841,587.87266 470.24841,586.71384 470.24841,585.39269 469.80056,584.35703 468.90486,583.60688 468.00916,582.85673 466.76638,582.48166 465.17651,582.48166 H 464.39557 V 577.54411 Z M 464.39557,583.81681 H 465.10933 C 466.15618,583.81681 466.96511,584.05753 467.53612,584.53897 468.10713,585.02041 468.39263,585.70058 468.39263,586.57949 468.39263,587.32404 468.16871,587.85586 467.72086,588.17496 467.27301,588.49405 466.52566,588.6536 465.47881,588.6536 H 464.39557 Z M 477.43361,578.70292 C 476.44274,577.79043 475.48826,577.33418 474.57017,577.33418 473.81442,577.33418 473.18743,577.5707 472.6892,578.04374 472.19096,578.51678 471.94185,579.11438 471.94185,579.83654 471.94185,580.83301 472.36031,581.59855 473.19723,582.13318 474.03415,582.6678 475.23355,582.93511 476.79543,582.93511 H 477.19009 V 584.03514 C 477.19009,585.09319 476.64707,585.62221 475.56104,585.62221 474.68773,585.62221 473.74445,585.3535 472.73118,584.81608 V 586.18482 C 473.84521,586.63827 474.88926,586.86499 475.86334,586.86499 476.8822,586.86499 477.63375,586.63547 478.11798,586.17642 478.60222,585.71738 478.84434,585.00362 478.84434,584.03514 V 579.90372 C 478.84434,578.95764 479.13544,578.4846 479.71765,578.4846 479.79042,578.4846 479.89679,578.49579 480.03674,578.51818 L 480.1543,577.60289 C 479.77923,577.42375 479.36497,577.33418 478.91152,577.33418 478.13898,577.33418 477.64634,577.79043 477.43361,578.70292 Z M 477.19009,579.60142 V 581.96103 L 476.63588,581.97783 C 475.72898,581.97783 474.99563,581.80568 474.43581,581.4614 473.876,581.11712 473.59609,580.66507 473.59609,580.10525 473.59609,579.70779 473.73605,579.3719 474.01595,579.09759 474.29586,578.82328 474.63735,578.68613 475.04041,578.68613 475.72898,578.68613 476.44554,578.99123 477.19009,579.60142 Z M 486.32344,577.33418 C 485.09185,577.33418 484.07019,577.79043 483.25847,578.70292 482.44674,579.61542 482.04087,580.76583 482.04087,582.15417 482.04087,583.63767 482.44254,584.79369 483.24587,585.62221 484.0492,586.45073 485.17023,586.86499 486.60894,586.86499 487.31991,586.86499 488.11484,586.76703 488.99375,586.57109 V 585.18556 C 488.05886,585.45986 487.29751,585.59702 486.70971,585.59702 485.86439,585.59702 485.18562,585.27932 484.67339,584.64394 484.16116,584.00855 483.90505,583.16183 483.90505,582.10379 483.90505,581.07933 484.16816,580.2508 484.69439,579.61822 485.22061,578.98563 485.90918,578.66933 486.76009,578.66933 487.51584,578.66933 488.29398,578.86247 489.09451,579.24874 V 577.82122 C 488.02527,577.49653 487.10158,577.33418 486.32344,577.33418 Z M 491.36176,577.54411 V 590.80328 H 493.016 V 582.23814 L 496.87871,586.66346 H 498.65892 L 494.97255,582.40608 499.42306,577.54411 H 497.30697 L 493.016,582.22135 V 577.54411 Z M 506.09603,578.70292 C 505.10516,577.79043 504.15068,577.33418 503.23259,577.33418 502.47684,577.33418 501.84985,577.5707 501.35162,578.04374 500.85338,578.51678 500.60427,579.11438 500.60427,579.83654 500.60427,580.83301 501.02273,581.59855 501.85965,582.13318 502.69657,582.6678 503.89597,582.93511 505.45785,582.93511 H 505.85251 V 584.03514 C 505.85251,585.09319 505.30949,585.62221 504.22346,585.62221 503.35015,585.62221 502.40687,585.3535 501.3936,584.81608 V 586.18482 C 502.50763,586.63827 503.55168,586.86499 504.52576,586.86499 505.54462,586.86499 506.29617,586.63547 506.7804,586.17642 507.26464,585.71738 507.50676,585.00362 507.50676,584.03514 V 579.90372 C 507.50676,578.95764 507.79786,578.4846 508.38007,578.4846 508.45284,578.4846 508.55921,578.49579 508.69916,578.51818 L 508.81672,577.60289 C 508.44165,577.42375 508.02739,577.33418 507.57394,577.33418 506.8014,577.33418 506.30876,577.79043 506.09603,578.70292 Z M 505.85251,579.60142 V 581.96103 L 505.2983,581.97783 C 504.3914,581.97783 503.65805,581.80568 503.09823,581.4614 502.53842,581.11712 502.25851,580.66507 502.25851,580.10525 502.25851,579.70779 502.39847,579.3719 502.67837,579.09759 502.95828,578.82328 503.29977,578.68613 503.70283,578.68613 504.3914,578.68613 505.10796,578.99123 505.85251,579.60142 Z M 511.45904,574.51272 511.65218,575.94864 C 512.60945,575.4952 513.55274,575.26847 514.48203,575.26847 516.34621,575.26847 517.27829,576.25654 517.27829,578.23268 V 579.6686 C 516.6681,578.39223 515.66603,577.75404 514.2721,577.75404 513.18046,577.75404 512.31275,578.15151 511.66897,578.94644 511.02518,579.74138 510.70329,580.81342 510.70329,582.16257 510.70329,583.5509 511.06997,584.68172 511.80332,585.55503 512.53668,586.42834 513.48556,586.86499 514.64997,586.86499 515.66883,586.86499 516.54494,586.45073 517.27829,585.62221 V 586.66346 H 518.94094 V 580.02968 C 518.94094,578.60216 518.86676,577.54551 518.71841,576.85974 518.57006,576.17397 518.29156,575.61276 517.88289,575.1761 517.16073,574.40916 516.03831,574.02569 514.51562,574.02569 513.45197,574.02569 512.43311,574.18803 511.45904,574.51272 Z M 517.27829,580.70145 V 584.48859 C 516.55054,585.24434 515.7584,585.62221 514.90189,585.62221 514.14054,585.62221 513.54434,585.31711 513.11329,584.70691 512.68223,584.09672 512.4667,583.2598 512.4667,582.19615 512.4667,580.19762 513.16927,579.19836 514.5744,579.19836 515.53168,579.19836 516.43298,579.69939 517.27829,580.70145 Z M 528.14146,577.83801 C 527.03303,577.50213 526.08415,577.33418 525.29482,577.33418 523.95126,577.33418 522.85543,577.78063 522.00731,578.67353 521.1592,579.56643 520.73514,580.72385 520.73514,582.14577 520.73514,583.52851 521.10881,584.66213 521.85616,585.54663 522.60351,586.43114 523.55939,586.87339 524.72381,586.87339 525.82664,586.87339 526.67895,586.48152 527.28075,585.69778 527.88255,584.91405 528.18345,583.80002 528.18345,582.3557 L 528.17505,581.84347 H 522.42298 C 522.66369,579.677 523.72454,578.59376 525.60551,578.59376 526.29408,578.59376 527.1394,578.7785 528.14146,579.14797 Z M 522.49855,583.08626 H 526.52081 C 526.52081,584.78249 525.88822,585.63061 524.62304,585.63061 523.35226,585.63061 522.6441,584.78249 522.49855,583.08626 Z M 532.42123,577.54411 V 578.78689 H 534.9068 V 588.59482 L 532.42123,587.97342 V 589.2498 L 536.56945,590.28265 V 578.78689 H 539.05502 V 577.54411 Z"
             style="fill:#000000;fill-opacity:1;fill-rule:nonzero;stroke:none;stroke-width:1.43312"
             id="path27" /><path
             d="M 327.76484,610.5059 H 425.21706 V 558.91354 H 327.76484 Z"
             style="fill:#ffd700;fill-opacity:1;fill-rule:nonzero;stroke:none;stroke-width:1.43312"
             id="path31" /><path
             d="M 327.76484,610.5059 H 425.21706 V 558.91354 H 327.76484 Z"
             style="fill:none;stroke:#000000;stroke-width:1.43312;stroke-linecap:round;stroke-linejoin:round;stroke-miterlimit:10;stroke-dasharray:none;stroke-opacity:1"
             id="path33" /><path
             d="M 336.5343,577.54411 V 589.97196 H 339.91837 C 341.41867,589.97196 342.49631,589.71864 343.15129,589.21201 343.80627,588.70538 344.13376,587.87266 344.13376,586.71384 344.13376,585.39269 343.68591,584.35703 342.79021,583.60688 341.89451,582.85673 340.65173,582.48166 339.06186,582.48166 H 338.28092 V 577.54411 Z M 338.28092,583.81681 H 338.99468 C 340.04153,583.81681 340.85046,584.05753 341.42147,584.53897 341.99248,585.02041 342.27798,585.70058 342.27798,586.57949 342.27798,587.32404 342.05406,587.85586 341.60621,588.17496 341.15836,588.49405 340.41101,588.6536 339.36416,588.6536 H 338.28092 Z M 351.31896,578.70292 C 350.32809,577.79043 349.37361,577.33418 348.45552,577.33418 347.69977,577.33418 347.07278,577.5707 346.57455,578.04374 346.07631,578.51678 345.8272,579.11438 345.8272,579.83654 345.8272,580.83301 346.24566,581.59855 347.08258,582.13318 347.9195,582.6678 349.1189,582.93511 350.68078,582.93511 H 351.07544 V 584.03514 C 351.07544,585.09319 350.53242,585.62221 349.44639,585.62221 348.57308,585.62221 347.6298,585.3535 346.61653,584.81608 V 586.18482 C 347.73056,586.63827 348.77461,586.86499 349.74869,586.86499 350.76755,586.86499 351.5191,586.63547 352.00333,586.17642 352.48757,585.71738 352.72969,585.00362 352.72969,584.03514 V 579.90372 C 352.72969,578.95764 353.02079,578.4846 353.603,578.4846 353.67577,578.4846 353.78214,578.49579 353.92209,578.51818 L 354.03965,577.60289 C 353.66458,577.42375 353.25032,577.33418 352.79687,577.33418 352.02433,577.33418 351.53169,577.79043 351.31896,578.70292 Z M 351.07544,579.60142 V 581.96103 L 350.52123,581.97783 C 349.61433,581.97783 348.88098,581.80568 348.32116,581.4614 347.76135,581.11712 347.48144,580.66507 347.48144,580.10525 347.48144,579.70779 347.6214,579.3719 347.9013,579.09759 348.18121,578.82328 348.5227,578.68613 348.92576,578.68613 349.61433,578.68613 350.33089,578.99123 351.07544,579.60142 Z M 360.20879,577.33418 C 358.9772,577.33418 357.95554,577.79043 357.14382,578.70292 356.33209,579.61542 355.92622,580.76583 355.92622,582.15417 355.92622,583.63767 356.32789,584.79369 357.13122,585.62221 357.93455,586.45073 359.05558,586.86499 360.49429,586.86499 361.20526,586.86499 362.00019,586.76703 362.8791,586.57109 V 585.18556 C 361.94421,585.45986 361.18286,585.59702 360.59506,585.59702 359.74974,585.59702 359.07097,585.27932 358.55874,584.64394 358.04651,584.00855 357.7904,583.16183 357.7904,582.10379 357.7904,581.07933 358.05351,580.2508 358.57974,579.61822 359.10596,578.98563 359.79453,578.66933 360.64544,578.66933 361.40119,578.66933 362.17933,578.86247 362.97986,579.24874 V 577.82122 C 361.91062,577.49653 360.98693,577.33418 360.20879,577.33418 Z M 365.24711,577.54411 V 590.80328 H 366.90135 V 582.23814 L 370.76406,586.66346 H 372.54427 L 368.8579,582.40608 373.30841,577.54411 H 371.19232 L 366.90135,582.22135 V 577.54411 Z M 379.98138,578.70292 C 378.99051,577.79043 378.03603,577.33418 377.11794,577.33418 376.36219,577.33418 375.7352,577.5707 375.23697,578.04374 374.73873,578.51678 374.48962,579.11438 374.48962,579.83654 374.48962,580.83301 374.90808,581.59855 375.745,582.13318 376.58192,582.6678 377.78132,582.93511 379.3432,582.93511 H 379.73786 V 584.03514 C 379.73786,585.09319 379.19484,585.62221 378.10881,585.62221 377.2355,585.62221 376.29222,585.3535 375.27895,584.81608 V 586.18482 C 376.39298,586.63827 377.43703,586.86499 378.41111,586.86499 379.42997,586.86499 380.18152,586.63547 380.66575,586.17642 381.14999,585.71738 381.39211,585.00362 381.39211,584.03514 V 579.90372 C 381.39211,578.95764 381.68321,578.4846 382.26542,578.4846 382.33819,578.4846 382.44456,578.49579 382.58451,578.51818 L 382.70207,577.60289 C 382.327,577.42375 381.91274,577.33418 381.45929,577.33418 380.68675,577.33418 380.19411,577.79043 379.98138,578.70292 Z M 379.73786,579.60142 V 581.96103 L 379.18365,581.97783 C 378.27675,581.97783 377.5434,581.80568 376.98358,581.4614 376.42377,581.11712 376.14386,580.66507 376.14386,580.10525 376.14386,579.70779 376.28382,579.3719 376.56372,579.09759 376.84363,578.82328 377.18512,578.68613 377.58818,578.68613 378.27675,578.68613 378.99331,578.99123 379.73786,579.60142 Z M 385.34439,574.51272 385.53753,575.94864 C 386.4948,575.4952 387.43809,575.26847 388.36738,575.26847 390.23156,575.26847 391.16364,576.25654 391.16364,578.23268 V 579.6686 C 390.55345,578.39223 389.55138,577.75404 388.15745,577.75404 387.06581,577.75404 386.1981,578.15151 385.55432,578.94644 384.91053,579.74138 384.58864,580.81342 384.58864,582.16257 384.58864,583.5509 384.95532,584.68172 385.68867,585.55503 386.42203,586.42834 387.37091,586.86499 388.53532,586.86499 389.55418,586.86499 390.43029,586.45073 391.16364,585.62221 V 586.66346 H 392.82629 V 580.02968 C 392.82629,578.60216 392.75211,577.54551 392.60376,576.85974 392.45541,576.17397 392.17691,575.61276 391.76824,575.1761 391.04608,574.40916 389.92366,574.02569 388.40097,574.02569 387.33732,574.02569 386.31846,574.18803 385.34439,574.51272 Z M 391.16364,580.70145 V 584.48859 C 390.43589,585.24434 389.64375,585.62221 388.78724,585.62221 388.02589,585.62221 387.42969,585.31711 386.99864,584.70691 386.56758,584.09672 386.35205,583.2598 386.35205,582.19615 386.35205,580.19762 387.05462,579.19836 388.45975,579.19836 389.41703,579.19836 390.31833,579.69939 391.16364,580.70145 Z M 402.02681,577.83801 C 400.91838,577.50213 399.9695,577.33418 399.18017,577.33418 397.83661,577.33418 396.74078,577.78063 395.89266,578.67353 395.04455,579.56643 394.62049,580.72385 394.62049,582.14577 394.62049,583.52851 394.99416,584.66213 395.74151,585.54663 396.48886,586.43114 397.44474,586.87339 398.60916,586.87339 399.71199,586.87339 400.5643,586.48152 401.1661,585.69778 401.7679,584.91405 402.0688,583.80002 402.0688,582.3557 L 402.0604,581.84347 H 396.30833 C 396.54904,579.677 397.60989,578.59376 399.49086,578.59376 400.17943,578.59376 401.02475,578.7785 402.02681,579.14797 Z M 396.3839,583.08626 H 400.40616 C 400.40616,584.78249 399.77357,585.63061 398.50839,585.63061 397.23761,585.63061 396.52945,584.78249 396.3839,583.08626 Z M 409.11125,577.23342 C 407.82927,577.23342 406.79222,577.83661 406.00009,579.04301 405.20795,580.24941 404.81188,581.82388 404.81188,583.76643 404.81188,585.72577 405.21075,587.30165 406.00848,588.49405 406.80622,589.68645 407.85726,590.28265 409.16163,590.28265 410.46599,590.28265 411.51704,589.68645 412.31477,588.49405 413.11251,587.30165 413.51138,585.73417 413.51138,583.79162 413.51138,581.79869 413.11251,580.20742 412.31477,579.01782 411.51704,577.82821 410.4492,577.23342 409.11125,577.23342 Z M 409.12804,578.4762 C 410.88025,578.4762 411.75636,580.2564 411.75636,583.81681 411.75636,587.29885 410.89145,589.03987 409.16163,589.03987 407.43741,589.03987 406.57529,587.28205 406.57529,583.76643 406.57529,580.23961 407.42621,578.4762 409.12804,578.4762 Z"
             style="fill:#000000;fill-opacity:1;fill-rule:nonzero;stroke:none;stroke-width:1.43312"
             id="path37" /></g></svg>
