<?xml version="1.0" encoding="UTF-8" standalone="no"?>
<!-- Created with Inkscape (http://www.inkscape.org/) -->

<svg
     version="1.1"
     id="svg9"
     xml:space="preserve"
     width="300.00003"
     height="145.84383"
     viewBox="0 0 300.00003 145.84383"
     xmlns="http://www.w3.org/2000/svg"
     xmlns:svg="http://www.w3.org/2000/svg"><defs
         id="defs13" /><g
         id="g15"
         transform="matrix(1.3333333,0,0,-1.3333333,-322.64774,907.25996)"><path
             d="M 314.24654,661.45885 C 304.95692,644.97304 295.6673,628.48724 284.54398,608.74726"
             style="fill:none;stroke:#e41a1c;stroke-width:0.566751;stroke-linecap:round;stroke-linejoin:round;stroke-miterlimit:10;stroke-dasharray:none;stroke-opacity:1"
             id="path21" /><path
             d="M 301.86547,629.72081 V 633.3272 H 302.51967 V 632.64976 C 302.77869,633.15452 303.15505,633.4069 303.64874,633.4069 303.71516,633.4069 303.78489,633.40137 303.85795,633.3903 V 632.77927 C 303.74504,632.81691 303.64542,632.83572 303.55908,632.83572 303.14508,632.83572 302.79861,632.58999 302.51967,632.09851 V 629.72081 Z M 307.34258,629.83704 C 306.90424,629.70421 306.52898,629.63779 306.21683,629.63779 305.6855,629.63779 305.25214,629.81435 304.91673,630.16746 304.58133,630.52057 304.41363,630.97829 304.41363,631.54061 304.41363,632.08744 304.56141,632.53574 304.85696,632.88554 305.15251,633.23533 305.53053,633.41022 305.99101,633.41022 306.42715,633.41022 306.76421,633.25525 307.0022,632.94531 307.24019,632.63537 307.35919,632.19481 307.35919,631.62363 L 307.35586,631.42106 H 305.08111 C 305.17631,630.56429 305.59584,630.13591 306.3397,630.13591 306.612,630.13591 306.9463,630.20897 307.34258,630.35508 Z M 305.111,631.91254 H 306.70167 C 306.70167,632.58334 306.4515,632.91874 305.95116,632.91874 305.44862,632.91874 305.16856,632.58334 305.111,631.91254 Z M 310.98108,628.40909 V 630.39825 C 310.71541,629.89128 310.3147,629.63779 309.77895,629.63779 309.34503,629.63779 309.00354,629.79608 308.75448,630.11266 308.50542,630.42925 308.38089,630.86206 308.38089,631.4111 308.38089,632.01106 308.52202,632.49368 308.80429,632.85897 309.08656,633.22426 309.45793,633.4069 309.91842,633.4069 310.3457,633.4069 310.69992,633.24308 310.98108,632.91542 V 633.3272 H 311.6386 V 628.40909 Z M 310.98108,632.46712 C 310.64236,632.76599 310.32134,632.91542 310.01804,632.91542 309.39152,632.91542 309.07826,632.43612 309.07826,631.47752 309.07826,630.63403 309.3572,630.21229 309.9151,630.21229 310.27817,630.21229 310.6335,630.41043 310.98108,630.80671 Z M 315.45531,629.72081 V 630.39825 C 315.10773,629.89128 314.68599,629.63779 314.19008,629.63779 313.87571,629.63779 313.62554,629.73686 313.43958,629.935 313.25361,630.13314 313.16063,630.40047 313.16063,630.73698 V 633.3272 H 313.81483 V 630.94951 C 313.81483,630.67942 313.85413,630.48736 313.93272,630.37335 314.01131,630.25933 314.14248,630.20233 314.32623,630.20233 314.72473,630.20233 315.10109,630.46467 315.45531,630.98936 V 633.3272 H 316.10951 V 629.72081 Z M 317.16774,629.72081 V 633.3272 H 317.82193 V 629.72081 Z M 317.16774,633.9814 V 634.6356 H 317.82193 V 633.9814 Z M 318.86799,629.72081 V 633.3272 H 319.52219 V 632.64976 C 319.78121,633.15452 320.15757,633.4069 320.65126,633.4069 320.71768,633.4069 320.78741,633.40137 320.86047,633.3903 V 632.77927 C 320.74756,632.81691 320.64794,632.83572 320.5616,632.83572 320.1476,632.83572 319.80113,632.58999 319.52219,632.09851 V 629.72081 Z M 324.3451,629.83704 C 323.90676,629.70421 323.5315,629.63779 323.21935,629.63779 322.68802,629.63779 322.25465,629.81435 321.91925,630.16746 321.58385,630.52057 321.41615,630.97829 321.41615,631.54061 321.41615,632.08744 321.56393,632.53574 321.85948,632.88554 322.15503,633.23533 322.53305,633.41022 322.99353,633.41022 323.42967,633.41022 323.76673,633.25525 324.00472,632.94531 324.24271,632.63537 324.36171,632.19481 324.36171,631.62363 L 324.35838,631.42106 H 322.08363 C 322.17883,630.56429 322.59836,630.13591 323.34222,630.13591 323.61452,630.13591 323.94882,630.20897 324.3451,630.35508 Z M 322.11352,631.91254 H 323.70419 C 323.70419,632.58334 323.45402,632.91874 322.95368,632.91874 322.45114,632.91874 322.17108,632.58334 322.11352,631.91254 Z M 326.62539,629.63779 C 326.32652,629.63779 325.96344,629.70753 325.53616,629.847 V 630.44807 C 325.96344,630.23553 326.33537,630.12927 326.65195,630.12927 326.84013,630.12927 326.99621,630.18019 327.12019,630.28203 327.24416,630.38386 327.30615,630.51116 327.30615,630.66392 327.30615,630.88752 327.13236,631.07238 326.78479,631.21849 L 326.40289,631.38121 C 325.83836,631.61588 325.55609,631.9535 325.55609,632.39406 325.55609,632.70843 325.66734,632.95583 325.88983,633.13626 326.11232,633.31669 326.41728,633.4069 326.80471,633.4069 327.00617,633.4069 327.25523,633.37923 327.55189,633.32388 L 327.68804,633.29732 V 632.7527 C 327.32276,632.86118 327.03274,632.91542 326.81799,632.91542 326.39736,632.91542 326.18704,632.76267 326.18704,632.45715 326.18704,632.26012 326.34644,632.09408 326.66524,631.95903 L 326.98071,631.8262 C 327.33715,631.67566 327.58953,631.51681 327.73786,631.34966 327.88619,631.18252 327.96035,630.97386 327.96035,630.72369 327.96035,630.40711 327.83527,630.14698 327.5851,629.9433 327.33493,629.73963 327.01503,629.63779 326.62539,629.63779 Z"
             style="fill:#e41a1c;fill-opacity:1;fill-rule:nonzero;stroke:none;stroke-width:0.566751"
             id="path25" /><path
             d="M 285.72614,613.70913 284.54398,608.74725 288.17591,612.32872 Z"
             style="fill:#e41a1c;fill-opacity:1;fill-rule:nonzero;stroke:none;stroke-width:0.566751"
             id="path29" /><path
             d="M 314.24654,661.45885 C 323.53616,644.97304 332.82578,628.48724 343.9491,608.74726"
             style="fill:none;stroke:#e41a1c;stroke-width:0.566751;stroke-linecap:round;stroke-linejoin:round;stroke-miterlimit:10;stroke-dasharray:none;stroke-opacity:1"
             id="path33" /><path
             d="M 334.17026,629.72081 V 633.3272 H 334.82446 V 632.64976 C 335.08348,633.15452 335.45984,633.4069 335.95353,633.4069 336.01995,633.4069 336.08968,633.40137 336.16274,633.3903 V 632.77927 C 336.04983,632.81691 335.95021,632.83572 335.86387,632.83572 335.44987,632.83572 335.1034,632.58999 334.82446,632.09851 V 629.72081 Z M 339.64737,629.83704 C 339.20903,629.70421 338.83377,629.63779 338.52162,629.63779 337.99029,629.63779 337.55693,629.81435 337.22152,630.16746 336.88612,630.52057 336.71842,630.97829 336.71842,631.54061 336.71842,632.08744 336.8662,632.53574 337.16175,632.88554 337.4573,633.23533 337.83532,633.41022 338.2958,633.41022 338.73194,633.41022 339.069,633.25525 339.30699,632.94531 339.54498,632.63537 339.66398,632.19481 339.66398,631.62363 L 339.66065,631.42106 H 337.3859 C 337.4811,630.56429 337.90063,630.13591 338.64449,630.13591 338.91679,630.13591 339.25109,630.20897 339.64737,630.35508 Z M 337.41579,631.91254 H 339.00646 C 339.00646,632.58334 338.75629,632.91874 338.25595,632.91874 337.75341,632.91874 337.47335,632.58334 337.41579,631.91254 Z M 343.28587,628.40909 V 630.39825 C 343.0202,629.89128 342.61949,629.63779 342.08374,629.63779 341.64982,629.63779 341.30833,629.79608 341.05927,630.11266 340.81021,630.42925 340.68568,630.86206 340.68568,631.4111 340.68568,632.01106 340.82681,632.49368 341.10908,632.85897 341.39135,633.22426 341.76272,633.4069 342.22321,633.4069 342.65049,633.4069 343.00471,633.24308 343.28587,632.91542 V 633.3272 H 343.94339 V 628.40909 Z M 343.28587,632.46712 C 342.94715,632.76599 342.62613,632.91542 342.32283,632.91542 341.69631,632.91542 341.38305,632.43612 341.38305,631.47752 341.38305,630.63403 341.66199,630.21229 342.21989,630.21229 342.58296,630.21229 342.93829,630.41043 343.28587,630.80671 Z M 347.7601,629.72081 V 630.39825 C 347.41252,629.89128 346.99078,629.63779 346.49487,629.63779 346.1805,629.63779 345.93033,629.73686 345.74437,629.935 345.5584,630.13314 345.46542,630.40047 345.46542,630.73698 V 633.3272 H 346.11962 V 630.94951 C 346.11962,630.67942 346.15892,630.48736 346.23751,630.37335 346.3161,630.25933 346.44727,630.20233 346.63102,630.20233 347.02952,630.20233 347.40588,630.46467 347.7601,630.98936 V 633.3272 H 348.4143 V 629.72081 Z M 349.47253,629.72081 V 633.3272 H 350.12672 V 629.72081 Z M 349.47253,633.9814 V 634.6356 H 350.12672 V 633.9814 Z M 351.17278,629.72081 V 633.3272 H 351.82698 V 632.64976 C 352.086,633.15452 352.46236,633.4069 352.95605,633.4069 353.02247,633.4069 353.0922,633.40137 353.16526,633.3903 V 632.77927 C 353.05235,632.81691 352.95273,632.83572 352.86639,632.83572 352.45239,632.83572 352.10592,632.58999 351.82698,632.09851 V 629.72081 Z M 356.64989,629.83704 C 356.21155,629.70421 355.83629,629.63779 355.52414,629.63779 354.99281,629.63779 354.55944,629.81435 354.22404,630.16746 353.88864,630.52057 353.72094,630.97829 353.72094,631.54061 353.72094,632.08744 353.86872,632.53574 354.16427,632.88554 354.45982,633.23533 354.83784,633.41022 355.29832,633.41022 355.73446,633.41022 356.07152,633.25525 356.30951,632.94531 356.5475,632.63537 356.6665,632.19481 356.6665,631.62363 L 356.66317,631.42106 H 354.38842 C 354.48362,630.56429 354.90315,630.13591 355.64701,630.13591 355.91931,630.13591 356.25361,630.20897 356.64989,630.35508 Z M 354.41831,631.91254 H 356.00898 C 356.00898,632.58334 355.75881,632.91874 355.25847,632.91874 354.75593,632.91874 354.47587,632.58334 354.41831,631.91254 Z M 358.93018,629.63779 C 358.63131,629.63779 358.26823,629.70753 357.84095,629.847 V 630.44807 C 358.26823,630.23553 358.64016,630.12927 358.95674,630.12927 359.14492,630.12927 359.301,630.18019 359.42498,630.28203 359.54895,630.38386 359.61094,630.51116 359.61094,630.66392 359.61094,630.88752 359.43715,631.07238 359.08958,631.21849 L 358.70768,631.38121 C 358.14315,631.61588 357.86088,631.9535 357.86088,632.39406 357.86088,632.70843 357.97213,632.95583 358.19462,633.13626 358.41711,633.31669 358.72207,633.4069 359.1095,633.4069 359.31096,633.4069 359.56002,633.37923 359.85668,633.32388 L 359.99283,633.29732 V 632.7527 C 359.62755,632.86118 359.33753,632.91542 359.12278,632.91542 358.70215,632.91542 358.49183,632.76267 358.49183,632.45715 358.49183,632.26012 358.65123,632.09408 358.97003,631.95903 L 359.2855,631.8262 C 359.64194,631.67566 359.89432,631.51681 360.04265,631.34966 360.19098,631.18252 360.26514,630.97386 360.26514,630.72369 360.26514,630.40711 360.14006,630.14698 359.88989,629.9433 359.63972,629.73963 359.31982,629.63779 358.93018,629.63779 Z"
             style="fill:#e41a1c;fill-opacity:1;fill-rule:nonzero;stroke:none;stroke-width:0.566751"
             id="path37" /><path
             d="M 340.31717,612.32872 343.9491,608.74725 342.76692,613.70913 Z"
             style="fill:#e41a1c;fill-opacity:1;fill-rule:nonzero;stroke:none;stroke-width:0.566751"
             id="path41" /><path
             d="M 403.22639,608.75103 H 466.70247 V 571.34549 H 403.22639 Z"
             style="fill:#ffd700;fill-opacity:1;fill-rule:nonzero;stroke:none;stroke-width:0.566751"
             id="path45" /><path
             d="M 403.22639,608.75103 H 466.70247 V 571.34549 H 403.22639 Z"
             style="fill:none;stroke:#000000;stroke-width:0.566751;stroke-linecap:round;stroke-linejoin:round;stroke-miterlimit:10;stroke-dasharray:none;stroke-opacity:1"
             id="path47" /><path
             d="M 419.16293,595.71577 V 600.63056 H 420.50122 C 421.09453,600.63056 421.5207,600.53038 421.77973,600.33003 422.03875,600.12967 422.16826,599.80036 422.16826,599.34209 422.16826,598.81962 421.99115,598.41005 421.63693,598.11339 421.28271,597.81673 420.79123,597.6684 420.1625,597.6684 H 419.85366 V 595.71577 Z M 419.85366,598.19641 H 420.13593 C 420.54992,598.19641 420.86983,598.29161 421.09564,598.482 421.32146,598.67239 421.43436,598.94138 421.43436,599.28896 421.43436,599.5834 421.34581,599.79372 421.1687,599.91991 420.99159,600.0461 420.69604,600.10919 420.28204,600.10919 H 419.85366 Z M 425.00976,596.17404 C 424.61791,595.81318 424.24044,595.63275 423.87737,595.63275 423.5785,595.63275 423.33054,595.72629 423.13351,595.91336 422.93647,596.10043 422.83796,596.33676 422.83796,596.62235 422.83796,597.01642 423.00344,597.31916 423.33442,597.53059 423.66539,597.74201 424.13971,597.84773 424.75738,597.84773 H 424.91346 V 598.28275 C 424.91346,598.70117 424.69871,598.91038 424.26922,598.91038 423.92386,598.91038 423.55082,598.80412 423.15011,598.59159 V 599.13288 C 423.59067,599.3122 424.00356,599.40186 424.38877,599.40186 424.7917,599.40186 425.08891,599.31109 425.28041,599.12956 425.47191,598.94802 425.56766,598.66575 425.56766,598.28275 V 596.64892 C 425.56766,596.27477 425.68278,596.0877 425.91302,596.0877 425.9418,596.0877 425.98387,596.09213 426.03921,596.10098 L 426.0857,595.73902 C 425.93737,595.66817 425.77355,595.63275 425.59422,595.63275 425.28871,595.63275 425.09389,595.81318 425.00976,596.17404 Z M 424.91346,596.52937 V 597.46251 L 424.69429,597.46915 C 424.33564,597.46915 424.04562,597.40108 423.82424,597.26493 423.60285,597.12877 423.49216,596.95 423.49216,596.72862 423.49216,596.57143 423.5475,596.4386 423.6582,596.33012 423.76889,596.22164 423.90394,596.1674 424.06333,596.1674 424.33564,596.1674 424.61902,596.28805 424.91346,596.52937 Z M 428.52539,595.63275 C 428.03834,595.63275 427.63431,595.81318 427.3133,596.17404 426.99228,596.5349 426.83178,596.98985 426.83178,597.53889 426.83178,598.12557 426.99062,598.58273 427.30831,598.91038 427.626,599.23804 428.06933,599.40186 428.6383,599.40186 428.91946,599.40186 429.23383,599.36312 429.5814,599.28563 V 598.7377 C 429.21169,598.84618 428.9106,598.90042 428.67815,598.90042 428.34385,598.90042 428.07542,598.77478 427.87285,598.52351 427.67028,598.27224 427.569,597.93739 427.569,597.51897 427.569,597.11383 427.67305,596.78618 427.88115,596.53601 428.08926,596.28584 428.36156,596.16076 428.69807,596.16076 428.99694,596.16076 429.30467,596.23714 429.62125,596.38989 V 595.82536 C 429.1984,595.69695 428.83312,595.63275 428.52539,595.63275 Z M 430.51787,595.71577 V 600.95932 H 431.17207 V 597.5721 L 432.69964,599.32216 H 433.40365 L 431.94582,597.63852 433.70584,595.71577 H 432.869 L 431.17207,597.56546 V 595.71577 Z M 436.34478,596.17404 C 435.95292,595.81318 435.57546,595.63275 435.21238,595.63275 434.91351,595.63275 434.66556,595.72629 434.46852,595.91336 434.27149,596.10043 434.17297,596.33676 434.17297,596.62235 434.17297,597.01642 434.33846,597.31916 434.66943,597.53059 435.0004,597.74201 435.47473,597.84773 436.0924,597.84773 H 436.24847 V 598.28275 C 436.24847,598.70117 436.03373,598.91038 435.60424,598.91038 435.25887,598.91038 434.88584,598.80412 434.48513,598.59159 V 599.13288 C 434.92569,599.3122 435.33857,599.40186 435.72379,599.40186 436.12671,599.40186 436.42392,599.31109 436.61542,599.12956 436.80692,598.94802 436.90267,598.66575 436.90267,598.28275 V 596.64892 C 436.90267,596.27477 437.01779,596.0877 437.24803,596.0877 437.27682,596.0877 437.31888,596.09213 437.37423,596.10098 L 437.42072,595.73902 C 437.27239,595.66817 437.10856,595.63275 436.92924,595.63275 436.62372,595.63275 436.4289,595.81318 436.34478,596.17404 Z M 436.24847,596.52937 V 597.46251 L 436.0293,597.46915 C 435.67065,597.46915 435.38064,597.40108 435.15925,597.26493 434.93786,597.12877 434.82717,596.95 434.82717,596.72862 434.82717,596.57143 434.88252,596.4386 434.99321,596.33012 435.1039,596.22164 435.23895,596.1674 435.39835,596.1674 435.67065,596.1674 435.95403,596.28805 436.24847,596.52937 Z M 438.46566,594.51696 438.54204,595.08482 C 438.92061,594.90549 439.29365,594.81583 439.66115,594.81583 440.39837,594.81583 440.76698,595.20658 440.76698,595.98808 V 596.55593 C 440.52567,596.05117 440.12939,595.79879 439.57813,595.79879 439.14643,595.79879 438.80328,595.95597 438.54868,596.27034 438.29409,596.58471 438.16679,597.00867 438.16679,597.54221 438.16679,598.09125 438.3118,598.53845 438.60182,598.88382 438.89183,599.22918 439.26708,599.40186 439.72757,599.40186 440.13049,599.40186 440.47696,599.23804 440.76698,598.91038 V 599.32216 H 441.4245 V 596.69873 C 441.4245,596.13419 441.39517,595.71632 441.3365,595.44512 441.27783,595.17393 441.16769,594.95199 441.00608,594.7793 440.72049,594.476 440.27661,594.32435 439.67444,594.32435 439.2538,594.32435 438.85088,594.38856 438.46566,594.51696 Z M 440.76698,596.96439 V 598.46208 C 440.47918,598.76095 440.16592,598.91038 439.82719,598.91038 439.52611,598.91038 439.29033,598.78973 439.11986,598.54842 438.94939,598.3071 438.86416,597.97613 438.86416,597.5555 438.86416,596.76514 439.142,596.36997 439.69768,596.36997 440.07625,596.36997 440.43269,596.56811 440.76698,596.96439 Z M 445.063,595.832 C 444.62465,595.69917 444.2494,595.63275 443.93724,595.63275 443.40591,595.63275 442.97255,595.80931 442.63715,596.16242 442.30175,596.51553 442.13405,596.97325 442.13405,597.53557 442.13405,598.0824 442.28182,598.5307 442.57737,598.8805 442.87292,599.23029 443.25094,599.40518 443.71143,599.40518 444.14756,599.40518 444.48462,599.25021 444.72261,598.94027 444.9606,598.63033 445.0796,598.18977 445.0796,597.61859 L 445.07628,597.41602 H 442.80153 C 442.89672,596.55925 443.31625,596.13087 444.06011,596.13087 444.33242,596.13087 444.66671,596.20393 445.063,596.35004 Z M 442.83141,597.9075 H 444.42208 C 444.42208,598.5783 444.17191,598.9137 443.67158,598.9137 443.16903,598.9137 442.88898,598.5783 442.83141,597.9075 Z M 447.86465,595.5929 C 447.35767,595.5929 446.94755,595.83144 446.63429,596.30853 446.32103,596.78562 446.1644,597.40827 446.1644,598.17649 446.1644,598.95134 446.32213,599.57454 446.63761,600.0461 446.95309,600.51765 447.36874,600.75343 447.88457,600.75343 448.4004,600.75343 448.81606,600.51765 449.13153,600.0461 449.44701,599.57454 449.60475,598.95466 449.60475,598.18645 449.60475,597.39831 449.44701,596.76902 449.13153,596.29857 448.81606,595.82812 448.39376,595.5929 447.86465,595.5929 Z M 447.87129,596.08438 C 448.56423,596.08438 448.9107,596.78839 448.9107,598.19641 448.9107,599.57344 448.56866,600.26195 447.88457,600.26195 447.2027,600.26195 446.86176,599.5668 446.86176,598.17649 446.86176,596.78175 447.19827,596.08438 447.87129,596.08438 Z"
             style="fill:#000000;fill-opacity:1;fill-rule:nonzero;stroke:none;stroke-width:0.566751"
             id="path51" /><path
             d="M 411.8151,587.21451 V 590.8209 H 412.4693 V 590.14346 C 412.81466,590.64822 413.23751,590.9006 413.73784,590.9006 414.05,590.9006 414.29906,590.80153 414.48503,590.60339 414.67099,590.40525 414.76397,590.13903 414.76397,589.80474 V 587.21451 H 414.10977 V 589.59221 C 414.10977,589.86008 414.07048,590.05103 413.99189,590.16504 413.91329,590.27906 413.78323,590.33607 413.60169,590.33607 413.20098,590.33607 412.82352,590.07372 412.4693,589.54904 V 587.21451 Z M 417.642,587.67278 C 417.25015,587.31192 416.87268,587.13149 416.50961,587.13149 416.21074,587.13149 415.96278,587.22503 415.76575,587.4121 415.56871,587.59917 415.4702,587.8355 415.4702,588.12109 415.4702,588.51516 415.63568,588.8179 415.96666,589.02933 416.29763,589.24075 416.77195,589.34647 417.38962,589.34647 H 417.5457 V 589.78149 C 417.5457,590.19991 417.33095,590.40912 416.90146,590.40912 416.5561,590.40912 416.18306,590.30286 415.78235,590.09033 V 590.63162 C 416.22291,590.81094 416.6358,590.9006 417.02101,590.9006 417.42394,590.9006 417.72115,590.80983 417.91265,590.6283 418.10415,590.44676 418.1999,590.16449 418.1999,589.78149 V 588.14766 C 418.1999,587.77351 418.31502,587.58644 418.54526,587.58644 418.57404,587.58644 418.61611,587.59087 418.67145,587.59972 L 418.71794,587.23776 C 418.56961,587.16691 418.40579,587.13149 418.22646,587.13149 417.92095,587.13149 417.72613,587.31192 417.642,587.67278 Z M 417.5457,588.02811 V 588.96125 L 417.32653,588.96789 C 416.96788,588.96789 416.67786,588.89982 416.45648,588.76367 416.23509,588.62751 416.1244,588.44874 416.1244,588.22736 416.1244,588.07017 416.17974,587.93734 416.29044,587.82886 416.40113,587.72038 416.53618,587.66614 416.69557,587.66614 416.96788,587.66614 417.25126,587.78679 417.5457,588.02811 Z M 419.74961,587.21451 V 590.8209 H 420.40381 V 590.14346 C 420.7226,590.64822 421.13217,590.9006 421.6325,590.9006 422.11513,590.9006 422.44389,590.64822 422.61878,590.14346 422.92872,590.65044 423.33165,590.90392 423.82756,590.90392 424.14635,590.90392 424.3932,590.81039 424.5681,590.62332 424.74299,590.43624 424.83044,590.17445 424.83044,589.83795 V 587.21451 H 424.17292 V 589.735 C 424.17292,590.14678 424.0102,590.35267 423.68476,590.35267 423.34604,590.35267 422.99071,590.11247 422.61878,589.63206 V 587.21451 H 421.96126 V 589.735 C 421.96126,590.14899 421.79522,590.35599 421.46314,590.35599 421.13328,590.35599 420.78016,590.11468 420.40381,589.63206 V 587.21451 Z M 428.62722,587.33074 C 428.18888,587.19791 427.81363,587.13149 427.50147,587.13149 426.97014,587.13149 426.53678,587.30805 426.20138,587.66116 425.86598,588.01427 425.69828,588.47199 425.69828,589.03431 425.69828,589.58114 425.84605,590.02944 426.1416,590.37924 426.43715,590.72903 426.81517,590.90392 427.27566,590.90392 427.71179,590.90392 428.04885,590.74895 428.28684,590.43901 428.52483,590.12907 428.64383,589.68851 428.64383,589.11733 L 428.64051,588.91476 H 426.36576 C 426.46095,588.05799 426.88048,587.62961 427.62434,587.62961 427.89665,587.62961 428.23094,587.70267 428.62722,587.84878 Z M 426.39564,589.40624 H 427.98631 C 427.98631,590.07704 427.73614,590.41244 427.23581,590.41244 426.73326,590.41244 426.4532,590.07704 426.39564,589.40624 Z M 430.0441,587.21451 V 587.86871 H 430.6983 V 587.21451 Z M 430.0441,590.16338 V 590.8209 H 430.6983 V 590.16338 Z M 434.4652,587.21451 V 592.1293 H 435.14928 L 437.62328,588.33362 V 592.1293 H 438.22103 V 587.21451 H 437.54026 L 435.06294,591.01019 V 587.21451 Z M 441.44553,587.67278 C 441.05368,587.31192 440.67621,587.13149 440.31314,587.13149 440.01426,587.13149 439.76631,587.22503 439.56928,587.4121 439.37224,587.59917 439.27372,587.8355 439.27372,588.12109 439.27372,588.51516 439.43921,588.8179 439.77018,589.02933 440.10116,589.24075 440.57548,589.34647 441.19315,589.34647 H 441.34923 V 589.78149 C 441.34923,590.19991 441.13448,590.40912 440.70499,590.40912 440.35963,590.40912 439.98659,590.30286 439.58588,590.09033 V 590.63162 C 440.02644,590.81094 440.43933,590.9006 440.82454,590.9006 441.22746,590.9006 441.52468,590.80983 441.71618,590.6283 441.90768,590.44676 442.00343,590.16449 442.00343,589.78149 V 588.14766 C 442.00343,587.77351 442.11855,587.58644 442.34879,587.58644 442.37757,587.58644 442.41963,587.59087 442.47498,587.59972 L 442.52147,587.23776 C 442.37314,587.16691 442.20932,587.13149 442.02999,587.13149 441.72448,587.13149 441.52966,587.31192 441.44553,587.67278 Z M 441.34923,588.02811 V 588.96125 L 441.13005,588.96789 C 440.77141,588.96789 440.48139,588.89982 440.26,588.76367 440.03862,588.62751 439.92792,588.44874 439.92792,588.22736 439.92792,588.07017 439.98327,587.93734 440.09396,587.82886 440.20466,587.72038 440.3397,587.66614 440.4991,587.66614 440.77141,587.66614 441.05478,587.78679 441.34923,588.02811 Z M 443.55313,587.21451 V 590.8209 H 444.20733 V 590.14346 C 444.52613,590.64822 444.9357,590.9006 445.43603,590.9006 445.91865,590.9006 446.24741,590.64822 446.42231,590.14346 446.73225,590.65044 447.13518,590.90392 447.63108,590.90392 447.94988,590.90392 448.19673,590.81039 448.37162,590.62332 448.54652,590.43624 448.63397,590.17445 448.63397,589.83795 V 587.21451 H 447.97645 V 589.735 C 447.97645,590.14678 447.81373,590.35267 447.48829,590.35267 447.14957,590.35267 446.79424,590.11247 446.42231,589.63206 V 587.21451 H 445.76479 V 589.735 C 445.76479,590.14899 445.59875,590.35599 445.26667,590.35599 444.9368,590.35599 444.58369,590.11468 444.20733,589.63206 V 587.21451 Z M 452.43075,587.33074 C 451.99241,587.19791 451.61716,587.13149 451.305,587.13149 450.77367,587.13149 450.34031,587.30805 450.0049,587.66116 449.6695,588.01427 449.5018,588.47199 449.5018,589.03431 449.5018,589.58114 449.64958,590.02944 449.94513,590.37924 450.24068,590.72903 450.6187,590.90392 451.07918,590.90392 451.51532,590.90392 451.85238,590.74895 452.09037,590.43901 452.32836,590.12907 452.44736,589.68851 452.44736,589.11733 L 452.44404,588.91476 H 450.16928 C 450.26448,588.05799 450.68401,587.62961 451.42787,587.62961 451.70018,587.62961 452.03447,587.70267 452.43075,587.84878 Z M 450.19917,589.40624 H 451.78984 C 451.78984,590.07704 451.53967,590.41244 451.03934,590.41244 450.53679,590.41244 450.25673,590.07704 450.19917,589.40624 Z M 453.66498,587.21451 V 587.78901 C 453.85538,588.234 454.24059,588.71883 454.82062,589.24352 L 455.19588,589.57892 C 455.6785,590.01506 455.91981,590.44787 455.91981,590.87736 455.91981,591.15188 455.83734,591.36773 455.67241,591.52491 455.50748,591.6821 455.28111,591.76069 454.99331,591.76069 454.65237,591.76069 454.25055,591.62897 453.78785,591.36552 V 591.94334 C 454.22399,592.14923 454.6568,592.25217 455.08629,592.25217 455.54677,592.25217 455.91649,592.12819 456.19544,591.88024 456.47439,591.63229 456.61386,591.30353 456.61386,590.89396 456.61386,590.59952 456.54357,590.33828 456.40299,590.11025 456.26241,589.88222 456.00062,589.60549 455.61762,589.28005 L 455.36524,589.0642 C 454.84055,588.61921 454.53725,588.19415 454.45534,587.78901 H 456.59061 V 587.21451 Z"
             style="fill:#000000;fill-opacity:1;fill-rule:nonzero;stroke:none;stroke-width:0.566751"
             id="path55" /><path
             d="M 407.46152,578.71325 406.11991,582.31964 H 406.77411 L 407.82349,579.51356 408.92932,582.31964 H 409.54034 L 408.11572,578.71325 Z M 412.7582,578.82948 C 412.31986,578.69665 411.94461,578.63023 411.63245,578.63023 411.10112,578.63023 410.66776,578.80679 410.33235,579.1599 409.99695,579.51301 409.82925,579.97073 409.82925,580.53305 409.82925,581.07988 409.97703,581.52818 410.27258,581.87798 410.56813,582.22777 410.94615,582.40266 411.40663,582.40266 411.84277,582.40266 412.17983,582.24769 412.41782,581.93775 412.65581,581.62781 412.77481,581.18725 412.77481,580.61607 L 412.77149,580.4135 H 410.49673 C 410.59193,579.55673 411.01146,579.12835 411.75532,579.12835 412.02763,579.12835 412.36192,579.20141 412.7582,579.34752 Z M 410.52662,580.90498 H 412.11729 C 412.11729,581.57578 411.86712,581.91118 411.36679,581.91118 410.86424,581.91118 410.58418,581.57578 410.52662,580.90498 Z M 414.0821,578.71325 V 582.31964 H 414.7363 V 581.6422 C 414.99532,582.14696 415.37168,582.39934 415.86537,582.39934 415.93178,582.39934 416.00152,582.39381 416.07458,582.38274 V 581.77171 C 415.96167,581.80935 415.86205,581.82816 415.77571,581.82816 415.36171,581.82816 415.01524,581.58243 414.7363,581.09095 V 578.71325 Z M 417.87224,578.63023 C 417.57337,578.63023 417.21029,578.69997 416.78302,578.83944 V 579.44051 C 417.21029,579.22797 417.58222,579.12171 417.89881,579.12171 418.08699,579.12171 418.24306,579.17263 418.36704,579.27447 418.49102,579.3763 418.55301,579.5036 418.55301,579.65636 418.55301,579.87996 418.37922,580.06482 418.03164,580.21093 L 417.64975,580.37365 C 417.08521,580.60832 416.80294,580.94594 416.80294,581.3865 416.80294,581.70087 416.91419,581.94827 417.13668,582.1287 417.35918,582.30913 417.66414,582.39934 418.05157,582.39934 418.25303,582.39934 418.50209,582.37167 418.79875,582.31632 L 418.9349,582.28976 V 581.74514 C 418.56961,581.85362 418.27959,581.90786 418.06485,581.90786 417.64421,581.90786 417.4339,581.75511 417.4339,581.44959 417.4339,581.25256 417.59329,581.08652 417.91209,580.95147 L 418.22757,580.81864 C 418.584,580.6681 418.83638,580.50925 418.98471,580.3421 419.13304,580.17496 419.20721,579.9663 419.20721,579.71613 419.20721,579.39955 419.08212,579.13942 418.83195,578.93574 418.58179,578.73207 418.26188,578.63023 417.87224,578.63023 Z M 420.31635,578.71325 V 582.31964 H 420.97055 V 578.71325 Z M 420.31635,582.97384 V 583.62804 H 420.97055 V 582.97384 Z M 423.42795,578.63023 C 422.91212,578.63023 422.50034,578.80125 422.19261,579.14329 421.88488,579.48534 421.73102,579.94305 421.73102,580.51645 421.73102,581.09648 421.88543,581.55531 422.19427,581.89292 422.5031,582.23054 422.92208,582.39934 423.45119,582.39934 423.98031,582.39934 424.39928,582.23054 424.70812,581.89292 425.01695,581.55531 425.17137,581.09869 425.17137,580.52309 425.17137,579.9342 425.0164,579.4715 424.70646,579.13499 424.39652,578.79848 423.97035,578.63023 423.42795,578.63023 Z M 423.43791,579.12171 C 424.13085,579.12171 424.47732,579.58883 424.47732,580.52309 424.47732,581.44627 424.13528,581.90786 423.45119,581.90786 422.76932,581.90786 422.42839,581.44406 422.42839,580.51645 422.42839,579.58662 422.76489,579.12171 423.43791,579.12171 Z M 425.98386,578.71325 V 582.31964 H 426.63806 V 581.6422 C 426.98342,582.14696 427.40627,582.39934 427.90661,582.39934 428.21876,582.39934 428.46782,582.30027 428.65379,582.10213 428.83975,581.90399 428.93273,581.63777 428.93273,581.30348 V 578.71325 H 428.27854 V 581.09095 C 428.27854,581.35882 428.23924,581.54977 428.16065,581.66378 428.08206,581.7778 427.95199,581.83481 427.77045,581.83481 427.36974,581.83481 426.99228,581.57246 426.63806,581.04778 V 578.71325 Z M 430.0441,578.71325 V 579.36745 H 430.6983 V 578.71325 Z M 430.0441,581.66212 V 582.31964 H 430.6983 V 581.66212 Z M 435.8068,578.71325 433.95047,583.62804 H 434.64784 L 436.16877,579.60323 437.63656,583.62804 H 438.24759 L 436.46432,578.71325 Z M 441.66249,578.82948 C 441.22414,578.69665 440.84889,578.63023 440.53673,578.63023 440.0054,578.63023 439.57204,578.80679 439.23664,579.1599 438.90124,579.51301 438.73354,579.97073 438.73354,580.53305 438.73354,581.07988 438.88131,581.52818 439.17686,581.87798 439.47242,582.22777 439.85043,582.40266 440.31092,582.40266 440.74705,582.40266 441.08411,582.24769 441.3221,581.93775 441.56009,581.62781 441.67909,581.18725 441.67909,580.61607 L 441.67577,580.4135 H 439.40102 C 439.49621,579.55673 439.91574,579.12835 440.6596,579.12835 440.93191,579.12835 441.2662,579.20141 441.66249,579.34752 Z M 439.43091,580.90498 H 441.02157 C 441.02157,581.57578 440.7714,581.91118 440.27107,581.91118 439.76852,581.91118 439.48847,581.57578 439.43091,580.90498 Z M 442.98638,578.71325 V 582.31964 H 443.64058 V 581.6422 C 443.8996,582.14696 444.27596,582.39934 444.76965,582.39934 444.83607,582.39934 444.9058,582.39381 444.97886,582.38274 V 581.77171 C 444.86596,581.80935 444.76633,581.82816 444.67999,581.82816 444.266,581.82816 443.91953,581.58243 443.64058,581.09095 V 578.71325 Z M 446.77652,578.63023 C 446.47765,578.63023 446.11458,578.69997 445.6873,578.83944 V 579.44051 C 446.11458,579.22797 446.48651,579.12171 446.80309,579.12171 446.99127,579.12171 447.14735,579.17263 447.27132,579.27447 447.3953,579.3763 447.45729,579.5036 447.45729,579.65636 447.45729,579.87996 447.2835,580.06482 446.93592,580.21093 L 446.55403,580.37365 C 445.98949,580.60832 445.70723,580.94594 445.70723,581.3865 445.70723,581.70087 445.81847,581.94827 446.04097,582.1287 446.26346,582.30913 446.56842,582.39934 446.95585,582.39934 447.15731,582.39934 447.40637,582.37167 447.70303,582.31632 L 447.83918,582.28976 V 581.74514 C 447.47389,581.85362 447.18388,581.90786 446.96913,581.90786 446.5485,581.90786 446.33818,581.75511 446.33818,581.44959 446.33818,581.25256 446.49758,581.08652 446.81637,580.95147 L 447.13185,580.81864 C 447.48828,580.6681 447.74066,580.50925 447.88899,580.3421 448.03732,580.17496 448.11149,579.9663 448.11149,579.71613 448.11149,579.39955 447.9864,579.13942 447.73624,578.93574 447.48607,578.73207 447.16617,578.63023 446.77652,578.63023 Z M 449.22064,578.71325 V 582.31964 H 449.87484 V 578.71325 Z M 449.22064,582.97384 V 583.62804 H 449.87484 V 582.97384 Z M 452.33223,578.63023 C 451.8164,578.63023 451.40462,578.80125 451.09689,579.14329 450.78916,579.48534 450.6353,579.94305 450.6353,580.51645 450.6353,581.09648 450.78972,581.55531 451.09855,581.89292 451.40739,582.23054 451.82636,582.39934 452.35548,582.39934 452.88459,582.39934 453.30357,582.23054 453.6124,581.89292 453.92124,581.55531 454.07565,581.09869 454.07565,580.52309 454.07565,579.9342 453.92068,579.4715 453.61074,579.13499 453.3008,578.79848 452.87463,578.63023 452.33223,578.63023 Z M 452.34219,579.12171 C 453.03513,579.12171 453.3816,579.58883 453.3816,580.52309 453.3816,581.44627 453.03956,581.90786 452.35548,581.90786 451.6736,581.90786 451.33267,581.44406 451.33267,580.51645 451.33267,579.58662 451.66918,579.12171 452.34219,579.12171 Z M 454.88814,578.71325 V 582.31964 H 455.54234 V 581.6422 C 455.88771,582.14696 456.31055,582.39934 456.81089,582.39934 457.12305,582.39934 457.37211,582.30027 457.55807,582.10213 457.74404,581.90399 457.83702,581.63777 457.83702,581.30348 V 578.71325 H 457.18282 V 581.09095 C 457.18282,581.35882 457.14352,581.54977 457.06493,581.66378 456.98634,581.7778 456.85627,581.83481 456.67474,581.83481 456.27403,581.83481 455.89656,581.57246 455.54234,581.04778 V 578.71325 Z M 458.76574,578.71325 V 579.28775 C 458.95613,579.73274 459.34134,580.21757 459.92138,580.74226 L 460.29663,581.07766 C 460.77925,581.5138 461.02056,581.94661 461.02056,582.3761 461.02056,582.65062 460.9381,582.86647 460.77316,583.02365 460.60823,583.18084 460.38186,583.25943 460.09406,583.25943 459.75312,583.25943 459.3513,583.12771 458.88861,582.86426 V 583.44208 C 459.32474,583.64797 459.75755,583.75091 460.18704,583.75091 460.64753,583.75091 461.01724,583.62693 461.29619,583.37898 461.57514,583.13103 461.71461,582.80227 461.71461,582.3927 461.71461,582.09826 461.64432,581.83702 461.50374,581.60899 461.36316,581.38096 461.10137,581.10423 460.71837,580.77879 L 460.46599,580.56294 C 459.9413,580.11795 459.638,579.69289 459.55609,579.28775 H 461.69137 V 578.71325 Z"
             style="fill:#000000;fill-opacity:1;fill-rule:nonzero;stroke:none;stroke-width:0.566751"
             id="path59" /><path
             d="M 322.74779,608.75103 H 386.22387 V 571.34549 H 322.74779 Z"
             style="fill:#ffd700;fill-opacity:1;fill-rule:nonzero;stroke:none;stroke-width:0.566751"
             id="path63" /><path
             d="M 322.74779,608.75103 H 386.22387 V 571.34549 H 322.74779 Z"
             style="fill:none;stroke:#000000;stroke-width:0.566751;stroke-linecap:round;stroke-linejoin:round;stroke-miterlimit:10;stroke-dasharray:none;stroke-opacity:1"
             id="path65" /><path
             d="M 338.68433,595.71577 V 600.63056 H 340.02262 C 340.61593,600.63056 341.0421,600.53038 341.30113,600.33003 341.56015,600.12967 341.68966,599.80036 341.68966,599.34209 341.68966,598.81962 341.51255,598.41005 341.15833,598.11339 340.80411,597.81673 340.31263,597.6684 339.6839,597.6684 H 339.37506 V 595.71577 Z M 339.37506,598.19641 H 339.65733 C 340.07132,598.19641 340.39123,598.29161 340.61704,598.482 340.84286,598.67239 340.95576,598.94138 340.95576,599.28896 340.95576,599.5834 340.86721,599.79372 340.6901,599.91991 340.51299,600.0461 340.21744,600.10919 339.80344,600.10919 H 339.37506 Z M 344.53116,596.17404 C 344.13931,595.81318 343.76184,595.63275 343.39877,595.63275 343.0999,595.63275 342.85194,595.72629 342.65491,595.91336 342.45787,596.10043 342.35936,596.33676 342.35936,596.62235 342.35936,597.01642 342.52484,597.31916 342.85582,597.53059 343.18679,597.74201 343.66111,597.84773 344.27878,597.84773 H 344.43486 V 598.28275 C 344.43486,598.70117 344.22011,598.91038 343.79062,598.91038 343.44526,598.91038 343.07222,598.80412 342.67151,598.59159 V 599.13288 C 343.11207,599.3122 343.52496,599.40186 343.91017,599.40186 344.3131,599.40186 344.61031,599.31109 344.80181,599.12956 344.99331,598.94802 345.08906,598.66575 345.08906,598.28275 V 596.64892 C 345.08906,596.27477 345.20418,596.0877 345.43442,596.0877 345.4632,596.0877 345.50527,596.09213 345.56061,596.10098 L 345.6071,595.73902 C 345.45877,595.66817 345.29495,595.63275 345.11562,595.63275 344.81011,595.63275 344.61529,595.81318 344.53116,596.17404 Z M 344.43486,596.52937 V 597.46251 L 344.21569,597.46915 C 343.85704,597.46915 343.56702,597.40108 343.34564,597.26493 343.12425,597.12877 343.01356,596.95 343.01356,596.72862 343.01356,596.57143 343.0689,596.4386 343.1796,596.33012 343.29029,596.22164 343.42534,596.1674 343.58473,596.1674 343.85704,596.1674 344.14042,596.28805 344.43486,596.52937 Z M 348.04679,595.63275 C 347.55974,595.63275 347.15571,595.81318 346.8347,596.17404 346.51368,596.5349 346.35318,596.98985 346.35318,597.53889 346.35318,598.12557 346.51202,598.58273 346.82971,598.91038 347.1474,599.23804 347.59073,599.40186 348.1597,599.40186 348.44086,599.40186 348.75523,599.36312 349.1028,599.28563 V 598.7377 C 348.73309,598.84618 348.432,598.90042 348.19955,598.90042 347.86525,598.90042 347.59682,598.77478 347.39425,598.52351 347.19168,598.27224 347.0904,597.93739 347.0904,597.51897 347.0904,597.11383 347.19445,596.78618 347.40255,596.53601 347.61066,596.28584 347.88296,596.16076 348.21947,596.16076 348.51834,596.16076 348.82607,596.23714 349.14265,596.38989 V 595.82536 C 348.7198,595.69695 348.35452,595.63275 348.04679,595.63275 Z M 350.03927,595.71577 V 600.95932 H 350.69347 V 597.5721 L 352.22104,599.32216 H 352.92505 L 351.46722,597.63852 353.22724,595.71577 H 352.3904 L 350.69347,597.56546 V 595.71577 Z M 355.86618,596.17404 C 355.47432,595.81318 355.09686,595.63275 354.73378,595.63275 354.43491,595.63275 354.18696,595.72629 353.98992,595.91336 353.79289,596.10043 353.69437,596.33676 353.69437,596.62235 353.69437,597.01642 353.85986,597.31916 354.19083,597.53059 354.5218,597.74201 354.99613,597.84773 355.6138,597.84773 H 355.76987 V 598.28275 C 355.76987,598.70117 355.55513,598.91038 355.12564,598.91038 354.78027,598.91038 354.40724,598.80412 354.00653,598.59159 V 599.13288 C 354.44709,599.3122 354.85997,599.40186 355.24519,599.40186 355.64811,599.40186 355.94532,599.31109 356.13682,599.12956 356.32832,598.94802 356.42407,598.66575 356.42407,598.28275 V 596.64892 C 356.42407,596.27477 356.53919,596.0877 356.76943,596.0877 356.79822,596.0877 356.84028,596.09213 356.89563,596.10098 L 356.94212,595.73902 C 356.79379,595.66817 356.62996,595.63275 356.45064,595.63275 356.14512,595.63275 355.9503,595.81318 355.86618,596.17404 Z M 355.76987,596.52937 V 597.46251 L 355.5507,597.46915 C 355.19205,597.46915 354.90204,597.40108 354.68065,597.26493 354.45926,597.12877 354.34857,596.95 354.34857,596.72862 354.34857,596.57143 354.40392,596.4386 354.51461,596.33012 354.6253,596.22164 354.76035,596.1674 354.91975,596.1674 355.19205,596.1674 355.47543,596.28805 355.76987,596.52937 Z M 357.98706,594.51696 358.06344,595.08482 C 358.44201,594.90549 358.81505,594.81583 359.18255,594.81583 359.91977,594.81583 360.28838,595.20658 360.28838,595.98808 V 596.55593 C 360.04707,596.05117 359.65079,595.79879 359.09953,595.79879 358.66783,595.79879 358.32468,595.95597 358.07008,596.27034 357.81549,596.58471 357.68819,597.00867 357.68819,597.54221 357.68819,598.09125 357.8332,598.53845 358.12322,598.88382 358.41323,599.22918 358.78848,599.40186 359.24897,599.40186 359.65189,599.40186 359.99836,599.23804 360.28838,598.91038 V 599.32216 H 360.9459 V 596.69873 C 360.9459,596.13419 360.91657,595.71632 360.8579,595.44512 360.79923,595.17393 360.68909,594.95199 360.52748,594.7793 360.24189,594.476 359.79801,594.32435 359.19584,594.32435 358.7752,594.32435 358.37228,594.38856 357.98706,594.51696 Z M 360.28838,596.96439 V 598.46208 C 360.00058,598.76095 359.68732,598.91038 359.34859,598.91038 359.04751,598.91038 358.81173,598.78973 358.64126,598.54842 358.47079,598.3071 358.38556,597.97613 358.38556,597.5555 358.38556,596.76514 358.6634,596.36997 359.21908,596.36997 359.59765,596.36997 359.95409,596.56811 360.28838,596.96439 Z M 364.5844,595.832 C 364.14605,595.69917 363.7708,595.63275 363.45864,595.63275 362.92731,595.63275 362.49395,595.80931 362.15855,596.16242 361.82315,596.51553 361.65545,596.97325 361.65545,597.53557 361.65545,598.0824 361.80322,598.5307 362.09877,598.8805 362.39432,599.23029 362.77234,599.40518 363.23283,599.40518 363.66896,599.40518 364.00602,599.25021 364.24401,598.94027 364.482,598.63033 364.601,598.18977 364.601,597.61859 L 364.59768,597.41602 H 362.32293 C 362.41812,596.55925 362.83765,596.13087 363.58151,596.13087 363.85382,596.13087 364.18811,596.20393 364.5844,596.35004 Z M 362.35281,597.9075 H 363.94348 C 363.94348,598.5783 363.69331,598.9137 363.19298,598.9137 362.69043,598.9137 362.41038,598.5783 362.35281,597.9075 Z M 365.81863,595.71577 V 596.29027 C 366.00902,596.73526 366.39423,597.22009 366.97427,597.74478 L 367.34952,598.08018 C 367.83214,598.51632 368.07345,598.94913 368.07345,599.37862 368.07345,599.65314 367.99099,599.86899 367.82605,600.02617 367.66112,600.18336 367.43475,600.26195 367.14695,600.26195 366.80601,600.26195 366.4042,600.13023 365.9415,599.86678 V 600.4446 C 366.37763,600.65049 366.81044,600.75343 367.23993,600.75343 367.70042,600.75343 368.07013,600.62945 368.34908,600.3815 368.62803,600.13355 368.7675,599.80479 368.7675,599.39522 368.7675,599.10078 368.69721,598.83954 368.55663,598.61151 368.41605,598.38348 368.15426,598.10675 367.77126,597.78131 L 367.51888,597.56546 C 366.99419,597.12047 366.69089,596.69541 366.60898,596.29027 H 368.74426 V 595.71577 Z"
             style="fill:#000000;fill-opacity:1;fill-rule:nonzero;stroke:none;stroke-width:0.566751"
             id="path69" /><path
             d="M 331.3365,587.21451 V 590.8209 H 331.9907 V 590.14346 C 332.33606,590.64822 332.75891,590.9006 333.25924,590.9006 333.5714,590.9006 333.82046,590.80153 334.00643,590.60339 334.19239,590.40525 334.28537,590.13903 334.28537,589.80474 V 587.21451 H 333.63117 V 589.59221 C 333.63117,589.86008 333.59188,590.05103 333.51329,590.16504 333.43469,590.27906 333.30463,590.33607 333.12309,590.33607 332.72238,590.33607 332.34492,590.07372 331.9907,589.54904 V 587.21451 Z M 337.1634,587.67278 C 336.77155,587.31192 336.39408,587.13149 336.03101,587.13149 335.73214,587.13149 335.48418,587.22503 335.28715,587.4121 335.09011,587.59917 334.9916,587.8355 334.9916,588.12109 334.9916,588.51516 335.15708,588.8179 335.48806,589.02933 335.81903,589.24075 336.29335,589.34647 336.91102,589.34647 H 337.0671 V 589.78149 C 337.0671,590.19991 336.85235,590.40912 336.42286,590.40912 336.0775,590.40912 335.70446,590.30286 335.30375,590.09033 V 590.63162 C 335.74431,590.81094 336.1572,590.9006 336.54241,590.9006 336.94534,590.9006 337.24255,590.80983 337.43405,590.6283 337.62555,590.44676 337.7213,590.16449 337.7213,589.78149 V 588.14766 C 337.7213,587.77351 337.83642,587.58644 338.06666,587.58644 338.09544,587.58644 338.13751,587.59087 338.19285,587.59972 L 338.23934,587.23776 C 338.09101,587.16691 337.92719,587.13149 337.74786,587.13149 337.44235,587.13149 337.24753,587.31192 337.1634,587.67278 Z M 337.0671,588.02811 V 588.96125 L 336.84793,588.96789 C 336.48928,588.96789 336.19926,588.89982 335.97788,588.76367 335.75649,588.62751 335.6458,588.44874 335.6458,588.22736 335.6458,588.07017 335.70114,587.93734 335.81184,587.82886 335.92253,587.72038 336.05758,587.66614 336.21697,587.66614 336.48928,587.66614 336.77266,587.78679 337.0671,588.02811 Z M 339.27101,587.21451 V 590.8209 H 339.92521 V 590.14346 C 340.244,590.64822 340.65357,590.9006 341.1539,590.9006 341.63653,590.9006 341.96529,590.64822 342.14018,590.14346 342.45012,590.65044 342.85305,590.90392 343.34896,590.90392 343.66775,590.90392 343.9146,590.81039 344.0895,590.62332 344.26439,590.43624 344.35184,590.17445 344.35184,589.83795 V 587.21451 H 343.69432 V 589.735 C 343.69432,590.14678 343.5316,590.35267 343.20616,590.35267 342.86744,590.35267 342.51211,590.11247 342.14018,589.63206 V 587.21451 H 341.48266 V 589.735 C 341.48266,590.14899 341.31662,590.35599 340.98454,590.35599 340.65468,590.35599 340.30156,590.11468 339.92521,589.63206 V 587.21451 Z M 348.14862,587.33074 C 347.71028,587.19791 347.33503,587.13149 347.02287,587.13149 346.49154,587.13149 346.05818,587.30805 345.72278,587.66116 345.38738,588.01427 345.21968,588.47199 345.21968,589.03431 345.21968,589.58114 345.36745,590.02944 345.663,590.37924 345.95855,590.72903 346.33657,590.90392 346.79706,590.90392 347.23319,590.90392 347.57025,590.74895 347.80824,590.43901 348.04623,590.12907 348.16523,589.68851 348.16523,589.11733 L 348.16191,588.91476 H 345.88716 C 345.98235,588.05799 346.40188,587.62961 347.14574,587.62961 347.41805,587.62961 347.75234,587.70267 348.14862,587.84878 Z M 345.91704,589.40624 H 347.50771 C 347.50771,590.07704 347.25754,590.41244 346.75721,590.41244 346.25466,590.41244 345.9746,590.07704 345.91704,589.40624 Z M 349.5655,587.21451 V 587.86871 H 350.2197 V 587.21451 Z M 349.5655,590.16338 V 590.8209 H 350.2197 V 590.16338 Z M 353.9866,587.21451 V 592.1293 H 354.67068 L 357.14468,588.33362 V 592.1293 H 357.74243 V 587.21451 H 357.06166 L 354.58434,591.01019 V 587.21451 Z M 360.96693,587.67278 C 360.57508,587.31192 360.19761,587.13149 359.83454,587.13149 359.53566,587.13149 359.28771,587.22503 359.09068,587.4121 358.89364,587.59917 358.79512,587.8355 358.79512,588.12109 358.79512,588.51516 358.96061,588.8179 359.29158,589.02933 359.62256,589.24075 360.09688,589.34647 360.71455,589.34647 H 360.87063 V 589.78149 C 360.87063,590.19991 360.65588,590.40912 360.22639,590.40912 359.88103,590.40912 359.50799,590.30286 359.10728,590.09033 V 590.63162 C 359.54784,590.81094 359.96073,590.9006 360.34594,590.9006 360.74886,590.9006 361.04608,590.80983 361.23758,590.6283 361.42908,590.44676 361.52483,590.16449 361.52483,589.78149 V 588.14766 C 361.52483,587.77351 361.63995,587.58644 361.87019,587.58644 361.89897,587.58644 361.94103,587.59087 361.99638,587.59972 L 362.04287,587.23776 C 361.89454,587.16691 361.73072,587.13149 361.55139,587.13149 361.24588,587.13149 361.05106,587.31192 360.96693,587.67278 Z M 360.87063,588.02811 V 588.96125 L 360.65145,588.96789 C 360.29281,588.96789 360.00279,588.89982 359.7814,588.76367 359.56002,588.62751 359.44932,588.44874 359.44932,588.22736 359.44932,588.07017 359.50467,587.93734 359.61536,587.82886 359.72606,587.72038 359.8611,587.66614 360.0205,587.66614 360.29281,587.66614 360.57618,587.78679 360.87063,588.02811 Z M 363.07453,587.21451 V 590.8209 H 363.72873 V 590.14346 C 364.04753,590.64822 364.4571,590.9006 364.95743,590.9006 365.44005,590.9006 365.76881,590.64822 365.94371,590.14346 366.25365,590.65044 366.65658,590.90392 367.15248,590.90392 367.47128,590.90392 367.71813,590.81039 367.89302,590.62332 368.06792,590.43624 368.15537,590.17445 368.15537,589.83795 V 587.21451 H 367.49785 V 589.735 C 367.49785,590.14678 367.33513,590.35267 367.00969,590.35267 366.67097,590.35267 366.31564,590.11247 365.94371,589.63206 V 587.21451 H 365.28619 V 589.735 C 365.28619,590.14899 365.12015,590.35599 364.78807,590.35599 364.4582,590.35599 364.10509,590.11468 363.72873,589.63206 V 587.21451 Z M 371.95215,587.33074 C 371.51381,587.19791 371.13856,587.13149 370.8264,587.13149 370.29507,587.13149 369.86171,587.30805 369.5263,587.66116 369.1909,588.01427 369.0232,588.47199 369.0232,589.03431 369.0232,589.58114 369.17098,590.02944 369.46653,590.37924 369.76208,590.72903 370.1401,590.90392 370.60058,590.90392 371.03672,590.90392 371.37378,590.74895 371.61177,590.43901 371.84976,590.12907 371.96876,589.68851 371.96876,589.11733 L 371.96544,588.91476 H 369.69068 C 369.78588,588.05799 370.20541,587.62961 370.94927,587.62961 371.22158,587.62961 371.55587,587.70267 371.95215,587.84878 Z M 369.72057,589.40624 H 371.31124 C 371.31124,590.07704 371.06107,590.41244 370.56074,590.41244 370.05819,590.41244 369.77813,590.07704 369.72057,589.40624 Z M 373.64466,587.21451 V 587.70599 H 374.62761 V 591.58469 L 373.64466,591.33895 V 591.84371 L 375.28513,592.25217 V 587.70599 H 376.26809 V 587.21451 Z"
             style="fill:#000000;fill-opacity:1;fill-rule:nonzero;stroke:none;stroke-width:0.566751"
             id="path73" /><path
             d="M 326.98292,578.71325 325.64131,582.31964 H 326.29551 L 327.34489,579.51356 328.45072,582.31964 H 329.06174 L 327.63712,578.71325 Z M 332.2796,578.82948 C 331.84126,578.69665 331.46601,578.63023 331.15385,578.63023 330.62252,578.63023 330.18916,578.80679 329.85375,579.1599 329.51835,579.51301 329.35065,579.97073 329.35065,580.53305 329.35065,581.07988 329.49843,581.52818 329.79398,581.87798 330.08953,582.22777 330.46755,582.40266 330.92803,582.40266 331.36417,582.40266 331.70123,582.24769 331.93922,581.93775 332.17721,581.62781 332.29621,581.18725 332.29621,580.61607 L 332.29289,580.4135 H 330.01813 C 330.11333,579.55673 330.53286,579.12835 331.27672,579.12835 331.54903,579.12835 331.88332,579.20141 332.2796,579.34752 Z M 330.04802,580.90498 H 331.63869 C 331.63869,581.57578 331.38852,581.91118 330.88819,581.91118 330.38564,581.91118 330.10558,581.57578 330.04802,580.90498 Z M 333.6035,578.71325 V 582.31964 H 334.2577 V 581.6422 C 334.51672,582.14696 334.89308,582.39934 335.38677,582.39934 335.45318,582.39934 335.52292,582.39381 335.59598,582.38274 V 581.77171 C 335.48307,581.80935 335.38345,581.82816 335.29711,581.82816 334.88311,581.82816 334.53664,581.58243 334.2577,581.09095 V 578.71325 Z M 337.39364,578.63023 C 337.09477,578.63023 336.73169,578.69997 336.30442,578.83944 V 579.44051 C 336.73169,579.22797 337.10362,579.12171 337.42021,579.12171 337.60839,579.12171 337.76446,579.17263 337.88844,579.27447 338.01242,579.3763 338.07441,579.5036 338.07441,579.65636 338.07441,579.87996 337.90062,580.06482 337.55304,580.21093 L 337.17115,580.37365 C 336.60661,580.60832 336.32434,580.94594 336.32434,581.3865 336.32434,581.70087 336.43559,581.94827 336.65808,582.1287 336.88058,582.30913 337.18554,582.39934 337.57297,582.39934 337.77443,582.39934 338.02349,582.37167 338.32015,582.31632 L 338.4563,582.28976 V 581.74514 C 338.09101,581.85362 337.80099,581.90786 337.58625,581.90786 337.16561,581.90786 336.9553,581.75511 336.9553,581.44959 336.9553,581.25256 337.11469,581.08652 337.43349,580.95147 L 337.74897,580.81864 C 338.1054,580.6681 338.35778,580.50925 338.50611,580.3421 338.65444,580.17496 338.72861,579.9663 338.72861,579.71613 338.72861,579.39955 338.60352,579.13942 338.35335,578.93574 338.10319,578.73207 337.78328,578.63023 337.39364,578.63023 Z M 339.83775,578.71325 V 582.31964 H 340.49195 V 578.71325 Z M 339.83775,582.97384 V 583.62804 H 340.49195 V 582.97384 Z M 342.94935,578.63023 C 342.43352,578.63023 342.02174,578.80125 341.71401,579.14329 341.40628,579.48534 341.25242,579.94305 341.25242,580.51645 341.25242,581.09648 341.40683,581.55531 341.71567,581.89292 342.0245,582.23054 342.44348,582.39934 342.97259,582.39934 343.50171,582.39934 343.92068,582.23054 344.22952,581.89292 344.53835,581.55531 344.69277,581.09869 344.69277,580.52309 344.69277,579.9342 344.5378,579.4715 344.22786,579.13499 343.91792,578.79848 343.49175,578.63023 342.94935,578.63023 Z M 342.95931,579.12171 C 343.65225,579.12171 343.99872,579.58883 343.99872,580.52309 343.99872,581.44627 343.65668,581.90786 342.97259,581.90786 342.29072,581.90786 341.94979,581.44406 341.94979,580.51645 341.94979,579.58662 342.28629,579.12171 342.95931,579.12171 Z M 345.50526,578.71325 V 582.31964 H 346.15946 V 581.6422 C 346.50482,582.14696 346.92767,582.39934 347.42801,582.39934 347.74016,582.39934 347.98922,582.30027 348.17519,582.10213 348.36115,581.90399 348.45413,581.63777 348.45413,581.30348 V 578.71325 H 347.79994 V 581.09095 C 347.79994,581.35882 347.76064,581.54977 347.68205,581.66378 347.60346,581.7778 347.47339,581.83481 347.29185,581.83481 346.89114,581.83481 346.51368,581.57246 346.15946,581.04778 V 578.71325 Z M 349.5655,578.71325 V 579.36745 H 350.2197 V 578.71325 Z M 349.5655,581.66212 V 582.31964 H 350.2197 V 581.66212 Z M 355.3282,578.71325 353.47187,583.62804 H 354.16924 L 355.69017,579.60323 357.15796,583.62804 H 357.76899 L 355.98572,578.71325 Z M 361.18389,578.82948 C 360.74554,578.69665 360.37029,578.63023 360.05813,578.63023 359.5268,578.63023 359.09344,578.80679 358.75804,579.1599 358.42264,579.51301 358.25494,579.97073 358.25494,580.53305 358.25494,581.07988 358.40271,581.52818 358.69826,581.87798 358.99382,582.22777 359.37183,582.40266 359.83232,582.40266 360.26845,582.40266 360.60551,582.24769 360.8435,581.93775 361.08149,581.62781 361.20049,581.18725 361.20049,580.61607 L 361.19717,580.4135 H 358.92242 C 359.01761,579.55673 359.43714,579.12835 360.181,579.12835 360.45331,579.12835 360.7876,579.20141 361.18389,579.34752 Z M 358.95231,580.90498 H 360.54297 C 360.54297,581.57578 360.2928,581.91118 359.79247,581.91118 359.28992,581.91118 359.00987,581.57578 358.95231,580.90498 Z M 362.50778,578.71325 V 582.31964 H 363.16198 V 581.6422 C 363.421,582.14696 363.79736,582.39934 364.29105,582.39934 364.35747,582.39934 364.4272,582.39381 364.50026,582.38274 V 581.77171 C 364.38736,581.80935 364.28773,581.82816 364.20139,581.82816 363.7874,581.82816 363.44093,581.58243 363.16198,581.09095 V 578.71325 Z M 366.29792,578.63023 C 365.99905,578.63023 365.63598,578.69997 365.2087,578.83944 V 579.44051 C 365.63598,579.22797 366.00791,579.12171 366.32449,579.12171 366.51267,579.12171 366.66875,579.17263 366.79272,579.27447 366.9167,579.3763 366.97869,579.5036 366.97869,579.65636 366.97869,579.87996 366.8049,580.06482 366.45732,580.21093 L 366.07543,580.37365 C 365.51089,580.60832 365.22863,580.94594 365.22863,581.3865 365.22863,581.70087 365.33987,581.94827 365.56237,582.1287 365.78486,582.30913 366.08982,582.39934 366.47725,582.39934 366.67871,582.39934 366.92777,582.37167 367.22443,582.31632 L 367.36058,582.28976 V 581.74514 C 366.99529,581.85362 366.70528,581.90786 366.49053,581.90786 366.0699,581.90786 365.85958,581.75511 365.85958,581.44959 365.85958,581.25256 366.01898,581.08652 366.33777,580.95147 L 366.65325,580.81864 C 367.00968,580.6681 367.26206,580.50925 367.41039,580.3421 367.55872,580.17496 367.63289,579.9663 367.63289,579.71613 367.63289,579.39955 367.5078,579.13942 367.25764,578.93574 367.00747,578.73207 366.68757,578.63023 366.29792,578.63023 Z M 368.74204,578.71325 V 582.31964 H 369.39624 V 578.71325 Z M 368.74204,582.97384 V 583.62804 H 369.39624 V 582.97384 Z M 371.85363,578.63023 C 371.3378,578.63023 370.92602,578.80125 370.61829,579.14329 370.31056,579.48534 370.1567,579.94305 370.1567,580.51645 370.1567,581.09648 370.31112,581.55531 370.61995,581.89292 370.92879,582.23054 371.34776,582.39934 371.87688,582.39934 372.40599,582.39934 372.82497,582.23054 373.1338,581.89292 373.44264,581.55531 373.59705,581.09869 373.59705,580.52309 373.59705,579.9342 373.44208,579.4715 373.13214,579.13499 372.8222,578.79848 372.39603,578.63023 371.85363,578.63023 Z M 371.86359,579.12171 C 372.55653,579.12171 372.903,579.58883 372.903,580.52309 372.903,581.44627 372.56096,581.90786 371.87688,581.90786 371.195,581.90786 370.85407,581.44406 370.85407,580.51645 370.85407,579.58662 371.19058,579.12171 371.86359,579.12171 Z M 374.40954,578.71325 V 582.31964 H 375.06374 V 581.6422 C 375.40911,582.14696 375.83195,582.39934 376.33229,582.39934 376.64445,582.39934 376.89351,582.30027 377.07947,582.10213 377.26544,581.90399 377.35842,581.63777 377.35842,581.30348 V 578.71325 H 376.70422 V 581.09095 C 376.70422,581.35882 376.66492,581.54977 376.58633,581.66378 376.50774,581.7778 376.37767,581.83481 376.19614,581.83481 375.79543,581.83481 375.41796,581.57246 375.06374,581.04778 V 578.71325 Z M 379.85456,578.59038 C 379.34758,578.59038 378.93746,578.82892 378.6242,579.30601 378.31094,579.7831 378.1543,580.40575 378.1543,581.17397 378.1543,581.94882 378.31204,582.57202 378.62752,583.04358 378.943,583.51513 379.35865,583.75091 379.87448,583.75091 380.39031,583.75091 380.80597,583.51513 381.12144,583.04358 381.43692,582.57202 381.59466,581.95214 381.59466,581.18393 381.59466,580.39579 381.43692,579.7665 381.12144,579.29605 380.80597,578.8256 380.38367,578.59038 379.85456,578.59038 Z M 379.8612,579.08186 C 380.55414,579.08186 380.90061,579.78587 380.90061,581.19389 380.90061,582.57092 380.55857,583.25943 379.87448,583.25943 379.19261,583.25943 378.85167,582.56428 378.85167,581.17397 378.85167,579.77923 379.18818,579.08186 379.8612,579.08186 Z"
             style="fill:#000000;fill-opacity:1;fill-rule:nonzero;stroke:none;stroke-width:0.566751"
             id="path77" /><path
             d="M 242.26919,608.75103 H 305.74527 V 571.34549 H 242.26919 Z"
             style="fill:#ffd700;fill-opacity:1;fill-rule:nonzero;stroke:none;stroke-width:0.566751"
             id="path81" /><path
             d="M 242.26919,608.75103 H 305.74527 V 571.34549 H 242.26919 Z"
             style="fill:none;stroke:#000000;stroke-width:0.566751;stroke-linecap:round;stroke-linejoin:round;stroke-miterlimit:10;stroke-dasharray:none;stroke-opacity:1"
             id="path83" /><path
             d="M 258.20573,595.71577 V 600.63056 H 259.54402 C 260.13733,600.63056 260.5635,600.53038 260.82253,600.33003 261.08155,600.12967 261.21106,599.80036 261.21106,599.34209 261.21106,598.81962 261.03395,598.41005 260.67973,598.11339 260.32551,597.81673 259.83403,597.6684 259.2053,597.6684 H 258.89646 V 595.71577 Z M 258.89646,598.19641 H 259.17873 C 259.59272,598.19641 259.91263,598.29161 260.13844,598.482 260.36426,598.67239 260.47716,598.94138 260.47716,599.28896 260.47716,599.5834 260.38861,599.79372 260.2115,599.91991 260.03439,600.0461 259.73884,600.10919 259.32484,600.10919 H 258.89646 Z M 264.05256,596.17404 C 263.66071,595.81318 263.28324,595.63275 262.92017,595.63275 262.6213,595.63275 262.37334,595.72629 262.17631,595.91336 261.97927,596.10043 261.88076,596.33676 261.88076,596.62235 261.88076,597.01642 262.04624,597.31916 262.37722,597.53059 262.70819,597.74201 263.18251,597.84773 263.80018,597.84773 H 263.95626 V 598.28275 C 263.95626,598.70117 263.74151,598.91038 263.31202,598.91038 262.96666,598.91038 262.59362,598.80412 262.19291,598.59159 V 599.13288 C 262.63347,599.3122 263.04636,599.40186 263.43157,599.40186 263.8345,599.40186 264.13171,599.31109 264.32321,599.12956 264.51471,598.94802 264.61046,598.66575 264.61046,598.28275 V 596.64892 C 264.61046,596.27477 264.72558,596.0877 264.95582,596.0877 264.9846,596.0877 265.02667,596.09213 265.08201,596.10098 L 265.1285,595.73902 C 264.98017,595.66817 264.81635,595.63275 264.63702,595.63275 264.33151,595.63275 264.13669,595.81318 264.05256,596.17404 Z M 263.95626,596.52937 V 597.46251 L 263.73709,597.46915 C 263.37844,597.46915 263.08842,597.40108 262.86704,597.26493 262.64565,597.12877 262.53496,596.95 262.53496,596.72862 262.53496,596.57143 262.5903,596.4386 262.701,596.33012 262.81169,596.22164 262.94674,596.1674 263.10613,596.1674 263.37844,596.1674 263.66182,596.28805 263.95626,596.52937 Z M 267.56819,595.63275 C 267.08114,595.63275 266.67711,595.81318 266.3561,596.17404 266.03508,596.5349 265.87458,596.98985 265.87458,597.53889 265.87458,598.12557 266.03342,598.58273 266.35111,598.91038 266.6688,599.23804 267.11213,599.40186 267.6811,599.40186 267.96226,599.40186 268.27663,599.36312 268.6242,599.28563 V 598.7377 C 268.25449,598.84618 267.9534,598.90042 267.72095,598.90042 267.38665,598.90042 267.11822,598.77478 266.91565,598.52351 266.71308,598.27224 266.6118,597.93739 266.6118,597.51897 266.6118,597.11383 266.71585,596.78618 266.92395,596.53601 267.13206,596.28584 267.40436,596.16076 267.74087,596.16076 268.03974,596.16076 268.34747,596.23714 268.66405,596.38989 V 595.82536 C 268.2412,595.69695 267.87592,595.63275 267.56819,595.63275 Z M 269.56067,595.71577 V 600.95932 H 270.21487 V 597.5721 L 271.74244,599.32216 H 272.44645 L 270.98862,597.63852 272.74864,595.71577 H 271.9118 L 270.21487,597.56546 V 595.71577 Z M 275.38758,596.17404 C 274.99572,595.81318 274.61826,595.63275 274.25518,595.63275 273.95631,595.63275 273.70836,595.72629 273.51132,595.91336 273.31429,596.10043 273.21577,596.33676 273.21577,596.62235 273.21577,597.01642 273.38126,597.31916 273.71223,597.53059 274.0432,597.74201 274.51753,597.84773 275.1352,597.84773 H 275.29127 V 598.28275 C 275.29127,598.70117 275.07653,598.91038 274.64704,598.91038 274.30167,598.91038 273.92864,598.80412 273.52793,598.59159 V 599.13288 C 273.96849,599.3122 274.38137,599.40186 274.76659,599.40186 275.16951,599.40186 275.46672,599.31109 275.65822,599.12956 275.84972,598.94802 275.94547,598.66575 275.94547,598.28275 V 596.64892 C 275.94547,596.27477 276.06059,596.0877 276.29083,596.0877 276.31962,596.0877 276.36168,596.09213 276.41703,596.10098 L 276.46352,595.73902 C 276.31519,595.66817 276.15136,595.63275 275.97204,595.63275 275.66652,595.63275 275.4717,595.81318 275.38758,596.17404 Z M 275.29127,596.52937 V 597.46251 L 275.0721,597.46915 C 274.71345,597.46915 274.42344,597.40108 274.20205,597.26493 273.98066,597.12877 273.86997,596.95 273.86997,596.72862 273.86997,596.57143 273.92532,596.4386 274.03601,596.33012 274.1467,596.22164 274.28175,596.1674 274.44115,596.1674 274.71345,596.1674 274.99683,596.28805 275.29127,596.52937 Z M 277.50846,594.51696 277.58484,595.08482 C 277.96341,594.90549 278.33645,594.81583 278.70395,594.81583 279.44117,594.81583 279.80978,595.20658 279.80978,595.98808 V 596.55593 C 279.56847,596.05117 279.17219,595.79879 278.62093,595.79879 278.18923,595.79879 277.84608,595.95597 277.59148,596.27034 277.33689,596.58471 277.20959,597.00867 277.20959,597.54221 277.20959,598.09125 277.3546,598.53845 277.64462,598.88382 277.93463,599.22918 278.30988,599.40186 278.77037,599.40186 279.17329,599.40186 279.51976,599.23804 279.80978,598.91038 V 599.32216 H 280.4673 V 596.69873 C 280.4673,596.13419 280.43797,595.71632 280.3793,595.44512 280.32063,595.17393 280.21049,594.95199 280.04888,594.7793 279.76329,594.476 279.31941,594.32435 278.71724,594.32435 278.2966,594.32435 277.89368,594.38856 277.50846,594.51696 Z M 279.80978,596.96439 V 598.46208 C 279.52198,598.76095 279.20872,598.91038 278.86999,598.91038 278.56891,598.91038 278.33313,598.78973 278.16266,598.54842 277.99219,598.3071 277.90696,597.97613 277.90696,597.5555 277.90696,596.76514 278.1848,596.36997 278.74048,596.36997 279.11905,596.36997 279.47549,596.56811 279.80978,596.96439 Z M 284.1058,595.832 C 283.66745,595.69917 283.2922,595.63275 282.98004,595.63275 282.44871,595.63275 282.01535,595.80931 281.67995,596.16242 281.34455,596.51553 281.17685,596.97325 281.17685,597.53557 281.17685,598.0824 281.32462,598.5307 281.62017,598.8805 281.91572,599.23029 282.29374,599.40518 282.75423,599.40518 283.19036,599.40518 283.52742,599.25021 283.76541,598.94027 284.0034,598.63033 284.1224,598.18977 284.1224,597.61859 L 284.11908,597.41602 H 281.84433 C 281.93952,596.55925 282.35905,596.13087 283.10291,596.13087 283.37522,596.13087 283.70951,596.20393 284.1058,596.35004 Z M 281.87421,597.9075 H 283.46488 C 283.46488,598.5783 283.21471,598.9137 282.71438,598.9137 282.21183,598.9137 281.93178,598.5783 281.87421,597.9075 Z M 285.7983,595.71577 V 596.20725 H 286.78126 V 600.08595 L 285.7983,599.84021 V 600.34497 L 287.43878,600.75343 V 596.20725 H 288.42173 V 595.71577 Z"
             style="fill:#000000;fill-opacity:1;fill-rule:nonzero;stroke:none;stroke-width:0.566751"
             id="path87" /><path
             d="M 250.8579,587.21451 V 590.8209 H 251.5121 V 590.14346 C 251.85746,590.64822 252.28031,590.9006 252.78064,590.9006 253.0928,590.9006 253.34186,590.80153 253.52783,590.60339 253.71379,590.40525 253.80677,590.13903 253.80677,589.80474 V 587.21451 H 253.15257 V 589.59221 C 253.15257,589.86008 253.11328,590.05103 253.03469,590.16504 252.95609,590.27906 252.82603,590.33607 252.64449,590.33607 252.24378,590.33607 251.86632,590.07372 251.5121,589.54904 V 587.21451 Z M 256.6848,587.67278 C 256.29295,587.31192 255.91548,587.13149 255.55241,587.13149 255.25354,587.13149 255.00558,587.22503 254.80855,587.4121 254.61151,587.59917 254.513,587.8355 254.513,588.12109 254.513,588.51516 254.67848,588.8179 255.00946,589.02933 255.34043,589.24075 255.81475,589.34647 256.43242,589.34647 H 256.5885 V 589.78149 C 256.5885,590.19991 256.37375,590.40912 255.94426,590.40912 255.5989,590.40912 255.22586,590.30286 254.82515,590.09033 V 590.63162 C 255.26571,590.81094 255.6786,590.9006 256.06381,590.9006 256.46674,590.9006 256.76395,590.80983 256.95545,590.6283 257.14695,590.44676 257.2427,590.16449 257.2427,589.78149 V 588.14766 C 257.2427,587.77351 257.35782,587.58644 257.58806,587.58644 257.61684,587.58644 257.65891,587.59087 257.71425,587.59972 L 257.76074,587.23776 C 257.61241,587.16691 257.44859,587.13149 257.26926,587.13149 256.96375,587.13149 256.76893,587.31192 256.6848,587.67278 Z M 256.5885,588.02811 V 588.96125 L 256.36933,588.96789 C 256.01068,588.96789 255.72066,588.89982 255.49928,588.76367 255.27789,588.62751 255.1672,588.44874 255.1672,588.22736 255.1672,588.07017 255.22254,587.93734 255.33324,587.82886 255.44393,587.72038 255.57898,587.66614 255.73837,587.66614 256.01068,587.66614 256.29406,587.78679 256.5885,588.02811 Z M 258.79241,587.21451 V 590.8209 H 259.44661 V 590.14346 C 259.7654,590.64822 260.17497,590.9006 260.6753,590.9006 261.15793,590.9006 261.48669,590.64822 261.66158,590.14346 261.97152,590.65044 262.37445,590.90392 262.87036,590.90392 263.18915,590.90392 263.436,590.81039 263.6109,590.62332 263.78579,590.43624 263.87324,590.17445 263.87324,589.83795 V 587.21451 H 263.21572 V 589.735 C 263.21572,590.14678 263.053,590.35267 262.72756,590.35267 262.38884,590.35267 262.03351,590.11247 261.66158,589.63206 V 587.21451 H 261.00406 V 589.735 C 261.00406,590.14899 260.83802,590.35599 260.50594,590.35599 260.17608,590.35599 259.82296,590.11468 259.44661,589.63206 V 587.21451 Z M 267.67002,587.33074 C 267.23168,587.19791 266.85643,587.13149 266.54427,587.13149 266.01294,587.13149 265.57958,587.30805 265.24418,587.66116 264.90878,588.01427 264.74108,588.47199 264.74108,589.03431 264.74108,589.58114 264.88885,590.02944 265.1844,590.37924 265.47995,590.72903 265.85797,590.90392 266.31846,590.90392 266.75459,590.90392 267.09165,590.74895 267.32964,590.43901 267.56763,590.12907 267.68663,589.68851 267.68663,589.11733 L 267.68331,588.91476 H 265.40856 C 265.50375,588.05799 265.92328,587.62961 266.66714,587.62961 266.93945,587.62961 267.27374,587.70267 267.67002,587.84878 Z M 265.43844,589.40624 H 267.02911 C 267.02911,590.07704 266.77894,590.41244 266.27861,590.41244 265.77606,590.41244 265.496,590.07704 265.43844,589.40624 Z M 269.0869,587.21451 V 587.86871 H 269.7411 V 587.21451 Z M 269.0869,590.16338 V 590.8209 H 269.7411 V 590.16338 Z M 273.508,587.21451 V 592.1293 H 274.19208 L 276.66608,588.33362 V 592.1293 H 277.26383 V 587.21451 H 276.58306 L 274.10574,591.01019 V 587.21451 Z M 280.48833,587.67278 C 280.09648,587.31192 279.71901,587.13149 279.35594,587.13149 279.05706,587.13149 278.80911,587.22503 278.61208,587.4121 278.41504,587.59917 278.31652,587.8355 278.31652,588.12109 278.31652,588.51516 278.48201,588.8179 278.81298,589.02933 279.14396,589.24075 279.61828,589.34647 280.23595,589.34647 H 280.39203 V 589.78149 C 280.39203,590.19991 280.17728,590.40912 279.74779,590.40912 279.40243,590.40912 279.02939,590.30286 278.62868,590.09033 V 590.63162 C 279.06924,590.81094 279.48213,590.9006 279.86734,590.9006 280.27026,590.9006 280.56748,590.80983 280.75898,590.6283 280.95048,590.44676 281.04623,590.16449 281.04623,589.78149 V 588.14766 C 281.04623,587.77351 281.16135,587.58644 281.39159,587.58644 281.42037,587.58644 281.46243,587.59087 281.51778,587.59972 L 281.56427,587.23776 C 281.41594,587.16691 281.25212,587.13149 281.07279,587.13149 280.76728,587.13149 280.57246,587.31192 280.48833,587.67278 Z M 280.39203,588.02811 V 588.96125 L 280.17285,588.96789 C 279.81421,588.96789 279.52419,588.89982 279.3028,588.76367 279.08142,588.62751 278.97072,588.44874 278.97072,588.22736 278.97072,588.07017 279.02607,587.93734 279.13676,587.82886 279.24746,587.72038 279.3825,587.66614 279.5419,587.66614 279.81421,587.66614 280.09758,587.78679 280.39203,588.02811 Z M 282.59593,587.21451 V 590.8209 H 283.25013 V 590.14346 C 283.56893,590.64822 283.9785,590.9006 284.47883,590.9006 284.96145,590.9006 285.29021,590.64822 285.46511,590.14346 285.77505,590.65044 286.17798,590.90392 286.67388,590.90392 286.99268,590.90392 287.23953,590.81039 287.41442,590.62332 287.58932,590.43624 287.67677,590.17445 287.67677,589.83795 V 587.21451 H 287.01925 V 589.735 C 287.01925,590.14678 286.85653,590.35267 286.53109,590.35267 286.19237,590.35267 285.83704,590.11247 285.46511,589.63206 V 587.21451 H 284.80759 V 589.735 C 284.80759,590.14899 284.64155,590.35599 284.30947,590.35599 283.9796,590.35599 283.62649,590.11468 283.25013,589.63206 V 587.21451 Z M 291.47355,587.33074 C 291.03521,587.19791 290.65996,587.13149 290.3478,587.13149 289.81647,587.13149 289.38311,587.30805 289.0477,587.66116 288.7123,588.01427 288.5446,588.47199 288.5446,589.03431 288.5446,589.58114 288.69238,590.02944 288.98793,590.37924 289.28348,590.72903 289.6615,590.90392 290.12198,590.90392 290.55812,590.90392 290.89518,590.74895 291.13317,590.43901 291.37116,590.12907 291.49016,589.68851 291.49016,589.11733 L 291.48684,588.91476 H 289.21208 C 289.30728,588.05799 289.72681,587.62961 290.47067,587.62961 290.74298,587.62961 291.07727,587.70267 291.47355,587.84878 Z M 289.24197,589.40624 H 290.83264 C 290.83264,590.07704 290.58247,590.41244 290.08214,590.41244 289.57959,590.41244 289.29953,590.07704 289.24197,589.40624 Z M 292.70778,587.21451 V 587.78901 C 292.89818,588.234 293.28339,588.71883 293.86342,589.24352 L 294.23868,589.57892 C 294.7213,590.01506 294.96261,590.44787 294.96261,590.87736 294.96261,591.15188 294.88014,591.36773 294.71521,591.52491 294.55028,591.6821 294.32391,591.76069 294.03611,591.76069 293.69517,591.76069 293.29335,591.62897 292.83065,591.36552 V 591.94334 C 293.26679,592.14923 293.6996,592.25217 294.12909,592.25217 294.58957,592.25217 294.95929,592.12819 295.23824,591.88024 295.51719,591.63229 295.65666,591.30353 295.65666,590.89396 295.65666,590.59952 295.58637,590.33828 295.44579,590.11025 295.30521,589.88222 295.04342,589.60549 294.66042,589.28005 L 294.40804,589.0642 C 293.88335,588.61921 293.58005,588.19415 293.49814,587.78901 H 295.63341 V 587.21451 Z"
             style="fill:#000000;fill-opacity:1;fill-rule:nonzero;stroke:none;stroke-width:0.566751"
             id="path91" /><path
             d="M 246.50432,578.71325 245.16271,582.31964 H 245.81691 L 246.86629,579.51356 247.97212,582.31964 H 248.58314 L 247.15852,578.71325 Z M 251.801,578.82948 C 251.36266,578.69665 250.98741,578.63023 250.67525,578.63023 250.14392,578.63023 249.71056,578.80679 249.37515,579.1599 249.03975,579.51301 248.87205,579.97073 248.87205,580.53305 248.87205,581.07988 249.01983,581.52818 249.31538,581.87798 249.61093,582.22777 249.98895,582.40266 250.44943,582.40266 250.88557,582.40266 251.22263,582.24769 251.46062,581.93775 251.69861,581.62781 251.81761,581.18725 251.81761,580.61607 L 251.81429,580.4135 H 249.53953 C 249.63473,579.55673 250.05426,579.12835 250.79812,579.12835 251.07043,579.12835 251.40472,579.20141 251.801,579.34752 Z M 249.56942,580.90498 H 251.16009 C 251.16009,581.57578 250.90992,581.91118 250.40959,581.91118 249.90704,581.91118 249.62698,581.57578 249.56942,580.90498 Z M 253.1249,578.71325 V 582.31964 H 253.7791 V 581.6422 C 254.03812,582.14696 254.41448,582.39934 254.90817,582.39934 254.97458,582.39934 255.04432,582.39381 255.11738,582.38274 V 581.77171 C 255.00447,581.80935 254.90485,581.82816 254.81851,581.82816 254.40451,581.82816 254.05804,581.58243 253.7791,581.09095 V 578.71325 Z M 256.91504,578.63023 C 256.61617,578.63023 256.25309,578.69997 255.82582,578.83944 V 579.44051 C 256.25309,579.22797 256.62502,579.12171 256.94161,579.12171 257.12979,579.12171 257.28586,579.17263 257.40984,579.27447 257.53382,579.3763 257.59581,579.5036 257.59581,579.65636 257.59581,579.87996 257.42202,580.06482 257.07444,580.21093 L 256.69255,580.37365 C 256.12801,580.60832 255.84574,580.94594 255.84574,581.3865 255.84574,581.70087 255.95699,581.94827 256.17948,582.1287 256.40198,582.30913 256.70694,582.39934 257.09437,582.39934 257.29583,582.39934 257.54489,582.37167 257.84155,582.31632 L 257.9777,582.28976 V 581.74514 C 257.61241,581.85362 257.32239,581.90786 257.10765,581.90786 256.68701,581.90786 256.4767,581.75511 256.4767,581.44959 256.4767,581.25256 256.63609,581.08652 256.95489,580.95147 L 257.27037,580.81864 C 257.6268,580.6681 257.87918,580.50925 258.02751,580.3421 258.17584,580.17496 258.25001,579.9663 258.25001,579.71613 258.25001,579.39955 258.12492,579.13942 257.87475,578.93574 257.62459,578.73207 257.30468,578.63023 256.91504,578.63023 Z M 259.35915,578.71325 V 582.31964 H 260.01335 V 578.71325 Z M 259.35915,582.97384 V 583.62804 H 260.01335 V 582.97384 Z M 262.47075,578.63023 C 261.95492,578.63023 261.54314,578.80125 261.23541,579.14329 260.92768,579.48534 260.77382,579.94305 260.77382,580.51645 260.77382,581.09648 260.92823,581.55531 261.23707,581.89292 261.5459,582.23054 261.96488,582.39934 262.49399,582.39934 263.02311,582.39934 263.44208,582.23054 263.75092,581.89292 264.05975,581.55531 264.21417,581.09869 264.21417,580.52309 264.21417,579.9342 264.0592,579.4715 263.74926,579.13499 263.43932,578.79848 263.01315,578.63023 262.47075,578.63023 Z M 262.48071,579.12171 C 263.17365,579.12171 263.52012,579.58883 263.52012,580.52309 263.52012,581.44627 263.17808,581.90786 262.49399,581.90786 261.81212,581.90786 261.47119,581.44406 261.47119,580.51645 261.47119,579.58662 261.80769,579.12171 262.48071,579.12171 Z M 265.02666,578.71325 V 582.31964 H 265.68086 V 581.6422 C 266.02622,582.14696 266.44907,582.39934 266.94941,582.39934 267.26156,582.39934 267.51062,582.30027 267.69659,582.10213 267.88255,581.90399 267.97553,581.63777 267.97553,581.30348 V 578.71325 H 267.32134 V 581.09095 C 267.32134,581.35882 267.28204,581.54977 267.20345,581.66378 267.12486,581.7778 266.99479,581.83481 266.81325,581.83481 266.41254,581.83481 266.03508,581.57246 265.68086,581.04778 V 578.71325 Z M 269.0869,578.71325 V 579.36745 H 269.7411 V 578.71325 Z M 269.0869,581.66212 V 582.31964 H 269.7411 V 581.66212 Z M 274.8496,578.71325 272.99327,583.62804 H 273.69064 L 275.21157,579.60323 276.67936,583.62804 H 277.29039 L 275.50712,578.71325 Z M 280.70529,578.82948 C 280.26694,578.69665 279.89169,578.63023 279.57953,578.63023 279.0482,578.63023 278.61484,578.80679 278.27944,579.1599 277.94404,579.51301 277.77634,579.97073 277.77634,580.53305 277.77634,581.07988 277.92411,581.52818 278.21966,581.87798 278.51522,582.22777 278.89323,582.40266 279.35372,582.40266 279.78985,582.40266 280.12691,582.24769 280.3649,581.93775 280.60289,581.62781 280.72189,581.18725 280.72189,580.61607 L 280.71857,580.4135 H 278.44382 C 278.53901,579.55673 278.95854,579.12835 279.7024,579.12835 279.97471,579.12835 280.309,579.20141 280.70529,579.34752 Z M 278.47371,580.90498 H 280.06437 C 280.06437,581.57578 279.8142,581.91118 279.31387,581.91118 278.81132,581.91118 278.53127,581.57578 278.47371,580.90498 Z M 282.02918,578.71325 V 582.31964 H 282.68338 V 581.6422 C 282.9424,582.14696 283.31876,582.39934 283.81245,582.39934 283.87887,582.39934 283.9486,582.39381 284.02166,582.38274 V 581.77171 C 283.90876,581.80935 283.80913,581.82816 283.72279,581.82816 283.3088,581.82816 282.96233,581.58243 282.68338,581.09095 V 578.71325 Z M 285.81932,578.63023 C 285.52045,578.63023 285.15738,578.69997 284.7301,578.83944 V 579.44051 C 285.15738,579.22797 285.52931,579.12171 285.84589,579.12171 286.03407,579.12171 286.19015,579.17263 286.31412,579.27447 286.4381,579.3763 286.50009,579.5036 286.50009,579.65636 286.50009,579.87996 286.3263,580.06482 285.97872,580.21093 L 285.59683,580.37365 C 285.03229,580.60832 284.75003,580.94594 284.75003,581.3865 284.75003,581.70087 284.86127,581.94827 285.08377,582.1287 285.30626,582.30913 285.61122,582.39934 285.99865,582.39934 286.20011,582.39934 286.44917,582.37167 286.74583,582.31632 L 286.88198,582.28976 V 581.74514 C 286.51669,581.85362 286.22668,581.90786 286.01193,581.90786 285.5913,581.90786 285.38098,581.75511 285.38098,581.44959 285.38098,581.25256 285.54038,581.08652 285.85917,580.95147 L 286.17465,580.81864 C 286.53108,580.6681 286.78346,580.50925 286.93179,580.3421 287.08012,580.17496 287.15429,579.9663 287.15429,579.71613 287.15429,579.39955 287.0292,579.13942 286.77904,578.93574 286.52887,578.73207 286.20897,578.63023 285.81932,578.63023 Z M 288.26344,578.71325 V 582.31964 H 288.91764 V 578.71325 Z M 288.26344,582.97384 V 583.62804 H 288.91764 V 582.97384 Z M 291.37503,578.63023 C 290.8592,578.63023 290.44742,578.80125 290.13969,579.14329 289.83196,579.48534 289.6781,579.94305 289.6781,580.51645 289.6781,581.09648 289.83252,581.55531 290.14135,581.89292 290.45019,582.23054 290.86916,582.39934 291.39828,582.39934 291.92739,582.39934 292.34637,582.23054 292.6552,581.89292 292.96404,581.55531 293.11845,581.09869 293.11845,580.52309 293.11845,579.9342 292.96348,579.4715 292.65354,579.13499 292.3436,578.79848 291.91743,578.63023 291.37503,578.63023 Z M 291.38499,579.12171 C 292.07793,579.12171 292.4244,579.58883 292.4244,580.52309 292.4244,581.44627 292.08236,581.90786 291.39828,581.90786 290.7164,581.90786 290.37547,581.44406 290.37547,580.51645 290.37547,579.58662 290.71198,579.12171 291.38499,579.12171 Z M 293.93094,578.71325 V 582.31964 H 294.58514 V 581.6422 C 294.93051,582.14696 295.35335,582.39934 295.85369,582.39934 296.16585,582.39934 296.41491,582.30027 296.60087,582.10213 296.78684,581.90399 296.87982,581.63777 296.87982,581.30348 V 578.71325 H 296.22562 V 581.09095 C 296.22562,581.35882 296.18632,581.54977 296.10773,581.66378 296.02914,581.7778 295.89907,581.83481 295.71754,581.83481 295.31683,581.83481 294.93936,581.57246 294.58514,581.04778 V 578.71325 Z M 298.26681,578.71325 V 579.20473 H 299.24977 V 583.08343 L 298.26681,582.83769 V 583.34245 L 299.90728,583.75091 V 579.20473 H 300.89024 V 578.71325 Z"
             style="fill:#000000;fill-opacity:1;fill-rule:nonzero;stroke:none;stroke-width:0.566751"
             id="path95" /><path
             d="M 282.50848,680.16161 H 345.98456 V 642.75607 H 282.50848 Z"
             style="fill:#ffd700;fill-opacity:1;fill-rule:nonzero;stroke:none;stroke-width:0.566751"
             id="path99" /><path
             d="M 282.50848,680.16161 H 345.98456 V 642.75607 H 282.50848 Z"
             style="fill:none;stroke:#000000;stroke-width:0.566751;stroke-linecap:round;stroke-linejoin:round;stroke-miterlimit:10;stroke-dasharray:none;stroke-opacity:1"
             id="path101" /><path
             d="M 298.44502,667.12635 V 672.04114 H 299.78331 C 300.37662,672.04114 300.80279,671.94096 301.06182,671.74061 301.32084,671.54025 301.45035,671.21094 301.45035,670.75267 301.45035,670.2302 301.27324,669.82063 300.91902,669.52397 300.5648,669.22731 300.07332,669.07898 299.44459,669.07898 H 299.13575 V 667.12635 Z M 299.13575,669.60699 H 299.41802 C 299.83201,669.60699 300.15192,669.70219 300.37773,669.89258 300.60355,670.08297 300.71645,670.35196 300.71645,670.69954 300.71645,670.99398 300.6279,671.2043 300.45079,671.33049 300.27368,671.45668 299.97813,671.51977 299.56413,671.51977 H 299.13575 Z M 304.29185,667.58462 C 303.9,667.22376 303.52253,667.04333 303.15946,667.04333 302.86059,667.04333 302.61263,667.13687 302.4156,667.32394 302.21856,667.51101 302.12005,667.74734 302.12005,668.03293 302.12005,668.427 302.28553,668.72974 302.61651,668.94117 302.94748,669.15259 303.4218,669.25831 304.03947,669.25831 H 304.19555 V 669.69333 C 304.19555,670.11175 303.9808,670.32096 303.55131,670.32096 303.20595,670.32096 302.83291,670.2147 302.4322,670.00217 V 670.54346 C 302.87276,670.72278 303.28565,670.81244 303.67086,670.81244 304.07379,670.81244 304.371,670.72167 304.5625,670.54014 304.754,670.3586 304.84975,670.07633 304.84975,669.69333 V 668.0595 C 304.84975,667.68535 304.96487,667.49828 305.19511,667.49828 305.22389,667.49828 305.26596,667.50271 305.3213,667.51156 L 305.36779,667.1496 C 305.21946,667.07875 305.05564,667.04333 304.87631,667.04333 304.5708,667.04333 304.37598,667.22376 304.29185,667.58462 Z M 304.19555,667.93995 V 668.87309 L 303.97638,668.87973 C 303.61773,668.87973 303.32771,668.81166 303.10633,668.67551 302.88494,668.53935 302.77425,668.36058 302.77425,668.1392 302.77425,667.98201 302.82959,667.84918 302.94029,667.7407 303.05098,667.63222 303.18603,667.57798 303.34542,667.57798 303.61773,667.57798 303.90111,667.69863 304.19555,667.93995 Z M 307.80748,667.04333 C 307.32043,667.04333 306.9164,667.22376 306.59539,667.58462 306.27437,667.94548 306.11387,668.40043 306.11387,668.94947 306.11387,669.53615 306.27271,669.99331 306.5904,670.32096 306.90809,670.64862 307.35142,670.81244 307.92039,670.81244 308.20155,670.81244 308.51592,670.7737 308.86349,670.69621 V 670.14828 C 308.49378,670.25676 308.19269,670.311 307.96024,670.311 307.62594,670.311 307.35751,670.18536 307.15494,669.93409 306.95237,669.68282 306.85109,669.34797 306.85109,668.92955 306.85109,668.52441 306.95514,668.19676 307.16324,667.94659 307.37135,667.69642 307.64365,667.57134 307.98016,667.57134 308.27903,667.57134 308.58676,667.64772 308.90334,667.80047 V 667.23594 C 308.48049,667.10753 308.11521,667.04333 307.80748,667.04333 Z M 309.79996,667.12635 V 672.3699 H 310.45416 V 668.98268 L 311.98173,670.73274 H 312.68574 L 311.22791,669.0491 312.98793,667.12635 H 312.15109 L 310.45416,668.97604 V 667.12635 Z M 315.62687,667.58462 C 315.23501,667.22376 314.85755,667.04333 314.49447,667.04333 314.1956,667.04333 313.94765,667.13687 313.75061,667.32394 313.55358,667.51101 313.45506,667.74734 313.45506,668.03293 313.45506,668.427 313.62055,668.72974 313.95152,668.94117 314.28249,669.15259 314.75682,669.25831 315.37449,669.25831 H 315.53056 V 669.69333 C 315.53056,670.11175 315.31582,670.32096 314.88633,670.32096 314.54096,670.32096 314.16793,670.2147 313.76722,670.00217 V 670.54346 C 314.20778,670.72278 314.62066,670.81244 315.00588,670.81244 315.4088,670.81244 315.70601,670.72167 315.89751,670.54014 316.08901,670.3586 316.18476,670.07633 316.18476,669.69333 V 668.0595 C 316.18476,667.68535 316.29988,667.49828 316.53012,667.49828 316.55891,667.49828 316.60097,667.50271 316.65632,667.51156 L 316.70281,667.1496 C 316.55448,667.07875 316.39065,667.04333 316.21133,667.04333 315.90581,667.04333 315.71099,667.22376 315.62687,667.58462 Z M 315.53056,667.93995 V 668.87309 L 315.31139,668.87973 C 314.95274,668.87973 314.66273,668.81166 314.44134,668.67551 314.21995,668.53935 314.10926,668.36058 314.10926,668.1392 314.10926,667.98201 314.16461,667.84918 314.2753,667.7407 314.38599,667.63222 314.52104,667.57798 314.68044,667.57798 314.95274,667.57798 315.23612,667.69863 315.53056,667.93995 Z M 317.74775,665.92754 317.82413,666.4954 C 318.2027,666.31607 318.57574,666.22641 318.94324,666.22641 319.68046,666.22641 320.04907,666.61716 320.04907,667.39866 V 667.96651 C 319.80776,667.46175 319.41148,667.20937 318.86022,667.20937 318.42852,667.20937 318.08537,667.36655 317.83077,667.68092 317.57618,667.99529 317.44888,668.41925 317.44888,668.95279 317.44888,669.50183 317.59389,669.94903 317.88391,670.2944 318.17392,670.63976 318.54917,670.81244 319.00966,670.81244 319.41258,670.81244 319.75905,670.64862 320.04907,670.32096 V 670.73274 H 320.70659 V 668.10931 C 320.70659,667.54477 320.67726,667.1269 320.61859,666.8557 320.55992,666.58451 320.44978,666.36257 320.28817,666.18988 320.00258,665.88658 319.5587,665.73493 318.95653,665.73493 318.53589,665.73493 318.13297,665.79914 317.74775,665.92754 Z M 320.04907,668.37497 V 669.87266 C 319.76127,670.17153 319.44801,670.32096 319.10928,670.32096 318.8082,670.32096 318.57242,670.20031 318.40195,669.959 318.23148,669.71768 318.14625,669.38671 318.14625,668.96608 318.14625,668.17572 318.42409,667.78055 318.97977,667.78055 319.35834,667.78055 319.71478,667.97869 320.04907,668.37497 Z M 324.34509,667.24258 C 323.90674,667.10975 323.53149,667.04333 323.21933,667.04333 322.688,667.04333 322.25464,667.21989 321.91924,667.573 321.58384,667.92611 321.41614,668.38383 321.41614,668.94615 321.41614,669.49298 321.56391,669.94128 321.85946,670.29108 322.15501,670.64087 322.53303,670.81576 322.99352,670.81576 323.42965,670.81576 323.76671,670.66079 324.0047,670.35085 324.24269,670.04091 324.36169,669.60035 324.36169,669.02917 L 324.35837,668.8266 H 322.08362 C 322.17881,667.96983 322.59834,667.54145 323.3422,667.54145 323.61451,667.54145 323.9488,667.61451 324.34509,667.76062 Z M 322.1135,669.31808 H 323.70417 C 323.70417,669.98888 323.454,670.32428 322.95367,670.32428 322.45112,670.32428 322.17107,669.98888 322.1135,669.31808 Z M 325.70551,667.16288 V 667.77391 C 326.17485,667.58794 326.54456,667.49496 326.81466,667.49496 327.12681,667.49496 327.38085,667.58628 327.57678,667.76893 327.77271,667.95157 327.87067,668.1879 327.87067,668.47792 327.87067,669.16864 327.38694,669.51401 326.41948,669.51401 H 326.16046 V 669.95568 L 326.38959,669.959 C 327.29728,669.959 327.75112,670.2789 327.75112,670.91871 327.75112,671.42126 327.45225,671.67253 326.85451,671.67253 326.52685,671.67253 326.16599,671.58066 325.77192,671.3969 V 671.96808 C 326.15935,672.0987 326.53571,672.16401 326.901,672.16401 327.90609,672.16401 328.40864,671.78433 328.40864,671.02497 328.40864,670.44715 328.0666,670.03537 327.38251,669.78963 328.17508,669.60588 328.57136,669.17197 328.57136,668.48788 328.57136,668.02518 328.41861,667.66211 328.11309,667.39866 327.80758,667.13521 327.38805,667.00348 326.85451,667.00348 326.55121,667.00348 326.16821,667.05661 325.70551,667.16288 Z"
             style="fill:#000000;fill-opacity:1;fill-rule:nonzero;stroke:none;stroke-width:0.566751"
             id="path105" /><path
             d="M 291.09719,658.62509 V 662.23148 H 291.75139 V 661.55404 C 292.09675,662.0588 292.5196,662.31118 293.01993,662.31118 293.33209,662.31118 293.58115,662.21211 293.76712,662.01397 293.95308,661.81583 294.04606,661.54961 294.04606,661.21532 V 658.62509 H 293.39186 V 661.00279 C 293.39186,661.27066 293.35257,661.46161 293.27398,661.57562 293.19538,661.68964 293.06532,661.74665 292.88378,661.74665 292.48307,661.74665 292.10561,661.4843 291.75139,660.95962 V 658.62509 Z M 296.92409,659.08336 C 296.53224,658.7225 296.15477,658.54207 295.7917,658.54207 295.49283,658.54207 295.24487,658.63561 295.04784,658.82268 294.8508,659.00975 294.75229,659.24608 294.75229,659.53167 294.75229,659.92574 294.91777,660.22848 295.24875,660.43991 295.57972,660.65133 296.05404,660.75705 296.67171,660.75705 H 296.82779 V 661.19207 C 296.82779,661.61049 296.61304,661.8197 296.18355,661.8197 295.83819,661.8197 295.46515,661.71344 295.06444,661.50091 V 662.0422 C 295.505,662.22152 295.91789,662.31118 296.3031,662.31118 296.70603,662.31118 297.00324,662.22041 297.19474,662.03888 297.38624,661.85734 297.48199,661.57507 297.48199,661.19207 V 659.55824 C 297.48199,659.18409 297.59711,658.99702 297.82735,658.99702 297.85613,658.99702 297.8982,659.00145 297.95354,659.0103 L 298.00003,658.64834 C 297.8517,658.57749 297.68788,658.54207 297.50855,658.54207 297.20304,658.54207 297.00822,658.7225 296.92409,659.08336 Z M 296.82779,659.43869 V 660.37183 L 296.60862,660.37847 C 296.24997,660.37847 295.95995,660.3104 295.73857,660.17425 295.51718,660.03809 295.40649,659.85932 295.40649,659.63794 295.40649,659.48075 295.46183,659.34792 295.57253,659.23944 295.68322,659.13096 295.81827,659.07672 295.97766,659.07672 296.24997,659.07672 296.53335,659.19737 296.82779,659.43869 Z M 299.0317,658.62509 V 662.23148 H 299.6859 V 661.55404 C 300.00469,662.0588 300.41426,662.31118 300.91459,662.31118 301.39722,662.31118 301.72598,662.0588 301.90087,661.55404 302.21081,662.06102 302.61374,662.3145 303.10965,662.3145 303.42844,662.3145 303.67529,662.22097 303.85019,662.0339 304.02508,661.84682 304.11253,661.58503 304.11253,661.24853 V 658.62509 H 303.45501 V 661.14558 C 303.45501,661.55736 303.29229,661.76325 302.96685,661.76325 302.62813,661.76325 302.2728,661.52305 301.90087,661.04264 V 658.62509 H 301.24335 V 661.14558 C 301.24335,661.55957 301.07731,661.76657 300.74523,661.76657 300.41537,661.76657 300.06225,661.52526 299.6859,661.04264 V 658.62509 Z M 307.90931,658.74132 C 307.47097,658.60849 307.09572,658.54207 306.78356,658.54207 306.25223,658.54207 305.81887,658.71863 305.48347,659.07174 305.14807,659.42485 304.98037,659.88257 304.98037,660.44489 304.98037,660.99172 305.12814,661.44002 305.42369,661.78982 305.71924,662.13961 306.09726,662.3145 306.55775,662.3145 306.99388,662.3145 307.33094,662.15953 307.56893,661.84959 307.80692,661.53965 307.92592,661.09909 307.92592,660.52791 L 307.9226,660.32534 H 305.64785 C 305.74304,659.46857 306.16257,659.04019 306.90643,659.04019 307.17874,659.04019 307.51303,659.11325 307.90931,659.25936 Z M 305.67773,660.81682 H 307.2684 C 307.2684,661.48762 307.01823,661.82302 306.5179,661.82302 306.01535,661.82302 305.73529,661.48762 305.67773,660.81682 Z M 309.32619,658.62509 V 659.27929 H 309.98039 V 658.62509 Z M 309.32619,661.57396 V 662.23148 H 309.98039 V 661.57396 Z M 313.74729,658.62509 V 663.53988 H 314.43137 L 316.90537,659.7442 V 663.53988 H 317.50312 V 658.62509 H 316.82235 L 314.34503,662.42077 V 658.62509 Z M 320.72762,659.08336 C 320.33577,658.7225 319.9583,658.54207 319.59523,658.54207 319.29635,658.54207 319.0484,658.63561 318.85137,658.82268 318.65433,659.00975 318.55581,659.24608 318.55581,659.53167 318.55581,659.92574 318.7213,660.22848 319.05227,660.43991 319.38325,660.65133 319.85757,660.75705 320.47524,660.75705 H 320.63132 V 661.19207 C 320.63132,661.61049 320.41657,661.8197 319.98708,661.8197 319.64172,661.8197 319.26868,661.71344 318.86797,661.50091 V 662.0422 C 319.30853,662.22152 319.72142,662.31118 320.10663,662.31118 320.50955,662.31118 320.80677,662.22041 320.99827,662.03888 321.18977,661.85734 321.28552,661.57507 321.28552,661.19207 V 659.55824 C 321.28552,659.18409 321.40064,658.99702 321.63088,658.99702 321.65966,658.99702 321.70172,659.00145 321.75707,659.0103 L 321.80356,658.64834 C 321.65523,658.57749 321.49141,658.54207 321.31208,658.54207 321.00657,658.54207 320.81175,658.7225 320.72762,659.08336 Z M 320.63132,659.43869 V 660.37183 L 320.41214,660.37847 C 320.0535,660.37847 319.76348,660.3104 319.54209,660.17425 319.32071,660.03809 319.21001,659.85932 319.21001,659.63794 319.21001,659.48075 319.26536,659.34792 319.37605,659.23944 319.48675,659.13096 319.62179,659.07672 319.78119,659.07672 320.0535,659.07672 320.33687,659.19737 320.63132,659.43869 Z M 322.83522,658.62509 V 662.23148 H 323.48942 V 661.55404 C 323.80822,662.0588 324.21779,662.31118 324.71812,662.31118 325.20074,662.31118 325.5295,662.0588 325.7044,661.55404 326.01434,662.06102 326.41727,662.3145 326.91317,662.3145 327.23197,662.3145 327.47882,662.22097 327.65371,662.0339 327.82861,661.84682 327.91606,661.58503 327.91606,661.24853 V 658.62509 H 327.25854 V 661.14558 C 327.25854,661.55736 327.09582,661.76325 326.77038,661.76325 326.43166,661.76325 326.07633,661.52305 325.7044,661.04264 V 658.62509 H 325.04688 V 661.14558 C 325.04688,661.55957 324.88084,661.76657 324.54876,661.76657 324.21889,661.76657 323.86578,661.52526 323.48942,661.04264 V 658.62509 Z M 331.71284,658.74132 C 331.2745,658.60849 330.89925,658.54207 330.58709,658.54207 330.05576,658.54207 329.6224,658.71863 329.28699,659.07174 328.95159,659.42485 328.78389,659.88257 328.78389,660.44489 328.78389,660.99172 328.93167,661.44002 329.22722,661.78982 329.52277,662.13961 329.90079,662.3145 330.36127,662.3145 330.79741,662.3145 331.13447,662.15953 331.37246,661.84959 331.61045,661.53965 331.72945,661.09909 331.72945,660.52791 L 331.72613,660.32534 H 329.45137 C 329.54657,659.46857 329.9661,659.04019 330.70996,659.04019 330.98227,659.04019 331.31656,659.11325 331.71284,659.25936 Z M 329.48126,660.81682 H 331.07193 C 331.07193,661.48762 330.82176,661.82302 330.32143,661.82302 329.81888,661.82302 329.53882,661.48762 329.48126,660.81682 Z M 334.51449,658.50222 C 334.00752,658.50222 333.5974,658.74076 333.28414,659.21785 332.97087,659.69494 332.81424,660.31759 332.81424,661.08581 332.81424,661.86066 332.97198,662.48386 333.28746,662.95542 333.60293,663.42697 334.01859,663.66275 334.53442,663.66275 335.05025,663.66275 335.4659,663.42697 335.78138,662.95542 336.09686,662.48386 336.2546,661.86398 336.2546,661.09577 336.2546,660.30763 336.09686,659.67834 335.78138,659.20789 335.4659,658.73744 335.04361,658.50222 334.51449,658.50222 Z M 334.52114,658.9937 C 335.21408,658.9937 335.56055,659.69771 335.56055,661.10573 335.56055,662.48276 335.21851,663.17127 334.53442,663.17127 333.85255,663.17127 333.51161,662.47612 333.51161,661.08581 333.51161,659.69107 333.84812,658.9937 334.52114,658.9937 Z"
             style="fill:#000000;fill-opacity:1;fill-rule:nonzero;stroke:none;stroke-width:0.566751"
             id="path109" /><path
             d="M 286.74361,650.12383 285.402,653.73022 H 286.0562 L 287.10558,650.92414 288.21141,653.73022 H 288.82243 L 287.39781,650.12383 Z M 292.04029,650.24006 C 291.60195,650.10723 291.2267,650.04081 290.91454,650.04081 290.38321,650.04081 289.94985,650.21737 289.61444,650.57048 289.27904,650.92359 289.11134,651.38131 289.11134,651.94363 289.11134,652.49046 289.25912,652.93876 289.55467,653.28856 289.85022,653.63835 290.22824,653.81324 290.68872,653.81324 291.12486,653.81324 291.46192,653.65827 291.69991,653.34833 291.9379,653.03839 292.0569,652.59783 292.0569,652.02665 L 292.05358,651.82408 H 289.77882 C 289.87402,650.96731 290.29355,650.53893 291.03741,650.53893 291.30972,650.53893 291.64401,650.61199 292.04029,650.7581 Z M 289.80871,652.31556 H 291.39938 C 291.39938,652.98636 291.14921,653.32176 290.64888,653.32176 290.14633,653.32176 289.86627,652.98636 289.80871,652.31556 Z M 293.36419,650.12383 V 653.73022 H 294.01839 V 653.05278 C 294.27741,653.55754 294.65377,653.80992 295.14746,653.80992 295.21387,653.80992 295.28361,653.80439 295.35667,653.79332 V 653.18229 C 295.24376,653.21993 295.14414,653.23874 295.0578,653.23874 294.6438,653.23874 294.29733,652.99301 294.01839,652.50153 V 650.12383 Z M 297.15433,650.04081 C 296.85546,650.04081 296.49238,650.11055 296.06511,650.25002 V 650.85109 C 296.49238,650.63855 296.86431,650.53229 297.1809,650.53229 297.36908,650.53229 297.52515,650.58321 297.64913,650.68505 297.77311,650.78688 297.8351,650.91418 297.8351,651.06694 297.8351,651.29054 297.66131,651.4754 297.31373,651.62151 L 296.93184,651.78423 C 296.3673,652.0189 296.08503,652.35652 296.08503,652.79708 296.08503,653.11145 296.19628,653.35885 296.41877,653.53928 296.64127,653.71971 296.94623,653.80992 297.33366,653.80992 297.53512,653.80992 297.78418,653.78225 298.08084,653.7269 L 298.21699,653.70034 V 653.15572 C 297.8517,653.2642 297.56168,653.31844 297.34694,653.31844 296.9263,653.31844 296.71599,653.16569 296.71599,652.86017 296.71599,652.66314 296.87538,652.4971 297.19418,652.36205 L 297.50966,652.22922 C 297.86609,652.07868 298.11847,651.91983 298.2668,651.75268 298.41513,651.58554 298.4893,651.37688 298.4893,651.12671 298.4893,650.81013 298.36421,650.55 298.11404,650.34632 297.86388,650.14265 297.54397,650.04081 297.15433,650.04081 Z M 299.59844,650.12383 V 653.73022 H 300.25264 V 650.12383 Z M 299.59844,654.38442 V 655.03862 H 300.25264 V 654.38442 Z M 302.71004,650.04081 C 302.19421,650.04081 301.78243,650.21183 301.4747,650.55387 301.16697,650.89592 301.01311,651.35363 301.01311,651.92703 301.01311,652.50706 301.16752,652.96589 301.47636,653.3035 301.78519,653.64112 302.20417,653.80992 302.73328,653.80992 303.2624,653.80992 303.68137,653.64112 303.99021,653.3035 304.29904,652.96589 304.45346,652.50927 304.45346,651.93367 304.45346,651.34478 304.29849,650.88208 303.98855,650.54557 303.67861,650.20906 303.25244,650.04081 302.71004,650.04081 Z M 302.72,650.53229 C 303.41294,650.53229 303.75941,650.99941 303.75941,651.93367 303.75941,652.85685 303.41737,653.31844 302.73328,653.31844 302.05141,653.31844 301.71048,652.85464 301.71048,651.92703 301.71048,650.9972 302.04698,650.53229 302.72,650.53229 Z M 305.26595,650.12383 V 653.73022 H 305.92015 V 653.05278 C 306.26551,653.55754 306.68836,653.80992 307.1887,653.80992 307.50085,653.80992 307.74991,653.71085 307.93588,653.51271 308.12184,653.31457 308.21482,653.04835 308.21482,652.71406 V 650.12383 H 307.56063 V 652.50153 C 307.56063,652.7694 307.52133,652.96035 307.44274,653.07436 307.36415,653.18838 307.23408,653.24539 307.05254,653.24539 306.65183,653.24539 306.27437,652.98304 305.92015,652.45836 V 650.12383 Z M 309.32619,650.12383 V 650.77803 H 309.98039 V 650.12383 Z M 309.32619,653.0727 V 653.73022 H 309.98039 V 653.0727 Z M 315.08889,650.12383 313.23256,655.03862 H 313.92993 L 315.45086,651.01381 316.91865,655.03862 H 317.52968 L 315.74641,650.12383 Z M 320.94458,650.24006 C 320.50623,650.10723 320.13098,650.04081 319.81882,650.04081 319.28749,650.04081 318.85413,650.21737 318.51873,650.57048 318.18333,650.92359 318.01563,651.38131 318.01563,651.94363 318.01563,652.49046 318.1634,652.93876 318.45895,653.28856 318.75451,653.63835 319.13252,653.81324 319.59301,653.81324 320.02914,653.81324 320.3662,653.65827 320.60419,653.34833 320.84218,653.03839 320.96118,652.59783 320.96118,652.02665 L 320.95786,651.82408 H 318.68311 C 318.7783,650.96731 319.19783,650.53893 319.94169,650.53893 320.214,650.53893 320.54829,650.61199 320.94458,650.7581 Z M 318.713,652.31556 H 320.30366 C 320.30366,652.98636 320.05349,653.32176 319.55316,653.32176 319.05061,653.32176 318.77056,652.98636 318.713,652.31556 Z M 322.26847,650.12383 V 653.73022 H 322.92267 V 653.05278 C 323.18169,653.55754 323.55805,653.80992 324.05174,653.80992 324.11816,653.80992 324.18789,653.80439 324.26095,653.79332 V 653.18229 C 324.14805,653.21993 324.04842,653.23874 323.96208,653.23874 323.54809,653.23874 323.20162,652.99301 322.92267,652.50153 V 650.12383 Z M 326.05861,650.04081 C 325.75974,650.04081 325.39667,650.11055 324.96939,650.25002 V 650.85109 C 325.39667,650.63855 325.7686,650.53229 326.08518,650.53229 326.27336,650.53229 326.42944,650.58321 326.55341,650.68505 326.67739,650.78688 326.73938,650.91418 326.73938,651.06694 326.73938,651.29054 326.56559,651.4754 326.21801,651.62151 L 325.83612,651.78423 C 325.27158,652.0189 324.98932,652.35652 324.98932,652.79708 324.98932,653.11145 325.10056,653.35885 325.32306,653.53928 325.54555,653.71971 325.85051,653.80992 326.23794,653.80992 326.4394,653.80992 326.68846,653.78225 326.98512,653.7269 L 327.12127,653.70034 V 653.15572 C 326.75598,653.2642 326.46597,653.31844 326.25122,653.31844 325.83059,653.31844 325.62027,653.16569 325.62027,652.86017 325.62027,652.66314 325.77967,652.4971 326.09846,652.36205 L 326.41394,652.22922 C 326.77037,652.07868 327.02275,651.91983 327.17108,651.75268 327.31941,651.58554 327.39358,651.37688 327.39358,651.12671 327.39358,650.81013 327.26849,650.55 327.01833,650.34632 326.76816,650.14265 326.44826,650.04081 326.05861,650.04081 Z M 328.50273,650.12383 V 653.73022 H 329.15693 V 650.12383 Z M 328.50273,654.38442 V 655.03862 H 329.15693 V 654.38442 Z M 331.61432,650.04081 C 331.09849,650.04081 330.68671,650.21183 330.37898,650.55387 330.07125,650.89592 329.91739,651.35363 329.91739,651.92703 329.91739,652.50706 330.07181,652.96589 330.38064,653.3035 330.68948,653.64112 331.10845,653.80992 331.63757,653.80992 332.16668,653.80992 332.58566,653.64112 332.89449,653.3035 333.20333,652.96589 333.35774,652.50927 333.35774,651.93367 333.35774,651.34478 333.20277,650.88208 332.89283,650.54557 332.58289,650.20906 332.15672,650.04081 331.61432,650.04081 Z M 331.62428,650.53229 C 332.31722,650.53229 332.66369,650.99941 332.66369,651.93367 332.66369,652.85685 332.32165,653.31844 331.63757,653.31844 330.95569,653.31844 330.61476,652.85464 330.61476,651.92703 330.61476,650.9972 330.95127,650.53229 331.62428,650.53229 Z M 334.17023,650.12383 V 653.73022 H 334.82443 V 653.05278 C 335.1698,653.55754 335.59264,653.80992 336.09298,653.80992 336.40514,653.80992 336.6542,653.71085 336.84016,653.51271 337.02613,653.31457 337.11911,653.04835 337.11911,652.71406 V 650.12383 H 336.46491 V 652.50153 C 336.46491,652.7694 336.42561,652.96035 336.34702,653.07436 336.26843,653.18838 336.13836,653.24539 335.95683,653.24539 335.55612,653.24539 335.17865,652.98304 334.82443,652.45836 V 650.12383 Z M 338.5061,650.12383 V 650.61531 H 339.48906 V 654.49401 L 338.5061,654.24827 V 654.75303 L 340.14657,655.16149 V 650.61531 H 341.12953 V 650.12383 Z"
             style="fill:#000000;fill-opacity:1;fill-rule:nonzero;stroke:none;stroke-width:0.566751"
             id="path113" /></g></svg>
